<?xml version="1.0" encoding="UTF-8"?>
<svg width="106px" height="106px" viewBox="0 0 106 106" version="1.1" xmlns="http://www.w3.org/2000/svg" xmlns:xlink="http://www.w3.org/1999/xlink">
    <!-- Generator: Sketch 42 (36781) - http://www.bohemiancoding.com/sketch -->
    <title>3d-icon</title>
    <desc>Created with Sketch.</desc>
    <defs></defs>
    <g id="Welcome" stroke="none" stroke-width="1" fill="none" fill-rule="evenodd">
        <g id="services" transform="translate(-757.000000, -1676.000000)" fill="#14C180">
            <g id="3d-icon" transform="translate(757.000000, 1676.000000)">
                <path d="M97.4516129,90.6129032 L8.5483871,90.6129032 C5.71545161,90.6129032 3.41935484,88.3168065 3.41935484,85.483871 L3.41935484,82.0645161 L102.580645,82.0645161 L102.580645,85.483871 C102.580645,88.3168065 100.284548,90.6129032 97.4516129,90.6129032 L97.4516129,90.6129032 Z M32.483871,102.580645 L73.516129,102.580645 L73.516129,94.0322581 L32.483871,94.0322581 L32.483871,102.580645 Z M8.5483871,29.0645161 L20.516129,29.0645161 L20.516129,49.8234194 C17.0728387,50.7175806 14.6604839,54.2019032 15.5854194,58.088 C16.1496129,60.4593226 18.0405161,62.4032258 20.399871,63.0187097 C23.5542258,63.8444839 26.4709355,62.4510968 27.9822903,60.0780645 L56.4586774,67.9887419 C56.4518387,68.1238065 56.4193548,68.2503226 56.4193548,68.3870968 C56.4193548,72.5877742 60.2233871,75.9130968 64.5676774,75.1044194 C66.8979677,74.6701613 68.8572581,72.9416774 69.6727742,70.7139677 C70.4045161,68.7153548 70.124129,66.8689032 69.3376774,65.3199355 L78.8178387,59.3941935 C80.4386129,61.109 82.9142258,62.004871 85.5727742,61.3141613 C87.9543548,60.6986774 89.8657742,58.7376774 90.423129,56.3407097 C91.324129,52.47 88.9169032,49.0061935 85.483871,48.1137419 L85.483871,29.0645161 L97.4516129,29.0645161 C100.284548,29.0645161 102.580645,31.3606129 102.580645,34.1935484 L102.580645,78.6451613 L3.41935484,78.6451613 L3.41935484,34.1935484 C3.41935484,31.3606129 5.71545161,29.0645161 8.5483871,29.0645161 L8.5483871,29.0645161 Z M22.4070323,17.0967742 C24.2928065,17.0967742 25.8263871,18.6303548 25.8263871,20.516129 C25.8263871,22.4019032 24.2928065,23.9354839 22.4070323,23.9354839 C20.5212581,23.9354839 18.9876774,22.4019032 18.9876774,20.516129 C18.9876774,18.6303548 20.5212581,17.0967742 22.4070323,17.0967742 L22.4070323,17.0967742 Z M41.0322581,13.4346452 L41.0322581,24.2500645 L29.0234839,20.9144839 C29.0320323,20.7794194 29.0645161,20.6529032 29.0645161,20.516129 C29.0645161,19.4082581 28.7755806,18.3756129 28.3054194,17.4489677 L37.7855806,11.5232258 C38.6540968,12.4430323 39.7722258,13.1063871 41.0322581,13.4346452 L41.0322581,13.4346452 Z M42.9231613,3.41935484 C44.8089355,3.41935484 46.3425161,4.95293548 46.3425161,6.83870968 C46.3425161,8.72448387 44.8089355,10.2580645 42.9231613,10.2580645 C41.0373871,10.2580645 39.5038065,8.72448387 39.5038065,6.83870968 C39.5038065,4.95293548 41.0373871,3.41935484 42.9231613,3.41935484 L42.9231613,3.41935484 Z M76.9765161,18.4080968 C76.9679677,18.5431613 76.9354839,18.6696774 76.9354839,18.8064516 C76.9354839,19.3911613 77.0312258,19.9485161 77.1697097,20.4904839 L67.0638065,26.8060323 C65.9764516,26.0742903 64.6668387,25.6451613 63.2580645,25.6451613 C60.8354516,25.6451613 58.7154516,26.918871 57.5015806,28.8251613 L44.4516129,25.2006452 L44.4516129,13.4346452 C46.1441935,12.9952581 47.5820323,11.9369677 48.4984194,10.4974194 L76.9765161,18.4080968 Z M83.9554194,15.3870968 C85.8411935,15.3870968 87.3747742,16.9206774 87.3747742,18.8064516 C87.3747742,20.6922258 85.8411935,22.2258065 83.9554194,22.2258065 C82.0696452,22.2258065 80.5360645,20.6922258 80.5360645,18.8064516 C80.5360645,16.9206774 82.0696452,15.3870968 83.9554194,15.3870968 L83.9554194,15.3870968 Z M80.5360645,54.7096774 C80.5360645,52.8239032 82.0696452,51.2903226 83.9554194,51.2903226 C85.8411935,51.2903226 87.3747742,52.8239032 87.3747742,54.7096774 C87.3747742,56.5954516 85.8411935,58.1290323 83.9554194,58.1290323 C82.0696452,58.1290323 80.5360645,56.5954516 80.5360645,54.7096774 L80.5360645,54.7096774 Z M67.0655161,62.7109677 C66.4363548,62.2869677 65.7217097,61.9877742 64.9677419,61.792871 L64.9677419,50.9774516 L76.9765161,54.3130323 C76.9679677,54.4463871 76.9354839,54.5729032 76.9354839,54.7096774 C76.9354839,55.2943871 77.0312258,55.8517419 77.1697097,56.3937097 L67.0655161,62.7109677 Z M63.4392903,64.9677419 C65.3250645,64.9677419 66.8586452,66.5013226 66.8586452,68.3870968 C66.8586452,70.272871 65.3250645,71.8064516 63.4392903,71.8064516 C61.5535161,71.8064516 60.0199355,70.272871 60.0199355,68.3870968 C60.0199355,66.5013226 61.5535161,64.9677419 63.4392903,64.9677419 L63.4392903,64.9677419 Z M22.4070323,53 C24.2928065,53 25.8263871,54.5335806 25.8263871,56.4193548 C25.8263871,58.305129 24.2928065,59.8387097 22.4070323,59.8387097 C20.5212581,59.8387097 18.9876774,58.305129 18.9876774,56.4193548 C18.9876774,54.5335806 20.5212581,53 22.4070323,53 L22.4070323,53 Z M39.5038065,42.7419355 C39.5038065,40.8561613 41.0373871,39.3225806 42.9231613,39.3225806 C44.8089355,39.3225806 46.3425161,40.8561613 46.3425161,42.7419355 C46.3425161,44.6277097 44.8089355,46.1612903 42.9231613,46.1612903 C41.0373871,46.1612903 39.5038065,44.6277097 39.5038065,42.7419355 L39.5038065,42.7419355 Z M66.8586452,32.483871 C66.8586452,34.3696452 65.3250645,35.9032258 63.4392903,35.9032258 C61.5535161,35.9032258 60.0199355,34.3696452 60.0199355,32.483871 C60.0199355,30.5980968 61.5535161,29.0645161 63.4392903,29.0645161 C65.3250645,29.0645161 66.8586452,30.5980968 66.8586452,32.483871 L66.8586452,32.483871 Z M82.0645161,25.4023871 L82.0645161,48.1137419 C80.3719355,48.553129 78.9340968,49.6114194 78.0177097,51.0509677 L64.9677419,47.4264516 L64.9677419,39.0798065 C67.9083871,38.3155806 70.0967742,35.6621613 70.0967742,32.483871 C70.0967742,31.376 69.8078387,30.3433548 69.3376774,29.4167097 L78.8178387,23.4909677 C79.6863548,24.4107742 80.8044839,25.074129 82.0645161,25.4023871 L82.0645161,25.4023871 Z M61.5483871,39.0798065 L61.5483871,46.475871 L49.5396129,43.1402903 C49.5481613,43.0052258 49.5806452,42.8787097 49.5806452,42.7419355 C49.5806452,39.5636452 47.3922581,36.9102258 44.4516129,36.146 L44.4516129,28.7499355 L56.4603871,32.0855161 C56.4518387,32.2205806 56.4193548,32.3470968 56.4193548,32.483871 C56.4193548,35.6621613 58.6077419,38.3155806 61.5483871,39.0798065 L61.5483871,39.0798065 Z M27.984,24.1765484 L41.0322581,27.8010645 L41.0322581,36.146 C38.0916129,36.9102258 35.9032258,39.5636452 35.9032258,42.7419355 C35.9032258,43.3266452 36.0006774,43.884 36.1391613,44.4242581 L26.0332581,50.7415161 C25.4040968,50.3175161 24.6894516,50.0166129 23.9354839,49.8234194 L23.9354839,27.1120645 C25.6297742,26.6743871 27.0676129,25.6143871 27.984,24.1765484 L27.984,24.1765484 Z M57.5015806,64.7283871 L29.0251935,56.8177097 C29.0320323,56.6826452 29.0645161,56.556129 29.0645161,56.4193548 C29.0645161,55.3114839 28.7755806,54.2788387 28.3054194,53.3521935 L37.7855806,47.4264516 C39.0336452,48.7463226 40.7877742,49.5806452 42.7419355,49.5806452 C45.1645484,49.5806452 47.2845484,48.3069355 48.4984194,46.4006452 L61.5483871,50.0251613 L61.5483871,61.7911613 C59.8558065,62.2305484 58.4179677,63.2888387 57.5015806,64.7283871 L57.5015806,64.7283871 Z M97.4516129,25.6451613 L85.483871,25.6451613 L85.483871,25.4023871 C88.9271613,24.5082258 91.3395161,21.0239032 90.4145806,17.1378065 C89.8503871,14.7647742 87.9594839,12.8225806 85.600129,12.2070968 C82.4457742,11.3813226 79.5290645,12.7747097 78.0177097,15.1477419 L49.5396129,7.23706452 C49.5481613,7.102 49.5806452,6.97548387 49.5806452,6.83870968 C49.5806452,2.84832258 46.1476129,-0.353903226 42.0785806,0.032483871 C40.7450323,0.157290323 39.4935484,0.805258065 38.536129,1.74387097 C35.6912258,4.53577419 35.6536129,6.62329032 36.1374516,8.52274194 L26.0332581,14.84 C24.480871,13.7953871 22.4822581,13.3679677 20.3896129,13.9184839 C18.0524839,14.5322581 16.1838065,16.4505161 15.6008065,18.7961935 C14.9220645,21.5385161 15.9222258,24.0483226 17.749871,25.6451613 L8.5483871,25.6451613 C3.82625806,25.6451613 0,29.4714194 0,34.1935484 L0,85.483871 C0,90.206 3.82625806,94.0322581 8.5483871,94.0322581 L29.0645161,94.0322581 L29.0645161,102.580645 L22.2258065,102.580645 L22.2258065,106 L83.7741935,106 L83.7741935,102.580645 L76.9354839,102.580645 L76.9354839,94.0322581 L97.4516129,94.0322581 C102.173742,94.0322581 106,90.206 106,85.483871 L106,34.1935484 C106,29.4714194 102.173742,25.6451613 97.4516129,25.6451613 L97.4516129,25.6451613 Z" id="Fill-1"></path>
                <polygon id="Fill-3" points="10.2580645 35.9032258 15.3870968 35.9032258 15.3870968 32.483871 6.83870968 32.483871 6.83870968 41.0322581 10.2580645 41.0322581"></polygon>
                <polygon id="Fill-5" points="99.1612903 66.6774194 95.7419355 66.6774194 95.7419355 71.8064516 90.6129032 71.8064516 90.6129032 75.2258065 99.1612903 75.2258065"></polygon>
                <polygon id="Fill-7" points="15.3870968 71.8064516 10.2580645 71.8064516 10.2580645 66.6774194 6.83870968 66.6774194 6.83870968 75.2258065 15.3870968 75.2258065"></polygon>
                <polygon id="Fill-9" points="95.7419355 41.0322581 99.1612903 41.0322581 99.1612903 32.483871 90.6129032 32.483871 90.6129032 35.9032258 95.7419355 35.9032258"></polygon>
            </g>
        </g>
    </g>
</svg>