<?xml version="1.0" encoding="UTF-8"?>
<svg width="32px" height="32px" viewBox="0 0 32 32" version="1.1" xmlns="http://www.w3.org/2000/svg" xmlns:xlink="http://www.w3.org/1999/xlink">
    <!-- Generator: Sketch 42 (36781) - http://www.bohemiancoding.com/sketch -->
    <title>3d-side-menu-icon</title>
    <desc>Created with Sketch.</desc>
    <defs></defs>
    <g id="Welcome" stroke="none" stroke-width="1" fill="none" fill-rule="evenodd">
        <g id="services/implantation" transform="translate(-170.000000, -864.000000)" fill="#14C180">
            <g id="3d-side-menu-icon" transform="translate(170.000000, 864.000000)">
                <path d="M29.4193548,27.3548387 L2.58064516,27.3548387 C1.72541935,27.3548387 1.03225806,26.6616774 1.03225806,25.8064516 L1.03225806,24.7741935 L30.9677419,24.7741935 L30.9677419,25.8064516 C30.9677419,26.6616774 30.2745806,27.3548387 29.4193548,27.3548387 L29.4193548,27.3548387 Z M9.80645161,30.9677419 L22.1935484,30.9677419 L22.1935484,28.3870968 L9.80645161,28.3870968 L9.80645161,30.9677419 Z M2.58064516,8.77419355 L6.19354839,8.77419355 L6.19354839,15.0410323 C5.15406452,15.3109677 4.42580645,16.3628387 4.70503226,17.536 C4.87535484,18.251871 5.44619355,18.8387097 6.15845161,19.0245161 C7.11070968,19.2738065 7.99122581,18.8531613 8.44748387,18.1367742 L17.044129,20.5249032 C17.0420645,20.5656774 17.0322581,20.603871 17.0322581,20.6451613 C17.0322581,21.9132903 18.1806452,22.9171613 19.492129,22.6730323 C20.1956129,22.5419355 20.7870968,22.020129 21.0332903,21.3476129 C21.2541935,20.7442581 21.1695484,20.1868387 20.932129,19.7192258 L23.7940645,17.9303226 C24.2833548,18.448 25.0307097,18.7184516 25.8332903,18.5099355 C26.5522581,18.324129 27.1292903,17.732129 27.2975484,17.0085161 C27.5695484,15.84 26.8428387,14.7943226 25.8064516,14.5249032 L25.8064516,8.77419355 L29.4193548,8.77419355 C30.2745806,8.77419355 30.9677419,9.46735484 30.9677419,10.3225806 L30.9677419,23.7419355 L1.03225806,23.7419355 L1.03225806,10.3225806 C1.03225806,9.46735484 1.72541935,8.77419355 2.58064516,8.77419355 L2.58064516,8.77419355 Z M6.7643871,5.16129032 C7.33367742,5.16129032 7.79664516,5.62425806 7.79664516,6.19354839 C7.79664516,6.76283871 7.33367742,7.22580645 6.7643871,7.22580645 C6.19509677,7.22580645 5.73212903,6.76283871 5.73212903,6.19354839 C5.73212903,5.62425806 6.19509677,5.16129032 6.7643871,5.16129032 L6.7643871,5.16129032 Z M12.3870968,4.05574194 L12.3870968,7.32077419 L8.76180645,6.31380645 C8.7643871,6.27303226 8.77419355,6.23483871 8.77419355,6.19354839 C8.77419355,5.85909677 8.68696774,5.54735484 8.54503226,5.2676129 L11.4069677,3.47870968 C11.6691613,3.7563871 12.0067097,3.95664516 12.3870968,4.05574194 L12.3870968,4.05574194 Z M12.9579355,1.03225806 C13.5272258,1.03225806 13.9901935,1.49522581 13.9901935,2.06451613 C13.9901935,2.63380645 13.5272258,3.09677419 12.9579355,3.09677419 C12.3886452,3.09677419 11.9256774,2.63380645 11.9256774,2.06451613 C11.9256774,1.49522581 12.3886452,1.03225806 12.9579355,1.03225806 L12.9579355,1.03225806 Z M23.2381935,5.55716129 C23.2356129,5.59793548 23.2258065,5.63612903 23.2258065,5.67741935 C23.2258065,5.85393548 23.2547097,6.02219355 23.2965161,6.18580645 L20.2456774,8.0923871 C19.9174194,7.87148387 19.5220645,7.74193548 19.0967742,7.74193548 C18.3654194,7.74193548 17.7254194,8.12645161 17.3589677,8.70193548 L13.4193548,7.60774194 L13.4193548,4.05574194 C13.9303226,3.92309677 14.3643871,3.6036129 14.6410323,3.16903226 L23.2381935,5.55716129 Z M25.3450323,4.64516129 C25.9143226,4.64516129 26.3772903,5.10812903 26.3772903,5.67741935 C26.3772903,6.24670968 25.9143226,6.70967742 25.3450323,6.70967742 C24.7757419,6.70967742 24.3127742,6.24670968 24.3127742,5.67741935 C24.3127742,5.10812903 24.7757419,4.64516129 25.3450323,4.64516129 L25.3450323,4.64516129 Z M24.3127742,16.516129 C24.3127742,15.9468387 24.7757419,15.483871 25.3450323,15.483871 C25.9143226,15.483871 26.3772903,15.9468387 26.3772903,16.516129 C26.3772903,17.0854194 25.9143226,17.5483871 25.3450323,17.5483871 C24.7757419,17.5483871 24.3127742,17.0854194 24.3127742,16.516129 L24.3127742,16.516129 Z M20.2461935,18.9316129 C20.0562581,18.8036129 19.8405161,18.7132903 19.6129032,18.6544516 L19.6129032,15.3894194 L23.2381935,16.3963871 C23.2356129,16.4366452 23.2258065,16.4748387 23.2258065,16.516129 C23.2258065,16.6926452 23.2547097,16.8609032 23.2965161,17.0245161 L20.2461935,18.9316129 Z M19.1514839,19.6129032 C19.7207742,19.6129032 20.1837419,20.075871 20.1837419,20.6451613 C20.1837419,21.2144516 19.7207742,21.6774194 19.1514839,21.6774194 C18.5821935,21.6774194 18.1192258,21.2144516 18.1192258,20.6451613 C18.1192258,20.075871 18.5821935,19.6129032 19.1514839,19.6129032 L19.1514839,19.6129032 Z M6.7643871,16 C7.33367742,16 7.79664516,16.4629677 7.79664516,17.0322581 C7.79664516,17.6015484 7.33367742,18.0645161 6.7643871,18.0645161 C6.19509677,18.0645161 5.73212903,17.6015484 5.73212903,17.0322581 C5.73212903,16.4629677 6.19509677,16 6.7643871,16 L6.7643871,16 Z M11.9256774,12.9032258 C11.9256774,12.3339355 12.3886452,11.8709677 12.9579355,11.8709677 C13.5272258,11.8709677 13.9901935,12.3339355 13.9901935,12.9032258 C13.9901935,13.4725161 13.5272258,13.9354839 12.9579355,13.9354839 C12.3886452,13.9354839 11.9256774,13.4725161 11.9256774,12.9032258 L11.9256774,12.9032258 Z M20.1837419,9.80645161 C20.1837419,10.3757419 19.7207742,10.8387097 19.1514839,10.8387097 C18.5821935,10.8387097 18.1192258,10.3757419 18.1192258,9.80645161 C18.1192258,9.23716129 18.5821935,8.77419355 19.1514839,8.77419355 C19.7207742,8.77419355 20.1837419,9.23716129 20.1837419,9.80645161 L20.1837419,9.80645161 Z M24.7741935,7.66864516 L24.7741935,14.5249032 C24.2632258,14.6575484 23.8291613,14.9770323 23.5525161,15.4116129 L19.6129032,14.3174194 L19.6129032,11.7976774 C20.5006452,11.5669677 21.1612903,10.7659355 21.1612903,9.80645161 C21.1612903,9.472 21.0740645,9.16025806 20.932129,8.88051613 L23.7940645,7.0916129 C24.0562581,7.36929032 24.3938065,7.56954839 24.7741935,7.66864516 L24.7741935,7.66864516 Z M18.5806452,11.7976774 L18.5806452,14.0304516 L14.9553548,13.0234839 C14.9579355,12.9827097 14.9677419,12.9445161 14.9677419,12.9032258 C14.9677419,11.9437419 14.3070968,11.1427097 13.4193548,10.912 L13.4193548,8.67922581 L17.0446452,9.68619355 C17.0420645,9.72696774 17.0322581,9.76516129 17.0322581,9.80645161 C17.0322581,10.7659355 17.6929032,11.5669677 18.5806452,11.7976774 L18.5806452,11.7976774 Z M8.448,7.29858065 L12.3870968,8.39277419 L12.3870968,10.912 C11.4993548,11.1427097 10.8387097,11.9437419 10.8387097,12.9032258 C10.8387097,13.0797419 10.868129,13.248 10.9099355,13.4110968 L7.85909677,15.3181935 C7.66916129,15.1901935 7.45341935,15.0993548 7.22580645,15.0410323 L7.22580645,8.18477419 C7.73729032,8.05264516 8.17135484,7.73264516 8.448,7.29858065 L8.448,7.29858065 Z M17.3589677,19.5406452 L8.76232258,17.1525161 C8.7643871,17.1117419 8.77419355,17.0735484 8.77419355,17.0322581 C8.77419355,16.6978065 8.68696774,16.3860645 8.54503226,16.1063226 L11.4069677,14.3174194 C11.7837419,14.715871 12.3132903,14.9677419 12.9032258,14.9677419 C13.6345806,14.9677419 14.2745806,14.5832258 14.6410323,14.0077419 L18.5806452,15.1019355 L18.5806452,18.6539355 C18.0696774,18.7865806 17.6356129,19.1060645 17.3589677,19.5406452 L17.3589677,19.5406452 Z M29.4193548,7.74193548 L25.8064516,7.74193548 L25.8064516,7.66864516 C26.8459355,7.39870968 27.5741935,6.34683871 27.2949677,5.17367742 C27.1246452,4.45729032 26.5538065,3.87096774 25.8415484,3.68516129 C24.8892903,3.43587097 24.0087742,3.85651613 23.5525161,4.57290323 L14.9553548,2.18477419 C14.9579355,2.144 14.9677419,2.10580645 14.9677419,2.06451613 C14.9677419,0.859870968 13.9313548,-0.10683871 12.7029677,0.00980645161 C12.3003871,0.047483871 11.9225806,0.243096774 11.6335484,0.526451613 C10.7747097,1.36929032 10.7633548,1.99948387 10.9094194,2.57290323 L7.85909677,4.48 C7.39045161,4.16464516 6.78709677,4.0356129 6.15535484,4.20180645 C5.44980645,4.38709677 4.88567742,4.96619355 4.70967742,5.67432258 C4.50477419,6.50219355 4.80670968,7.25987097 5.35845161,7.74193548 L2.58064516,7.74193548 C1.15509677,7.74193548 0,8.89703226 0,10.3225806 L0,25.8064516 C0,27.232 1.15509677,28.3870968 2.58064516,28.3870968 L8.77419355,28.3870968 L8.77419355,30.9677419 L6.70967742,30.9677419 L6.70967742,32 L25.2903226,32 L25.2903226,30.9677419 L23.2258065,30.9677419 L23.2258065,28.3870968 L29.4193548,28.3870968 C30.8449032,28.3870968 32,27.232 32,25.8064516 L32,10.3225806 C32,8.89703226 30.8449032,7.74193548 29.4193548,7.74193548 L29.4193548,7.74193548 Z" id="Fill-1"></path>
                <polygon id="Fill-3" points="3.09677419 10.8387097 4.64516129 10.8387097 4.64516129 9.80645161 2.06451613 9.80645161 2.06451613 12.3870968 3.09677419 12.3870968"></polygon>
                <polygon id="Fill-5" points="29.9354839 20.1290323 28.9032258 20.1290323 28.9032258 21.6774194 27.3548387 21.6774194 27.3548387 22.7096774 29.9354839 22.7096774"></polygon>
                <polygon id="Fill-7" points="4.64516129 21.6774194 3.09677419 21.6774194 3.09677419 20.1290323 2.06451613 20.1290323 2.06451613 22.7096774 4.64516129 22.7096774"></polygon>
                <polygon id="Fill-9" points="28.9032258 12.3870968 29.9354839 12.3870968 29.9354839 9.80645161 27.3548387 9.80645161 27.3548387 10.8387097 28.9032258 10.8387097"></polygon>
            </g>
        </g>
    </g>
</svg>