<?xml version="1.0" encoding="UTF-8"?>
<svg width="54px" height="54px" viewBox="0 0 54 54" version="1.1" xmlns="http://www.w3.org/2000/svg" xmlns:xlink="http://www.w3.org/1999/xlink">
    <!-- Generator: Sketch 42 (36781) - http://www.bohemiancoding.com/sketch -->
    <title>3d-small-icon</title>
    <desc>Created with Sketch.</desc>
    <defs></defs>
    <g id="Welcome" stroke="none" stroke-width="1" fill="none" fill-rule="evenodd">
        <g id="home" transform="translate(-460.000000, -1412.000000)" fill="#14C180">
            <g id="3d-small-icon" transform="translate(460.000000, 1412.000000)">
                <path d="M49.6451613,46.1612903 L4.35483871,46.1612903 C2.91164516,46.1612903 1.74193548,44.9915806 1.74193548,43.5483871 L1.74193548,41.8064516 L52.2580645,41.8064516 L52.2580645,43.5483871 C52.2580645,44.9915806 51.0883548,46.1612903 49.6451613,46.1612903 L49.6451613,46.1612903 Z M16.5483871,52.2580645 L37.4516129,52.2580645 L37.4516129,47.9032258 L16.5483871,47.9032258 L16.5483871,52.2580645 Z M4.35483871,14.8064516 L10.4516129,14.8064516 L10.4516129,25.3817419 C8.69748387,25.8372581 7.46854839,27.6122903 7.93974194,29.592 C8.22716129,30.8000323 9.19045161,31.7903226 10.3923871,32.103871 C11.9993226,32.5245484 13.4851935,31.8147097 14.255129,30.6058065 L28.7619677,34.6357742 C28.7584839,34.7045806 28.7419355,34.7690323 28.7419355,34.8387097 C28.7419355,36.9786774 30.6798387,38.6727097 32.8929677,38.2607419 C34.0800968,38.0395161 35.0782258,37.1589677 35.4936774,36.0240968 C35.8664516,35.0059355 35.7236129,34.0652903 35.3229677,33.2761935 L40.1524839,30.2574194 C40.9781613,31.131 42.2393226,31.5873871 43.5936774,31.2355161 C44.8069355,30.9219677 45.7806774,29.9229677 46.0646129,28.701871 C46.5236129,26.73 45.2972903,24.9654194 43.5483871,24.5107742 L43.5483871,14.8064516 L49.6451613,14.8064516 C51.0883548,14.8064516 52.2580645,15.9761613 52.2580645,17.4193548 L52.2580645,40.0645161 L1.74193548,40.0645161 L1.74193548,17.4193548 C1.74193548,15.9761613 2.91164516,14.8064516 4.35483871,14.8064516 L4.35483871,14.8064516 Z M11.4149032,8.70967742 C12.3755806,8.70967742 13.1568387,9.49093548 13.1568387,10.4516129 C13.1568387,11.4122903 12.3755806,12.1935484 11.4149032,12.1935484 C10.4542258,12.1935484 9.67296774,11.4122903 9.67296774,10.4516129 C9.67296774,9.49093548 10.4542258,8.70967742 11.4149032,8.70967742 L11.4149032,8.70967742 Z M20.9032258,6.84406452 L20.9032258,12.3538065 L14.7855484,10.6545484 C14.7899032,10.5857419 14.8064516,10.5212903 14.8064516,10.4516129 C14.8064516,9.88722581 14.6592581,9.36116129 14.4197419,8.88909677 L19.2492581,5.87032258 C19.6917097,6.33890323 20.2613226,6.67683871 20.9032258,6.84406452 L20.9032258,6.84406452 Z M21.8665161,1.74193548 C22.8271935,1.74193548 23.6084516,2.52319355 23.6084516,3.48387097 C23.6084516,4.44454839 22.8271935,5.22580645 21.8665161,5.22580645 C20.9058387,5.22580645 20.1245806,4.44454839 20.1245806,3.48387097 C20.1245806,2.52319355 20.9058387,1.74193548 21.8665161,1.74193548 L21.8665161,1.74193548 Z M39.2144516,9.37770968 C39.2100968,9.44651613 39.1935484,9.51096774 39.1935484,9.58064516 C39.1935484,9.87851613 39.2423226,10.1624516 39.312871,10.4385484 L34.1645806,13.6559032 C33.6106452,13.283129 32.9434839,13.0645161 32.2258065,13.0645161 C30.9916452,13.0645161 29.9116452,13.7133871 29.2932581,14.6845161 L22.6451613,12.8380645 L22.6451613,6.84406452 C23.5074194,6.62022581 24.2399032,6.08109677 24.7067419,5.34774194 L39.2144516,9.37770968 Z M42.7697419,7.83870968 C43.7304194,7.83870968 44.5116774,8.61996774 44.5116774,9.58064516 C44.5116774,10.5413226 43.7304194,11.3225806 42.7697419,11.3225806 C41.8090645,11.3225806 41.0278065,10.5413226 41.0278065,9.58064516 C41.0278065,8.61996774 41.8090645,7.83870968 42.7697419,7.83870968 L42.7697419,7.83870968 Z M41.0278065,27.8709677 C41.0278065,26.9102903 41.8090645,26.1290323 42.7697419,26.1290323 C43.7304194,26.1290323 44.5116774,26.9102903 44.5116774,27.8709677 C44.5116774,28.8316452 43.7304194,29.6129032 42.7697419,29.6129032 C41.8090645,29.6129032 41.0278065,28.8316452 41.0278065,27.8709677 L41.0278065,27.8709677 Z M34.1654516,31.9470968 C33.8449355,31.7310968 33.480871,31.5786774 33.0967742,31.4793871 L33.0967742,25.9696452 L39.2144516,27.6689032 C39.2100968,27.7368387 39.1935484,27.8012903 39.1935484,27.8709677 C39.1935484,28.1688387 39.2423226,28.4527742 39.312871,28.728871 L34.1654516,31.9470968 Z M32.318129,33.0967742 C33.2788065,33.0967742 34.0600645,33.8780323 34.0600645,34.8387097 C34.0600645,35.7993871 33.2788065,36.5806452 32.318129,36.5806452 C31.3574516,36.5806452 30.5761935,35.7993871 30.5761935,34.8387097 C30.5761935,33.8780323 31.3574516,33.0967742 32.318129,33.0967742 L32.318129,33.0967742 Z M11.4149032,27 C12.3755806,27 13.1568387,27.7812581 13.1568387,28.7419355 C13.1568387,29.7026129 12.3755806,30.483871 11.4149032,30.483871 C10.4542258,30.483871 9.67296774,29.7026129 9.67296774,28.7419355 C9.67296774,27.7812581 10.4542258,27 11.4149032,27 L11.4149032,27 Z M20.1245806,21.7741935 C20.1245806,20.8135161 20.9058387,20.0322581 21.8665161,20.0322581 C22.8271935,20.0322581 23.6084516,20.8135161 23.6084516,21.7741935 C23.6084516,22.734871 22.8271935,23.516129 21.8665161,23.516129 C20.9058387,23.516129 20.1245806,22.734871 20.1245806,21.7741935 L20.1245806,21.7741935 Z M34.0600645,16.5483871 C34.0600645,17.5090645 33.2788065,18.2903226 32.318129,18.2903226 C31.3574516,18.2903226 30.5761935,17.5090645 30.5761935,16.5483871 C30.5761935,15.5877097 31.3574516,14.8064516 32.318129,14.8064516 C33.2788065,14.8064516 34.0600645,15.5877097 34.0600645,16.5483871 L34.0600645,16.5483871 Z M41.8064516,12.9408387 L41.8064516,24.5107742 C40.9441935,24.7346129 40.2117097,25.2737419 39.744871,26.0070968 L33.0967742,24.1606452 L33.0967742,19.9085806 C34.5948387,19.5192581 35.7096774,18.1675161 35.7096774,16.5483871 C35.7096774,15.984 35.5624839,15.4579355 35.3229677,14.985871 L40.1524839,11.9670968 C40.5949355,12.4356774 41.1645484,12.7736129 41.8064516,12.9408387 L41.8064516,12.9408387 Z M31.3548387,19.9085806 L31.3548387,23.6763871 L25.2371613,21.977129 C25.2415161,21.9083226 25.2580645,21.843871 25.2580645,21.7741935 C25.2580645,20.1550645 24.1432258,18.8033226 22.6451613,18.414 L22.6451613,14.6461935 L28.7628387,16.3454516 C28.7584839,16.4142581 28.7419355,16.4787097 28.7419355,16.5483871 C28.7419355,18.1675161 29.8567742,19.5192581 31.3548387,19.9085806 L31.3548387,19.9085806 Z M14.256,12.3163548 L20.9032258,14.1628065 L20.9032258,18.414 C19.4051613,18.8033226 18.2903226,20.1550645 18.2903226,21.7741935 C18.2903226,22.0720645 18.3399677,22.356 18.4105161,22.6312258 L13.2622258,25.8494516 C12.9417097,25.6334516 12.5776452,25.4801613 12.1935484,25.3817419 L12.1935484,13.8118065 C13.0566774,13.5888387 13.7891613,13.0488387 14.256,12.3163548 L14.256,12.3163548 Z M29.2932581,32.9748387 L14.7864194,28.944871 C14.7899032,28.8760645 14.8064516,28.8116129 14.8064516,28.7419355 C14.8064516,28.1775484 14.6592581,27.6514839 14.4197419,27.1794194 L19.2492581,24.1606452 C19.8850645,24.8330323 20.7786774,25.2580645 21.7741935,25.2580645 C23.0083548,25.2580645 24.0883548,24.6091935 24.7067419,23.6380645 L31.3548387,25.4845161 L31.3548387,31.4785161 C30.4925806,31.7023548 29.7600968,32.2414839 29.2932581,32.9748387 L29.2932581,32.9748387 Z M49.6451613,13.0645161 L43.5483871,13.0645161 L43.5483871,12.9408387 C45.3025161,12.4853226 46.5314516,10.7102903 46.0602581,8.73058065 C45.7728387,7.52167742 44.8095484,6.53225806 43.6076129,6.21870968 C42.0006774,5.79803226 40.5148065,6.50787097 39.744871,7.71677419 L25.2371613,3.68680645 C25.2415161,3.618 25.2580645,3.55354839 25.2580645,3.48387097 C25.2580645,1.45103226 23.5091613,-0.180290323 21.4362581,0.0165483871 C20.7569032,0.0801290323 20.1193548,0.410225806 19.6316129,0.888387097 C18.1823226,2.31067742 18.1631613,3.37412903 18.4096452,4.34177419 L13.2622258,7.56 C12.4713871,7.02783871 11.4532258,6.81009677 10.3871613,7.09054839 C9.19654839,7.40322581 8.24458065,8.38045161 7.94758065,9.57541935 C7.60180645,10.9724516 8.11132258,12.2510323 9.0423871,13.0645161 L4.35483871,13.0645161 C1.94922581,13.0645161 0,15.0137419 0,17.4193548 L0,43.5483871 C0,45.954 1.94922581,47.9032258 4.35483871,47.9032258 L14.8064516,47.9032258 L14.8064516,52.2580645 L11.3225806,52.2580645 L11.3225806,54 L42.6774194,54 L42.6774194,52.2580645 L39.1935484,52.2580645 L39.1935484,47.9032258 L49.6451613,47.9032258 C52.0507742,47.9032258 54,45.954 54,43.5483871 L54,17.4193548 C54,15.0137419 52.0507742,13.0645161 49.6451613,13.0645161 L49.6451613,13.0645161 Z" id="Fill-1"></path>
                <polygon id="Fill-3" points="5.22580645 18.2903226 7.83870968 18.2903226 7.83870968 16.5483871 3.48387097 16.5483871 3.48387097 20.9032258 5.22580645 20.9032258"></polygon>
                <polygon id="Fill-5" points="50.516129 33.9677419 48.7741935 33.9677419 48.7741935 36.5806452 46.1612903 36.5806452 46.1612903 38.3225806 50.516129 38.3225806"></polygon>
                <polygon id="Fill-7" points="7.83870968 36.5806452 5.22580645 36.5806452 5.22580645 33.9677419 3.48387097 33.9677419 3.48387097 38.3225806 7.83870968 38.3225806"></polygon>
                <polygon id="Fill-9" points="48.7741935 20.9032258 50.516129 20.9032258 50.516129 16.5483871 46.1612903 16.5483871 46.1612903 18.2903226 48.7741935 18.2903226"></polygon>
            </g>
        </g>
    </g>
</svg>