<?xml version="1.0" encoding="UTF-8"?>
<svg width="72px" height="72px" viewBox="0 0 72 72" version="1.1" xmlns="http://www.w3.org/2000/svg" xmlns:xlink="http://www.w3.org/1999/xlink">
    <!-- Generator: Sketch 42 (36781) - http://www.bohemiancoding.com/sketch -->
    <title>3d-white-icon</title>
    <desc>Created with Sketch.</desc>
    <defs></defs>
    <g id="Welcome" stroke="none" stroke-width="1" fill="none" fill-rule="evenodd">
        <g id="home" transform="translate(-1006.000000, -607.000000)" fill="#F2F2F2">
            <g id="3d-white-icon" transform="translate(1006.000000, 607.000000)">
                <path d="M66.1935484,61.5483871 L5.80645161,61.5483871 C3.88219355,61.5483871 2.32258065,59.9887742 2.32258065,58.0645161 L2.32258065,55.7419355 L69.6774194,55.7419355 L69.6774194,58.0645161 C69.6774194,59.9887742 68.1178065,61.5483871 66.1935484,61.5483871 L66.1935484,61.5483871 Z M22.0645161,69.6774194 L49.9354839,69.6774194 L49.9354839,63.8709677 L22.0645161,63.8709677 L22.0645161,69.6774194 Z M5.80645161,19.7419355 L13.9354839,19.7419355 L13.9354839,33.8423226 C11.5966452,34.4496774 9.95806452,36.8163871 10.5863226,39.456 C10.9695484,41.0667097 12.2539355,42.3870968 13.8565161,42.8051613 C15.9990968,43.3660645 17.9802581,42.4196129 19.0068387,40.8077419 L38.3492903,46.1810323 C38.3446452,46.2727742 38.3225806,46.3587097 38.3225806,46.4516129 C38.3225806,49.3049032 40.9064516,51.5636129 43.8572903,51.0143226 C45.440129,50.7193548 46.7709677,49.5452903 47.3249032,48.032129 C47.8219355,46.6745806 47.6314839,45.4203871 47.0972903,44.3682581 L53.5366452,40.3432258 C54.6375484,41.508 56.3190968,42.1165161 58.1249032,41.6473548 C59.7425806,41.2292903 61.0409032,39.8972903 61.4194839,38.2691613 C62.0314839,35.64 60.3963871,33.2872258 58.0645161,32.6810323 L58.0645161,19.7419355 L66.1935484,19.7419355 C68.1178065,19.7419355 69.6774194,21.3015484 69.6774194,23.2258065 L69.6774194,53.4193548 L2.32258065,53.4193548 L2.32258065,23.2258065 C2.32258065,21.3015484 3.88219355,19.7419355 5.80645161,19.7419355 L5.80645161,19.7419355 Z M15.219871,11.6129032 C16.5007742,11.6129032 17.5424516,12.6545806 17.5424516,13.9354839 C17.5424516,15.2163871 16.5007742,16.2580645 15.219871,16.2580645 C13.9389677,16.2580645 12.8972903,15.2163871 12.8972903,13.9354839 C12.8972903,12.6545806 13.9389677,11.6129032 15.219871,11.6129032 L15.219871,11.6129032 Z M27.8709677,9.12541935 L27.8709677,16.4717419 L19.7140645,14.2060645 C19.719871,14.1143226 19.7419355,14.0283871 19.7419355,13.9354839 C19.7419355,13.1829677 19.5456774,12.4815484 19.2263226,11.852129 L25.6656774,7.82709677 C26.2556129,8.45187097 27.0150968,8.90245161 27.8709677,9.12541935 L27.8709677,9.12541935 Z M29.1553548,2.32258065 C30.4362581,2.32258065 31.4779355,3.36425806 31.4779355,4.64516129 C31.4779355,5.92606452 30.4362581,6.96774194 29.1553548,6.96774194 C27.8744516,6.96774194 26.8327742,5.92606452 26.8327742,4.64516129 C26.8327742,3.36425806 27.8744516,2.32258065 29.1553548,2.32258065 L29.1553548,2.32258065 Z M52.2859355,12.5036129 C52.280129,12.5953548 52.2580645,12.6812903 52.2580645,12.7741935 C52.2580645,13.1713548 52.3230968,13.5499355 52.4171613,13.9180645 L45.5527742,18.207871 C44.8141935,17.7108387 43.9246452,17.4193548 42.9677419,17.4193548 C41.3221935,17.4193548 39.8821935,18.2845161 39.0576774,19.5793548 L30.1935484,17.1174194 L30.1935484,9.12541935 C31.3432258,8.82696774 32.319871,8.10812903 32.9423226,7.13032258 L52.2859355,12.5036129 Z M57.0263226,10.4516129 C58.3072258,10.4516129 59.3489032,11.4932903 59.3489032,12.7741935 C59.3489032,14.0550968 58.3072258,15.0967742 57.0263226,15.0967742 C55.7454194,15.0967742 54.7037419,14.0550968 54.7037419,12.7741935 C54.7037419,11.4932903 55.7454194,10.4516129 57.0263226,10.4516129 L57.0263226,10.4516129 Z M54.7037419,37.1612903 C54.7037419,35.8803871 55.7454194,34.8387097 57.0263226,34.8387097 C58.3072258,34.8387097 59.3489032,35.8803871 59.3489032,37.1612903 C59.3489032,38.4421935 58.3072258,39.483871 57.0263226,39.483871 C55.7454194,39.483871 54.7037419,38.4421935 54.7037419,37.1612903 L54.7037419,37.1612903 Z M45.5539355,42.596129 C45.1265806,42.308129 44.6411613,42.1049032 44.1290323,41.9725161 L44.1290323,34.6261935 L52.2859355,36.891871 C52.280129,36.9824516 52.2580645,37.0683871 52.2580645,37.1612903 C52.2580645,37.5584516 52.3230968,37.9370323 52.4171613,38.3051613 L45.5539355,42.596129 Z M43.0908387,44.1290323 C44.3717419,44.1290323 45.4134194,45.1707097 45.4134194,46.4516129 C45.4134194,47.7325161 44.3717419,48.7741935 43.0908387,48.7741935 C41.8099355,48.7741935 40.7682581,47.7325161 40.7682581,46.4516129 C40.7682581,45.1707097 41.8099355,44.1290323 43.0908387,44.1290323 L43.0908387,44.1290323 Z M15.219871,36 C16.5007742,36 17.5424516,37.0416774 17.5424516,38.3225806 C17.5424516,39.6034839 16.5007742,40.6451613 15.219871,40.6451613 C13.9389677,40.6451613 12.8972903,39.6034839 12.8972903,38.3225806 C12.8972903,37.0416774 13.9389677,36 15.219871,36 L15.219871,36 Z M26.8327742,29.0322581 C26.8327742,27.7513548 27.8744516,26.7096774 29.1553548,26.7096774 C30.4362581,26.7096774 31.4779355,27.7513548 31.4779355,29.0322581 C31.4779355,30.3131613 30.4362581,31.3548387 29.1553548,31.3548387 C27.8744516,31.3548387 26.8327742,30.3131613 26.8327742,29.0322581 L26.8327742,29.0322581 Z M45.4134194,22.0645161 C45.4134194,23.3454194 44.3717419,24.3870968 43.0908387,24.3870968 C41.8099355,24.3870968 40.7682581,23.3454194 40.7682581,22.0645161 C40.7682581,20.7836129 41.8099355,19.7419355 43.0908387,19.7419355 C44.3717419,19.7419355 45.4134194,20.7836129 45.4134194,22.0645161 L45.4134194,22.0645161 Z M55.7419355,17.2544516 L55.7419355,32.6810323 C54.5922581,32.9794839 53.6156129,33.6983226 52.9931613,34.676129 L44.1290323,32.2141935 L44.1290323,26.5447742 C46.1264516,26.0256774 47.6129032,24.2233548 47.6129032,22.0645161 C47.6129032,21.312 47.4166452,20.6105806 47.0972903,19.9811613 L53.5366452,15.956129 C54.1265806,16.5809032 54.8860645,17.0314839 55.7419355,17.2544516 L55.7419355,17.2544516 Z M41.8064516,26.5447742 L41.8064516,31.5685161 L33.6495484,29.3028387 C33.6553548,29.2110968 33.6774194,29.1251613 33.6774194,29.0322581 C33.6774194,26.8734194 32.1909677,25.0710968 30.1935484,24.552 L30.1935484,19.5282581 L38.3504516,21.7939355 C38.3446452,21.8856774 38.3225806,21.9716129 38.3225806,22.0645161 C38.3225806,24.2233548 39.8090323,26.0256774 41.8064516,26.5447742 L41.8064516,26.5447742 Z M19.008,16.4218065 L27.8709677,18.8837419 L27.8709677,24.552 C25.8735484,25.0710968 24.3870968,26.8734194 24.3870968,29.0322581 C24.3870968,29.4294194 24.4532903,29.808 24.5473548,30.1749677 L17.6829677,34.4659355 C17.2556129,34.1779355 16.7701935,33.9735484 16.2580645,33.8423226 L16.2580645,18.4157419 C17.4089032,18.1184516 18.3855484,17.3984516 19.008,16.4218065 L19.008,16.4218065 Z M39.0576774,43.9664516 L19.7152258,38.5931613 C19.719871,38.5014194 19.7419355,38.4154839 19.7419355,38.3225806 C19.7419355,37.5700645 19.5456774,36.8686452 19.2263226,36.2392258 L25.6656774,32.2141935 C26.5134194,33.1107097 27.7049032,33.6774194 29.0322581,33.6774194 C30.6778065,33.6774194 32.1178065,32.8122581 32.9423226,31.5174194 L41.8064516,33.9793548 L41.8064516,41.9713548 C40.6567742,42.2698065 39.680129,42.9886452 39.0576774,43.9664516 L39.0576774,43.9664516 Z M66.1935484,17.4193548 L58.0645161,17.4193548 L58.0645161,17.2544516 C60.4033548,16.6470968 62.0419355,14.2803871 61.4136774,11.6407742 C61.0304516,10.0289032 59.7460645,8.70967742 58.1434839,8.2916129 C56.0009032,7.73070968 54.0197419,8.67716129 52.9931613,10.2890323 L33.6495484,4.91574194 C33.6553548,4.824 33.6774194,4.73806452 33.6774194,4.64516129 C33.6774194,1.93470968 31.3455484,-0.240387097 28.5816774,0.0220645161 C27.675871,0.10683871 26.8258065,0.546967742 26.1754839,1.18451613 C24.2430968,3.08090323 24.2175484,4.49883871 24.5461935,5.78903226 L17.6829677,10.08 C16.6285161,9.37045161 15.2709677,9.08012903 13.8495484,9.45406452 C12.2620645,9.87096774 10.9927742,11.1739355 10.5967742,12.7672258 C10.1357419,14.6299355 10.8150968,16.3347097 12.0565161,17.4193548 L5.80645161,17.4193548 C2.59896774,17.4193548 0,20.0183226 0,23.2258065 L0,58.0645161 C0,61.272 2.59896774,63.8709677 5.80645161,63.8709677 L19.7419355,63.8709677 L19.7419355,69.6774194 L15.0967742,69.6774194 L15.0967742,72 L56.9032258,72 L56.9032258,69.6774194 L52.2580645,69.6774194 L52.2580645,63.8709677 L66.1935484,63.8709677 C69.4010323,63.8709677 72,61.272 72,58.0645161 L72,23.2258065 C72,20.0183226 69.4010323,17.4193548 66.1935484,17.4193548 L66.1935484,17.4193548 Z" id="Fill-1"></path>
                <polygon id="Fill-3" points="6.96774194 24.3870968 10.4516129 24.3870968 10.4516129 22.0645161 4.64516129 22.0645161 4.64516129 27.8709677 6.96774194 27.8709677"></polygon>
                <polygon id="Fill-5" points="67.3548387 45.2903226 65.0322581 45.2903226 65.0322581 48.7741935 61.5483871 48.7741935 61.5483871 51.0967742 67.3548387 51.0967742"></polygon>
                <polygon id="Fill-7" points="10.4516129 48.7741935 6.96774194 48.7741935 6.96774194 45.2903226 4.64516129 45.2903226 4.64516129 51.0967742 10.4516129 51.0967742"></polygon>
                <polygon id="Fill-9" points="65.0322581 27.8709677 67.3548387 27.8709677 67.3548387 22.0645161 61.5483871 22.0645161 61.5483871 24.3870968 65.0322581 24.3870968"></polygon>
            </g>
        </g>
    </g>
</svg>