<?xml version="1.0" encoding="UTF-8"?>
<svg width="52px" height="58px" viewBox="0 0 52 58" version="1.1" xmlns="http://www.w3.org/2000/svg" xmlns:xlink="http://www.w3.org/1999/xlink">
    <!-- Generator: Sketch 42 (36781) - http://www.bohemiancoding.com/sketch -->
    <title>bugel-protez-small-icon</title>
    <desc>Created with Sketch.</desc>
    <defs>
        <polygon id="path-1" points="0.334691304 44 18.3368246 44 18.3368246 0.0002 0.334691304 0.0002 0.334691304 44"></polygon>
    </defs>
    <g id="Welcome" stroke="none" stroke-width="1" fill="none" fill-rule="evenodd">
        <g id="home" transform="translate(-172.000000, -1226.000000)">
            <g id="bugel-protez-small-icon" transform="translate(172.000000, 1226.000000)">
                <g id="Group-3" transform="translate(16.000000, 13.666700)">
                    <mask id="mask-2" fill="white">
                        <use xlink:href="#path-1"></use>
                    </mask>
                    <g id="Clip-2"></g>
                    <path d="M14.3333,15.9502 L12.0133,16.7202 C11.4933,16.8892 11.2033,17.4602 11.3833,17.9802 C11.5233,18.4002 11.9133,18.6602 12.3333,18.6602 C12.4333,18.6602 12.5433,18.6392 12.6533,18.6102 L14.3333,18.0502 L14.3333,21.9402 L12.0133,22.7102 C11.4933,22.8802 11.2033,23.4502 11.3833,23.9702 C11.5233,24.3892 11.9133,24.6502 12.3333,24.6502 C12.4333,24.6502 12.5433,24.6302 12.6533,24.5992 L14.3333,24.0402 L14.3333,27.9292 L12.0133,28.7002 C11.4933,28.8702 11.2033,29.4402 11.3833,29.9602 C11.5233,30.3802 11.9133,30.6392 12.3333,30.6392 C12.4333,30.6392 12.5433,30.6202 12.6533,30.5902 L14.3333,30.0302 L14.3333,34.0002 L12.3333,34.0002 L12.3333,38.6702 L9.8333,42.0002 L8.8333,42.0002 L6.3333,38.6702 L6.3333,34.0002 L4.3333,34.0002 L4.3333,33.0992 L8.6333,31.7302 C9.1633,31.5592 9.4533,31.0002 9.2833,30.4702 C9.1133,29.9402 8.5533,29.6502 8.0233,29.8202 L4.3333,31.0002 L4.3333,27.0992 L8.6333,25.7302 C9.1633,25.5592 9.4533,25.0002 9.2833,24.4702 C9.1133,23.9402 8.5533,23.6502 8.0233,23.8202 L4.3333,25.0002 L4.3333,21.0992 L8.6333,19.7302 C9.1633,19.5592 9.4533,19.0002 9.2833,18.4702 C9.1133,17.9402 8.5533,17.6502 8.0233,17.8202 L4.3333,19.0002 L4.3333,15.0992 L8.6333,13.7302 C9.1633,13.5592 9.4533,13.0002 9.2833,12.4702 C9.1133,11.9402 8.5533,11.6502 8.0233,11.8202 L4.3333,13.0002 L4.3333,10.0002 L14.1733,10.0002 L12.0133,10.7202 C11.4933,10.8892 11.2033,11.4602 11.3833,11.9802 C11.5233,12.4002 11.9133,12.6602 12.3333,12.6602 C12.4333,12.6602 12.5433,12.6392 12.6533,12.6102 L14.3333,12.0502 L14.3333,15.9502 Z M4.3333,4.4202 L6.7533,2.0002 L11.9233,2.0002 L14.3333,4.4102 L14.3333,8.0002 L4.3333,8.0002 L4.3333,4.4202 Z M17.6533,10.9502 C18.1733,10.7802 18.4633,10.2102 18.2833,9.6902 C18.1133,9.1702 17.5433,8.8802 17.0133,9.0592 L16.3333,9.2902 L16.3333,8.0002 L16.3333,3.5902 L12.7533,0.0002 L5.9233,0.0002 L2.3333,3.5902 L2.3333,8.0002 L2.3333,10.0002 L2.3333,13.6302 L1.0333,14.0402 C0.5033,14.2102 0.2133,14.7692 0.3833,15.3002 C0.5233,15.7302 0.9133,16.0002 1.3333,16.0002 C1.4333,16.0002 1.5333,15.9902 1.6333,15.9502 L2.3333,15.7302 L2.3333,19.6302 L1.0333,20.0402 C0.5033,20.2102 0.2133,20.7692 0.3833,21.3002 C0.5233,21.7302 0.9133,22.0002 1.3333,22.0002 C1.4333,22.0002 1.5333,21.9902 1.6333,21.9502 L2.3333,21.7302 L2.3333,25.6302 L1.0333,26.0402 C0.5033,26.2102 0.2133,26.7692 0.3833,27.3002 C0.5233,27.7302 0.9133,28.0002 1.3333,28.0002 C1.4333,28.0002 1.5333,27.9902 1.6333,27.9502 L2.3333,27.7302 L2.3333,31.6302 L1.0333,32.0402 C0.5033,32.2102 0.2133,32.7692 0.3833,33.3002 C0.5233,33.7302 0.9133,34.0002 1.3333,34.0002 C1.4333,34.0002 1.5333,33.9902 1.6333,33.9502 L2.3333,33.7302 L2.3333,36.0002 L4.3333,36.0002 L4.3333,39.3302 L7.8333,44.0002 L10.8333,44.0002 L14.3333,39.3302 L14.3333,36.0002 L16.3333,36.0002 L16.3333,29.3892 L17.6533,28.9502 C18.1733,28.7802 18.4633,28.2102 18.2833,27.6902 C18.1133,27.1702 17.5433,26.8802 17.0133,27.0592 L16.3333,27.2902 L16.3333,23.4002 L17.6533,22.9602 C18.1733,22.7902 18.4633,22.2202 18.2833,21.7002 C18.1133,21.1792 17.5433,20.8892 17.0133,21.0702 L16.3333,21.3002 L16.3333,17.4102 L17.6533,16.9702 C18.1733,16.8002 18.4633,16.2302 18.2833,15.7102 C18.1133,15.1902 17.5433,14.9002 17.0133,15.0802 L16.3333,15.3092 L16.3333,11.4202 L17.6533,10.9502 Z" id="Fill-1" fill="#13C180" mask="url(#mask-2)"></path>
                </g>
                <path d="M51.1224,10.906 C50.2924,7.736 47.8724,4.716 44.2924,2.396 C39.8824,-0.474 33.6524,-0.784 28.0214,1.566 L27.8224,1.656 C27.7314,1.696 27.6324,1.736 27.5424,1.776 C27.0724,1.946 26.7124,2.086 26.4124,2.196 C25.4724,2.566 25.4724,2.566 23.9324,2.106 C19.5324,0.796 13.9414,-0.514 9.6524,1.026 C3.8514,3.095 -1.2976,9.976 0.2924,20.656 C0.4814,21.916 0.6624,23.186 0.8424,24.456 C1.2824,27.486 1.7314,30.616 2.2524,33.706 C2.5024,35.146 3.3514,36.426 4.5824,37.206 C5.4124,37.726 6.3514,37.996 7.3024,37.996 C7.7424,37.996 8.1824,37.936 8.6224,37.816 C10.2714,37.356 12.0924,36.996 14.1824,36.706 C14.7314,36.626 15.1124,36.126 15.0324,35.576 C14.9524,35.026 14.4524,34.646 13.9024,34.726 C11.7224,35.026 9.8224,35.406 8.0824,35.885 C7.2624,36.116 6.4024,35.986 5.6624,35.516 C4.9024,35.036 4.3824,34.256 4.2314,33.366 C3.7124,30.296 3.2624,27.186 2.8224,24.166 C2.6424,22.885 2.4524,21.616 2.2714,20.356 C0.8514,10.796 5.2924,4.696 10.3224,2.896 C14.1124,1.536 19.5724,2.885 23.3624,4.006 C25.3824,4.606 25.6914,4.616 27.1424,4.046 C27.4224,3.936 27.7624,3.805 28.2024,3.646 C28.3424,3.595 28.4814,3.536 28.6324,3.476 L28.8024,3.406 C33.8224,1.305 39.3424,1.555 43.2124,4.076 C46.3724,6.126 48.4924,8.736 49.1914,11.416 C50.9624,18.166 49.6724,25.896 48.0124,33.236 C47.8224,34.066 47.3324,34.756 46.6124,35.196 C45.8824,35.646 45.0214,35.776 44.1824,35.566 C41.8224,34.976 39.1824,34.566 36.1124,34.316 C35.5524,34.266 35.0824,34.686 35.0324,35.236 C34.9924,35.786 35.4024,36.266 35.9524,36.316 C38.9024,36.555 41.4414,36.946 43.6914,37.506 C45.0614,37.845 46.4724,37.635 47.6524,36.906 C48.8324,36.186 49.6424,35.036 49.9524,33.676 C51.6724,26.076 53.0024,18.076 51.1224,10.906" id="Fill-4" fill="#13C180"></path>
            </g>
        </g>
    </g>
</svg>