<?xml version="1.0" encoding="UTF-8"?>
<svg width="31px" height="34px" viewBox="0 0 31 34" version="1.1" xmlns="http://www.w3.org/2000/svg" xmlns:xlink="http://www.w3.org/1999/xlink">
    <!-- Generator: Sketch 42 (36781) - http://www.bohemiancoding.com/sketch -->
    <title>bugel-protez-side-menu-icon</title>
    <desc>Created with Sketch.</desc>
    <defs>
        <polygon id="path-1" points="0.19619835 25.7931034 10.749173 25.7931034 10.749173 0.000117241379 0.19619835 0.000117241379 0.19619835 25.7931034"></polygon>
    </defs>
    <g id="Welcome" stroke="none" stroke-width="1" fill="none" fill-rule="evenodd">
        <g id="services/implantation" transform="translate(-170.000000, -555.000000)">
            <g id="bugel-protez-side-menu-icon" transform="translate(170.000000, 555.000000)">
                <g id="Group-3" transform="translate(9.379310, 8.011514)">
                    <mask id="mask-2" fill="white">
                        <use xlink:href="#path-1"></use>
                    </mask>
                    <g id="Clip-2"></g>
                    <path d="M8.40227931,9.35011724 L7.04227931,9.80149655 C6.73745172,9.90056552 6.56745172,10.2352897 6.67296897,10.5401172 C6.75503793,10.7863241 6.98365862,10.9387379 7.22986552,10.9387379 C7.28848621,10.9387379 7.35296897,10.9264276 7.41745172,10.9094276 L8.40227931,10.5811517 L8.40227931,12.8614966 L7.04227931,13.3128759 C6.73745172,13.412531 6.56745172,13.746669 6.67296897,14.0514966 C6.75503793,14.2971172 6.98365862,14.4501172 7.22986552,14.4501172 C7.28848621,14.4501172 7.35296897,14.4383931 7.41745172,14.4202207 L8.40227931,14.092531 L8.40227931,16.3722897 L7.04227931,16.8242552 C6.73745172,16.9239103 6.56745172,17.2580483 6.67296897,17.5628759 C6.75503793,17.8090828 6.98365862,17.9609103 7.22986552,17.9609103 C7.28848621,17.9609103 7.35296897,17.9497724 7.41745172,17.9321862 L8.40227931,17.6039103 L8.40227931,19.9311517 L7.22986552,19.9311517 L7.22986552,22.6687379 L5.76434828,24.6208069 L5.17814138,24.6208069 L3.71262414,22.6687379 L3.71262414,19.9311517 L2.54021034,19.9311517 L2.54021034,19.4029793 L5.0609,18.6004621 C5.37158966,18.5002207 5.54158966,18.172531 5.44193448,17.8618414 C5.34227931,17.5511517 5.01400345,17.3811517 4.70331379,17.4808069 L2.54021034,18.172531 L2.54021034,15.8857379 L5.0609,15.0832207 C5.37158966,14.9829793 5.54158966,14.6552897 5.44193448,14.3446 C5.34227931,14.0339103 5.01400345,13.8639103 4.70331379,13.9635655 L2.54021034,14.6552897 L2.54021034,12.3684966 L5.0609,11.5659793 C5.37158966,11.4657379 5.54158966,11.1380483 5.44193448,10.8273586 C5.34227931,10.516669 5.01400345,10.346669 4.70331379,10.4463241 L2.54021034,11.1380483 L2.54021034,8.85125517 L5.0609,8.04873793 C5.37158966,7.94849655 5.54158966,7.6208069 5.44193448,7.31011724 C5.34227931,6.99942759 5.01400345,6.82942759 4.70331379,6.92908276 L2.54021034,7.6208069 L2.54021034,5.86218621 L8.30848621,5.86218621 L7.04227931,6.28425517 C6.73745172,6.38332414 6.56745172,6.71804828 6.67296897,7.02287586 C6.75503793,7.26908276 6.98365862,7.42149655 7.22986552,7.42149655 C7.28848621,7.42149655 7.35296897,7.40918621 7.41745172,7.39218621 L8.40227931,7.06391034 L8.40227931,9.35011724 Z M2.54021034,2.59115172 L3.95883103,1.17253103 L6.98952069,1.17253103 L8.40227931,2.58528966 L8.40227931,4.68977241 L2.54021034,4.68977241 L2.54021034,2.59115172 Z M10.3484862,6.41908276 C10.6533138,6.31942759 10.8233138,5.98528966 10.7177966,5.68046207 C10.6181414,5.37563448 10.2840034,5.20563448 9.97331379,5.31056552 L9.5746931,5.44597931 L9.5746931,4.68977241 L9.5746931,2.1046 L7.47607241,0.000117241379 L3.47227931,0.000117241379 L1.36779655,2.1046 L1.36779655,4.68977241 L1.36779655,5.86218621 L1.36779655,7.99011724 L0.605727586,8.23046207 C0.295037931,8.33011724 0.125037931,8.6578069 0.224693103,8.96908276 C0.306762069,9.22115172 0.535382759,9.37942759 0.781589655,9.37942759 C0.840210345,9.37942759 0.898831034,9.37356552 0.957451724,9.35011724 L1.36779655,9.22115172 L1.36779655,11.5073586 L0.605727586,11.7477034 C0.295037931,11.8473586 0.125037931,12.1750483 0.224693103,12.4863241 C0.306762069,12.7383931 0.535382759,12.896669 0.781589655,12.896669 C0.840210345,12.896669 0.898831034,12.8908069 0.957451724,12.8673586 L1.36779655,12.7383931 L1.36779655,15.0246 L0.605727586,15.2649448 C0.295037931,15.3646 0.125037931,15.6922897 0.224693103,16.0035655 C0.306762069,16.2556345 0.535382759,16.4139103 0.781589655,16.4139103 C0.840210345,16.4139103 0.898831034,16.4080483 0.957451724,16.3846 L1.36779655,16.2556345 L1.36779655,18.5418414 L0.605727586,18.7821862 C0.295037931,18.8818414 0.125037931,19.209531 0.224693103,19.5208069 C0.306762069,19.7728759 0.535382759,19.9311517 0.781589655,19.9311517 C0.840210345,19.9311517 0.898831034,19.9252897 0.957451724,19.9018414 L1.36779655,19.7728759 L1.36779655,21.1035655 L2.54021034,21.1035655 L2.54021034,23.0556345 L4.59193448,25.7932207 L6.35055517,25.7932207 L8.40227931,23.0556345 L8.40227931,21.1035655 L9.5746931,21.1035655 L9.5746931,17.2281517 L10.3484862,16.9708069 C10.6533138,16.8711517 10.8233138,16.5370138 10.7177966,16.2321862 C10.6181414,15.9273586 10.2840034,15.7573586 9.97331379,15.8622897 L9.5746931,15.9977034 L9.5746931,13.7173586 L10.3484862,13.4594276 C10.6533138,13.3597724 10.8233138,13.0256345 10.7177966,12.7208069 C10.6181414,12.4153931 10.2840034,12.2453931 9.97331379,12.3514966 L9.5746931,12.4863241 L9.5746931,10.2059793 L10.3484862,9.94804828 C10.6533138,9.8483931 10.8233138,9.51425517 10.7177966,9.20942759 C10.6181414,8.9046 10.2840034,8.7346 9.97331379,8.84011724 L9.5746931,8.97435862 L9.5746931,6.6946 L10.3484862,6.41908276 Z" id="Fill-1" fill="#13C180" mask="url(#mask-2)"></path>
                </g>
                <path d="M29.9683034,6.39317241 C29.4817517,4.53489655 28.063131,2.76455172 25.9645103,1.40455172 C23.3793379,-0.277862069 19.727269,-0.459586207 16.4263379,0.918 L16.3096828,0.970758621 C16.2563379,0.994206897 16.1983034,1.01765517 16.1455448,1.04110345 C15.8700276,1.14075862 15.6589931,1.22282759 15.483131,1.28731034 C14.9320966,1.5042069 14.9320966,1.5042069 14.0293379,1.23455172 C11.4500276,0.46662069 8.17254483,-0.301310345 5.65830345,0.601448276 C2.25771724,1.81431034 -0.760662069,5.848 0.171406897,12.1086897 C0.2822,12.8473103 0.388303448,13.5917931 0.49382069,14.3362759 C0.751751724,16.1124828 1.01495862,17.9473103 1.32037241,19.7586897 C1.46692414,20.6028276 1.96461379,21.3531724 2.68623448,21.8104138 C3.17278621,22.1152414 3.72323448,22.2735172 4.28071724,22.2735172 C4.53864828,22.2735172 4.79657931,22.2383448 5.05451034,22.168 C6.02116552,21.8983448 7.08864828,21.6873103 8.31382069,21.5173103 C8.63564828,21.4704138 8.8589931,21.1773103 8.81209655,20.8548966 C8.7652,20.5324828 8.47209655,20.3097241 8.14968276,20.3566207 C6.87175172,20.5324828 5.75795862,20.7552414 4.73795862,21.0360345 C4.25726897,21.1714483 3.75313103,21.0952414 3.31933793,20.8197241 C2.87382069,20.5383448 2.5689931,20.0811034 2.48047586,19.5593793 C2.17623448,17.7597241 1.91244138,15.9366207 1.65451034,14.1662759 C1.5489931,13.4153448 1.43761379,12.6714483 1.33151034,11.9328276 C0.499096552,6.32868966 3.10244138,2.75282759 6.05106207,1.69765517 C8.27278621,0.900413793 11.4734759,1.6912069 13.6952,2.34834483 C14.8793379,2.70006897 15.0604759,2.70593103 15.9110621,2.3717931 C16.0752,2.30731034 16.2745103,2.23051724 16.5324414,2.13731034 C16.6145103,2.10741379 16.6959931,2.07282759 16.7845103,2.03765517 L16.8841655,1.99662069 C19.8269241,0.765 23.0627862,0.911551724 25.3314069,2.38937931 C27.1838207,3.59110345 28.4265793,5.12110345 28.8363379,6.69213793 C29.8745103,10.6490345 29.1183034,15.1804138 28.1452,19.4831724 C28.0338207,19.9697241 27.7465793,20.3742069 27.3245103,20.6321379 C26.8965793,20.895931 26.3918552,20.9721379 25.9000276,20.8490345 C24.5165793,20.5031724 22.9689931,20.2628276 21.1693379,20.1162759 C20.8410621,20.0869655 20.5655448,20.3331724 20.5362345,20.6555862 C20.5127862,20.978 20.753131,21.2593793 21.0755448,21.2886897 C22.8048552,21.4287931 24.2932345,21.658 25.6122,21.9862759 C26.4153034,22.185 27.2424414,22.0618966 27.9341655,21.6345517 C28.6258897,21.2124828 29.1007172,20.5383448 29.2824414,19.7411034 C30.2907172,15.285931 31.0703724,10.5962759 29.9683034,6.39317241" id="Fill-4" fill="#13C180"></path>
            </g>
        </g>
    </g>
</svg>