<?xml version="1.0" encoding="UTF-8"?>
<svg width="106px" height="117px" viewBox="0 0 106 117" version="1.1" xmlns="http://www.w3.org/2000/svg" xmlns:xlink="http://www.w3.org/1999/xlink">
    <!-- Generator: Sketch 42 (36781) - http://www.bohemiancoding.com/sketch -->
    <title>bugel-protez-icon</title>
    <desc>Created with Sketch.</desc>
    <defs>
        <polygon id="path-1" points="0.675697537 88.8301887 37.0196269 88.8301887 37.0196269 0.000403773585 0.675697537 0.000403773585 0.675697537 88.8301887"></polygon>
    </defs>
    <g id="Welcome" stroke="none" stroke-width="1" fill="none" fill-rule="evenodd">
        <g id="services" transform="translate(-181.000000, -961.000000)">
            <g id="bugel-protez-icon" transform="translate(181.000000, 961.000000)">
                <g id="Group-3" transform="translate(32.301887, 27.591262)">
                    <mask id="mask-2" fill="white">
                        <use xlink:href="#path-1"></use>
                    </mask>
                    <g id="Clip-2"></g>
                    <path d="M28.9370396,32.2013472 L24.253266,33.7558755 C23.2034547,34.0970642 22.617983,35.2498377 22.9813792,36.2996491 C23.2640208,37.1475736 24.0513792,37.6724792 24.8993038,37.6724792 C25.1011906,37.6724792 25.323266,37.630083 25.5453415,37.5715358 L28.9370396,36.4409698 L28.9370396,44.294366 L24.253266,45.8488943 C23.2034547,46.1921019 22.617983,47.3428566 22.9813792,48.3926679 C23.2640208,49.2385736 24.0513792,49.7654981 24.8993038,49.7654981 C25.1011906,49.7654981 25.323266,49.7251208 25.5453415,49.6625358 L28.9370396,48.5339887 L28.9370396,56.385366 L24.253266,57.9419132 C23.2034547,58.2851208 22.617983,59.4358755 22.9813792,60.4856868 C23.2640208,61.3336113 24.0513792,61.8564981 24.8993038,61.8564981 C25.1011906,61.8564981 25.323266,61.8181396 25.5453415,61.7575736 L28.9370396,60.6270075 L28.9370396,68.6419132 L24.8993038,68.6419132 L24.8993038,78.0700264 L19.852134,84.7928566 L17.833266,84.7928566 L12.7860962,78.0700264 L12.7860962,68.6419132 L8.74836038,68.6419132 L8.74836038,66.8229132 L17.4294925,64.059083 C18.4994925,63.7138566 19.0849642,62.5853094 18.7417566,61.5153094 C18.3985491,60.4453094 17.267983,59.8598377 16.197983,60.2030453 L8.74836038,62.5853094 L8.74836038,54.7097057 L17.4294925,51.9458755 C18.4994925,51.6006491 19.0849642,50.4721019 18.7417566,49.4021019 C18.3985491,48.3321019 17.267983,47.7466302 16.197983,48.0898377 L8.74836038,50.4721019 L8.74836038,42.5964981 L17.4294925,39.8326679 C18.4994925,39.4874415 19.0849642,38.3588943 18.7417566,37.2888943 C18.3985491,36.2188943 17.267983,35.6334226 16.197983,35.9766302 L8.74836038,38.3588943 L8.74836038,30.4832906 L17.4294925,27.7194604 C18.4994925,27.374234 19.0849642,26.2456868 18.7417566,25.1756868 C18.3985491,24.1056868 17.267983,23.5202151 16.197983,23.8634226 L8.74836038,26.2456868 L8.74836038,20.189083 L28.6140208,20.189083 L24.253266,21.6426679 C23.2034547,21.9838566 22.617983,23.1366302 22.9813792,24.1864415 C23.2640208,25.034366 24.0513792,25.5592717 24.8993038,25.5592717 C25.1011906,25.5592717 25.323266,25.5168755 25.5453415,25.4583283 L28.9370396,24.3277623 L28.9370396,32.2013472 Z M8.74836038,8.9238 L13.6340208,4.03813962 L24.0715679,4.03813962 L28.9370396,8.90361132 L28.9370396,16.1513472 L8.74836038,16.1513472 L8.74836038,8.9238 Z M35.6396811,22.1070075 C36.6894925,21.7638 37.2749642,20.6130453 36.9115679,19.563234 C36.5683604,18.5134226 35.4176057,17.9279509 34.3476057,18.2893283 L32.9747755,18.7556868 L32.9747755,16.1513472 L32.9747755,7.24813962 L25.7472283,0.000403773585 L11.9583604,0.000403773585 L4.71062453,7.24813962 L4.71062453,16.1513472 L4.71062453,20.189083 L4.71062453,27.5175736 L2.08609623,28.3453094 C1.01609623,28.688517 0.430624528,29.8170642 0.773832075,30.889083 C1.05647358,31.7571962 1.84383208,32.3022906 2.6917566,32.3022906 C2.8936434,32.3022906 3.09553019,32.2821019 3.29741698,32.2013472 L4.71062453,31.7571962 L4.71062453,39.6307811 L2.08609623,40.458517 C1.01609623,40.8017245 0.430624528,41.9302717 0.773832075,43.0022906 C1.05647358,43.8704038 1.84383208,44.4154981 2.6917566,44.4154981 C2.8936434,44.4154981 3.09553019,44.3953094 3.29741698,44.3145547 L4.71062453,43.8704038 L4.71062453,51.7439887 L2.08609623,52.5717245 C1.01609623,52.9149321 0.430624528,54.0434792 0.773832075,55.1154981 C1.05647358,55.9836113 1.84383208,56.5287057 2.6917566,56.5287057 C2.8936434,56.5287057 3.09553019,56.508517 3.29741698,56.4277623 L4.71062453,55.9836113 L4.71062453,63.8571962 L2.08609623,64.6849321 C1.01609623,65.0281396 0.430624528,66.1566868 0.773832075,67.2287057 C1.05647358,68.0968189 1.84383208,68.6419132 2.6917566,68.6419132 C2.8936434,68.6419132 3.09553019,68.6217245 3.29741698,68.5409698 L4.71062453,68.0968189 L4.71062453,72.6796491 L8.74836038,72.6796491 L8.74836038,79.4024792 L15.8143981,88.8305925 L21.8710019,88.8305925 L28.9370396,79.4024792 L28.9370396,72.6796491 L32.9747755,72.6796491 L32.9747755,59.3329132 L35.6396811,58.4466302 C36.6894925,58.1034226 37.2749642,56.9526679 36.9115679,55.9028566 C36.5683604,54.8530453 35.4176057,54.2675736 34.3476057,54.6289509 L32.9747755,55.0953094 L32.9747755,47.2419132 L35.6396811,46.3536113 C36.6894925,46.0104038 37.2749642,44.8596491 36.9115679,43.8098377 C36.5683604,42.7580075 35.4176057,42.1725358 34.3476057,42.5379509 L32.9747755,43.0022906 L32.9747755,35.1488943 L35.6396811,34.2605925 C36.6894925,33.9173849 37.2749642,32.7666302 36.9115679,31.7168189 C36.5683604,30.6670075 35.4176057,30.0815358 34.3476057,30.4449321 L32.9747755,30.9072528 L32.9747755,23.0558755 L35.6396811,22.1070075 Z" id="Fill-1" fill="#13C180" mask="url(#mask-2)"></path>
                </g>
                <path d="M103.209374,22.0177736 C101.533713,15.6179623 96.6480528,9.52098113 89.4205057,4.83720755 C80.5172981,-0.956943396 67.9397509,-1.58279245 56.5715057,3.16154717 L56.1697509,3.34324528 C55.986034,3.424 55.786166,3.50475472 55.6044679,3.58550943 C54.6556,3.92871698 53.9288075,4.21135849 53.3231472,4.43343396 C51.4254113,5.18041509 51.4254113,5.18041509 48.3163547,4.25173585 C39.4333358,1.60701887 28.1458453,-1.03769811 19.4869208,2.07135849 C7.77546792,6.24839623 -2.61968302,20.1402264 0.590316981,41.7017358 C0.971883019,44.2455094 1.33729811,46.8094717 1.70069434,49.373434 C2.58899623,55.4906038 3.49546792,61.8096604 4.54729811,68.0479623 C5.05201509,70.9551321 6.76603396,73.539283 9.25126038,75.114 C10.9269208,76.1638113 12.8226377,76.7089057 14.7425811,76.7089057 C15.630883,76.7089057 16.5191849,76.5877736 17.4074868,76.3455094 C20.7366,75.4168302 24.4129585,74.6900377 28.6323925,74.104566 C29.7407509,73.9430566 30.5099396,72.9336226 30.3484302,71.8232453 C30.1869208,70.7128679 29.1774868,69.9456981 28.0671094,70.1072075 C23.6659774,70.7128679 19.8301283,71.4800377 16.3172981,72.4470755 C14.6618264,72.913434 12.9256,72.6509811 11.4316377,71.7021132 C9.89729811,70.7330566 8.84748679,69.1583396 8.54263774,67.3615472 C7.49484528,61.1636226 6.58635472,54.8849434 5.69805283,48.7879623 C5.3346566,46.2017925 4.9510717,43.6398491 4.5856566,41.0960755 C1.71886415,21.7956981 10.6846566,9.48060377 20.8395623,5.84664151 C28.4910717,3.10098113 39.5140906,5.82443396 47.1656,8.08758491 C51.2437132,9.29890566 51.8675434,9.31909434 54.7969208,8.16833962 C55.3622038,7.94626415 56.0486189,7.68179245 56.9369208,7.36079245 C57.2195623,7.25783019 57.5001849,7.13871698 57.805034,7.01758491 L58.1482415,6.87626415 C68.2829585,2.63462264 79.4271094,3.13933962 87.2401283,8.22890566 C93.6197509,12.3675849 97.8997509,17.6368302 99.3109396,23.0473962 C102.886355,36.6747547 100.282015,52.2806038 96.9306943,67.0990943 C96.5471094,68.7747547 95.5578642,70.1677736 94.1042792,71.0560755 C92.6305057,71.964566 90.8922604,72.2270189 89.1984302,71.8030566 C84.4339019,70.6119245 79.1040906,69.7841887 72.906166,69.2794717 C71.7756,69.1785283 70.8267321,70.0264528 70.7257887,71.1368302 C70.645034,72.2472075 71.4727698,73.2162642 72.5831472,73.3172075 C78.5388075,73.799717 83.6647132,74.5890943 88.207166,75.7196604 C90.9730151,76.4040566 93.8216377,75.9800943 96.2039019,74.5083396 C98.586166,73.0547547 100.221449,70.7330566 100.847298,67.9873962 C104.319751,52.644 107.004845,36.4930566 103.209374,22.0177736" id="Fill-4" fill="#13C180"></path>
            </g>
        </g>
    </g>
</svg>