<?xml version="1.0" encoding="UTF-8"?>
<svg width="34px" height="34px" viewBox="0 0 34 34" version="1.1" xmlns="http://www.w3.org/2000/svg" xmlns:xlink="http://www.w3.org/1999/xlink">
    <!-- Generator: Sketch 42 (36781) - http://www.bohemiancoding.com/sketch -->
    <title>cad-side-menu-icon</title>
    <desc>Created with Sketch.</desc>
    <defs>
        <polygon id="path-1" points="0 34 34 34 34 0 0 0"></polygon>
    </defs>
    <g id="Welcome" stroke="none" stroke-width="1" fill="none" fill-rule="evenodd">
        <g id="services/implantation" transform="translate(-169.000000, -807.000000)">
            <g id="cad-side-menu-icon" transform="translate(169.000000, 807.000000)">
                <path d="M19.2666667,15.3 C19.2666667,15.6133667 19.0133667,15.8666667 18.7,15.8666667 L5.1,15.8666667 C4.78663333,15.8666667 4.53333333,15.6133667 4.53333333,15.3 L4.53333333,3.96666667 C4.53333333,3.0277 5.29436667,2.26666667 6.23333333,2.26666667 L17.5666667,2.26666667 C18.5056333,2.26666667 19.2666667,3.0277 19.2666667,3.96666667 L19.2666667,15.3 Z M5.66666667,14.7333333 L18.1333333,14.7333333 L18.1333333,3.96666667 C18.1333333,3.6533 17.8800333,3.4 17.5666667,3.4 L6.23333333,3.4 C5.91996667,3.4 5.66666667,3.6533 5.66666667,3.96666667 L5.66666667,14.7333333 Z" id="Fill-1" fill="#13C180"></path>
                <mask id="mask-2" fill="white">
                    <use xlink:href="#path-1"></use>
                </mask>
                <g id="Clip-4"></g>
                <path d="M10.2,5.66666667 L13.6,5.66666667 L13.6,3.4 L10.2,3.4 L10.2,5.66666667 Z M9.63333333,6.8 L14.1666667,6.8 C14.4800333,6.8 14.7333333,6.5467 14.7333333,6.23333333 L14.7333333,2.83333333 C14.7333333,2.51996667 14.4800333,2.26666667 14.1666667,2.26666667 L9.63333333,2.26666667 C9.31996667,2.26666667 9.06666667,2.51996667 9.06666667,2.83333333 L9.06666667,6.23333333 C9.06666667,6.5467 9.31996667,6.8 9.63333333,6.8 L9.63333333,6.8 Z" id="Fill-3" fill="#13C180" mask="url(#mask-2)"></path>
                <path d="M2.83333333,32.8666667 L5.1,32.8666667 L5.1,26.0666667 L2.83333333,26.0666667 L2.83333333,32.8666667 Z M2.26666667,34 L5.66666667,34 C5.98003333,34 6.23333333,33.7467 6.23333333,33.4333333 L6.23333333,25.5 C6.23333333,25.1866333 5.98003333,24.9333333 5.66666667,24.9333333 L2.26666667,24.9333333 C1.9533,24.9333333 1.7,25.1866333 1.7,25.5 L1.7,33.4333333 C1.7,33.7467 1.9533,34 2.26666667,34 L2.26666667,34 Z" id="Fill-5" fill="#13C180" mask="url(#mask-2)"></path>
                <path d="M28.9,32.8666667 L31.1666667,32.8666667 L31.1666667,26.0666667 L28.9,26.0666667 L28.9,32.8666667 Z M28.3333333,34 L31.7333333,34 C32.0467,34 32.3,33.7467 32.3,33.4333333 L32.3,25.5 C32.3,25.1866333 32.0467,24.9333333 31.7333333,24.9333333 L28.3333333,24.9333333 C28.0199667,24.9333333 27.7666667,25.1866333 27.7666667,25.5 L27.7666667,33.4333333 C27.7666667,33.7467 28.0199667,34 28.3333333,34 L28.3333333,34 Z" id="Fill-6" fill="#13C180" mask="url(#mask-2)"></path>
                <path d="M1.13333333,24.9333333 L32.8666667,24.9333333 L32.8666667,19.2666667 L1.13333333,19.2666667 L1.13333333,24.9333333 Z M0.566666667,26.0666667 L33.4333333,26.0666667 C33.7467,26.0666667 34,25.8133667 34,25.5 L34,18.7 C34,18.3866333 33.7467,18.1333333 33.4333333,18.1333333 L0.566666667,18.1333333 C0.2533,18.1333333 0,18.3866333 0,18.7 L0,25.5 C0,25.8133667 0.2533,26.0666667 0.566666667,26.0666667 L0.566666667,26.0666667 Z" id="Fill-7" fill="#13C180" mask="url(#mask-2)"></path>
                <path d="M22.6666667,18.7 L22.6666667,15.3 C22.6666667,14.9866333 22.4133667,14.7333333 22.1,14.7333333 L3.485,14.7333333 C2.39586667,14.7333333 1.394,15.4632 1.18036667,16.5313667 C0.888533333,17.9882667 1.99523333,19.2666667 3.4,19.2666667 L22.1,19.2666667 C22.4133667,19.2666667 22.6666667,19.0133667 22.6666667,18.7 L22.6666667,18.7 Z M3.4,18.1333333 C2.65483333,18.1333333 2.07683333,17.4131 2.32503333,16.6311 C2.47463333,16.1590667 2.95233333,15.8666667 3.4476,15.8666667 L21.5333333,15.8666667 L21.5333333,18.1333333 L3.4,18.1333333 Z" id="Fill-8" fill="#13C180" mask="url(#mask-2)"></path>
                <path d="M0.566666667,34 L33.4333333,34 C33.7467,34 34,33.7467 34,33.4333333 C34,33.1199667 33.7467,32.8666667 33.4333333,32.8666667 L0.566666667,32.8666667 C0.2533,32.8666667 0,33.1199667 0,33.4333333 C0,33.7467 0.2533,34 0.566666667,34" id="Fill-9" fill="#13C180" mask="url(#mask-2)"></path>
                <path d="M22.6666667,18.1333333 L32.8666667,18.1333333 L32.8666667,1.13333333 L22.6666667,1.13333333 L22.6666667,18.1333333 Z M22.1,19.2666667 L33.4333333,19.2666667 C33.7467,19.2666667 34,19.0133667 34,18.7 L34,0.566666667 C34,0.2533 33.7467,0 33.4333333,0 L22.1,0 C21.7866333,0 21.5333333,0.2533 21.5333333,0.566666667 L21.5333333,18.7 C21.5333333,19.0133667 21.7866333,19.2666667 22.1,19.2666667 L22.1,19.2666667 Z" id="Fill-10" fill="#13C180" mask="url(#mask-2)"></path>
                <path d="M24.9333333,6.8 L30.6,6.8 L30.6,3.4 L24.9333333,3.4 L24.9333333,6.8 Z M24.3666667,7.93333333 L31.1666667,7.93333333 C31.4800333,7.93333333 31.7333333,7.68003333 31.7333333,7.36666667 L31.7333333,2.83333333 C31.7333333,2.51996667 31.4800333,2.26666667 31.1666667,2.26666667 L24.3666667,2.26666667 C24.0533,2.26666667 23.8,2.51996667 23.8,2.83333333 L23.8,7.36666667 C23.8,7.68003333 24.0533,7.93333333 24.3666667,7.93333333 L24.3666667,7.93333333 Z" id="Fill-11" fill="#13C180" mask="url(#mask-2)"></path>
                <path d="M23.8,9.44463333 L23.8,11.1446333 C23.8,11.4574333 24.0533,11.7113 24.3666667,11.7113 C24.6800333,11.7113 24.9333333,11.4574333 24.9333333,11.1446333 L24.9333333,9.44463333 C24.9333333,9.13126667 24.6800333,8.87796667 24.3666667,8.87796667 C24.0533,8.87796667 23.8,9.13126667 23.8,9.44463333" id="Fill-12" fill="#13C180" mask="url(#mask-2)"></path>
                <path d="M30.6,9.44463333 L30.6,11.1446333 C30.6,11.4574333 30.8533,11.7113 31.1666667,11.7113 C31.4800333,11.7113 31.7333333,11.4574333 31.7333333,11.1446333 L31.7333333,9.44463333 C31.7333333,9.13126667 31.4800333,8.87796667 31.1666667,8.87796667 C30.8533,8.87796667 30.6,9.13126667 30.6,9.44463333" id="Fill-13" fill="#13C180" mask="url(#mask-2)"></path>
                <path d="M28.3333333,9.44463333 L28.3333333,11.1446333 C28.3333333,11.4574333 28.5866333,11.7113 28.9,11.7113 C29.2133667,11.7113 29.4666667,11.4574333 29.4666667,11.1446333 L29.4666667,9.44463333 C29.4666667,9.13126667 29.2133667,8.87796667 28.9,8.87796667 C28.5866333,8.87796667 28.3333333,9.13126667 28.3333333,9.44463333" id="Fill-14" fill="#13C180" mask="url(#mask-2)"></path>
                <path d="M26.0666667,9.44463333 L26.0666667,11.1446333 C26.0666667,11.4574333 26.3199667,11.7113 26.6333333,11.7113 C26.9467,11.7113 27.2,11.4574333 27.2,11.1446333 L27.2,9.44463333 C27.2,9.13126667 26.9467,8.87796667 26.6333333,8.87796667 C26.3199667,8.87796667 26.0666667,9.13126667 26.0666667,9.44463333" id="Fill-15" fill="#13C180" mask="url(#mask-2)"></path>
                <path d="M24.9333333,15.3 L26.0666667,15.3 L26.0666667,14.1666667 L24.9333333,14.1666667 L24.9333333,15.3 Z M24.3666667,16.4333333 L26.6333333,16.4333333 C26.9467,16.4333333 27.2,16.1800333 27.2,15.8666667 L27.2,13.6 C27.2,13.2866333 26.9467,13.0333333 26.6333333,13.0333333 L24.3666667,13.0333333 C24.0533,13.0333333 23.8,13.2866333 23.8,13.6 L23.8,15.8666667 C23.8,16.1800333 24.0533,16.4333333 24.3666667,16.4333333 L24.3666667,16.4333333 Z" id="Fill-16" fill="#13C180" mask="url(#mask-2)"></path>
                <path d="M29.4666667,15.3 L30.6,15.3 L30.6,14.1666667 L29.4666667,14.1666667 L29.4666667,15.3 Z M28.9,16.4333333 L31.1666667,16.4333333 C31.4800333,16.4333333 31.7333333,16.1800333 31.7333333,15.8666667 L31.7333333,13.6 C31.7333333,13.2866333 31.4800333,13.0333333 31.1666667,13.0333333 L28.9,13.0333333 C28.5866333,13.0333333 28.3333333,13.2866333 28.3333333,13.6 L28.3333333,15.8666667 C28.3333333,16.1800333 28.5866333,16.4333333 28.9,16.4333333 L28.9,16.4333333 Z" id="Fill-17" fill="#13C180" mask="url(#mask-2)"></path>
                <path d="M10.2,10.2 L13.6,10.2 C13.9133667,10.2 14.1666667,9.9467 14.1666667,9.63333333 C14.1666667,9.31996667 13.9133667,9.06666667 13.6,9.06666667 L10.2,9.06666667 C9.88663333,9.06666667 9.63333333,9.31996667 9.63333333,9.63333333 C9.63333333,9.9467 9.88663333,10.2 10.2,10.2" id="Fill-18" fill="#13C180" mask="url(#mask-2)"></path>
                <path d="M9.06666667,12.4666667 L14.7333333,12.4666667 C15.0467,12.4666667 15.3,12.2133667 15.3,11.9 C15.3,11.5866333 15.0467,11.3333333 14.7333333,11.3333333 L9.06666667,11.3333333 C8.7533,11.3333333 8.5,11.5866333 8.5,11.9 C8.5,12.2133667 8.7533,12.4666667 9.06666667,12.4666667" id="Fill-19" fill="#13C180" mask="url(#mask-2)"></path>
                <path d="M7.36666667,21.9113 C7.36666667,20.9723333 6.60563333,20.2113 5.66666667,20.2113 C4.7277,20.2113 3.96666667,20.9723333 3.96666667,21.9113 C3.96666667,22.8502667 4.7277,23.6113 5.66666667,23.6113 C6.60563333,23.6113 7.36666667,22.8502667 7.36666667,21.9113 M6.23333333,21.9113 C6.23333333,22.2246667 5.98003333,22.4779667 5.66666667,22.4779667 C5.3533,22.4779667 5.1,22.2246667 5.1,21.9113 C5.1,21.5979333 5.3533,21.3446333 5.66666667,21.3446333 C5.98003333,21.3446333 6.23333333,21.5979333 6.23333333,21.9113" id="Fill-20" fill="#13C180" mask="url(#mask-2)"></path>
                <path d="M11.9,21.9113 C11.9,20.9723333 11.1389667,20.2113 10.2,20.2113 C9.26103333,20.2113 8.5,20.9723333 8.5,21.9113 C8.5,22.8502667 9.26103333,23.6113 10.2,23.6113 C11.1389667,23.6113 11.9,22.8502667 11.9,21.9113 M10.7666667,21.9113 C10.7666667,22.2246667 10.5133667,22.4779667 10.2,22.4779667 C9.88663333,22.4779667 9.63333333,22.2246667 9.63333333,21.9113 C9.63333333,21.5979333 9.88663333,21.3446333 10.2,21.3446333 C10.5133667,21.3446333 10.7666667,21.5979333 10.7666667,21.9113" id="Fill-21" fill="#13C180" mask="url(#mask-2)"></path>
                <path d="M16.4333333,21.9113 C16.4333333,20.9723333 15.6723,20.2113 14.7333333,20.2113 C13.7943667,20.2113 13.0333333,20.9723333 13.0333333,21.9113 C13.0333333,22.8502667 13.7943667,23.6113 14.7333333,23.6113 C15.6723,23.6113 16.4333333,22.8502667 16.4333333,21.9113 M15.3,21.9113 C15.3,22.2246667 15.0467,22.4779667 14.7333333,22.4779667 C14.4199667,22.4779667 14.1666667,22.2246667 14.1666667,21.9113 C14.1666667,21.5979333 14.4199667,21.3446333 14.7333333,21.3446333 C15.0467,21.3446333 15.3,21.5979333 15.3,21.9113" id="Fill-22" fill="#13C180" mask="url(#mask-2)"></path>
                <path d="M20.9666667,21.9113 C20.9666667,20.9723333 20.2056333,20.2113 19.2666667,20.2113 C18.3277,20.2113 17.5666667,20.9723333 17.5666667,21.9113 C17.5666667,22.8502667 18.3277,23.6113 19.2666667,23.6113 C20.2056333,23.6113 20.9666667,22.8502667 20.9666667,21.9113 M19.8333333,21.9113 C19.8333333,22.2246667 19.5800333,22.4779667 19.2666667,22.4779667 C18.9533,22.4779667 18.7,22.2246667 18.7,21.9113 C18.7,21.5979333 18.9533,21.3446333 19.2666667,21.3446333 C19.5800333,21.3446333 19.8333333,21.5979333 19.8333333,21.9113" id="Fill-23" fill="#13C180" mask="url(#mask-2)"></path>
                <path d="M25.5,21.9113 C25.5,20.9723333 24.7389667,20.2113 23.8,20.2113 C22.8610333,20.2113 22.1,20.9723333 22.1,21.9113 C22.1,22.8502667 22.8610333,23.6113 23.8,23.6113 C24.7389667,23.6113 25.5,22.8502667 25.5,21.9113 M24.3666667,21.9113 C24.3666667,22.2246667 24.1133667,22.4779667 23.8,22.4779667 C23.4866333,22.4779667 23.2333333,22.2246667 23.2333333,21.9113 C23.2333333,21.5979333 23.4866333,21.3446333 23.8,21.3446333 C24.1133667,21.3446333 24.3666667,21.5979333 24.3666667,21.9113" id="Fill-24" fill="#13C180" mask="url(#mask-2)"></path>
                <path d="M30.0333333,21.9113 C30.0333333,20.9723333 29.2723,20.2113 28.3333333,20.2113 C27.3943667,20.2113 26.6333333,20.9723333 26.6333333,21.9113 C26.6333333,22.8502667 27.3943667,23.6113 28.3333333,23.6113 C29.2723,23.6113 30.0333333,22.8502667 30.0333333,21.9113 M28.9,21.9113 C28.9,22.2246667 28.6467,22.4779667 28.3333333,22.4779667 C28.0199667,22.4779667 27.7666667,22.2246667 27.7666667,21.9113 C27.7666667,21.5979333 28.0199667,21.3446333 28.3333333,21.3446333 C28.6467,21.3446333 28.9,21.5979333 28.9,21.9113" id="Fill-25" fill="#13C180" mask="url(#mask-2)"></path>
            </g>
        </g>
    </g>
</svg>