<?xml version="1.0" encoding="UTF-8"?>
<svg width="54px" height="54px" viewBox="0 0 54 54" version="1.1" xmlns="http://www.w3.org/2000/svg" xmlns:xlink="http://www.w3.org/1999/xlink">
    <!-- Generator: Sketch 42 (36781) - http://www.bohemiancoding.com/sketch -->
    <title>cad-small-icon</title>
    <desc>Created with Sketch.</desc>
    <defs>
        <polygon id="path-1" points="0 54 54 54 54 0 0 0"></polygon>
    </defs>
    <g id="Welcome" stroke="none" stroke-width="1" fill="none" fill-rule="evenodd">
        <g id="home" transform="translate(-172.000000, -1420.000000)">
            <g id="cad-small-icon" transform="translate(172.000000, 1420.000000)">
                <path d="M30.6,24.3 C30.6,24.7977 30.1977,25.2 29.7,25.2 L8.1,25.2 C7.6023,25.2 7.2,24.7977 7.2,24.3 L7.2,6.3 C7.2,4.8087 8.4087,3.6 9.9,3.6 L27.9,3.6 C29.3913,3.6 30.6,4.8087 30.6,6.3 L30.6,24.3 Z M9,23.4 L28.8,23.4 L28.8,6.3 C28.8,5.8023 28.3977,5.4 27.9,5.4 L9.9,5.4 C9.4023,5.4 9,5.8023 9,6.3 L9,23.4 Z" id="Fill-1" fill="#13C180"></path>
                <mask id="mask-2" fill="white">
                    <use xlink:href="#path-1"></use>
                </mask>
                <g id="Clip-4"></g>
                <path d="M16.2,9 L21.6,9 L21.6,5.4 L16.2,5.4 L16.2,9 Z M15.3,10.8 L22.5,10.8 C22.9977,10.8 23.4,10.3977 23.4,9.9 L23.4,4.5 C23.4,4.0023 22.9977,3.6 22.5,3.6 L15.3,3.6 C14.8023,3.6 14.4,4.0023 14.4,4.5 L14.4,9.9 C14.4,10.3977 14.8023,10.8 15.3,10.8 L15.3,10.8 Z" id="Fill-3" fill="#13C180" mask="url(#mask-2)"></path>
                <path d="M4.5,52.2 L8.1,52.2 L8.1,41.4 L4.5,41.4 L4.5,52.2 Z M3.6,54 L9,54 C9.4977,54 9.9,53.5977 9.9,53.1 L9.9,40.5 C9.9,40.0023 9.4977,39.6 9,39.6 L3.6,39.6 C3.1023,39.6 2.7,40.0023 2.7,40.5 L2.7,53.1 C2.7,53.5977 3.1023,54 3.6,54 L3.6,54 Z" id="Fill-5" fill="#13C180" mask="url(#mask-2)"></path>
                <path d="M45.9,52.2 L49.5,52.2 L49.5,41.4 L45.9,41.4 L45.9,52.2 Z M45,54 L50.4,54 C50.8977,54 51.3,53.5977 51.3,53.1 L51.3,40.5 C51.3,40.0023 50.8977,39.6 50.4,39.6 L45,39.6 C44.5023,39.6 44.1,40.0023 44.1,40.5 L44.1,53.1 C44.1,53.5977 44.5023,54 45,54 L45,54 Z" id="Fill-6" fill="#13C180" mask="url(#mask-2)"></path>
                <path d="M1.8,39.6 L52.2,39.6 L52.2,30.6 L1.8,30.6 L1.8,39.6 Z M0.9,41.4 L53.1,41.4 C53.5977,41.4 54,40.9977 54,40.5 L54,29.7 C54,29.2023 53.5977,28.8 53.1,28.8 L0.9,28.8 C0.4023,28.8 0,29.2023 0,29.7 L0,40.5 C0,40.9977 0.4023,41.4 0.9,41.4 L0.9,41.4 Z" id="Fill-7" fill="#13C180" mask="url(#mask-2)"></path>
                <path d="M36,29.7 L36,24.3 C36,23.8023 35.5977,23.4 35.1,23.4 L5.535,23.4 C3.8052,23.4 2.214,24.5592 1.8747,26.2557 C1.4112,28.5696 3.1689,30.6 5.4,30.6 L35.1,30.6 C35.5977,30.6 36,30.1977 36,29.7 L36,29.7 Z M5.4,28.8 C4.2165,28.8 3.2985,27.6561 3.6927,26.4141 C3.9303,25.6644 4.689,25.2 5.4756,25.2 L34.2,25.2 L34.2,28.8 L5.4,28.8 Z" id="Fill-8" fill="#13C180" mask="url(#mask-2)"></path>
                <path d="M0.9,54 L53.1,54 C53.5977,54 54,53.5977 54,53.1 C54,52.6023 53.5977,52.2 53.1,52.2 L0.9,52.2 C0.4023,52.2 0,52.6023 0,53.1 C0,53.5977 0.4023,54 0.9,54" id="Fill-9" fill="#13C180" mask="url(#mask-2)"></path>
                <path d="M36,28.8 L52.2,28.8 L52.2,1.8 L36,1.8 L36,28.8 Z M35.1,30.6 L53.1,30.6 C53.5977,30.6 54,30.1977 54,29.7 L54,0.9 C54,0.4023 53.5977,0 53.1,0 L35.1,0 C34.6023,0 34.2,0.4023 34.2,0.9 L34.2,29.7 C34.2,30.1977 34.6023,30.6 35.1,30.6 L35.1,30.6 Z" id="Fill-10" fill="#13C180" mask="url(#mask-2)"></path>
                <path d="M39.6,10.8 L48.6,10.8 L48.6,5.4 L39.6,5.4 L39.6,10.8 Z M38.7,12.6 L49.5,12.6 C49.9977,12.6 50.4,12.1977 50.4,11.7 L50.4,4.5 C50.4,4.0023 49.9977,3.6 49.5,3.6 L38.7,3.6 C38.2023,3.6 37.8,4.0023 37.8,4.5 L37.8,11.7 C37.8,12.1977 38.2023,12.6 38.7,12.6 L38.7,12.6 Z" id="Fill-11" fill="#13C180" mask="url(#mask-2)"></path>
                <path d="M37.8,15.0003 L37.8,17.7003 C37.8,18.1971 38.2023,18.6003 38.7,18.6003 C39.1977,18.6003 39.6,18.1971 39.6,17.7003 L39.6,15.0003 C39.6,14.5026 39.1977,14.1003 38.7,14.1003 C38.2023,14.1003 37.8,14.5026 37.8,15.0003" id="Fill-12" fill="#13C180" mask="url(#mask-2)"></path>
                <path d="M48.6,15.0003 L48.6,17.7003 C48.6,18.1971 49.0023,18.6003 49.5,18.6003 C49.9977,18.6003 50.4,18.1971 50.4,17.7003 L50.4,15.0003 C50.4,14.5026 49.9977,14.1003 49.5,14.1003 C49.0023,14.1003 48.6,14.5026 48.6,15.0003" id="Fill-13" fill="#13C180" mask="url(#mask-2)"></path>
                <path d="M45,15.0003 L45,17.7003 C45,18.1971 45.4023,18.6003 45.9,18.6003 C46.3977,18.6003 46.8,18.1971 46.8,17.7003 L46.8,15.0003 C46.8,14.5026 46.3977,14.1003 45.9,14.1003 C45.4023,14.1003 45,14.5026 45,15.0003" id="Fill-14" fill="#13C180" mask="url(#mask-2)"></path>
                <path d="M41.4,15.0003 L41.4,17.7003 C41.4,18.1971 41.8023,18.6003 42.3,18.6003 C42.7977,18.6003 43.2,18.1971 43.2,17.7003 L43.2,15.0003 C43.2,14.5026 42.7977,14.1003 42.3,14.1003 C41.8023,14.1003 41.4,14.5026 41.4,15.0003" id="Fill-15" fill="#13C180" mask="url(#mask-2)"></path>
                <path d="M39.6,24.3 L41.4,24.3 L41.4,22.5 L39.6,22.5 L39.6,24.3 Z M38.7,26.1 L42.3,26.1 C42.7977,26.1 43.2,25.6977 43.2,25.2 L43.2,21.6 C43.2,21.1023 42.7977,20.7 42.3,20.7 L38.7,20.7 C38.2023,20.7 37.8,21.1023 37.8,21.6 L37.8,25.2 C37.8,25.6977 38.2023,26.1 38.7,26.1 L38.7,26.1 Z" id="Fill-16" fill="#13C180" mask="url(#mask-2)"></path>
                <path d="M46.8,24.3 L48.6,24.3 L48.6,22.5 L46.8,22.5 L46.8,24.3 Z M45.9,26.1 L49.5,26.1 C49.9977,26.1 50.4,25.6977 50.4,25.2 L50.4,21.6 C50.4,21.1023 49.9977,20.7 49.5,20.7 L45.9,20.7 C45.4023,20.7 45,21.1023 45,21.6 L45,25.2 C45,25.6977 45.4023,26.1 45.9,26.1 L45.9,26.1 Z" id="Fill-17" fill="#13C180" mask="url(#mask-2)"></path>
                <path d="M16.2,16.2 L21.6,16.2 C22.0977,16.2 22.5,15.7977 22.5,15.3 C22.5,14.8023 22.0977,14.4 21.6,14.4 L16.2,14.4 C15.7023,14.4 15.3,14.8023 15.3,15.3 C15.3,15.7977 15.7023,16.2 16.2,16.2" id="Fill-18" fill="#13C180" mask="url(#mask-2)"></path>
                <path d="M14.4,19.8 L23.4,19.8 C23.8977,19.8 24.3,19.3977 24.3,18.9 C24.3,18.4023 23.8977,18 23.4,18 L14.4,18 C13.9023,18 13.5,18.4023 13.5,18.9 C13.5,19.3977 13.9023,19.8 14.4,19.8" id="Fill-19" fill="#13C180" mask="url(#mask-2)"></path>
                <path d="M11.7,34.8003 C11.7,33.309 10.4913,32.1003 9,32.1003 C7.5087,32.1003 6.3,33.309 6.3,34.8003 C6.3,36.2916 7.5087,37.5003 9,37.5003 C10.4913,37.5003 11.7,36.2916 11.7,34.8003 M9.9,34.8003 C9.9,35.298 9.4977,35.7003 9,35.7003 C8.5023,35.7003 8.1,35.298 8.1,34.8003 C8.1,34.3026 8.5023,33.9003 9,33.9003 C9.4977,33.9003 9.9,34.3026 9.9,34.8003" id="Fill-20" fill="#13C180" mask="url(#mask-2)"></path>
                <path d="M18.9,34.8003 C18.9,33.309 17.6913,32.1003 16.2,32.1003 C14.7087,32.1003 13.5,33.309 13.5,34.8003 C13.5,36.2916 14.7087,37.5003 16.2,37.5003 C17.6913,37.5003 18.9,36.2916 18.9,34.8003 M17.1,34.8003 C17.1,35.298 16.6977,35.7003 16.2,35.7003 C15.7023,35.7003 15.3,35.298 15.3,34.8003 C15.3,34.3026 15.7023,33.9003 16.2,33.9003 C16.6977,33.9003 17.1,34.3026 17.1,34.8003" id="Fill-21" fill="#13C180" mask="url(#mask-2)"></path>
                <path d="M26.1,34.8003 C26.1,33.309 24.8913,32.1003 23.4,32.1003 C21.9087,32.1003 20.7,33.309 20.7,34.8003 C20.7,36.2916 21.9087,37.5003 23.4,37.5003 C24.8913,37.5003 26.1,36.2916 26.1,34.8003 M24.3,34.8003 C24.3,35.298 23.8977,35.7003 23.4,35.7003 C22.9023,35.7003 22.5,35.298 22.5,34.8003 C22.5,34.3026 22.9023,33.9003 23.4,33.9003 C23.8977,33.9003 24.3,34.3026 24.3,34.8003" id="Fill-22" fill="#13C180" mask="url(#mask-2)"></path>
                <path d="M33.3,34.8003 C33.3,33.309 32.0913,32.1003 30.6,32.1003 C29.1087,32.1003 27.9,33.309 27.9,34.8003 C27.9,36.2916 29.1087,37.5003 30.6,37.5003 C32.0913,37.5003 33.3,36.2916 33.3,34.8003 M31.5,34.8003 C31.5,35.298 31.0977,35.7003 30.6,35.7003 C30.1023,35.7003 29.7,35.298 29.7,34.8003 C29.7,34.3026 30.1023,33.9003 30.6,33.9003 C31.0977,33.9003 31.5,34.3026 31.5,34.8003" id="Fill-23" fill="#13C180" mask="url(#mask-2)"></path>
                <path d="M40.5,34.8003 C40.5,33.309 39.2913,32.1003 37.8,32.1003 C36.3087,32.1003 35.1,33.309 35.1,34.8003 C35.1,36.2916 36.3087,37.5003 37.8,37.5003 C39.2913,37.5003 40.5,36.2916 40.5,34.8003 M38.7,34.8003 C38.7,35.298 38.2977,35.7003 37.8,35.7003 C37.3023,35.7003 36.9,35.298 36.9,34.8003 C36.9,34.3026 37.3023,33.9003 37.8,33.9003 C38.2977,33.9003 38.7,34.3026 38.7,34.8003" id="Fill-24" fill="#13C180" mask="url(#mask-2)"></path>
                <path d="M47.7,34.8003 C47.7,33.309 46.4913,32.1003 45,32.1003 C43.5087,32.1003 42.3,33.309 42.3,34.8003 C42.3,36.2916 43.5087,37.5003 45,37.5003 C46.4913,37.5003 47.7,36.2916 47.7,34.8003 M45.9,34.8003 C45.9,35.298 45.4977,35.7003 45,35.7003 C44.5023,35.7003 44.1,35.298 44.1,34.8003 C44.1,34.3026 44.5023,33.9003 45,33.9003 C45.4977,33.9003 45.9,34.3026 45.9,34.8003" id="Fill-25" fill="#13C180" mask="url(#mask-2)"></path>
            </g>
        </g>
    </g>
</svg>