<?xml version="1.0" encoding="UTF-8"?>
<svg width="70px" height="70px" viewBox="0 0 70 70" version="1.1" xmlns="http://www.w3.org/2000/svg" xmlns:xlink="http://www.w3.org/1999/xlink">
    <!-- Generator: Sketch 42 (36781) - http://www.bohemiancoding.com/sketch -->
    <title>cad-white-icon</title>
    <desc>Created with Sketch.</desc>
    <defs>
        <polygon id="path-1" points="0 70 70 70 70 0 0 0"></polygon>
    </defs>
    <g id="Welcome" stroke="none" stroke-width="1" fill="none" fill-rule="evenodd">
        <g id="home" transform="translate(-614.000000, -624.000000)">
            <g id="cad-white-icon" transform="translate(614.000000, 624.000000)">
                <path d="M39.6666667,31.5 C39.6666667,32.1451667 39.1451667,32.6666667 38.5,32.6666667 L10.5,32.6666667 C9.85483333,32.6666667 9.33333333,32.1451667 9.33333333,31.5 L9.33333333,8.16666667 C9.33333333,6.2335 10.9001667,4.66666667 12.8333333,4.66666667 L36.1666667,4.66666667 C38.0998333,4.66666667 39.6666667,6.2335 39.6666667,8.16666667 L39.6666667,31.5 Z M11.6666667,30.3333333 L37.3333333,30.3333333 L37.3333333,8.16666667 C37.3333333,7.5215 36.8118333,7 36.1666667,7 L12.8333333,7 C12.1881667,7 11.6666667,7.5215 11.6666667,8.16666667 L11.6666667,30.3333333 Z" id="Fill-1" fill="#F2F2F2"></path>
                <mask id="mask-2" fill="white">
                    <use xlink:href="#path-1"></use>
                </mask>
                <g id="Clip-4"></g>
                <path d="M21,11.6666667 L28,11.6666667 L28,7 L21,7 L21,11.6666667 Z M19.8333333,14 L29.1666667,14 C29.8118333,14 30.3333333,13.4785 30.3333333,12.8333333 L30.3333333,5.83333333 C30.3333333,5.18816667 29.8118333,4.66666667 29.1666667,4.66666667 L19.8333333,4.66666667 C19.1881667,4.66666667 18.6666667,5.18816667 18.6666667,5.83333333 L18.6666667,12.8333333 C18.6666667,13.4785 19.1881667,14 19.8333333,14 L19.8333333,14 Z" id="Fill-3" fill="#F2F2F2" mask="url(#mask-2)"></path>
                <path d="M5.83333333,67.6666667 L10.5,67.6666667 L10.5,53.6666667 L5.83333333,53.6666667 L5.83333333,67.6666667 Z M4.66666667,70 L11.6666667,70 C12.3118333,70 12.8333333,69.4785 12.8333333,68.8333333 L12.8333333,52.5 C12.8333333,51.8548333 12.3118333,51.3333333 11.6666667,51.3333333 L4.66666667,51.3333333 C4.0215,51.3333333 3.5,51.8548333 3.5,52.5 L3.5,68.8333333 C3.5,69.4785 4.0215,70 4.66666667,70 L4.66666667,70 Z" id="Fill-5" fill="#F2F2F2" mask="url(#mask-2)"></path>
                <path d="M59.5,67.6666667 L64.1666667,67.6666667 L64.1666667,53.6666667 L59.5,53.6666667 L59.5,67.6666667 Z M58.3333333,70 L65.3333333,70 C65.9785,70 66.5,69.4785 66.5,68.8333333 L66.5,52.5 C66.5,51.8548333 65.9785,51.3333333 65.3333333,51.3333333 L58.3333333,51.3333333 C57.6881667,51.3333333 57.1666667,51.8548333 57.1666667,52.5 L57.1666667,68.8333333 C57.1666667,69.4785 57.6881667,70 58.3333333,70 L58.3333333,70 Z" id="Fill-6" fill="#F2F2F2" mask="url(#mask-2)"></path>
                <path d="M2.33333333,51.3333333 L67.6666667,51.3333333 L67.6666667,39.6666667 L2.33333333,39.6666667 L2.33333333,51.3333333 Z M1.16666667,53.6666667 L68.8333333,53.6666667 C69.4785,53.6666667 70,53.1451667 70,52.5 L70,38.5 C70,37.8548333 69.4785,37.3333333 68.8333333,37.3333333 L1.16666667,37.3333333 C0.5215,37.3333333 0,37.8548333 0,38.5 L0,52.5 C0,53.1451667 0.5215,53.6666667 1.16666667,53.6666667 L1.16666667,53.6666667 Z" id="Fill-7" fill="#F2F2F2" mask="url(#mask-2)"></path>
                <path d="M46.6666667,38.5 L46.6666667,31.5 C46.6666667,30.8548333 46.1451667,30.3333333 45.5,30.3333333 L7.175,30.3333333 C4.93266667,30.3333333 2.87,31.836 2.43016667,34.0351667 C1.82933333,37.0346667 4.10783333,39.6666667 7,39.6666667 L45.5,39.6666667 C46.1451667,39.6666667 46.6666667,39.1451667 46.6666667,38.5 L46.6666667,38.5 Z M7,37.3333333 C5.46583333,37.3333333 4.27583333,35.8505 4.78683333,34.2405 C5.09483333,33.2686667 6.07833333,32.6666667 7.098,32.6666667 L44.3333333,32.6666667 L44.3333333,37.3333333 L7,37.3333333 Z" id="Fill-8" fill="#F2F2F2" mask="url(#mask-2)"></path>
                <path d="M1.16666667,70 L68.8333333,70 C69.4785,70 70,69.4785 70,68.8333333 C70,68.1881667 69.4785,67.6666667 68.8333333,67.6666667 L1.16666667,67.6666667 C0.5215,67.6666667 0,68.1881667 0,68.8333333 C0,69.4785 0.5215,70 1.16666667,70" id="Fill-9" fill="#F2F2F2" mask="url(#mask-2)"></path>
                <path d="M46.6666667,37.3333333 L67.6666667,37.3333333 L67.6666667,2.33333333 L46.6666667,2.33333333 L46.6666667,37.3333333 Z M45.5,39.6666667 L68.8333333,39.6666667 C69.4785,39.6666667 70,39.1451667 70,38.5 L70,1.16666667 C70,0.5215 69.4785,0 68.8333333,0 L45.5,0 C44.8548333,0 44.3333333,0.5215 44.3333333,1.16666667 L44.3333333,38.5 C44.3333333,39.1451667 44.8548333,39.6666667 45.5,39.6666667 L45.5,39.6666667 Z" id="Fill-10" fill="#F2F2F2" mask="url(#mask-2)"></path>
                <path d="M51.3333333,14 L63,14 L63,7 L51.3333333,7 L51.3333333,14 Z M50.1666667,16.3333333 L64.1666667,16.3333333 C64.8118333,16.3333333 65.3333333,15.8118333 65.3333333,15.1666667 L65.3333333,5.83333333 C65.3333333,5.18816667 64.8118333,4.66666667 64.1666667,4.66666667 L50.1666667,4.66666667 C49.5215,4.66666667 49,5.18816667 49,5.83333333 L49,15.1666667 C49,15.8118333 49.5215,16.3333333 50.1666667,16.3333333 L50.1666667,16.3333333 Z" id="Fill-11" fill="#F2F2F2" mask="url(#mask-2)"></path>
                <path d="M49,19.4448333 L49,22.9448333 C49,23.5888333 49.5215,24.1115 50.1666667,24.1115 C50.8118333,24.1115 51.3333333,23.5888333 51.3333333,22.9448333 L51.3333333,19.4448333 C51.3333333,18.7996667 50.8118333,18.2781667 50.1666667,18.2781667 C49.5215,18.2781667 49,18.7996667 49,19.4448333" id="Fill-12" fill="#F2F2F2" mask="url(#mask-2)"></path>
                <path d="M63,19.4448333 L63,22.9448333 C63,23.5888333 63.5215,24.1115 64.1666667,24.1115 C64.8118333,24.1115 65.3333333,23.5888333 65.3333333,22.9448333 L65.3333333,19.4448333 C65.3333333,18.7996667 64.8118333,18.2781667 64.1666667,18.2781667 C63.5215,18.2781667 63,18.7996667 63,19.4448333" id="Fill-13" fill="#F2F2F2" mask="url(#mask-2)"></path>
                <path d="M58.3333333,19.4448333 L58.3333333,22.9448333 C58.3333333,23.5888333 58.8548333,24.1115 59.5,24.1115 C60.1451667,24.1115 60.6666667,23.5888333 60.6666667,22.9448333 L60.6666667,19.4448333 C60.6666667,18.7996667 60.1451667,18.2781667 59.5,18.2781667 C58.8548333,18.2781667 58.3333333,18.7996667 58.3333333,19.4448333" id="Fill-14" fill="#F2F2F2" mask="url(#mask-2)"></path>
                <path d="M53.6666667,19.4448333 L53.6666667,22.9448333 C53.6666667,23.5888333 54.1881667,24.1115 54.8333333,24.1115 C55.4785,24.1115 56,23.5888333 56,22.9448333 L56,19.4448333 C56,18.7996667 55.4785,18.2781667 54.8333333,18.2781667 C54.1881667,18.2781667 53.6666667,18.7996667 53.6666667,19.4448333" id="Fill-15" fill="#F2F2F2" mask="url(#mask-2)"></path>
                <path d="M51.3333333,31.5 L53.6666667,31.5 L53.6666667,29.1666667 L51.3333333,29.1666667 L51.3333333,31.5 Z M50.1666667,33.8333333 L54.8333333,33.8333333 C55.4785,33.8333333 56,33.3118333 56,32.6666667 L56,28 C56,27.3548333 55.4785,26.8333333 54.8333333,26.8333333 L50.1666667,26.8333333 C49.5215,26.8333333 49,27.3548333 49,28 L49,32.6666667 C49,33.3118333 49.5215,33.8333333 50.1666667,33.8333333 L50.1666667,33.8333333 Z" id="Fill-16" fill="#F2F2F2" mask="url(#mask-2)"></path>
                <path d="M60.6666667,31.5 L63,31.5 L63,29.1666667 L60.6666667,29.1666667 L60.6666667,31.5 Z M59.5,33.8333333 L64.1666667,33.8333333 C64.8118333,33.8333333 65.3333333,33.3118333 65.3333333,32.6666667 L65.3333333,28 C65.3333333,27.3548333 64.8118333,26.8333333 64.1666667,26.8333333 L59.5,26.8333333 C58.8548333,26.8333333 58.3333333,27.3548333 58.3333333,28 L58.3333333,32.6666667 C58.3333333,33.3118333 58.8548333,33.8333333 59.5,33.8333333 L59.5,33.8333333 Z" id="Fill-17" fill="#F2F2F2" mask="url(#mask-2)"></path>
                <path d="M21,21 L28,21 C28.6451667,21 29.1666667,20.4785 29.1666667,19.8333333 C29.1666667,19.1881667 28.6451667,18.6666667 28,18.6666667 L21,18.6666667 C20.3548333,18.6666667 19.8333333,19.1881667 19.8333333,19.8333333 C19.8333333,20.4785 20.3548333,21 21,21" id="Fill-18" fill="#F2F2F2" mask="url(#mask-2)"></path>
                <path d="M18.6666667,25.6666667 L30.3333333,25.6666667 C30.9785,25.6666667 31.5,25.1451667 31.5,24.5 C31.5,23.8548333 30.9785,23.3333333 30.3333333,23.3333333 L18.6666667,23.3333333 C18.0215,23.3333333 17.5,23.8548333 17.5,24.5 C17.5,25.1451667 18.0215,25.6666667 18.6666667,25.6666667" id="Fill-19" fill="#F2F2F2" mask="url(#mask-2)"></path>
                <path d="M15.1666667,45.1115 C15.1666667,43.1783333 13.5998333,41.6115 11.6666667,41.6115 C9.7335,41.6115 8.16666667,43.1783333 8.16666667,45.1115 C8.16666667,47.0446667 9.7335,48.6115 11.6666667,48.6115 C13.5998333,48.6115 15.1666667,47.0446667 15.1666667,45.1115 M12.8333333,45.1115 C12.8333333,45.7566667 12.3118333,46.2781667 11.6666667,46.2781667 C11.0215,46.2781667 10.5,45.7566667 10.5,45.1115 C10.5,44.4663333 11.0215,43.9448333 11.6666667,43.9448333 C12.3118333,43.9448333 12.8333333,44.4663333 12.8333333,45.1115" id="Fill-20" fill="#F2F2F2" mask="url(#mask-2)"></path>
                <path d="M24.5,45.1115 C24.5,43.1783333 22.9331667,41.6115 21,41.6115 C19.0668333,41.6115 17.5,43.1783333 17.5,45.1115 C17.5,47.0446667 19.0668333,48.6115 21,48.6115 C22.9331667,48.6115 24.5,47.0446667 24.5,45.1115 M22.1666667,45.1115 C22.1666667,45.7566667 21.6451667,46.2781667 21,46.2781667 C20.3548333,46.2781667 19.8333333,45.7566667 19.8333333,45.1115 C19.8333333,44.4663333 20.3548333,43.9448333 21,43.9448333 C21.6451667,43.9448333 22.1666667,44.4663333 22.1666667,45.1115" id="Fill-21" fill="#F2F2F2" mask="url(#mask-2)"></path>
                <path d="M33.8333333,45.1115 C33.8333333,43.1783333 32.2665,41.6115 30.3333333,41.6115 C28.4001667,41.6115 26.8333333,43.1783333 26.8333333,45.1115 C26.8333333,47.0446667 28.4001667,48.6115 30.3333333,48.6115 C32.2665,48.6115 33.8333333,47.0446667 33.8333333,45.1115 M31.5,45.1115 C31.5,45.7566667 30.9785,46.2781667 30.3333333,46.2781667 C29.6881667,46.2781667 29.1666667,45.7566667 29.1666667,45.1115 C29.1666667,44.4663333 29.6881667,43.9448333 30.3333333,43.9448333 C30.9785,43.9448333 31.5,44.4663333 31.5,45.1115" id="Fill-22" fill="#F2F2F2" mask="url(#mask-2)"></path>
                <path d="M43.1666667,45.1115 C43.1666667,43.1783333 41.5998333,41.6115 39.6666667,41.6115 C37.7335,41.6115 36.1666667,43.1783333 36.1666667,45.1115 C36.1666667,47.0446667 37.7335,48.6115 39.6666667,48.6115 C41.5998333,48.6115 43.1666667,47.0446667 43.1666667,45.1115 M40.8333333,45.1115 C40.8333333,45.7566667 40.3118333,46.2781667 39.6666667,46.2781667 C39.0215,46.2781667 38.5,45.7566667 38.5,45.1115 C38.5,44.4663333 39.0215,43.9448333 39.6666667,43.9448333 C40.3118333,43.9448333 40.8333333,44.4663333 40.8333333,45.1115" id="Fill-23" fill="#F2F2F2" mask="url(#mask-2)"></path>
                <path d="M52.5,45.1115 C52.5,43.1783333 50.9331667,41.6115 49,41.6115 C47.0668333,41.6115 45.5,43.1783333 45.5,45.1115 C45.5,47.0446667 47.0668333,48.6115 49,48.6115 C50.9331667,48.6115 52.5,47.0446667 52.5,45.1115 M50.1666667,45.1115 C50.1666667,45.7566667 49.6451667,46.2781667 49,46.2781667 C48.3548333,46.2781667 47.8333333,45.7566667 47.8333333,45.1115 C47.8333333,44.4663333 48.3548333,43.9448333 49,43.9448333 C49.6451667,43.9448333 50.1666667,44.4663333 50.1666667,45.1115" id="Fill-24" fill="#F2F2F2" mask="url(#mask-2)"></path>
                <path d="M61.8333333,45.1115 C61.8333333,43.1783333 60.2665,41.6115 58.3333333,41.6115 C56.4001667,41.6115 54.8333333,43.1783333 54.8333333,45.1115 C54.8333333,47.0446667 56.4001667,48.6115 58.3333333,48.6115 C60.2665,48.6115 61.8333333,47.0446667 61.8333333,45.1115 M59.5,45.1115 C59.5,45.7566667 58.9785,46.2781667 58.3333333,46.2781667 C57.6881667,46.2781667 57.1666667,45.7566667 57.1666667,45.1115 C57.1666667,44.4663333 57.6881667,43.9448333 58.3333333,43.9448333 C58.9785,43.9448333 59.5,44.4663333 59.5,45.1115" id="Fill-25" fill="#F2F2F2" mask="url(#mask-2)"></path>
            </g>
        </g>
    </g>
</svg>