<?xml version="1.0" encoding="UTF-8"?>
<svg width="44px" height="44px" viewBox="0 0 44 44" version="1.1" xmlns="http://www.w3.org/2000/svg" xmlns:xlink="http://www.w3.org/1999/xlink">
    <!-- Generator: Sketch 42 (36781) - http://www.bohemiancoding.com/sketch -->
    <title>facebook-menu-icon</title>
    <desc>Created with Sketch.</desc>
    <defs></defs>
    <g id="Welcome" stroke="none" stroke-width="1" fill="none" fill-rule="evenodd">
        <g id="menu" transform="translate(-1066.000000, -743.000000)" fill="#FFFFFF">
            <path d="M1101.75,743 C1104.02258,743 1105.9657,743.80685 1107.57943,745.420573 C1109.19315,747.034296 1110,748.977419 1110,751.25 L1110,778.75 C1110,781.022581 1109.19315,782.965704 1107.57943,784.579427 C1105.9657,786.19315 1104.02258,787 1101.75,787 L1096.36458,787 L1096.36458,769.955729 L1102.0651,769.955729 L1102.92448,763.309896 L1096.36458,763.309896 L1096.36458,759.070312 C1096.36458,758.000863 1096.58897,757.198787 1097.03776,756.664062 C1097.48655,756.129338 1098.36024,755.861979 1099.65885,755.861979 L1103.15365,755.833333 L1103.15365,749.903646 C1101.95051,749.73177 1100.25088,749.645833 1098.05469,749.645833 C1095.45745,749.645833 1093.38065,750.409715 1091.82422,751.9375 C1090.26779,753.465285 1089.48958,755.62325 1089.48958,758.411458 L1089.48958,763.309896 L1083.76042,763.309896 L1083.76042,769.955729 L1089.48958,769.955729 L1089.48958,787 L1074.25,787 C1071.97742,787 1070.0343,786.19315 1068.42057,784.579427 C1066.80685,782.965704 1066,781.022581 1066,778.75 L1066,751.25 C1066,748.977419 1066.80685,747.034296 1068.42057,745.420573 C1070.0343,743.80685 1071.97742,743 1074.25,743 L1101.75,743 Z" id="facebook-menu-icon"></path>
        </g>
    </g>
</svg>