<?xml version="1.0" encoding="UTF-8"?>
<svg width="26px" height="26px" viewBox="0 0 26 26" version="1.1" xmlns="http://www.w3.org/2000/svg" xmlns:xlink="http://www.w3.org/1999/xlink">
    <!-- Generator: Sketch 42 (36781) - http://www.bohemiancoding.com/sketch -->
    <title>facebook-icon</title>
    <desc>Created with Sketch.</desc>
    <defs></defs>
    <g id="Symbols" stroke="none" stroke-width="1" fill="none" fill-rule="evenodd">
        <g id="Blocks-/-Footer" transform="translate(-675.000000, -139.000000)" fill="#14C180">
            <path d="M696.125,139 C697.467889,139 698.616098,139.476775 699.569661,140.430339 C700.523225,141.383902 701,142.532111 701,143.875 L701,160.125 C701,161.467889 700.523225,162.616098 699.569661,163.569661 C698.616098,164.523225 697.467889,165 696.125,165 L692.942708,165 L692.942708,154.928385 L696.311198,154.928385 L696.81901,151.001302 L692.942708,151.001302 L692.942708,148.496094 C692.942708,147.864146 693.075302,147.390193 693.340495,147.074219 C693.605687,146.758245 694.121958,146.60026 694.889323,146.60026 L696.954427,146.583333 L696.954427,143.079427 C696.243486,142.977864 695.239156,142.927083 693.941406,142.927083 C692.406676,142.927083 691.179475,143.378468 690.259766,144.28125 C689.340056,145.184032 688.880208,146.459193 688.880208,148.106771 L688.880208,151.001302 L685.494792,151.001302 L685.494792,154.928385 L688.880208,154.928385 L688.880208,165 L679.875,165 C678.532111,165 677.383902,164.523225 676.430339,163.569661 C675.476775,162.616098 675,161.467889 675,160.125 L675,143.875 C675,142.532111 675.476775,141.383902 676.430339,140.430339 C677.383902,139.476775 678.532111,139 679.875,139 L696.125,139 Z" id="facebook-icon"></path>
        </g>
    </g>
</svg>