<?xml version="1.0" encoding="UTF-8"?>
<svg width="36px" height="37px" viewBox="0 0 36 37" version="1.1" xmlns="http://www.w3.org/2000/svg" xmlns:xlink="http://www.w3.org/1999/xlink">
    <!-- Generator: Sketch 42 (36781) - http://www.bohemiancoding.com/sketch -->
    <title>flexible-protez-side-menu-icon</title>
    <desc>Created with Sketch.</desc>
    <defs></defs>
    <g id="Welcome" stroke="none" stroke-width="1" fill="none" fill-rule="evenodd">
        <g id="services/implantation" transform="translate(-168.000000, -681.000000)" fill="#13C180">
            <path d="M199.432529,714.744035 C196.61091,715.632577 193.711748,716.019375 190.890128,716.019375 C180.105849,716.019375 170.36565,710.762477 169.708367,709.87348 C169.399111,709.371281 169.205712,707.399431 169.167397,705.621893 C169.670052,706.472119 170.636135,707.013546 171.911931,707.168174 L172.259502,707.168174 C172.993871,707.168174 173.689469,706.897232 174.26921,706.433348 C174.617237,707.592831 175.622091,708.327656 177.091286,708.481828 L177.400542,708.481828 C178.057369,708.481828 178.675881,708.25057 179.216851,707.863772 C179.487336,709.023254 180.415561,709.757623 181.845528,709.912251 L182.116013,709.912251 C182.812067,709.912251 183.468894,709.64131 184.009865,709.139111 C184.087407,709.371281 184.203264,709.64131 184.357892,709.87348 C184.783005,710.569534 185.440288,711.032962 186.174657,711.18759 C186.290514,711.226362 186.445142,711.226362 186.560999,711.226362 C187.024883,711.226362 187.913881,711.032962 188.493622,709.602995 C188.532393,709.56468 188.532393,709.487138 188.532393,709.448823 C188.532393,709.487138 188.571164,709.525909 188.571164,709.56468 C189.150905,710.608305 190.039902,711.18759 191.083527,711.18759 C191.199384,711.18759 191.315241,711.18759 191.469869,711.149276 C192.358867,711.032962 193.054921,710.569534 193.441263,709.834709 C193.943918,710.685391 194.678287,711.149276 195.528513,711.149276 C195.64437,711.149276 195.760227,711.149276 195.876541,711.110505 C196.61091,710.994648 197.190651,710.608305 197.538678,709.989337 C198.040877,710.530763 198.582303,710.685391 198.968645,710.685391 C199.162044,710.685391 199.393758,710.647077 199.587157,710.569534 C200.398613,710.337364 200.97881,709.796394 201.28761,709.023254 C201.442238,709.062025 201.596866,709.100796 201.751494,709.100796 C201.867351,709.100796 201.983664,709.100796 202.099521,709.062025 C202.254149,713.081442 201.829036,713.970895 199.432529,714.744035 M170.713677,701.215678 C171.177105,701.176907 171.409275,701.370306 171.757303,701.717877 C171.989017,701.911276 172.220731,702.181761 172.568758,702.297618 C172.878014,702.413931 173.264356,702.336389 173.535297,702.258847 C173.651154,702.220532 173.767011,702.181761 173.882868,702.181761 C173.96041,702.181761 174.153809,702.181761 174.462609,702.799817 C174.73355,703.341244 174.617237,704.152699 174.192124,704.810438 C173.72824,705.544351 172.993871,706.008691 172.259502,706.008691 L172.066103,706.008691 C170.867849,705.892378 170.172251,705.350952 169.940537,704.462411 C169.631281,703.186616 170.36565,701.524934 170.713677,701.215678 M176.047204,703.070759 C176.434003,703.031987 176.627402,703.225387 176.975429,703.534643 C177.168372,703.728042 177.400542,703.959756 177.709342,704.075613 C177.980283,704.19147 178.366625,704.114384 178.598795,704.075613 C178.714652,704.036842 178.830509,704.036842 178.907595,704.036842 C179.062223,704.036842 179.216851,704.230241 179.371935,704.578268 C179.603649,705.041696 179.487336,705.776521 179.139765,706.394577 C178.675881,707.129403 177.980283,707.515745 177.245458,707.438203 C176.202289,707.322346 175.583776,706.858918 175.352062,706.085777 C175.27452,705.854063 175.27452,705.583122 175.27452,705.312637 C175.583776,704.732896 175.738405,704.114384 175.738405,703.534643 C175.854262,703.302473 175.970119,703.147844 176.047204,703.070759 M180.956531,705.350952 C181.265787,705.350952 181.45873,705.467265 181.729215,705.698979 C181.922614,705.854063 182.116013,706.047006 182.425269,706.163319 C182.695754,706.239949 183.00501,706.201178 183.23718,706.163319 C183.353037,706.124548 183.430123,706.124548 183.507209,706.124548 C183.623522,706.124548 183.739379,706.27872 183.894008,706.549205 C184.087407,706.897232 184.009865,707.438203 183.700608,707.902543 C183.430123,708.366427 182.889153,708.829855 182.193555,708.829855 L182.038927,708.829855 C181.111159,708.713998 180.569733,708.366427 180.415561,707.747459 C180.14462,706.781375 180.68559,705.621893 180.956531,705.350952 M186.213428,705.776521 C186.638541,706.085777 187.449996,706.665518 187.759252,706.936003 C187.875109,707.322346 187.798024,708.829855 187.218282,709.718852 C186.947341,710.143965 186.715627,710.143965 186.638541,710.143965 L186.483913,710.143965 C186.020029,710.066879 185.672002,709.796394 185.401517,709.33251 C185.131032,708.907397 185.015175,708.366427 184.937633,707.940858 C185.092261,707.515745 185.131032,707.090632 185.092261,706.665518 C185.246889,706.239949 185.517374,705.892378 186.213428,705.776521 M189.305533,706.356262 C189.730646,706.27872 190.619643,706.163319 191.354012,706.163319 C192.088382,706.163319 192.281781,706.27872 192.281781,706.27872 C192.513495,706.472119 192.977379,707.940858 192.629352,709.062025 C192.436409,709.680081 192.010839,710.028108 191.392783,710.10565 L191.160613,710.10565 C190.542101,710.10565 190.039902,709.757623 189.691875,709.100796 C189.150905,708.173028 189.112134,706.936003 189.305533,706.356262 M194.021004,706.163319 C194.407346,706.085777 195.142171,705.96992 195.721913,705.96992 C196.301654,705.96992 196.456282,706.085777 196.456282,706.085777 C196.687996,706.356262 197.15188,708.057171 196.726767,709.216653 C196.495053,709.912251 196.030712,710.066879 195.721913,710.10565 L195.528513,710.10565 C195.373885,710.10565 194.87123,710.10565 194.446117,709.33251 C193.905147,708.327656 193.866376,706.820146 194.021004,706.163319 M188.841649,696.654379 C188.687021,696.615608 188.532393,696.577293 188.377765,696.577293 C187.682167,696.577293 187.063654,696.963635 186.59977,697.659233 C186.251743,696.731921 185.594916,695.958325 184.357892,695.804153 L184.164493,695.804153 C183.739379,695.804153 183.120867,695.997096 182.46404,696.847778 C182.386498,696.963635 182.270641,697.117807 182.193555,697.23412 C181.729215,696.190495 180.724361,695.533668 179.294393,695.37904 C178.521253,695.301498 177.786884,695.494897 177.129601,695.958325 C176.897887,694.296643 175.660862,693.214247 173.612383,693.020848 C173.496526,693.020848 173.380669,692.982533 173.225585,692.982533 C172.027331,692.982533 170.829534,693.63936 170.095165,694.721756 C169.862995,694.567128 169.708367,694.451271 169.631281,694.335414 C169.167397,693.600589 168.973998,689.619487 169.167397,687.764407 C169.862995,688.421234 170.984162,689.194374 172.375359,689.890428 C174.115038,690.778969 177.013744,692.015994 180.91776,692.750363 C184.783005,693.485188 189.073819,693.909845 192.629352,693.909845 C195.025858,693.909845 198.273047,693.716446 200.128128,692.789134 C200.74664,692.479878 201.28761,692.132307 201.713179,691.745509 L201.713179,691.78428 L201.713179,691.861366 C201.829036,691.745509 201.906122,691.667967 201.983664,691.55211 C202.021979,692.441107 202.021979,693.253018 202.021979,693.909845 C201.481009,693.832759 201.017125,694.025702 200.669098,694.490042 C200.514926,694.721756 200.398613,695.031013 200.282756,695.340269 C199.703014,694.837613 199.007416,694.605899 198.118419,694.64467 C197.499907,694.683442 196.958937,694.992241 196.533368,695.494897 C196.37874,695.688296 196.224112,695.958325 196.108255,696.229266 C195.605599,695.571983 194.794144,695.185641 193.480034,695.108098 C192.127153,695.031013 191.083527,695.919554 190.465015,697.582147 C190.426244,697.659233 190.426244,697.736775 190.387473,697.813861 C190.155759,697.311206 189.614789,696.847778 188.841649,696.654379 M190.001131,702.529788 L189.730646,702.529788 C188.996277,702.529788 187.411681,702.529788 186.909026,702.065904 C186.83194,701.988362 186.793169,701.756192 186.793169,701.447392 C186.83194,701.060594 186.870255,700.59671 186.909026,700.05574 C186.986112,699.591856 187.14074,699.089657 187.334139,698.664087 C187.527538,698.238974 187.913881,697.736775 188.377765,697.736775 C188.455307,697.736775 188.493622,697.736775 188.571164,697.775546 C189.18922,697.930174 189.614789,698.393602 189.924045,699.205514 C190.387473,700.519624 190.19453,702.065904 190.001131,702.529788 M184.319121,702.993216 C183.894008,702.799817 182.850382,702.220532 182.541126,701.253993 C182.270641,700.365452 182.695754,698.54823 183.430123,697.543376 C183.700608,697.195349 183.97155,696.963635 184.164493,696.963635 L184.203264,696.963635 C185.478603,697.117807 185.749088,698.393602 185.710773,700.017425 C185.633687,700.480853 185.594916,700.944737 185.594916,701.408621 C185.517374,702.297618 184.705463,702.799817 184.319121,702.993216 M180.531418,701.370306 L180.453876,701.370306 C180.028763,701.370306 179.797049,701.176907 179.487336,700.867651 C179.255622,700.674252 179.023908,700.403767 178.675881,700.28791 C178.560024,700.249139 178.405396,700.210368 178.289083,700.210368 C178.09614,700.210368 177.902741,700.249139 177.709342,700.28791 C177.593485,700.326681 177.477628,700.365452 177.361771,700.365452 C177.284229,700.365452 177.091286,700.365452 176.78203,699.746484 C176.665717,699.514314 176.627402,699.283056 176.627402,699.012114 C176.820345,698.625772 176.975429,698.161888 177.052515,697.698004 C177.55517,696.886549 178.366625,696.46098 179.178536,696.538522 C180.37679,696.654379 181.072388,697.195349 181.304102,698.084802 C181.613814,699.398457 180.878989,701.060594 180.531418,701.370306 M175.081121,699.321371 L174.926493,699.321371 C174.385523,699.321371 174.115038,699.089657 173.767011,698.7804 C173.496526,698.54823 173.264356,698.31606 172.878014,698.200203 C172.762157,698.161888 172.607529,698.123573 172.452901,698.123573 C172.220731,698.123573 172.027331,698.161888 171.834389,698.200203 C171.67976,698.238974 171.525132,698.277745 171.409275,698.277745 C171.293418,698.277745 171.061248,698.277745 170.713677,697.582147 C170.442736,697.040721 170.520278,696.229266 170.945391,695.533668 C171.370504,694.798842 172.298273,694.025702 173.457755,694.142015 C174.848951,694.296643 175.699633,694.876384 175.893033,695.919554 C176.279375,697.349977 175.429148,699.050886 175.081121,699.321371 M171.602218,686.333983 L171.718532,686.333983 C171.911931,686.372754 172.452901,686.720325 172.955556,687.029581 C174.540151,688.034436 177.129601,689.7358 180.956531,690.353856 C184.242035,690.895283 188.416536,691.513339 191.817897,691.513339 C193.866376,691.513339 195.412656,691.319939 196.61091,690.856511 C198.195505,690.276314 199.123273,689.310231 199.084502,688.227835 C199.084502,687.261752 198.273047,685.793013 194.561974,684.517218 C193.01615,683.976248 191.856668,683.58945 190.967214,683.318965 C190.19453,683.087251 189.576018,682.855537 189.227991,682.739223 C189.691875,682.545824 190.697185,682.31411 191.70204,682.197797 C192.745665,682.391196 198.504761,684.130876 200.707869,686.604924 C201.365152,687.338838 202.138292,688.460005 201.944893,689.50363 C201.790265,690.353856 201.017125,691.126997 199.664243,691.78428 C198.350133,692.441107 195.915312,692.789134 192.668123,692.789134 C189.18922,692.789134 184.976404,692.364021 181.188245,691.667967 C174.926493,690.508484 170.867849,687.918579 169.824224,686.759096 C170.249793,686.566153 171.061248,686.333983 171.602218,686.333983 M190.426244,687.996121 C189.846503,687.879808 189.266762,687.764407 189.073819,687.725636 C188.957506,687.571008 188.687021,686.913724 188.64825,685.637929 C188.609479,684.826474 188.725792,684.208418 188.802878,683.82162 C189.227991,684.015019 189.807732,684.208418 190.619643,684.439676 C191.469869,684.710617 192.668123,685.097415 194.214403,685.637929 C197.654535,686.836182 197.92502,687.95735 197.92502,688.266606 C197.92502,688.73049 197.38405,689.27146 196.533368,689.658258 C194.561974,688.769261 192.088382,688.305377 190.426244,687.996121 M202.138292,699.553085 L202.099521,699.591856 C202.06075,699.475999 202.021979,699.398457 202.021979,699.283056 C201.944893,699.050886 201.867351,698.741629 201.751494,698.393602 C201.713179,698.31606 201.713179,698.277745 201.674408,698.200203 C201.635637,697.891403 201.596866,697.582147 201.481009,697.311206 C201.403923,696.46098 201.481009,695.610754 201.751494,695.224412 C201.829036,695.108098 201.867351,695.108098 201.906122,695.108098 L201.983664,695.108098 C202.331235,695.185641 202.602176,695.494897 202.718033,696.074638 C203.027289,697.465834 202.447092,699.321371 202.138292,699.553085 M201.210524,705.080467 C201.248839,704.926295 201.28761,704.810438 201.326381,704.694125 C201.674408,704.462411 202.177063,704.230241 202.485863,704.19147 C202.718033,704.617039 203.027289,706.394577 202.602176,707.438203 C202.408777,707.902543 202.177063,707.979629 201.983664,708.0184 L201.867351,708.0184 C201.829036,708.0184 201.751494,708.0184 201.674408,707.979629 C201.790265,706.974775 201.558551,705.815292 201.210524,705.080467 M197.809163,706.201178 C197.809163,706.163319 197.847478,706.085777 197.847478,706.047006 C198.46599,705.776521 199.470844,705.389723 199.9735,705.389723 L200.089357,705.389723 C200.321527,705.698979 200.74664,707.168174 200.437384,708.366427 C200.243985,709.023254 199.896414,709.448823 199.316672,709.602995 C199.200359,709.64131 199.123273,709.64131 199.045731,709.64131 C198.775246,709.64131 198.504761,709.448823 198.273047,709.062025 C198.195505,708.907397 198.118419,708.791084 198.079648,708.597685 C198.15719,707.78623 198.040877,706.858918 197.809163,706.201178 M196.803853,703.457101 C197.113565,703.612185 197.461136,703.689271 197.886249,703.689271 C198.582303,703.689271 199.432529,703.457101 200.243985,703.070759 C200.437384,702.993216 200.592012,702.877359 200.74664,702.799817 C200.940039,702.993216 201.094667,703.186616 201.248839,703.418786 C200.862497,703.612185 200.592012,703.805128 200.476155,703.88267 L200.360298,703.959756 L200.321527,704.075613 C200.282756,704.114384 200.282756,704.19147 200.243985,704.230241 C200.166899,704.230241 200.050585,704.19147 199.9735,704.19147 C199.007416,704.19147 197.576993,704.848753 197.190651,705.041696 C196.572139,704.655354 195.915312,704.384869 195.296799,704.152699 C195.876541,704.036842 196.417511,703.805128 196.803853,703.457101 M196.069484,700.712567 C196.108255,701.215678 196.147026,701.717877 196.185797,702.297618 C196.185797,702.413931 196.147026,702.491017 196.069484,702.568559 C195.760227,702.91613 194.832915,703.147844 193.750519,703.147844 C192.706894,703.147844 191.856668,702.91613 191.585726,702.684416 C191.469869,702.568559 191.354012,702.258847 191.315241,701.833734 C191.354012,701.292764 191.354012,700.635481 191.276926,699.978654 C191.315241,699.321371 191.469869,698.587001 191.70204,697.930174 C192.127153,696.847778 192.706894,696.306352 193.441263,696.306352 L193.518805,696.306352 C195.721913,696.46098 195.83777,697.349977 196.069484,700.712567 M200.514926,701.215678 C200.514926,701.331535 200.514926,701.447392 200.476155,701.563705 C200.20567,701.872505 198.891103,702.529788 197.886249,702.529788 C197.615764,702.529788 197.461136,702.491017 197.306508,702.413931 L197.306508,702.181761 C197.267737,701.640335 197.228966,701.099365 197.190651,700.635481 C197.113565,699.630627 197.074794,698.741629 196.920166,697.968945 C197.036023,697.272891 197.228966,696.654379 197.576993,696.229266 C197.809163,695.958325 198.040877,695.804153 198.311362,695.804153 L198.46599,695.804153 C198.968645,695.804153 199.393758,695.958325 199.703014,696.306352 C200.785411,697.465834 200.592012,700.210368 200.514926,701.215678 M203.336545,703.418786 C203.181917,703.264158 202.949747,703.070759 202.524634,703.070759 C202.254149,702.684416 201.983664,702.297618 201.596866,701.949591 C201.635637,701.872505 201.635637,701.756192 201.635637,701.679106 C201.635637,701.60202 201.635637,701.486163 201.674408,701.331535 C201.674408,701.215678 201.713179,701.060594 201.713179,700.867651 C201.790265,700.867651 201.829036,700.905966 201.906122,700.905966 C202.177063,700.905966 202.447092,700.790109 202.756804,700.557939 C203.684116,699.939883 204.148001,697.504605 203.877516,695.958325 C203.761659,695.417355 203.568259,694.95347 203.297774,694.605899 C203.336545,693.407646 203.259003,691.977223 203.220232,690.315085 L203.143146,689.000975 C203.143146,688.227835 202.640491,686.874953 201.596866,685.754242 C198.891103,682.777994 192.436409,681.077086 191.817897,681 L191.740354,681 L191.663268,681 C188.145595,681.386342 187.991423,682.197797 187.913881,682.468738 C187.875109,682.700908 187.720481,683.28065 187.682167,683.39605 C187.334139,684.749388 187.295368,688.227835 188.571164,688.73049 C188.841649,688.846803 189.305533,688.923889 190.155759,689.078061 C191.276926,689.27146 192.977379,689.619487 194.561974,690.083371 C193.750519,690.199228 192.861522,690.276314 191.779125,690.276314 C188.455307,690.276314 184.319121,689.658258 181.111159,689.155603 C177.593485,688.614633 175.081121,687.029581 173.612383,686.063498 C172.878014,685.599614 172.375359,685.290358 171.989017,685.213272 C171.87316,685.174501 171.757303,685.174501 171.640989,685.174501 C171.13879,685.174501 169.515424,685.406671 168.81937,685.985956 C168.780599,685.985956 168.742284,686.024727 168.664742,686.063498 C168.471799,686.179355 167.930373,686.527382 168.007458,690.353856 C168.04623,691.474568 168.162087,694.142015 168.742284,695.031013 C168.858141,695.224412 169.167397,695.456126 169.631281,695.804153 C169.36034,696.615608 169.399111,697.427519 169.747138,698.123573 C170.211022,699.012114 170.751992,699.437228 171.486361,699.437228 C171.718532,699.437228 171.950246,699.398457 172.143645,699.321371 C172.298273,699.283056 172.491672,699.244285 172.530443,699.283056 C172.645844,699.321371 172.800472,699.475999 172.993871,699.630627 C173.380669,699.978654 173.96041,700.480853 174.926493,700.480853 L175.235749,700.480853 C175.390377,700.480853 175.583776,700.403767 175.738405,700.249139 C176.163518,701.099365 176.665717,701.524934 177.361771,701.524934 C177.593485,701.524934 177.825655,701.486163 177.980283,701.408621 C178.09614,701.370306 178.211997,701.331535 178.289083,701.331535 C178.405396,701.331535 178.521253,701.524934 178.675881,701.640335 C179.062223,701.988362 179.564878,702.491017 180.453876,702.491017 L180.763132,702.491017 C181.033617,702.452246 181.342873,702.220532 181.575043,701.911276 C182.270641,703.495872 184.087407,704.152699 184.164493,704.152699 L184.357892,704.230241 L184.551291,704.152699 C184.589606,704.114384 185.556145,703.766813 186.213428,702.954445 C186.986112,703.612185 188.377765,703.689271 189.730646,703.689271 L190.19453,703.689271 L190.233301,703.689271 C190.426244,703.689271 190.619643,703.612185 190.774271,703.457101 C190.813042,703.495872 190.851813,703.534643 190.890128,703.573414 C190.928899,703.612185 190.967214,703.612185 191.005985,703.6505 C191.160613,703.920985 191.315241,704.114384 191.547411,704.19147 C191.779125,704.269012 192.088382,704.346098 192.513495,704.462411 C192.938608,704.578268 193.518805,704.732896 194.136861,704.926295 C193.788834,704.965066 193.55712,705.041696 193.518805,705.041696 L193.247864,705.080467 L193.132007,705.312637 C193.132007,705.350952 193.093692,705.389723 193.093692,705.389723 C193.054921,705.350952 193.01615,705.312637 193.01615,705.312637 C192.706894,705.080467 192.165468,704.965066 191.392783,704.965066 C190.272072,704.965066 188.918735,705.196324 188.88042,705.235095 L188.64825,705.273866 L188.493622,705.467265 C188.416536,705.583122 188.377765,705.698979 188.300679,705.815292 C187.720481,705.350952 186.870255,704.771667 186.754398,704.65581 L186.59977,704.539497 L186.406371,704.539497 C185.517374,704.578268 184.937633,704.926295 184.589606,705.350952 C184.319121,705.041696 183.97155,704.887524 183.584751,704.887524 C183.391808,704.887524 183.198409,704.926295 183.043781,704.965066 C182.966239,704.965066 182.889153,705.003381 182.850382,705.003381 C182.773296,704.965066 182.656983,704.887524 182.579897,704.771667 C182.270641,704.462411 181.767986,704.036842 180.801903,704.114384 C180.724361,704.114384 180.647275,704.152699 180.608504,704.19147 C180.569733,704.114384 180.569733,704.036842 180.531418,703.959756 C180.14462,703.147844 179.642421,702.761502 179.023908,702.761502 C178.791738,702.761502 178.598795,702.799817 178.444167,702.838588 C178.366625,702.877359 178.250768,702.877359 178.211997,702.877359 C178.134911,702.838588 178.018598,702.723188 177.86397,702.606874 C177.516399,702.258847 176.975429,701.717877 175.931804,701.833734 C175.777176,701.833734 175.660862,701.911276 175.506234,702.027133 C175.119892,701.331535 174.617237,700.983508 173.998725,700.983508 C173.767011,700.983508 173.535297,701.099365 173.380669,701.138136 C173.264356,701.176907 173.148499,701.292764 173.071413,701.292764 C172.955556,700.905966 172.839243,701.022279 172.684615,700.905966 C172.259502,700.519624 171.718532,699.862341 170.597364,700.017425 C170.13348,700.05574 169.670052,700.635481 169.322025,701.370306 C169.128626,701.292764 168.896912,701.331535 168.742284,701.447392 C168.548885,701.563705 168.007458,701.911276 168.085001,705.73775 C168.123772,706.858918 168.239629,709.525909 168.81937,710.414906 C169.670052,711.690246 179.912906,717.063 191.005985,717.063 C193.943918,717.063 196.958937,716.676202 199.857643,715.74889 C203.181917,714.666493 203.529488,712.966041 203.413631,708.405198 C203.568259,708.211799 203.722887,707.979629 203.80043,707.631602 C204.225543,706.27872 203.838744,703.959756 203.336545,703.418786" id="flexible-protez-side-menu-icon"></path>
        </g>
    </g>
</svg>