<?xml version="1.0" encoding="UTF-8"?>
<svg width="99px" height="100px" viewBox="0 0 99 100" version="1.1" xmlns="http://www.w3.org/2000/svg" xmlns:xlink="http://www.w3.org/1999/xlink">
    <!-- Generator: Sketch 42 (36781) - http://www.bohemiancoding.com/sketch -->
    <title>flexible-protez-icon</title>
    <desc>Created with Sketch.</desc>
    <defs></defs>
    <g id="Welcome" stroke="none" stroke-width="1" fill="none" fill-rule="evenodd">
        <g id="services" transform="translate(-185.000000, -1322.000000)" fill="#13C180">
            <path d="M271.481203,1414.84091 C263.718002,1417.28558 255.741456,1418.34979 247.978254,1418.34979 C218.307162,1418.34979 191.50868,1403.88634 189.700278,1401.44042 C188.849413,1400.0587 188.317309,1394.6335 188.211892,1389.74291 C189.594861,1392.08216 192.252873,1393.5718 195.763005,1393.99723 L196.719287,1393.99723 C198.739777,1393.99723 200.653596,1393.25178 202.248654,1391.97549 C203.206191,1395.1656 205.970875,1397.18735 210.013111,1397.61153 L210.863976,1397.61153 C212.671123,1397.61153 214.372853,1396.97526 215.861239,1395.91105 C216.605432,1399.10117 219.159282,1401.12166 223.093591,1401.54709 L223.837784,1401.54709 C225.752858,1401.54709 227.560005,1400.80164 229.048391,1399.41993 C229.261735,1400.0587 229.580495,1400.80164 230.005928,1401.44042 C231.175553,1403.35549 232.983955,1404.63054 235.004446,1405.05597 C235.323207,1405.16264 235.748639,1405.16264 236.0674,1405.16264 C237.343697,1405.16264 239.78962,1404.63054 241.384678,1400.69623 C241.49135,1400.59081 241.49135,1400.37747 241.49135,1400.27205 C241.49135,1400.37747 241.598022,1400.48414 241.598022,1400.59081 C243.19308,1403.46216 245.639003,1405.05597 248.510359,1405.05597 C248.829119,1405.05597 249.14788,1405.05597 249.573312,1404.95055 C252.019236,1404.63054 253.934309,1403.35549 254.997263,1401.33375 C256.380232,1403.67425 258.400723,1404.95055 260.739974,1404.95055 C261.058735,1404.95055 261.377495,1404.95055 261.697511,1404.84388 C263.718002,1404.52512 265.31306,1403.46216 266.270596,1401.75918 C267.652311,1403.24882 269.141952,1403.67425 270.204906,1403.67425 C270.73701,1403.67425 271.374531,1403.56884 271.906636,1403.35549 C274.139215,1402.71672 275.735528,1401.22833 276.585138,1399.10117 C277.010571,1399.20784 277.436003,1399.31451 277.861436,1399.31451 C278.180196,1399.31451 278.500212,1399.31451 278.818972,1399.20784 C279.244405,1410.26657 278.074779,1412.71375 271.481203,1414.84091 M192.466217,1377.61996 C193.741259,1377.51329 194.380035,1378.0454 195.337572,1379.00168 C195.975094,1379.53378 196.612615,1380.27798 197.570152,1380.59674 C198.421017,1380.91675 199.48397,1380.70341 200.229418,1380.49007 C200.548179,1380.38465 200.86694,1380.27798 201.1857,1380.27798 C201.399044,1380.27798 201.931148,1380.27798 202.780758,1381.97845 C203.526207,1383.46809 203.206191,1385.70067 202.036565,1387.51033 C200.760268,1389.52956 198.739777,1390.80712 196.719287,1390.80712 L196.187182,1390.80712 C192.890394,1390.4871 190.976576,1388.99746 190.339054,1386.55279 C189.488189,1383.04266 191.50868,1378.47083 192.466217,1377.61996 M207.1405,1382.7239 C208.204709,1382.61723 208.736813,1383.14933 209.69435,1384.0002 C210.2252,1384.5323 210.863976,1385.16982 211.713586,1385.48858 C212.459034,1385.80734 213.521988,1385.59525 214.160764,1385.48858 C214.479524,1385.38191 214.798285,1385.38191 215.010374,1385.38191 C215.435806,1385.38191 215.861239,1385.91402 216.287926,1386.87155 C216.925448,1388.14659 216.605432,1390.16834 215.64915,1391.86882 C214.372853,1393.89056 212.459034,1394.95351 210.437288,1394.74017 C207.567188,1394.42141 205.865458,1393.14637 205.227936,1391.01921 C205.014593,1390.38168 205.014593,1389.63624 205.014593,1388.89204 C205.865458,1387.29698 206.29089,1385.59525 206.29089,1384.0002 C206.609651,1383.36142 206.928411,1382.93599 207.1405,1382.7239 M220.647668,1388.99746 C221.498533,1388.99746 222.029382,1389.31748 222.773576,1389.955 C223.30568,1390.38168 223.837784,1390.91253 224.688649,1391.23255 C225.432842,1391.44338 226.283707,1391.33671 226.922484,1391.23255 C227.241244,1391.12588 227.453333,1391.12588 227.665422,1391.12588 C227.985437,1391.12588 228.304198,1391.55005 228.72963,1392.29425 C229.261735,1393.25178 229.048391,1394.74017 228.197526,1396.01772 C227.453333,1397.29402 225.964947,1398.56906 224.051128,1398.56906 L223.625695,1398.56906 C221.073101,1398.2503 219.583459,1397.29402 219.159282,1395.59104 C218.413834,1392.93302 219.90222,1389.74291 220.647668,1388.99746 M235.111118,1390.16834 C236.280743,1391.01921 238.513323,1392.61426 239.364188,1393.35846 C239.682948,1394.42141 239.47086,1398.56906 237.875801,1401.01499 C237.130353,1402.18461 236.492832,1402.18461 236.280743,1402.18461 L235.855311,1402.18461 C234.579013,1401.97252 233.621477,1401.22833 232.877283,1399.95203 C232.13309,1398.78241 231.81433,1397.29402 231.600986,1396.12314 C232.026418,1394.95351 232.13309,1393.78389 232.026418,1392.61426 C232.451851,1391.44338 233.196044,1390.4871 235.111118,1390.16834 M243.618513,1391.7634 C244.788138,1391.55005 247.234061,1391.23255 249.254552,1391.23255 C251.275042,1391.23255 251.807147,1391.55005 251.807147,1391.55005 C252.444668,1392.08216 253.720966,1396.12314 252.763429,1399.20784 C252.232579,1400.90831 251.061699,1401.86585 249.361224,1402.0792 L248.722448,1402.0792 C247.020718,1402.0792 245.639003,1401.12166 244.681466,1399.31451 C243.19308,1396.76192 243.086408,1393.35846 243.618513,1391.7634 M256.592321,1391.23255 C257.655275,1391.01921 259.67702,1390.70044 261.272078,1390.70044 C262.867137,1390.70044 263.292569,1391.01921 263.292569,1391.01921 C263.93009,1391.7634 265.206388,1396.44316 264.036762,1399.63327 C263.399241,1401.54709 262.121688,1401.97252 261.272078,1402.0792 L260.739974,1402.0792 C260.314542,1402.0792 258.931572,1402.0792 257.761947,1399.95203 C256.27356,1397.18735 256.166889,1393.0397 256.592321,1391.23255 M242.342215,1365.07033 C241.916783,1364.96366 241.49135,1364.85824 241.065918,1364.85824 C239.152099,1364.85824 237.450369,1365.9212 236.174071,1367.83502 C235.216535,1365.28368 233.409388,1363.15526 230.005928,1362.73108 L229.473824,1362.73108 C228.304198,1362.73108 226.602468,1363.26193 224.795321,1365.60244 C224.581977,1365.9212 224.263217,1366.34538 224.051128,1366.66539 C222.773576,1363.79404 220.008892,1361.98689 216.074583,1361.56146 C213.94742,1361.34811 211.92693,1361.88022 210.118528,1363.15526 C209.481006,1358.58343 206.077547,1355.6054 200.441507,1355.0733 C200.122747,1355.0733 199.803986,1354.96788 199.377299,1354.96788 C196.08051,1354.96788 192.784977,1356.77503 190.764487,1359.75305 C190.125711,1359.32762 189.700278,1359.00886 189.488189,1358.6901 C188.211892,1356.66836 187.679788,1345.71504 188.211892,1340.6111 C190.125711,1342.41825 193.21041,1344.54541 197.038047,1346.46049 C201.824477,1348.90515 209.799767,1352.30861 220.540996,1354.3291 C231.175553,1356.35085 242.980991,1357.51922 252.763429,1357.51922 C259.357005,1357.51922 268.291087,1356.98712 273.395022,1354.43578 C275.096752,1353.58491 276.585138,1352.62863 277.756019,1351.56442 L277.756019,1351.67109 L277.756019,1351.88318 C278.074779,1351.56442 278.286868,1351.35108 278.500212,1351.03232 C278.605629,1353.47824 278.605629,1355.71207 278.605629,1357.51922 C277.117243,1357.30713 275.840945,1357.83798 274.883408,1359.11553 C274.459231,1359.75305 274.139215,1360.60392 273.820454,1361.45478 C272.225396,1360.07182 270.311578,1359.43429 267.865655,1359.54097 C266.163925,1359.64764 264.675538,1360.49725 263.504658,1361.88022 C263.079225,1362.41232 262.653793,1363.15526 262.335032,1363.90071 C260.952063,1362.09231 258.719484,1361.02935 255.103935,1360.81601 C251.381714,1360.60392 248.510359,1363.04859 246.808629,1367.62293 C246.701957,1367.83502 246.701957,1368.04836 246.595285,1368.26045 C245.957764,1366.87748 244.469378,1365.60244 242.342215,1365.07033 M245.532331,1381.23551 L244.788138,1381.23551 C242.767648,1381.23551 238.407906,1381.23551 237.024936,1379.95922 C236.812848,1379.74587 236.706176,1379.1071 236.706176,1378.25749 C236.812848,1377.19328 236.918265,1375.91698 237.024936,1374.42859 C237.237025,1373.1523 237.662458,1371.77058 238.194562,1370.5997 C238.726666,1369.43008 239.78962,1368.04836 241.065918,1368.04836 C241.279261,1368.04836 241.384678,1368.04836 241.598022,1368.15503 C243.298497,1368.58047 244.469378,1369.85551 245.320243,1372.08934 C246.595285,1375.70489 246.064436,1379.95922 245.532331,1381.23551 M229.899256,1382.51056 C228.72963,1381.97845 225.858275,1380.38465 225.00741,1377.72538 C224.263217,1375.28071 225.432842,1370.28094 227.453333,1367.51626 C228.197526,1366.55872 228.942974,1365.9212 229.473824,1365.9212 L229.580495,1365.9212 C233.089372,1366.34538 233.833565,1369.85551 233.728148,1374.32318 C233.51606,1375.59822 233.409388,1376.87452 233.409388,1378.15081 C233.196044,1380.59674 230.96221,1381.97845 229.899256,1382.51056 M219.478042,1378.0454 L219.264699,1378.0454 C218.095073,1378.0454 217.457552,1377.51329 216.605432,1376.66243 C215.967911,1376.13032 215.330389,1375.38613 214.372853,1375.06737 C214.054092,1374.9607 213.628659,1374.85403 213.308644,1374.85403 C212.777794,1374.85403 212.24569,1374.9607 211.713586,1375.06737 C211.394825,1375.17404 211.076065,1375.28071 210.757304,1375.28071 C210.54396,1375.28071 210.013111,1375.28071 209.162246,1373.57773 C208.84223,1372.93895 208.736813,1372.30269 208.736813,1371.55724 C209.267663,1370.49428 209.69435,1369.21799 209.906439,1367.94169 C211.289408,1365.70911 213.521988,1364.53823 215.755822,1364.75157 C219.05261,1365.07033 220.966429,1366.55872 221.60395,1369.0059 C222.45607,1372.62019 220.434324,1377.19328 219.478042,1378.0454 M204.482488,1372.4081 L204.057056,1372.4081 C202.56867,1372.4081 201.824477,1371.77058 200.86694,1370.91972 C200.122747,1370.28094 199.48397,1369.64216 198.421017,1369.3234 C198.102256,1369.21799 197.676824,1369.11257 197.251391,1369.11257 C196.612615,1369.11257 196.08051,1369.21799 195.549661,1369.3234 C195.124229,1369.43008 194.698796,1369.53675 194.380035,1369.53675 C194.061275,1369.53675 193.422499,1369.53675 192.466217,1367.62293 C191.720769,1366.13329 191.934112,1363.90071 193.103738,1361.98689 C194.273364,1359.96514 196.825959,1357.83798 200.016075,1358.158 C203.843712,1358.58343 206.184218,1360.17849 206.716323,1363.04859 C207.779276,1366.98415 205.440025,1371.66391 204.482488,1372.4081 M194.910885,1336.67554 L195.2309,1336.67554 C195.763005,1336.78221 197.251391,1337.73849 198.63436,1338.58936 C202.994102,1341.35404 210.118528,1346.03505 220.647668,1347.73553 C229.687167,1349.22517 241.17259,1350.92564 250.530849,1350.92564 C256.166889,1350.92564 260.421213,1350.39354 263.718002,1349.1185 C268.077743,1347.52218 270.630338,1344.86417 270.523666,1341.88615 C270.523666,1339.22813 268.291087,1335.18715 258.080707,1331.67702 C253.827637,1330.18863 250.637521,1329.12443 248.190343,1328.38023 C246.064436,1327.74271 244.362706,1327.10519 243.405169,1326.78517 C244.681466,1326.25307 247.447405,1325.61555 250.212089,1325.29553 C253.083444,1325.82764 268.928608,1330.61407 274.99008,1337.42099 C276.798482,1339.44022 278.925644,1342.52492 278.39354,1345.39628 C277.968108,1347.73553 275.840945,1349.86269 272.118725,1351.67109 C268.503176,1353.47824 261.804183,1354.43578 252.870101,1354.43578 C243.298497,1354.43578 231.707658,1353.26615 221.285189,1351.35108 C204.057056,1348.16096 192.890394,1341.03528 190.019039,1337.84516 C191.189919,1337.31431 193.422499,1336.67554 194.910885,1336.67554 M246.701957,1341.24862 C245.106899,1340.92861 243.511841,1340.6111 242.980991,1340.50443 C242.660976,1340.079 241.916783,1338.2706 241.810111,1334.76046 C241.703439,1332.52789 242.023454,1330.82741 242.235543,1329.7632 C243.405169,1330.29531 245.000227,1330.82741 247.234061,1331.46368 C249.573312,1332.20912 252.870101,1333.27333 257.124425,1334.76046 C266.589357,1338.05725 267.33355,1341.14195 267.33355,1341.99282 C267.33355,1343.26911 265.845164,1344.7575 263.504658,1345.82171 C258.080707,1343.37579 251.275042,1342.09949 246.701957,1341.24862 M278.925644,1373.04562 L278.818972,1373.1523 C278.712301,1372.83354 278.605629,1372.62019 278.605629,1372.30269 C278.39354,1371.66391 278.180196,1370.81304 277.861436,1369.85551 C277.756019,1369.64216 277.756019,1369.53675 277.649347,1369.3234 C277.542675,1368.47379 277.436003,1367.62293 277.117243,1366.87748 C276.905154,1364.53823 277.117243,1362.19898 277.861436,1361.13602 C278.074779,1360.81601 278.180196,1360.81601 278.286868,1360.81601 L278.500212,1360.81601 C279.456494,1361.02935 280.201942,1361.88022 280.520702,1363.47528 C281.371567,1367.30291 279.775254,1372.4081 278.925644,1373.04562 M276.373049,1388.25327 C276.478466,1387.82909 276.585138,1387.51033 276.69181,1387.19031 C277.649347,1386.55279 279.032316,1385.91402 279.881926,1385.80734 C280.520702,1386.97822 281.371567,1391.86882 280.201942,1394.74017 C279.669837,1396.01772 279.032316,1396.22981 278.500212,1396.33648 L278.180196,1396.33648 C278.074779,1396.33648 277.861436,1396.33648 277.649347,1396.22981 C277.968108,1393.46513 277.330586,1390.27501 276.373049,1388.25327 M267.01479,1391.33671 C267.01479,1391.23255 267.120207,1391.01921 267.120207,1390.91253 C268.821936,1390.16834 271.58662,1389.10413 272.96959,1389.10413 L273.28835,1389.10413 C273.927126,1389.955 275.096752,1393.99723 274.245887,1397.29402 C273.713783,1399.10117 272.757501,1400.27205 271.162443,1400.69623 C270.842427,1400.80164 270.630338,1400.80164 270.416995,1400.80164 C269.672801,1400.80164 268.928608,1400.27205 268.291087,1399.20784 C268.077743,1398.78241 267.865655,1398.46239 267.758983,1397.93029 C267.972326,1395.69771 267.652311,1393.14637 267.01479,1391.33671 M264.248851,1383.78685 C265.100971,1384.21354 266.057253,1384.42563 267.226878,1384.42563 C269.141952,1384.42563 271.481203,1383.78685 273.713783,1382.7239 C274.245887,1382.51056 274.671319,1382.1918 275.096752,1381.97845 C275.628856,1382.51056 276.054289,1383.04266 276.478466,1383.68144 C275.415513,1384.21354 274.671319,1384.74439 274.352559,1384.95773 L274.033798,1385.16982 L273.927126,1385.48858 C273.820454,1385.59525 273.820454,1385.80734 273.713783,1385.91402 C273.501694,1385.91402 273.181678,1385.80734 272.96959,1385.80734 C270.311578,1385.80734 266.376013,1387.61575 265.31306,1388.14659 C263.61133,1387.08364 261.804183,1386.33945 260.102453,1385.70067 C261.697511,1385.38191 263.185897,1384.74439 264.248851,1383.78685 M262.22836,1376.23574 C262.335032,1377.61996 262.441704,1379.00168 262.548376,1380.59674 C262.548376,1380.91675 262.441704,1381.12884 262.22836,1381.34219 C261.377495,1382.29847 258.826155,1382.93599 255.848128,1382.93599 C252.976772,1382.93599 250.637521,1382.29847 249.892073,1381.66095 C249.573312,1381.34219 249.254552,1380.49007 249.14788,1379.32044 C249.254552,1377.83205 249.254552,1376.02365 249.042463,1374.2165 C249.14788,1372.4081 249.573312,1370.38761 250.212089,1368.58047 C251.381714,1365.60244 252.976772,1364.1128 254.997263,1364.1128 L255.210607,1364.1128 C261.272078,1364.53823 261.590839,1366.98415 262.22836,1376.23574 M274.459231,1377.61996 C274.459231,1377.93873 274.459231,1378.25749 274.352559,1378.5775 C273.608366,1379.42711 269.991562,1381.23551 267.226878,1381.23551 C266.482685,1381.23551 266.057253,1381.12884 265.63182,1380.91675 L265.63182,1380.27798 C265.525148,1378.78834 265.418477,1377.29995 265.31306,1376.02365 C265.100971,1373.25897 264.994299,1370.81304 264.568867,1368.68714 C264.887627,1366.77206 265.418477,1365.07033 266.376013,1363.90071 C267.01479,1363.15526 267.652311,1362.73108 268.396504,1362.73108 L268.821936,1362.73108 C270.204906,1362.73108 271.374531,1363.15526 272.225396,1364.1128 C275.203424,1367.30291 274.671319,1374.85403 274.459231,1377.61996 M282.222432,1383.68144 C281.797,1383.256 281.158224,1382.7239 279.988598,1382.7239 C279.244405,1381.66095 278.500212,1380.59674 277.436003,1379.6392 C277.542675,1379.42711 277.542675,1379.1071 277.542675,1378.89501 C277.542675,1378.68292 277.542675,1378.36416 277.649347,1377.93873 C277.649347,1377.61996 277.756019,1377.19328 277.756019,1376.66243 C277.968108,1376.66243 278.074779,1376.76784 278.286868,1376.76784 C279.032316,1376.76784 279.775254,1376.44908 280.627374,1375.81031 C283.178714,1374.10983 284.455012,1367.40958 283.710819,1363.15526 C283.392058,1361.66687 282.859954,1360.39058 282.115761,1359.43429 C282.222432,1356.13751 282.009089,1352.20194 281.902417,1347.62886 L281.690328,1344.01331 C281.690328,1341.88615 280.307359,1338.16392 277.436003,1335.08048 C269.991562,1326.89185 252.232579,1322.21209 250.530849,1322 L250.317506,1322 L250.105417,1322 C240.427141,1323.06295 240.002964,1325.29553 239.78962,1326.04098 C239.682948,1326.67976 239.257516,1328.27482 239.152099,1328.59232 C238.194562,1332.3158 238.08789,1341.88615 241.598022,1343.26911 C242.342215,1343.58913 243.618513,1343.80122 245.957764,1344.2254 C249.042463,1344.7575 253.720966,1345.71504 258.080707,1346.99134 C255.848128,1347.3101 253.402205,1347.52218 250.424177,1347.52218 C241.279261,1347.52218 229.899256,1345.82171 221.073101,1344.43874 C211.394825,1342.95035 204.482488,1338.58936 200.441507,1335.93135 C198.421017,1334.65505 197.038047,1333.80418 195.975094,1333.59209 C195.656333,1333.48542 195.337572,1333.48542 195.017557,1333.48542 C193.635842,1333.48542 189.169429,1334.1242 187.254355,1335.718 C187.147683,1335.718 187.042266,1335.82467 186.828923,1335.93135 C186.298073,1336.25011 184.808432,1337.20764 185.020521,1347.73553 C185.127193,1350.81897 185.445953,1358.158 187.042266,1360.60392 C187.361027,1361.13602 188.211892,1361.77355 189.488189,1362.73108 C188.742741,1364.96366 188.849413,1367.1975 189.80695,1369.11257 C191.083247,1371.55724 192.571634,1372.72686 194.592124,1372.72686 C195.2309,1372.72686 195.868422,1372.62019 196.400526,1372.4081 C196.825959,1372.30269 197.358063,1372.19601 197.464735,1372.30269 C197.78224,1372.4081 198.207673,1372.83354 198.739777,1373.25897 C199.803986,1374.2165 201.399044,1375.59822 204.057056,1375.59822 L204.907921,1375.59822 C205.333353,1375.59822 205.865458,1375.38613 206.29089,1374.9607 C207.460516,1377.29995 208.84223,1378.47083 210.757304,1378.47083 C211.394825,1378.47083 212.033601,1378.36416 212.459034,1378.15081 C212.777794,1378.0454 213.096555,1377.93873 213.308644,1377.93873 C213.628659,1377.93873 213.94742,1378.47083 214.372853,1378.78834 C215.435806,1379.74587 216.818776,1381.12884 219.264699,1381.12884 L220.115564,1381.12884 C220.859757,1381.02217 221.710622,1380.38465 222.349398,1379.53378 C224.263217,1383.89352 229.261735,1385.70067 229.473824,1385.70067 L230.005928,1385.91402 L230.538032,1385.70067 C230.643449,1385.59525 233.302716,1384.63897 235.111118,1382.40388 C237.237025,1384.21354 241.065918,1384.42563 244.788138,1384.42563 L246.064436,1384.42563 L246.171108,1384.42563 C246.701957,1384.42563 247.234061,1384.21354 247.659494,1383.78685 C247.766166,1383.89352 247.872837,1384.0002 247.978254,1384.10687 C248.084926,1384.21354 248.190343,1384.21354 248.297015,1384.31896 C248.722448,1385.06315 249.14788,1385.59525 249.786656,1385.80734 C250.424177,1386.02069 251.275042,1386.23278 252.444668,1386.55279 C253.614294,1386.87155 255.210607,1387.29698 256.911082,1387.82909 C255.953545,1387.93576 255.316024,1388.14659 255.210607,1388.14659 L254.465159,1388.25327 L254.146398,1388.89204 C254.146398,1388.99746 254.040981,1389.10413 254.040981,1389.10413 C253.934309,1388.99746 253.827637,1388.89204 253.827637,1388.89204 C252.976772,1388.25327 251.487131,1387.93576 249.361224,1387.93576 C246.277779,1387.93576 242.554304,1388.57203 242.448887,1388.6787 L241.810111,1388.78537 L241.384678,1389.31748 C241.17259,1389.63624 241.065918,1389.955 240.853829,1390.27501 C239.257516,1388.99746 236.918265,1387.40366 236.599504,1387.0849 L236.174071,1386.76488 L235.641967,1386.76488 C233.196044,1386.87155 231.600986,1387.82909 230.643449,1388.99746 C229.899256,1388.14659 228.942974,1387.72242 227.878765,1387.72242 C227.347916,1387.72242 226.815812,1387.82909 226.390379,1387.93576 C226.177035,1387.93576 225.964947,1388.04118 225.858275,1388.04118 C225.646186,1387.93576 225.32617,1387.72242 225.114082,1387.40366 C224.263217,1386.55279 222.880247,1385.38191 220.222236,1385.59525 C220.008892,1385.59525 219.796803,1385.70067 219.690131,1385.80734 C219.583459,1385.59525 219.583459,1385.38191 219.478042,1385.16982 C218.413834,1382.93599 217.032119,1381.87303 215.330389,1381.87303 C214.691613,1381.87303 214.160764,1381.97845 213.735331,1382.08512 C213.521988,1382.1918 213.203227,1382.1918 213.096555,1382.1918 C212.884466,1382.08512 212.564451,1381.76762 212.139018,1381.4476 C211.182736,1380.49007 209.69435,1379.00168 206.822995,1379.32044 C206.397562,1379.32044 206.077547,1379.53378 205.652114,1379.85254 C204.58916,1377.93873 203.206191,1376.98119 201.504461,1376.98119 C200.86694,1376.98119 200.229418,1377.29995 199.803986,1377.40662 C199.48397,1377.51329 199.16521,1377.83205 198.953121,1377.83205 C198.63436,1376.76784 198.314345,1377.08786 197.888912,1376.76784 C196.719287,1375.70489 195.2309,1373.89649 192.146201,1374.32318 C190.869904,1374.42859 189.594861,1376.02365 188.637324,1378.0454 C188.10522,1377.83205 187.467699,1377.93873 187.042266,1378.25749 C186.510162,1378.5775 185.020521,1379.53378 185.233864,1390.06167 C185.340536,1393.14637 185.659297,1400.48414 187.254355,1402.93006 C189.594861,1406.43894 217.776312,1421.22115 248.297015,1421.22115 C256.380232,1421.22115 264.675538,1420.15694 272.650829,1417.6056 C281.797,1414.62757 282.753282,1409.94907 282.434521,1397.40069 C282.859954,1396.86859 283.285386,1396.22981 283.49873,1395.27228 C284.668355,1391.55005 283.604147,1385.16982 282.222432,1383.68144" id="flexible-protez-icon"></path>
        </g>
    </g>
</svg>