<?xml version="1.0" encoding="UTF-8"?>
<svg width="85px" height="85px" viewBox="0 0 85 85" version="1.1" xmlns="http://www.w3.org/2000/svg" xmlns:xlink="http://www.w3.org/1999/xlink">
    <!-- Generator: Sketch 42 (36781) - http://www.bohemiancoding.com/sketch -->
    <title>hamburger-icon</title>
    <desc>Created with Sketch.</desc>
    <defs>
        <circle id="path-1" cx="38.5" cy="38.5" r="38.5"></circle>
        <filter x="-50%" y="-50%" width="200%" height="200%" filterUnits="objectBoundingBox" id="filter-2">
            <feOffset dx="0" dy="2" in="SourceAlpha" result="shadowOffsetOuter1"></feOffset>
            <feGaussianBlur stdDeviation="2" in="shadowOffsetOuter1" result="shadowBlurOuter1"></feGaussianBlur>
            <feColorMatrix values="0 0 0 0 0   0 0 0 0 0   0 0 0 0 0  0 0 0 0.5 0" type="matrix" in="shadowBlurOuter1"></feColorMatrix>
        </filter>
    </defs>
    <g id="Welcome" stroke="none" stroke-width="1" fill="none" fill-rule="evenodd">
        <g id="home" transform="translate(-20.000000, -22.000000)">
            <g id="hamburger-icon" transform="translate(24.000000, 24.000000)">
                <g id="Oval" opacity="0.3">
                    <use fill="black" fill-opacity="1" filter="url(#filter-2)" xlink:href="#path-1"></use>
                    <use fill="#000000" fill-rule="evenodd" xlink:href="#path-1"></use>
                </g>
                <g id="Page-1" transform="translate(23.000000, 22.000000)" fill="#FFFFFF" opacity="0.7">
                    <g id="Group-3" transform="translate(0.000000, 0.507703)">
                        <g id="Group-6">
                            <path d="M28.9814468,23.1970824 C28.9814468,24.2551006 27.8982128,25.115687 26.5664681,25.115687 C25.2347234,25.115687 24.1514894,24.2551006 24.1514894,23.1970824 L24.1514894,20.3189051 L28.9814468,20.3189051 L28.9814468,23.1970824 Z M28.9814468,30.8715006 L2.41531915,30.8715006 L2.41531915,26.5150188 C3.12680851,26.8433506 3.94995745,27.0342915 4.83029787,27.0342915 C6.27302128,27.0342915 7.5666383,26.5263779 8.45310638,25.7269142 C9.33889362,26.5263779 10.6325106,27.0342915 12.075234,27.0342915 C13.5186383,27.0342915 14.8122553,26.5263779 15.6980426,25.7269142 C16.5845106,26.5263779 17.8781277,27.0342915 19.3208511,27.0342915 C20.7642553,27.0342915 22.0578723,26.5263779 22.9436596,25.7269142 C23.8294468,26.5263779 25.1230638,27.0342915 26.5664681,27.0342915 C27.4468085,27.0342915 28.2699574,26.8433506 28.9814468,26.5150188 L28.9814468,30.8715006 Z M2.41531915,20.3189051 L7.2452766,20.3189051 L7.2452766,23.1970824 C7.2452766,24.2551006 6.16204255,25.115687 4.83029787,25.115687 C3.49855319,25.115687 2.41531915,24.2551006 2.41531915,23.1970824 L2.41531915,20.3189051 Z M9.66093617,20.3189051 L14.4908936,20.3189051 L14.4908936,23.1970824 C14.4908936,24.2551006 13.4076596,25.115687 12.075234,25.115687 C10.7434894,25.115687 9.66093617,24.2551006 9.66093617,23.1970824 L9.66093617,20.3189051 Z M16.9058723,20.3189051 L21.7358298,20.3189051 L21.7358298,23.1970824 C21.7358298,24.2551006 20.6532766,25.115687 19.3208511,25.115687 C17.9891064,25.115687 16.9058723,24.2551006 16.9058723,23.1970824 L16.9058723,20.3189051 Z M30.1885957,18.4003006 L22.9436596,18.4003006 L15.6980426,18.4003006 L8.45310638,18.4003006 L1.20748936,18.4003006 C0.54093617,18.4003006 0.000340425532,18.8297824 0.000340425532,19.3593324 L0.000340425532,23.1970824 L0.000340425532,31.8310733 C0.000340425532,32.3611642 0.54093617,32.7906461 1.20748936,32.7906461 L30.1885957,32.7906461 C30.8558298,32.7906461 31.3964255,32.3611642 31.3964255,31.8310733 L31.3964255,23.1970824 L31.3964255,19.3593324 C31.3964255,18.8297824 30.8558298,18.4003006 30.1885957,18.4003006 L30.1885957,18.4003006 Z" id="Fill-1"></path>
                            <path d="M28.9814468,6.55856783 C28.2699574,6.23077692 27.4468085,6.03929511 26.5664681,6.03929511 C25.1230638,6.03929511 23.8294468,6.54720874 22.9436596,7.34667238 C22.0578723,6.54720874 20.7642553,6.03929511 19.3208511,6.03929511 C17.8781277,6.03929511 16.5845106,6.54720874 15.6980426,7.34667238 C14.8122553,6.54720874 13.5186383,6.03929511 12.075234,6.03929511 C10.6325106,6.03929511 9.33889362,6.54720874 8.45310638,7.34667238 C7.5666383,6.54720874 6.27302128,6.03929511 4.83029787,6.03929511 C3.94995745,6.03929511 3.12680851,6.23077692 2.41531915,6.55856783 L2.41531915,2.20154511 L28.9814468,2.20154511 L28.9814468,6.55856783 Z M28.9814468,12.7546815 L24.1514894,12.7546815 L24.1514894,9.8765042 C24.1514894,8.81848601 25.2347234,7.95789965 26.5664681,7.95789965 C27.8982128,7.95789965 28.9814468,8.81848601 28.9814468,9.8765042 L28.9814468,12.7546815 Z M21.7358298,12.7546815 L16.9058723,12.7546815 L16.9058723,9.8765042 C16.9058723,8.81848601 17.9891064,7.95789965 19.3208511,7.95789965 C20.6532766,7.95789965 21.7358298,8.81848601 21.7358298,9.8765042 L21.7358298,12.7546815 Z M14.4908936,12.7546815 L9.66093617,12.7546815 L9.66093617,9.8765042 C9.66093617,8.81848601 10.7434894,7.95789965 12.075234,7.95789965 C13.4076596,7.95789965 14.4908936,8.81848601 14.4908936,9.8765042 L14.4908936,12.7546815 Z M7.2452766,12.7546815 L2.41531915,12.7546815 L2.41531915,9.8765042 C2.41531915,8.81848601 3.49855319,7.95789965 4.83029787,7.95789965 C6.16204255,7.95789965 7.2452766,8.81848601 7.2452766,9.8765042 L7.2452766,12.7546815 Z M31.3964255,1.24251329 C31.3964255,0.712422378 30.8558298,0.28294056 30.1885957,0.28294056 L1.20748936,0.28294056 C0.54093617,0.28294056 0.000340425532,0.712422378 0.000340425532,1.24251329 L0.000340425532,9.55682692 C0.000340425532,9.59306783 0.0085106383,9.62822692 0.0139574468,9.66392692 C0.00919148936,9.73478601 0.000340425532,9.80456329 0.000340425532,9.8765042 L0.000340425532,13.7142542 C0.000340425532,14.2438042 0.54093617,14.673286 1.20748936,14.673286 L8.45310638,14.673286 L15.6980426,14.673286 L22.9436596,14.673286 L30.1885957,14.673286 C30.8558298,14.673286 31.3964255,14.2438042 31.3964255,13.7142542 L31.3964255,9.8765042 C31.3964255,9.80456329 31.3882553,9.73478601 31.3828085,9.66392692 C31.3882553,9.62822692 31.3964255,9.59306783 31.3964255,9.55682692 L31.3964255,1.24251329 Z" id="Fill-4"></path>
                        </g>
                    </g>
                </g>
            </g>
        </g>
    </g>
</svg>