<?xml version="1.0" encoding="UTF-8"?>
<svg width="28px" height="36px" viewBox="0 0 28 36" version="1.1" xmlns="http://www.w3.org/2000/svg" xmlns:xlink="http://www.w3.org/1999/xlink">
    <!-- Generator: Sketch 42 (36781) - http://www.bohemiancoding.com/sketch -->
    <title>implantation-side-menu-icon</title>
    <desc>Created with Sketch.</desc>
    <defs></defs>
    <g id="Welcome" stroke="none" stroke-width="1" fill="none" fill-rule="evenodd">
        <g id="services/implantation" transform="translate(-172.000000, -742.000000)" fill="#13C180">
            <g id="implantation-side-menu-icon" transform="translate(172.000000, 742.000000)">
                <path d="M9.51806667,3.59399424 C5.8774,3.59399424 2.92806667,6.5592321 2.92806667,10.2165374 C2.92806667,10.6225325 3.25606667,10.9521523 3.6594,10.9521523 C4.06473333,10.9521523 4.3934,10.6225325 4.3934,10.2165374 C4.3934,8.84044198 4.92473333,7.54675144 5.89273333,6.57397119 C6.86273333,5.60119095 8.1494,5.06522387 9.51806667,5.06522387 C9.92073333,5.06522387 10.2494,4.73627407 10.2494,4.33027901 C10.2494,3.92361399 9.92073333,3.59399424 9.51806667,3.59399424" id="Fill-1"></path>
                <g id="Group-5" transform="translate(0.000000, 0.481700)">
                    <path d="M25.6000667,13.1453295 L23.4934,17.6930102 C23.0987333,17.3071139 22.5600667,17.0692785 21.9660667,17.0692785 L5.85606667,17.0692785 C5.26206667,17.0692785 4.72406667,17.3084538 4.32673333,17.6936802 L2.22273333,13.1453295 C1.71806667,12.0673658 1.46273333,10.9116867 1.46273333,9.71179045 C1.46273333,7.54983325 2.30206667,5.51717811 3.82273333,3.98833202 C5.3434,2.46015588 7.36606667,1.61801761 9.51806667,1.61801761 C10.8287333,1.61801761 12.0794,1.92485877 13.2334,2.52916165 L13.9114,2.88423984 L14.5887333,2.52916165 C15.7434,1.92485877 16.9940667,1.61801761 18.3047333,1.61801761 C20.4560667,1.61801761 22.4787333,2.46015588 24.0000667,3.98833202 C25.5207333,5.51717811 26.3594,7.54983325 26.3594,9.71179045 C26.3594,10.9116867 26.1040667,12.0673658 25.6000667,13.1453295 M21.9660667,20.0358563 L5.87206667,20.0358563 C5.49473333,20.0358563 5.16273333,19.7558135 5.12806667,19.3786267 C5.08806667,18.949183 5.43006667,18.5874053 5.85606667,18.5874053 L21.9514,18.5874053 C22.3280667,18.5874053 22.6600667,18.8667781 22.6947333,19.2439649 C22.7340667,19.6727386 22.3920667,20.0358563 21.9660667,20.0358563 M20.5014,22.9334283 L7.3214,22.9334283 C6.91806667,22.9334283 6.5894,22.6091682 6.5894,22.2092028 C6.5894,21.8092374 6.91806667,21.4843073 7.3214,21.4843073 L20.5014,21.4843073 C20.9040667,21.4843073 21.2320667,21.8092374 21.2320667,22.2092028 C21.2320667,22.6091682 20.9040667,22.9334283 20.5014,22.9334283 M18.9567333,25.8993361 L8.86473333,25.8993361 C8.46606667,25.8993361 8.14273333,25.575076 8.14273333,25.1757806 C8.14273333,24.7764851 8.46606667,24.4508851 8.86473333,24.4508851 L18.9567333,24.4508851 C19.3567333,24.4508851 19.6794,24.7764851 19.6794,25.1757806 C19.6794,25.575076 19.3567333,25.8993361 18.9567333,25.8993361 M17.5167333,28.8659139 L10.3314,28.8659139 C9.95406667,28.8659139 9.62273333,28.5858711 9.58806667,28.2080143 C9.55006667,27.7792407 9.88673333,27.4174629 10.3060667,27.4174629 L17.4920667,27.4174629 C17.8680667,27.4174629 18.1994,27.6968357 18.2334,28.0733526 C18.2727333,28.5027962 17.9360667,28.8659139 17.5167333,28.8659139 M16.0727333,31.7634859 L11.7500667,31.7634859 C11.3534,31.7634859 11.0307333,31.4392258 11.0307333,31.0392604 C11.0307333,30.638625 11.3534,30.3150349 11.7500667,30.3150349 L16.0727333,30.3150349 C16.4694,30.3150349 16.7920667,30.638625 16.7920667,31.0392604 C16.7920667,31.4392258 16.4694,31.7634859 16.0727333,31.7634859 M13.9114,34.0172275 C13.5074,34.0172275 13.1794,33.6869378 13.1794,33.2809427 L14.6420667,33.2809427 C14.6420667,33.6869378 14.3140667,34.0172275 13.9114,34.0172275 M18.3047333,0.188325432 C16.7194,0.188325432 15.2260667,0.577571523 13.9114,1.26695918 C12.5960667,0.577571523 11.1034,0.188325432 9.51806667,0.188325432 C4.26006667,0.188325432 6.66666674e-05,4.47137235 6.66666674e-05,9.75399786 C6.66666674e-05,11.2051287 0.322066667,12.5805542 0.896066667,13.8126086 L3.67206667,19.7605032 L3.70473333,19.7605032 C3.8694,20.578523 4.4854,21.2324028 5.2794,21.4494695 C5.18073333,21.701374 5.12473333,21.9753872 5.12473333,22.2627995 C5.12473333,23.2818069 5.81073333,24.1373444 6.74473333,24.3925987 C6.6434,24.6438333 6.5894,24.9185164 6.5894,25.2065987 C6.5894,26.2235962 7.27673333,27.0811435 8.2074,27.3370678 C8.10873333,27.5889723 8.0534,27.8629855 8.0534,28.1497279 C8.0534,29.1680653 8.7394,30.0242728 9.67206667,30.2788571 C9.57406667,30.5314316 9.51806667,30.8047748 9.51806667,31.0928571 C9.51806667,32.3115123 10.5007333,33.3003715 11.7147333,33.3003715 C11.7147333,34.5190267 12.6974,35.5078859 13.9114,35.5078859 C15.1254,35.5078859 16.1080667,34.5190267 16.1080667,33.3003715 C17.3220667,33.3003715 18.3047333,32.3115123 18.3047333,31.0928571 C18.3047333,30.8047748 18.2487333,30.5314316 18.1500667,30.2788571 C19.0834,30.0242728 19.7700667,29.1680653 19.7700667,28.1497279 C19.7700667,27.8629855 19.7140667,27.5889723 19.6147333,27.3370678 C20.5460667,27.0811435 21.2327333,26.2235962 21.2327333,25.2065987 C21.2327333,24.9185164 21.1787333,24.6438333 21.0780667,24.3925987 C22.0114,24.1373444 22.6974,23.2818069 22.6974,22.2627995 C22.6974,21.9753872 22.6420667,21.701374 22.5434,21.4494695 C23.3367333,21.2324028 23.9520667,20.578523 24.1174,19.7605032 L24.1474,19.7605032 L26.9254,13.8126086 C27.5007333,12.5805542 27.8227333,11.2051287 27.8227333,9.75399786 C27.8227333,4.47137235 23.5620667,0.188325432 18.3047333,0.188325432" id="Fill-3"></path>
                </g>
            </g>
        </g>
    </g>
</svg>