<?xml version="1.0" encoding="UTF-8"?>
<svg width="47px" height="60px" viewBox="0 0 47 60" version="1.1" xmlns="http://www.w3.org/2000/svg" xmlns:xlink="http://www.w3.org/1999/xlink">
    <!-- Generator: Sketch 42 (36781) - http://www.bohemiancoding.com/sketch -->
    <title>implantation-small-icon</title>
    <desc>Created with Sketch.</desc>
    <defs></defs>
    <g id="Welcome" stroke="none" stroke-width="1" fill="none" fill-rule="evenodd">
        <g id="home" transform="translate(-1038.000000, -1220.000000)" fill="#13C180">
            <g id="implantation-small-icon" transform="translate(1038.000000, 1219.000000)">
                <path d="M15.9767548,6.05989815 C9.86563571,6.05989815 4.91496905,11.0596389 4.91496905,17.226287 C4.91496905,17.9108426 5.46554048,18.4666204 6.14256429,18.4666204 C6.82294524,18.4666204 7.37463571,17.9108426 7.37463571,17.226287 C7.37463571,14.9060278 8.26651667,12.724713 9.89137381,11.0844907 C11.5195881,9.44426852 13.67935,8.54056481 15.9767548,8.54056481 C16.6526595,8.54056481 17.20435,7.98591667 17.20435,7.30136111 C17.20435,6.61567593 16.6526595,6.05989815 15.9767548,6.05989815" id="Fill-1"></path>
                <g id="Group-5" transform="translate(0.000000, 0.812204)">
                    <path d="M42.9715405,22.1645759 L39.43535,29.8325019 C38.7728738,29.1818352 37.8686833,28.7808167 36.8716119,28.7808167 L9.82982619,28.7808167 C8.83275476,28.7808167 7.92968333,29.1840944 7.26273095,29.8336315 L3.73101667,22.1645759 C2.88389762,20.3470019 2.45530238,18.3983907 2.45530238,16.3752241 C2.45530238,12.7299093 3.86418333,9.30261296 6.41673095,6.72479815 C8.96927857,4.14811296 12.364469,2.72816852 15.9767548,2.72816852 C18.1768024,2.72816852 20.2761357,3.24553889 22.2132071,4.26446481 L23.3512786,4.86316852 L24.488231,4.26446481 C26.4264214,3.24553889 28.5257548,2.72816852 30.7258024,2.72816852 C34.336969,2.72816852 37.7321595,4.14811296 40.2858262,6.72479815 C42.8383738,9.30261296 44.2461357,12.7299093 44.2461357,16.3752241 C44.2461357,18.3983907 43.8175405,20.3470019 42.9715405,22.1645759 M36.8716119,33.7828167 L9.85668333,33.7828167 C9.22330238,33.7828167 8.66601667,33.3106315 8.60782619,32.67465 C8.54068333,31.9505574 9.11475476,31.3405574 9.82982619,31.3405574 L36.8469929,31.3405574 C37.4792548,31.3405574 38.0365405,31.811613 38.094731,32.4475944 C38.1607548,33.1705574 37.5866833,33.7828167 36.8716119,33.7828167 M34.4130643,38.6684648 L12.2894929,38.6684648 C11.612469,38.6684648 11.0607786,38.1217241 11.0607786,37.4473352 C11.0607786,36.7729463 11.612469,36.2250759 12.2894929,36.2250759 L34.4130643,36.2250759 C35.088969,36.2250759 35.6395405,36.7729463 35.6395405,37.4473352 C35.6395405,38.1217241 35.088969,38.6684648 34.4130643,38.6684648 M31.820231,43.6693352 L14.8800881,43.6693352 C14.2108976,43.6693352 13.6681595,43.1225944 13.6681595,42.4493352 C13.6681595,41.7760759 14.2108976,41.2270759 14.8800881,41.2270759 L31.820231,41.2270759 C32.4916595,41.2270759 33.0332786,41.7760759 33.0332786,42.4493352 C33.0332786,43.1225944 32.4916595,43.6693352 31.820231,43.6693352 M29.4030881,48.6713352 L17.3419929,48.6713352 C16.7086119,48.6713352 16.1524452,48.19915 16.0942548,47.5620389 C16.030469,46.8390759 16.5955881,46.2290759 17.299469,46.2290759 L29.3616833,46.2290759 C29.9928262,46.2290759 30.5489929,46.7001315 30.6060643,47.3349833 C30.6720881,48.0590759 30.106969,48.6713352 29.4030881,48.6713352 M26.979231,53.5569833 L19.7233262,53.5569833 C19.0574929,53.5569833 18.5158738,53.0102426 18.5158738,52.3358537 C18.5158738,51.6603352 19.0574929,51.1147241 19.7233262,51.1147241 L26.979231,51.1147241 C27.6450643,51.1147241 28.1866833,51.6603352 28.1866833,52.3358537 C28.1866833,53.0102426 27.6450643,53.5569833 26.979231,53.5569833 M23.3512786,57.3570574 C22.6731357,57.3570574 22.1225643,56.80015 22.1225643,56.1155944 L24.5777548,56.1155944 C24.5777548,56.80015 24.0271833,57.3570574 23.3512786,57.3570574 M30.7258024,0.317538889 C28.0647071,0.317538889 25.5580405,0.973853704 23.3512786,2.13624259 C21.1433976,0.973853704 18.63785,0.317538889 15.9767548,0.317538889 C7.15082619,0.317538889 0.000111904762,7.53926111 0.000111904762,16.4463907 C0.000111904762,18.8931685 0.540611905,21.2122981 1.5041119,23.289687 L6.16382619,33.3185389 L6.21865952,33.3185389 C6.49506429,34.6978167 7.52906429,35.8003352 8.86185,36.1663352 C8.69623095,36.5910759 8.60223095,37.0530944 8.60223095,37.5377056 C8.60223095,39.2558722 9.75373095,40.6984093 11.3215167,41.1287981 C11.1514214,41.5524093 11.0607786,42.0155574 11.0607786,42.5012981 C11.0607786,44.2160759 12.2145167,45.6620019 13.7767071,46.0935204 C13.6110881,46.5182611 13.5182071,46.9802796 13.5182071,47.4637611 C13.5182071,49.1807981 14.6697071,50.6244648 16.2352548,51.0537241 C16.0707548,51.4795944 15.9767548,51.9404833 15.9767548,52.4262241 C15.9767548,54.4810204 17.626231,56.1483537 19.6640167,56.1483537 C19.6640167,58.20315 21.3134929,59.8704833 23.3512786,59.8704833 C25.3890643,59.8704833 27.0385405,58.20315 27.0385405,56.1483537 C29.0763262,56.1483537 30.7258024,54.4810204 30.7258024,52.4262241 C30.7258024,51.9404833 30.6318024,51.4795944 30.4661833,51.0537241 C32.03285,50.6244648 33.185469,49.1807981 33.185469,47.4637611 C33.185469,46.9802796 33.091469,46.5182611 32.924731,46.0935204 C34.4880405,45.6620019 35.6406595,44.2160759 35.6406595,42.5012981 C35.6406595,42.0155574 35.5500167,41.5524093 35.3810405,41.1287981 C36.9477071,40.6984093 38.0992071,39.2558722 38.0992071,37.5377056 C38.0992071,37.0530944 38.0063262,36.5910759 37.8407071,36.1663352 C39.1723738,35.8003352 40.2052548,34.6978167 40.4827786,33.3185389 L40.5331357,33.3185389 L45.1962071,23.289687 C46.1619452,21.2122981 46.7024452,18.8931685 46.7024452,16.4463907 C46.7024452,7.53926111 39.5506119,0.317538889 30.7258024,0.317538889" id="Fill-3"></path>
                </g>
            </g>
        </g>
    </g>
</svg>