<?xml version="1.0" encoding="UTF-8"?>
<svg width="34px" height="29px" viewBox="0 0 34 29" version="1.1" xmlns="http://www.w3.org/2000/svg" xmlns:xlink="http://www.w3.org/1999/xlink">
    <!-- Generator: Sketch 42 (36781) - http://www.bohemiancoding.com/sketch -->
    <title>metal-ceramic-restavration-side-menu-icon</title>
    <desc>Created with Sketch.</desc>
    <defs></defs>
    <g id="Welcome" stroke="none" stroke-width="1" fill="none" fill-rule="evenodd">
        <g id="services/implantation" transform="translate(-169.000000, -296.000000)">
            <g id="metal-ceramic-restavration-side-menu-icon" transform="translate(170.000000, 297.000000)">
                <path d="M28.2398745,10.9675227 L29.4194824,10.9675227 C29.7093647,10.9675227 29.9779137,11.1012955 30.1460706,11.3283409 C30.3198745,11.5596818 30.3675608,11.8487045 30.2728157,12.11625 L27.2974431,21.1649318 C26.365051,23.9974773 23.6845804,25.9028182 20.6408157,25.9028182 L11.5835608,25.9028182 C8.53414902,25.9028182 5.85932549,23.9974773 4.92693333,21.1594091 L1.94089412,12.1211591 C1.85116863,11.8487045 1.8988549,11.5596818 2.07265882,11.3283409 C2.24081569,11.1012955 2.49367843,10.9724318 2.79924706,10.9724318 C5.21116863,10.9724318 7.42293333,12.2500227 8.60254118,14.31 C8.71861961,14.7481364 8.85038431,15.18075 8.98716863,15.61275 C8.99783529,15.6489545 9.01289412,15.6900682 9.02418824,15.7262727 C9.16097255,16.1331136 9.30842353,16.5399545 9.46654118,16.9369773 C10.082698,19.7535682 12.6521098,21.7932955 15.6011294,21.7932955 L16.6226196,21.7932955 C19.6299922,21.7932955 22.2263843,19.6971136 22.7841882,16.8025909 L22.9159529,16.1128636 C22.9209725,16.1024318 22.9209725,16.092 22.9266196,16.0815682 C22.9950118,15.8342727 23.0577569,15.5869773 23.1154824,15.3396818 C23.1211294,15.3139091 23.1267765,15.2936591 23.1317961,15.2678864 C23.184502,15.0359318 23.2422275,14.8045909 23.2899137,14.5726364 L23.2949333,14.5468636 L23.2949333,14.5364318 L23.3583059,14.2480227 C24.1376,12.2807045 26.0914824,10.9675227 28.2398745,10.9675227 M20.4563451,19.1049545 C19.4932078,20.1248182 18.1234824,20.7531818 16.6226196,20.7531818 L15.6011294,20.7531818 C14.1002667,20.7531818 12.720502,20.1143864 11.7567373,19.0840909 C12.4839529,18.7030227 12.7838745,17.9770909 12.9783843,17.4825 C13.1208157,17.1222955 13.2469333,16.7614773 13.3736784,16.39575 C13.6792471,15.5151818 13.968502,14.6861591 14.4848941,13.9547045 C15.0163451,13.1974773 15.6751686,12.7599545 16.2913255,12.7599545 C16.5542275,12.7599545 16.8284235,12.8372727 17.0969725,12.9968182 C17.9496784,13.4963182 18.2182275,14.4953182 18.5024627,15.5513864 C18.5871686,15.8655682 18.6662275,16.1693182 18.7659922,16.4577273 C19.1449725,17.6420455 19.650698,18.8423182 20.4563451,19.1049545 M10.8670118,1.60956818 C11.1989333,1.49665909 11.5936,1.43959091 12.0516392,1.43959091 C13.0894431,1.43959091 14.2634039,1.74395455 15.0533647,1.97038636 C15.7379137,2.16613636 16.0121098,2.13484091 16.4281098,1.97529545 C16.5172078,1.94461364 16.6226196,1.9035 16.765051,1.85195455 C16.8177569,1.83661364 16.8704627,1.81084091 16.9231686,1.78997727 L16.9758745,1.76972727 C17.6761098,1.48622727 18.4397176,1.33711364 19.1819922,1.33711364 C20.0773647,1.33711364 20.898698,1.55311364 21.5518745,1.96547727 C22.5526588,2.59384091 23.2208941,3.38665909 23.4423843,4.19481818 C24.1269333,6.72361364 23.3790118,9.76725 22.7208157,12.4457727 C22.6580706,12.6979773 22.6053647,12.9403636 22.5419922,13.1876591 L22.4736,13.3416818 C22.4365804,13.4239091 22.4315608,13.5116591 22.4416,13.5938864 C22.4152471,13.6969773 22.3888941,13.8055909 22.3681882,13.9080682 L22.2784627,14.2995682 L22.2784627,14.3044773 C22.1680314,14.7837273 22.0576,15.2832273 21.9151686,15.7986818 C21.730698,16.4626364 21.4991686,17.0965227 21.1565804,17.6886818 C20.930698,18.0752727 20.7882667,18.1262045 20.7932863,18.1317273 C20.7512471,18.1212955 20.3672471,17.982 19.7611294,16.1484545 C19.6720314,15.876 19.5929725,15.5925 19.5195608,15.2991818 C19.2083451,14.1400227 18.8607373,12.8323636 17.6340706,12.11625 C16.2699922,11.3228182 14.7057569,11.8278409 13.6208941,13.3778864 C13.0260706,14.2277727 12.6991686,15.1647955 12.3835608,16.0711364 C12.2624627,16.4215227 12.1413647,16.767 12.0045804,17.1118636 C11.8150902,17.5905 11.6463059,17.9611364 11.325051,18.1519773 C11.2039529,18.0752727 10.9724235,17.7966818 10.5777569,16.8541364 L10.5350902,16.7565682 C10.5143843,16.7050227 10.493051,16.6479545 10.4723451,16.5964091 L10.466698,16.5810682 C10.3932863,16.4061818 10.3242667,16.2257727 10.2558745,16.0453636 C10.2458353,16.0195909 10.2401882,15.9993409 10.2295216,15.9790909 C10.1561098,15.7833409 10.0877176,15.5869773 10.0243451,15.3814091 C10.0136784,15.3507273 10.0036392,15.3139091 9.99297255,15.2832273 C9.86120784,14.8714773 9.73446275,14.4443864 9.61336471,13.9853864 L9.6083451,13.9700455 C9.11328627,12.0849545 8.81838431,10.1176364 8.52850196,8.18652273 C8.46575686,7.77968182 8.40803137,7.36793182 8.34465882,6.966 C8.01273725,4.85447727 8.67093333,2.37231818 10.8670118,1.60956818 M31.3834039,3.24245455 L26.8230902,3.24245455 L24.6433255,8.30986364 C24.8328157,6.81627273 24.8378353,5.32820455 24.4638745,3.93279545 C24.1796392,2.87672727 23.3476392,1.86729545 22.1259922,1.09963636 C21.2939922,0.579886364 20.2775216,0.306818182 19.1819922,0.306818182 C18.3029333,0.306818182 17.4025412,0.481704545 16.5755608,0.81675 L16.5071686,0.847431818 C16.4808157,0.857863636 16.4544627,0.868295455 16.4281098,0.878727273 C16.2699922,0.930272727 16.1488941,0.976295455 16.048502,1.01740909 C15.933051,1.06404545 15.8483451,1.09472727 15.8169725,1.09472727 C15.7429333,1.09472727 15.5114039,1.02784091 15.3539137,0.986727273 C14.4265412,0.713659091 13.2155608,0.409909091 12.0516392,0.409909091 C11.478149,0.409909091 10.9617569,0.487227273 10.5143843,0.64125 C7.74920784,1.59913636 6.90654118,4.59184091 7.29681569,7.13106818 C7.35956078,7.53238636 7.41728627,7.93922727 7.48128627,8.34606818 C7.55469804,8.83513636 7.6281098,9.32481818 7.70214902,9.81879545 L4.87422745,3.24245455 L0.840345098,3.24245455 C0.550462745,3.24245455 0.313913725,3.47440909 0.313913725,3.75729545 C0.313913725,4.04079545 0.550462745,4.27213636 0.840345098,4.27213636 L4.17901176,4.27213636 L7.20207059,11.2921364 C5.9270902,10.4269091 4.3948549,9.93784091 2.77791373,9.93784091 C2.15673725,9.93784091 1.59328627,10.22625 1.22497255,10.7202273 C0.856031373,11.2148182 0.750619608,11.8585227 0.945756863,12.4353409 L3.92614902,21.4791136 C5.0003451,24.73875 8.0761098,26.9331136 11.5835608,26.9331136 L20.6408157,26.9331136 C24.1482667,26.9331136 27.2234039,24.7393636 28.3032471,21.4791136 L31.2836392,12.4353409 C31.4787765,11.8487045 31.3783843,11.22525 31.0044235,10.7251364 C30.6310902,10.22625 30.0569725,9.93784091 29.424502,9.93784091 L28.2448941,9.93784091 C26.9071686,9.93784091 25.6334431,10.3649318 24.5849725,11.1012955 L27.5183059,4.27213636 L31.3834039,4.27213636 C31.6732863,4.27213636 31.9104627,4.04079545 31.9104627,3.75729545 C31.9104627,3.47440909 31.6732863,3.24245455 31.3834039,3.24245455" id="Fill-1" fill="#13C180"></path>
                <path d="M28.2398745,10.9675227 L29.4194824,10.9675227 C29.7093647,10.9675227 29.9779137,11.1012955 30.1460706,11.3283409 C30.3198745,11.5596818 30.3675608,11.8487045 30.2728157,12.11625 L27.2974431,21.1649318 C26.365051,23.9974773 23.6845804,25.9028182 20.6408157,25.9028182 L11.5835608,25.9028182 C8.53414902,25.9028182 5.85932549,23.9974773 4.92693333,21.1594091 L1.94089412,12.1211591 C1.85116863,11.8487045 1.8988549,11.5596818 2.07265882,11.3283409 C2.24081569,11.1012955 2.49367843,10.9724318 2.79924706,10.9724318 C5.21116863,10.9724318 7.42293333,12.2500227 8.60254118,14.31 C8.71861961,14.7481364 8.85038431,15.18075 8.98716863,15.61275 C8.99783529,15.6489545 9.01289412,15.6900682 9.02418824,15.7262727 C9.16097255,16.1331136 9.30842353,16.5399545 9.46654118,16.9369773 C10.082698,19.7535682 12.6521098,21.7932955 15.6011294,21.7932955 L16.6226196,21.7932955 C19.6299922,21.7932955 22.2263843,19.6971136 22.7841882,16.8025909 L22.9159529,16.1128636 C22.9209725,16.1024318 22.9209725,16.092 22.9266196,16.0815682 C22.9950118,15.8342727 23.0577569,15.5869773 23.1154824,15.3396818 C23.1211294,15.3139091 23.1267765,15.2936591 23.1317961,15.2678864 C23.184502,15.0359318 23.2422275,14.8045909 23.2899137,14.5726364 L23.2949333,14.5468636 L23.2949333,14.5364318 L23.3583059,14.2480227 C24.1376,12.2807045 26.0914824,10.9675227 28.2398745,10.9675227 Z M20.4563451,19.1049545 C19.4932078,20.1248182 18.1234824,20.7531818 16.6226196,20.7531818 L15.6011294,20.7531818 C14.1002667,20.7531818 12.720502,20.1143864 11.7567373,19.0840909 C12.4839529,18.7030227 12.7838745,17.9770909 12.9783843,17.4825 C13.1208157,17.1222955 13.2469333,16.7614773 13.3736784,16.39575 C13.6792471,15.5151818 13.968502,14.6861591 14.4848941,13.9547045 C15.0163451,13.1974773 15.6751686,12.7599545 16.2913255,12.7599545 C16.5542275,12.7599545 16.8284235,12.8372727 17.0969725,12.9968182 C17.9496784,13.4963182 18.2182275,14.4953182 18.5024627,15.5513864 C18.5871686,15.8655682 18.6662275,16.1693182 18.7659922,16.4577273 C19.1449725,17.6420455 19.650698,18.8423182 20.4563451,19.1049545 Z M10.8670118,1.60956818 C11.1989333,1.49665909 11.5936,1.43959091 12.0516392,1.43959091 C13.0894431,1.43959091 14.2634039,1.74395455 15.0533647,1.97038636 C15.7379137,2.16613636 16.0121098,2.13484091 16.4281098,1.97529545 C16.5172078,1.94461364 16.6226196,1.9035 16.765051,1.85195455 C16.8177569,1.83661364 16.8704627,1.81084091 16.9231686,1.78997727 L16.9758745,1.76972727 C17.6761098,1.48622727 18.4397176,1.33711364 19.1819922,1.33711364 C20.0773647,1.33711364 20.898698,1.55311364 21.5518745,1.96547727 C22.5526588,2.59384091 23.2208941,3.38665909 23.4423843,4.19481818 C24.1269333,6.72361364 23.3790118,9.76725 22.7208157,12.4457727 C22.6580706,12.6979773 22.6053647,12.9403636 22.5419922,13.1876591 L22.4736,13.3416818 C22.4365804,13.4239091 22.4315608,13.5116591 22.4416,13.5938864 C22.4152471,13.6969773 22.3888941,13.8055909 22.3681882,13.9080682 L22.2784627,14.2995682 L22.2784627,14.3044773 C22.1680314,14.7837273 22.0576,15.2832273 21.9151686,15.7986818 C21.730698,16.4626364 21.4991686,17.0965227 21.1565804,17.6886818 C20.930698,18.0752727 20.7882667,18.1262045 20.7932863,18.1317273 C20.7512471,18.1212955 20.3672471,17.982 19.7611294,16.1484545 C19.6720314,15.876 19.5929725,15.5925 19.5195608,15.2991818 C19.2083451,14.1400227 18.8607373,12.8323636 17.6340706,12.11625 C16.2699922,11.3228182 14.7057569,11.8278409 13.6208941,13.3778864 C13.0260706,14.2277727 12.6991686,15.1647955 12.3835608,16.0711364 C12.2624627,16.4215227 12.1413647,16.767 12.0045804,17.1118636 C11.8150902,17.5905 11.6463059,17.9611364 11.325051,18.1519773 C11.2039529,18.0752727 10.9724235,17.7966818 10.5777569,16.8541364 L10.5350902,16.7565682 C10.5143843,16.7050227 10.493051,16.6479545 10.4723451,16.5964091 L10.466698,16.5810682 C10.3932863,16.4061818 10.3242667,16.2257727 10.2558745,16.0453636 C10.2458353,16.0195909 10.2401882,15.9993409 10.2295216,15.9790909 C10.1561098,15.7833409 10.0877176,15.5869773 10.0243451,15.3814091 C10.0136784,15.3507273 10.0036392,15.3139091 9.99297255,15.2832273 C9.86120784,14.8714773 9.73446275,14.4443864 9.61336471,13.9853864 L9.6083451,13.9700455 C9.11328627,12.0849545 8.81838431,10.1176364 8.52850196,8.18652273 C8.46575686,7.77968182 8.40803137,7.36793182 8.34465882,6.966 C8.01273725,4.85447727 8.67093333,2.37231818 10.8670118,1.60956818 Z M31.3834039,3.24245455 L26.8230902,3.24245455 L24.6433255,8.30986364 C24.8328157,6.81627273 24.8378353,5.32820455 24.4638745,3.93279545 C24.1796392,2.87672727 23.3476392,1.86729545 22.1259922,1.09963636 C21.2939922,0.579886364 20.2775216,0.306818182 19.1819922,0.306818182 C18.3029333,0.306818182 17.4025412,0.481704545 16.5755608,0.81675 L16.5071686,0.847431818 C16.4808157,0.857863636 16.4544627,0.868295455 16.4281098,0.878727273 C16.2699922,0.930272727 16.1488941,0.976295455 16.048502,1.01740909 C15.933051,1.06404545 15.8483451,1.09472727 15.8169725,1.09472727 C15.7429333,1.09472727 15.5114039,1.02784091 15.3539137,0.986727273 C14.4265412,0.713659091 13.2155608,0.409909091 12.0516392,0.409909091 C11.478149,0.409909091 10.9617569,0.487227273 10.5143843,0.64125 C7.74920784,1.59913636 6.90654118,4.59184091 7.29681569,7.13106818 C7.35956078,7.53238636 7.41728627,7.93922727 7.48128627,8.34606818 C7.55469804,8.83513636 7.6281098,9.32481818 7.70214902,9.81879545 L4.87422745,3.24245455 L0.840345098,3.24245455 C0.550462745,3.24245455 0.313913725,3.47440909 0.313913725,3.75729545 C0.313913725,4.04079545 0.550462745,4.27213636 0.840345098,4.27213636 L4.17901176,4.27213636 L7.20207059,11.2921364 C5.9270902,10.4269091 4.3948549,9.93784091 2.77791373,9.93784091 C2.15673725,9.93784091 1.59328627,10.22625 1.22497255,10.7202273 C0.856031373,11.2148182 0.750619608,11.8585227 0.945756863,12.4353409 L3.92614902,21.4791136 C5.0003451,24.73875 8.0761098,26.9331136 11.5835608,26.9331136 L20.6408157,26.9331136 C24.1482667,26.9331136 27.2234039,24.7393636 28.3032471,21.4791136 L31.2836392,12.4353409 C31.4787765,11.8487045 31.3783843,11.22525 31.0044235,10.7251364 C30.6310902,10.22625 30.0569725,9.93784091 29.424502,9.93784091 L28.2448941,9.93784091 C26.9071686,9.93784091 25.6334431,10.3649318 24.5849725,11.1012955 L27.5183059,4.27213636 L31.3834039,4.27213636 C31.6732863,4.27213636 31.9104627,4.04079545 31.9104627,3.75729545 C31.9104627,3.47440909 31.6732863,3.24245455 31.3834039,3.24245455 Z" id="Stroke-3" stroke="#13C180"></path>
            </g>
        </g>
    </g>
</svg>