<?xml version="1.0" encoding="UTF-8"?>
<svg width="57px" height="49px" viewBox="0 0 57 49" version="1.1" xmlns="http://www.w3.org/2000/svg" xmlns:xlink="http://www.w3.org/1999/xlink">
    <!-- Generator: Sketch 42 (36781) - http://www.bohemiancoding.com/sketch -->
    <title>metal-ceramic-restavration-small-icon</title>
    <desc>Created with Sketch.</desc>
    <defs></defs>
    <g id="Welcome" stroke="none" stroke-width="1" fill="none" fill-rule="evenodd">
        <g id="home" transform="translate(-171.000000, -1020.000000)">
            <g id="metal-ceramic-restavration-small-icon" transform="translate(171.000000, 1020.000000)">
                <path d="M49.4197804,19.4978182 L51.4840941,19.4978182 C51.9913882,19.4978182 52.461349,19.7356364 52.7556235,20.1392727 C53.0597804,20.5505455 53.1432314,21.0643636 52.9774275,21.54 L47.7705255,37.6265455 C46.1388392,42.6621818 41.4480157,46.0494545 36.1214275,46.0494545 L20.2712314,46.0494545 C14.9347608,46.0494545 10.2538196,42.6621818 8.62213333,37.6167273 L3.39656471,21.5487273 C3.2395451,21.0643636 3.32299608,20.5505455 3.62715294,20.1392727 C3.92142745,19.7356364 4.36393725,19.5065455 4.89868235,19.5065455 C9.1195451,19.5065455 12.9901333,21.7778182 15.0544471,25.44 C15.2575843,26.2189091 15.4881725,26.988 15.7275451,27.756 C15.7462118,27.8203636 15.7725647,27.8934545 15.7923294,27.9578182 C16.031702,28.6810909 16.2897412,29.4043636 16.5664471,30.1101818 C17.6447216,35.1174545 22.1411922,38.7436364 27.3019765,38.7436364 L29.0895843,38.7436364 C34.3524863,38.7436364 38.8961725,35.0170909 39.8723294,29.8712727 L40.1029176,28.6450909 C40.111702,28.6265455 40.111702,28.608 40.1215843,28.5894545 C40.2412706,28.1498182 40.3510745,27.7101818 40.4520941,27.2705455 C40.4619765,27.2247273 40.4718588,27.1887273 40.4806431,27.1429091 C40.5728784,26.7305455 40.673898,26.3192727 40.757349,25.9069091 L40.7661333,25.8610909 L40.7661333,25.8425455 L40.8770353,25.3298182 C42.2408,21.8323636 45.6600941,19.4978182 49.4197804,19.4978182 M35.7986039,33.9643636 C34.1131137,35.7774545 31.7160941,36.8945455 29.0895843,36.8945455 L27.3019765,36.8945455 C24.6754667,36.8945455 22.2608784,35.7589091 20.5742902,33.9272727 C21.8469176,33.2498182 22.3717804,31.9592727 22.7121725,31.08 C22.9614275,30.4396364 23.1821333,29.7981818 23.4039373,29.148 C23.9386824,27.5825455 24.4448784,26.1087273 25.3485647,24.8083636 C26.2786039,23.4621818 27.4315451,22.6843636 28.5098196,22.6843636 C28.969898,22.6843636 29.4497412,22.8218182 29.919702,23.1054545 C31.4119373,23.9934545 31.881898,25.7694545 32.3793098,27.6469091 C32.5275451,28.2054545 32.665898,28.7454545 32.8404863,29.2581818 C33.503702,31.3636364 34.3887216,33.4974545 35.7986039,33.9643636 M19.0172706,2.86145455 C19.5981333,2.66072727 20.2888,2.55927273 21.0903686,2.55927273 C22.9065255,2.55927273 24.9609569,3.10036364 26.3433882,3.50290909 C27.541349,3.85090909 28.0211922,3.79527273 28.7491922,3.51163636 C28.9051137,3.45709091 29.0895843,3.384 29.3388392,3.29236364 C29.4310745,3.26509091 29.5233098,3.21927273 29.6155451,3.18218182 L29.7077804,3.14618182 C30.9331922,2.64218182 32.2695059,2.37709091 33.5684863,2.37709091 C35.1353882,2.37709091 36.5727216,2.76109091 37.7157804,3.49418182 C39.4671529,4.61127273 40.6365647,6.02072727 41.0241725,7.45745455 C42.2221333,11.9530909 40.9132706,17.364 39.7614275,22.1258182 C39.6516235,22.5741818 39.5593882,23.0050909 39.4484863,23.4447273 L39.3288,23.7185455 C39.2640157,23.8647273 39.2552314,24.0207273 39.2728,24.1669091 C39.2266824,24.3501818 39.1805647,24.5432727 39.1443294,24.7254545 L38.9873098,25.4214545 L38.9873098,25.4301818 C38.7940549,26.2821818 38.6008,27.1701818 38.3515451,28.0865455 C38.0287216,29.2669091 37.6235451,30.3938182 37.0240157,31.4465455 C36.6287216,32.1338182 36.3794667,32.2243636 36.388251,32.2341818 C36.3146824,32.2156364 35.6426824,31.968 34.5819765,28.7083636 C34.4260549,28.224 34.287702,27.72 34.1592314,27.1985455 C33.6146039,25.1378182 33.0062902,22.8130909 30.8596235,21.54 C28.4724863,20.1294545 25.7350745,21.0272727 23.8365647,23.7829091 C22.7956235,25.2938182 22.2235451,26.9596364 21.6712314,28.5709091 C21.4593098,29.1938182 21.2473882,29.808 21.0080157,30.4210909 C20.6764078,31.272 20.3810353,31.9309091 19.8188392,32.2701818 C19.6069176,32.1338182 19.2017412,31.6385455 18.5110745,29.9629091 L18.4364078,29.7894545 C18.4001725,29.6978182 18.3628392,29.5963636 18.3266039,29.5047273 L18.3167216,29.4774545 C18.188251,29.1665455 18.0674667,28.8458182 17.9477804,28.5250909 C17.9302118,28.4792727 17.9203294,28.4432727 17.9016627,28.4072727 C17.7731922,28.0592727 17.6535059,27.7101818 17.5426039,27.3447273 C17.5239373,27.2901818 17.5063686,27.2247273 17.487702,27.1701818 C17.2571137,26.4381818 17.0353098,25.6789091 16.8233882,24.8629091 L16.8146039,24.8356364 C15.948251,21.4843636 15.4321725,17.9869091 14.9248784,14.5538182 C14.8150745,13.8305455 14.7140549,13.0985455 14.6031529,12.384 C14.0222902,8.63018182 15.1741333,4.21745455 19.0172706,2.86145455 M54.9209569,5.76436364 L46.9404078,5.76436364 L43.1258196,14.7730909 C43.4574275,12.1178182 43.4662118,9.47236364 42.8117804,6.99163636 C42.3143686,5.11418182 40.8583686,3.31963636 38.7204863,1.95490909 C37.2644863,1.03090909 35.4856627,0.545454545 33.5684863,0.545454545 C32.0301333,0.545454545 30.4544471,0.856363636 29.0072314,1.452 L28.8875451,1.50654545 C28.8414275,1.52509091 28.7953098,1.54363636 28.7491922,1.56218182 C28.4724863,1.65381818 28.2605647,1.73563636 28.0848784,1.80872727 C27.8828392,1.89163636 27.7346039,1.94618182 27.679702,1.94618182 C27.5501333,1.94618182 27.1449569,1.82727273 26.869349,1.75418182 C25.2464471,1.26872727 23.1272314,0.728727273 21.0903686,0.728727273 C20.0867608,0.728727273 19.1830745,0.866181818 18.4001725,1.14 C13.5611137,2.84290909 12.0864471,8.16327273 12.7694275,12.6774545 C12.8792314,13.3909091 12.980251,14.1141818 13.092251,14.8374545 C13.2207216,15.7069091 13.3491922,16.5774545 13.4787608,17.4556364 L8.52989804,5.76436364 L1.47060392,5.76436364 C0.963309804,5.76436364 0.54934902,6.17672727 0.54934902,6.67963636 C0.54934902,7.18363636 0.963309804,7.59490909 1.47060392,7.59490909 L7.31327059,7.59490909 L12.6036235,20.0749091 C10.3724078,18.5367273 7.69099608,17.6672727 4.86134902,17.6672727 C3.7742902,17.6672727 2.78825098,18.18 2.14370196,19.0581818 C1.4980549,19.9374545 1.31358431,21.0818182 1.65507451,22.1072727 L6.87076078,38.1850909 C8.75060392,43.98 14.1331922,47.8810909 20.2712314,47.8810909 L36.1214275,47.8810909 C42.2594667,47.8810909 47.6409569,43.9810909 49.5306824,38.1850909 L54.7463686,22.1072727 C55.0878588,21.0643636 54.9121725,19.956 54.2577412,19.0669091 C53.6044078,18.18 52.599702,17.6672727 51.4928784,17.6672727 L49.4285647,17.6672727 C47.0875451,17.6672727 44.8585255,18.4265455 43.023702,19.7356364 L48.1570353,7.59490909 L54.9209569,7.59490909 C55.428251,7.59490909 55.8433098,7.18363636 55.8433098,6.67963636 C55.8433098,6.17672727 55.428251,5.76436364 54.9209569,5.76436364" id="Fill-1" fill="#13C180"></path>
                <path d="M49.4197804,19.4978182 L51.4840941,19.4978182 C51.9913882,19.4978182 52.461349,19.7356364 52.7556235,20.1392727 C53.0597804,20.5505455 53.1432314,21.0643636 52.9774275,21.54 L47.7705255,37.6265455 C46.1388392,42.6621818 41.4480157,46.0494545 36.1214275,46.0494545 L20.2712314,46.0494545 C14.9347608,46.0494545 10.2538196,42.6621818 8.62213333,37.6167273 L3.39656471,21.5487273 C3.2395451,21.0643636 3.32299608,20.5505455 3.62715294,20.1392727 C3.92142745,19.7356364 4.36393725,19.5065455 4.89868235,19.5065455 C9.1195451,19.5065455 12.9901333,21.7778182 15.0544471,25.44 C15.2575843,26.2189091 15.4881725,26.988 15.7275451,27.756 C15.7462118,27.8203636 15.7725647,27.8934545 15.7923294,27.9578182 C16.031702,28.6810909 16.2897412,29.4043636 16.5664471,30.1101818 C17.6447216,35.1174545 22.1411922,38.7436364 27.3019765,38.7436364 L29.0895843,38.7436364 C34.3524863,38.7436364 38.8961725,35.0170909 39.8723294,29.8712727 L40.1029176,28.6450909 C40.111702,28.6265455 40.111702,28.608 40.1215843,28.5894545 C40.2412706,28.1498182 40.3510745,27.7101818 40.4520941,27.2705455 C40.4619765,27.2247273 40.4718588,27.1887273 40.4806431,27.1429091 C40.5728784,26.7305455 40.673898,26.3192727 40.757349,25.9069091 L40.7661333,25.8610909 L40.7661333,25.8425455 L40.8770353,25.3298182 C42.2408,21.8323636 45.6600941,19.4978182 49.4197804,19.4978182 Z M35.7986039,33.9643636 C34.1131137,35.7774545 31.7160941,36.8945455 29.0895843,36.8945455 L27.3019765,36.8945455 C24.6754667,36.8945455 22.2608784,35.7589091 20.5742902,33.9272727 C21.8469176,33.2498182 22.3717804,31.9592727 22.7121725,31.08 C22.9614275,30.4396364 23.1821333,29.7981818 23.4039373,29.148 C23.9386824,27.5825455 24.4448784,26.1087273 25.3485647,24.8083636 C26.2786039,23.4621818 27.4315451,22.6843636 28.5098196,22.6843636 C28.969898,22.6843636 29.4497412,22.8218182 29.919702,23.1054545 C31.4119373,23.9934545 31.881898,25.7694545 32.3793098,27.6469091 C32.5275451,28.2054545 32.665898,28.7454545 32.8404863,29.2581818 C33.503702,31.3636364 34.3887216,33.4974545 35.7986039,33.9643636 Z M19.0172706,2.86145455 C19.5981333,2.66072727 20.2888,2.55927273 21.0903686,2.55927273 C22.9065255,2.55927273 24.9609569,3.10036364 26.3433882,3.50290909 C27.541349,3.85090909 28.0211922,3.79527273 28.7491922,3.51163636 C28.9051137,3.45709091 29.0895843,3.384 29.3388392,3.29236364 C29.4310745,3.26509091 29.5233098,3.21927273 29.6155451,3.18218182 L29.7077804,3.14618182 C30.9331922,2.64218182 32.2695059,2.37709091 33.5684863,2.37709091 C35.1353882,2.37709091 36.5727216,2.76109091 37.7157804,3.49418182 C39.4671529,4.61127273 40.6365647,6.02072727 41.0241725,7.45745455 C42.2221333,11.9530909 40.9132706,17.364 39.7614275,22.1258182 C39.6516235,22.5741818 39.5593882,23.0050909 39.4484863,23.4447273 L39.3288,23.7185455 C39.2640157,23.8647273 39.2552314,24.0207273 39.2728,24.1669091 C39.2266824,24.3501818 39.1805647,24.5432727 39.1443294,24.7254545 L38.9873098,25.4214545 L38.9873098,25.4301818 C38.7940549,26.2821818 38.6008,27.1701818 38.3515451,28.0865455 C38.0287216,29.2669091 37.6235451,30.3938182 37.0240157,31.4465455 C36.6287216,32.1338182 36.3794667,32.2243636 36.388251,32.2341818 C36.3146824,32.2156364 35.6426824,31.968 34.5819765,28.7083636 C34.4260549,28.224 34.287702,27.72 34.1592314,27.1985455 C33.6146039,25.1378182 33.0062902,22.8130909 30.8596235,21.54 C28.4724863,20.1294545 25.7350745,21.0272727 23.8365647,23.7829091 C22.7956235,25.2938182 22.2235451,26.9596364 21.6712314,28.5709091 C21.4593098,29.1938182 21.2473882,29.808 21.0080157,30.4210909 C20.6764078,31.272 20.3810353,31.9309091 19.8188392,32.2701818 C19.6069176,32.1338182 19.2017412,31.6385455 18.5110745,29.9629091 L18.4364078,29.7894545 C18.4001725,29.6978182 18.3628392,29.5963636 18.3266039,29.5047273 L18.3167216,29.4774545 C18.188251,29.1665455 18.0674667,28.8458182 17.9477804,28.5250909 C17.9302118,28.4792727 17.9203294,28.4432727 17.9016627,28.4072727 C17.7731922,28.0592727 17.6535059,27.7101818 17.5426039,27.3447273 C17.5239373,27.2901818 17.5063686,27.2247273 17.487702,27.1701818 C17.2571137,26.4381818 17.0353098,25.6789091 16.8233882,24.8629091 L16.8146039,24.8356364 C15.948251,21.4843636 15.4321725,17.9869091 14.9248784,14.5538182 C14.8150745,13.8305455 14.7140549,13.0985455 14.6031529,12.384 C14.0222902,8.63018182 15.1741333,4.21745455 19.0172706,2.86145455 Z M54.9209569,5.76436364 L46.9404078,5.76436364 L43.1258196,14.7730909 C43.4574275,12.1178182 43.4662118,9.47236364 42.8117804,6.99163636 C42.3143686,5.11418182 40.8583686,3.31963636 38.7204863,1.95490909 C37.2644863,1.03090909 35.4856627,0.545454545 33.5684863,0.545454545 C32.0301333,0.545454545 30.4544471,0.856363636 29.0072314,1.452 L28.8875451,1.50654545 C28.8414275,1.52509091 28.7953098,1.54363636 28.7491922,1.56218182 C28.4724863,1.65381818 28.2605647,1.73563636 28.0848784,1.80872727 C27.8828392,1.89163636 27.7346039,1.94618182 27.679702,1.94618182 C27.5501333,1.94618182 27.1449569,1.82727273 26.869349,1.75418182 C25.2464471,1.26872727 23.1272314,0.728727273 21.0903686,0.728727273 C20.0867608,0.728727273 19.1830745,0.866181818 18.4001725,1.14 C13.5611137,2.84290909 12.0864471,8.16327273 12.7694275,12.6774545 C12.8792314,13.3909091 12.980251,14.1141818 13.092251,14.8374545 C13.2207216,15.7069091 13.3491922,16.5774545 13.4787608,17.4556364 L8.52989804,5.76436364 L1.47060392,5.76436364 C0.963309804,5.76436364 0.54934902,6.17672727 0.54934902,6.67963636 C0.54934902,7.18363636 0.963309804,7.59490909 1.47060392,7.59490909 L7.31327059,7.59490909 L12.6036235,20.0749091 C10.3724078,18.5367273 7.69099608,17.6672727 4.86134902,17.6672727 C3.7742902,17.6672727 2.78825098,18.18 2.14370196,19.0581818 C1.4980549,19.9374545 1.31358431,21.0818182 1.65507451,22.1072727 L6.87076078,38.1850909 C8.75060392,43.98 14.1331922,47.8810909 20.2712314,47.8810909 L36.1214275,47.8810909 C42.2594667,47.8810909 47.6409569,43.9810909 49.5306824,38.1850909 L54.7463686,22.1072727 C55.0878588,21.0643636 54.9121725,19.956 54.2577412,19.0669091 C53.6044078,18.18 52.599702,17.6672727 51.4928784,17.6672727 L49.4285647,17.6672727 C47.0875451,17.6672727 44.8585255,18.4265455 43.023702,19.7356364 L48.1570353,7.59490909 L54.9209569,7.59490909 C55.428251,7.59490909 55.8433098,7.18363636 55.8433098,6.67963636 C55.8433098,6.17672727 55.428251,5.76436364 54.9209569,5.76436364 Z" id="Stroke-3" stroke="#13C180"></path>
            </g>
        </g>
    </g>
</svg>