<?xml version="1.0" encoding="UTF-8"?>
<svg width="44px" height="44px" viewBox="0 0 44 44" version="1.1" xmlns="http://www.w3.org/2000/svg" xmlns:xlink="http://www.w3.org/1999/xlink">
    <!-- Generator: Sketch 42 (36781) - http://www.bohemiancoding.com/sketch -->
    <title>money-icon</title>
    <desc>Created with Sketch.</desc>
    <defs>
        <polygon id="path-1" points="43.015 0.0004 43.015 43.0152 0 43.0152 0 0.0004 43.015 0.0004"></polygon>
    </defs>
    <g id="Welcome" stroke="none" stroke-width="1" fill="none" fill-rule="evenodd">
        <g id="studying" transform="translate(-188.000000, -1060.000000)">
            <g id="money-icon" transform="translate(188.000000, 1060.000000)">
                <mask id="mask-2" fill="white">
                    <use xlink:href="#path-1"></use>
                </mask>
                <g id="Clip-2"></g>
                <path d="M20.7107,14.3384 L25.4897,14.3384 C27.1037,14.3384 28.6767,15.7884 28.6767,17.5254 C28.6767,19.2614 27.1037,20.7114 25.4897,20.7114 L20.7107,20.7114 L20.7107,14.3384 Z M14.8867,9.5594 C13.6347,9.6244 12.7447,10.6954 12.7447,11.9484 C12.7447,13.5424 13.8837,14.4034 15.1347,14.3384 L15.9317,14.3384 L15.9317,20.7114 L15.1347,20.7114 C13.8727,20.6934 12.7447,21.8384 12.7447,23.1014 C12.7447,24.6934 13.8727,25.5084 15.1347,25.4904 L15.9317,25.4904 L15.9317,27.0834 L15.1347,27.0834 C13.8147,27.0834 12.7447,28.1534 12.7447,29.4734 C12.7447,30.7934 13.8147,31.8634 15.1347,31.8634 L15.9317,31.8634 L15.9317,32.6594 C15.9137,33.9224 17.0587,35.0494 18.3207,35.0494 C19.5837,35.0494 20.7297,33.9224 20.7107,32.6594 L20.7107,31.8634 L26.2867,31.8634 C27.6067,31.8634 28.6767,30.7934 28.6767,29.4734 C28.6767,28.1534 27.6067,27.0834 26.2867,27.0834 L20.7107,27.0834 L20.7107,25.4904 L25.4897,25.4904 C29.7857,25.4904 33.4557,21.9664 33.4557,17.5254 C33.4557,13.0834 29.7857,9.5594 25.4897,9.5594 L14.8867,9.5594 Z M21.5077,4.7794 C30.7737,4.7794 38.2357,12.2404 38.2357,21.5074 C38.2357,30.7744 30.7737,38.2354 21.5077,38.2354 C12.2407,38.2354 4.7787,30.7744 4.7787,21.5074 C4.7787,12.2404 12.2407,4.7794 21.5077,4.7794 L21.5077,4.7794 Z M21.5077,0.0004 C9.6577,0.0004 -0.0003,9.6574 -0.0003,21.5074 C-0.0003,33.3574 9.6577,43.0154 21.5077,43.0154 C33.3567,43.0154 43.0157,33.3574 43.0157,21.5074 C43.0157,9.6574 33.3567,0.0004 21.5077,0.0004 L21.5077,0.0004 Z" id="Fill-1" fill="#13C180" mask="url(#mask-2)"></path>
            </g>
        </g>
    </g>
</svg>