<?xml version="1.0" encoding="UTF-8"?>
<svg width="50px" height="58px" viewBox="0 0 50 58" version="1.1" xmlns="http://www.w3.org/2000/svg" xmlns:xlink="http://www.w3.org/1999/xlink">
    <!-- Generator: Sketch 42 (36781) - http://www.bohemiancoding.com/sketch -->
    <title>none-metall-crowns-small-icon</title>
    <desc>Created with Sketch.</desc>
    <defs>
        <polygon id="path-1" points="0.0001407274 57.4535731 49.082 57.4535731 49.082 0.000446153846 0.0001407274 0.000446153846"></polygon>
    </defs>
    <g id="Welcome" stroke="none" stroke-width="1" fill="none" fill-rule="evenodd">
        <g id="home" transform="translate(-749.000000, -1023.000000)">
            <g id="none-metall-crowns-small-icon" transform="translate(749.000000, 1023.000000)">
                <mask id="mask-2" fill="white">
                    <use xlink:href="#path-1"></use>
                </mask>
                <g id="Clip-2"></g>
                <path d="M44.4464444,37.3636 C44.0075556,39.0779462 43.5586667,40.8592154 43.1686667,42.6215231 L42.892,43.8752154 C42.1475556,47.2749077 41.3742222,50.7883692 39.6575556,53.8244462 C38.8275556,55.2789077 38.2842222,55.3848692 38.1308889,55.3848692 C37.7875556,55.3848692 36.5386667,54.9353692 34.6775556,49.1989462 C34.4208889,48.4036769 34.2008889,47.5716 33.972,46.6815231 C33.2186667,43.7893308 32.3797778,40.5524846 29.9186667,38.4745231 C29.9086667,38.4644846 29.9086667,38.4644846 29.8997778,38.4555615 C29.5753333,38.1867538 29.232,37.9291 28.8497778,37.6993308 C25.2064444,35.5254462 21.0664444,36.9330615 18.1375556,41.2328692 C16.4875556,43.6554846 15.572,46.3647538 14.6842222,48.9792154 C14.3408889,49.9942154 13.9886667,51.0382154 13.5975556,52.0532154 C12.9875556,53.6236769 12.4142222,54.8874077 11.2031111,55.5097923 C10.1253333,55.2409846 8.97088889,52.4168308 8.522,51.3159462 L8.38866667,51.0482538 C5.15533333,43.2048692 3.87755556,34.4056 2.64644444,25.8829462 C2.47533333,24.6861385 2.30311111,23.4893308 2.122,22.3014462 L2.06422222,21.8999077 C1.93088889,21.0466385 1.88311111,20.7410231 1.912,20.1086 L5.04977778,20.1086 L44.1597778,20.1086 L46.9453333,20.1086 C47.3264444,26.0368692 45.8675556,31.7911385 44.4464444,37.3636 L44.4464444,37.3636 Z M29.0697778,45.3118308 C28.8308889,45.7613308 28.612,46.1829462 28.4297778,46.5376385 L28.3631111,46.6714846 C27.6953333,48.0501 26.8664444,49.7644462 25.5208889,50.1671 C25.3108889,50.2340231 25.1108889,50.2619077 24.9008889,50.2619077 C22.6686667,50.2619077 20.3886667,46.7004846 19.1008889,43.6554846 L19.0153333,43.4536 C19.1208889,43.2717923 19.2153333,43.1089462 19.3108889,42.9472154 C19.4353333,42.7352923 19.5686667,42.5356385 19.702,42.3237154 C21.3142222,39.9490615 23.3553333,38.5905231 25.292,38.5905231 C26.1508889,38.5905231 27.0086667,38.8481769 27.8575556,39.3556769 C28.1631111,39.5374846 28.4397778,39.7482923 28.6975556,39.9691385 C28.7931111,40.0550231 28.8786667,40.1509462 28.9742222,40.2368308 C29.1264444,40.3807154 29.2697778,40.5234846 29.4031111,40.6863308 C29.5275556,40.8391385 29.652,41.0031 29.7664444,41.1648308 C29.842,41.2707923 29.9186667,41.3767538 29.9853333,41.4804846 C30.1375556,41.7202923 30.2908889,41.9801769 30.4242222,42.2478692 C30.4431111,42.2757538 30.4531111,42.3058692 30.472,42.3337538 C30.1186667,43.3197538 29.5653333,44.3726769 29.0697778,45.3118308 L29.0697778,45.3118308 Z M6.94866667,18.1934846 L42.2431111,18.1934846 L42.2431111,17.2364846 L6.94866667,17.2364846 L6.94866667,18.1934846 Z M6.94866667,15.3202538 L42.2431111,15.3202538 L42.2431111,14.3632538 L6.94866667,14.3632538 L6.94866667,15.3202538 Z M2.29311111,12.4481385 C2.952,7.66983077 5.442,4.56794615 9.90644444,2.97852308 C11.0975556,2.55690769 12.5286667,2.33717692 14.1697778,2.33717692 C17.1742222,2.33717692 20.1797778,3.03540769 22.1731111,3.62879231 C23.1464444,3.91656154 23.6608889,4.05040769 24.1764444,4.05040769 C24.7286667,4.05040769 25.1486667,3.88756154 25.7308889,3.65779231 C25.9886667,3.55294615 26.3131111,3.42802308 26.7331111,3.28413846 C26.8664444,3.23617692 26.9997778,3.17929231 27.1331111,3.12129231 L27.2853333,3.05436923 C29.0886667,2.3171 31.1108889,1.91556154 33.1331111,1.91556154 C35.9275556,1.91556154 38.6564444,2.68071538 40.812,4.06936923 C43.7786667,5.98448462 45.772,8.41713846 46.4308889,10.9156 C46.5542222,11.3851769 46.6597778,11.7108692 46.7542222,11.9886 C46.812,12.1514462 46.8597778,12.2942154 46.8975556,12.4481385 L44.1508889,12.4481385 L5.04088889,12.4481385 L2.29311111,12.4481385 Z M48.682,18.1934846 L44.1508889,18.1934846 L44.1508889,17.2364846 L46.0586667,17.2364846 L46.0586667,15.3202538 L44.1508889,15.3202538 L44.1508889,14.3632538 L49.082,14.3632538 L48.9775556,13.3103308 C48.882,12.3332538 48.7386667,11.8926769 48.5664444,11.3751385 C48.4808889,11.1275231 48.3853333,10.8397538 48.2808889,10.4181385 C47.4986667,7.45902308 45.2186667,4.62483077 41.852,2.45094615 C39.3531111,0.8526 36.3386667,0.000446153846 33.1331111,0.000446153846 C30.8631111,0.000446153846 28.5831111,0.449946154 26.542,1.3021 L26.3608889,1.37906154 C26.2753333,1.41698462 26.1797778,1.45602308 26.0931111,1.49394615 C25.6542222,1.64786923 25.3108889,1.78171538 25.0342222,1.88544615 C24.5386667,2.07729231 24.3575556,2.14533077 24.1764444,2.14533077 C23.9275556,2.14533077 23.4986667,2.02933077 22.7075556,1.79956154 C20.5986667,1.17829231 17.4031111,0.430984615 14.1697778,0.430984615 C12.3097778,0.430984615 10.6686667,0.679715385 9.27644444,1.17829231 C3.782,3.12129231 0.757555556,7.21029231 0.280888889,13.3292923 L0.195333333,14.3632538 L5.04088889,14.3632538 L5.04088889,15.3202538 L3.13311111,15.3202538 L3.13311111,17.2364846 L5.04088889,17.2364846 L5.04088889,18.1934846 L0.138666667,18.1934846 L0.0708888889,19.0746385 C-0.0524444444,20.6071769 -0.0146666667,20.8938308 0.185333333,22.1876769 L0.243111111,22.5791769 C0.424222222,23.7670615 0.596444444,24.9538308 0.767555556,26.1506385 C2.01644444,34.7881769 3.31422222,43.7123692 6.63422222,51.7754846 L6.74866667,52.0532154 C7.56866667,54.0731769 8.952,57.4539077 11.3553333,57.4539077 L11.5464444,57.4539077 L11.7275556,57.3769462 C13.9308889,56.4389077 14.7608889,54.3129846 15.362,52.7614846 C15.772,51.7174846 16.1353333,50.6456 16.4786667,49.6105231 C16.9364444,48.2519846 17.3842222,46.9391769 17.9275556,45.6754462 C19.1297778,48.1181385 21.6197778,52.1870615 24.9008889,52.1870615 C25.292,52.1870615 25.6831111,52.1290615 26.0653333,52.0152923 C28.2108889,51.3739462 29.2886667,49.1509846 30.0808889,47.5236385 L30.1475556,47.3897923 C30.3097778,47.0451385 30.5197778,46.6525231 30.7486667,46.2208692 C30.9775556,45.7903308 31.2253333,45.3218692 31.4631111,44.8232923 C31.702,45.5996 31.912,46.3848308 32.112,47.1789846 C32.3408889,48.0501 32.5797778,48.9591385 32.8475556,49.8023692 C34.0486667,53.5177154 35.6131111,57.3100231 38.112,57.3100231 C39.2853333,57.3100231 40.3253333,56.4868692 41.2986667,54.7814462 C43.1686667,51.4977538 43.9686667,47.8404077 44.742,44.2968308 L45.0186667,43.0520615 C45.4097778,41.3187538 45.8586667,39.5564462 46.2875556,37.8521385 C47.8131111,31.8491385 49.3975556,25.6331 48.7575556,19.0746385 L48.682,18.1934846 Z" id="Fill-1" fill="#13C180" mask="url(#mask-2)"></path>
            </g>
        </g>
    </g>
</svg>