<?xml version="1.0" encoding="UTF-8"?>
<svg width="32px" height="37px" viewBox="0 0 32 37" version="1.1" xmlns="http://www.w3.org/2000/svg" xmlns:xlink="http://www.w3.org/1999/xlink">
    <!-- Generator: Sketch 42 (36781) - http://www.bohemiancoding.com/sketch -->
    <title>none-metall-crowns-side-menu-icon</title>
    <desc>Created with Sketch.</desc>
    <defs>
        <polygon id="path-1" points="9.00655359e-05 36.6514173 31.41248 36.6514173 31.41248 0.000284615385 9.00655359e-05 0.000284615385"></polygon>
    </defs>
    <g id="Welcome" stroke="none" stroke-width="1" fill="none" fill-rule="evenodd">
        <g id="services/implantation" transform="translate(-170.000000, -420.000000)">
            <g id="none-metall-crowns-side-menu-icon" transform="translate(170.000000, 420.000000)">
                <mask id="mask-2" fill="white">
                    <use xlink:href="#path-1"></use>
                </mask>
                <g id="Clip-2"></g>
                <path d="M28.4457244,23.8354 C28.1648356,24.9290346 27.8775467,26.0653615 27.6279467,27.1895923 L27.45088,27.9893615 C26.9744356,30.1581308 26.4795022,32.3994769 25.3808356,34.3362846 C24.8496356,35.2641308 24.5019022,35.3317269 24.4037689,35.3317269 C24.1840356,35.3317269 23.3847467,35.0449769 22.1936356,31.3855346 C22.0293689,30.8782077 21.8885689,30.3474 21.74208,29.7795923 C21.2599467,27.9345731 20.7230578,25.8696885 19.1479467,24.5440923 C19.1415467,24.5376885 19.1415467,24.5376885 19.1358578,24.5319962 C18.9282133,24.3605154 18.70848,24.19615 18.4638578,24.0495731 C16.1321244,22.6627846 13.4825244,23.5607462 11.6080356,26.3037269 C10.5520356,27.8491885 9.96608,29.5775154 9.39790222,31.2453615 C9.17816889,31.8928615 8.95274667,32.5588615 8.70243556,33.2063615 C8.31203556,34.2082077 7.94510222,35.0143808 7.16999111,35.4114192 C6.48021333,35.2399385 5.74136889,33.4383231 5.45408,32.7360346 L5.36874667,32.5652654 C3.29941333,27.5617269 2.48163556,21.9484 1.69372444,16.5115346 C1.58421333,15.7480538 1.47399111,14.9845731 1.35808,14.2267846 L1.32110222,13.9706308 C1.23576889,13.4263038 1.20519111,13.2313423 1.22368,12.8279 L3.23185778,12.8279 L28.2622578,12.8279 L30.0450133,12.8279 C30.2889244,16.6097269 29.3552356,20.2805538 28.4457244,23.8354 L28.4457244,23.8354 Z M18.6046578,28.9058231 C18.4517689,29.1925731 18.31168,29.4615346 18.1950578,29.6878038 L18.1523911,29.7731885 C17.7250133,30.65265 17.1945244,31.7462846 16.3333689,32.00315 C16.1989689,32.0458423 16.0709689,32.0636308 15.9365689,32.0636308 C14.5079467,32.0636308 13.0487467,29.7916885 12.2245689,27.8491885 L12.1698133,27.7204 C12.2373689,27.6044192 12.2978133,27.5005346 12.3589689,27.3973615 C12.4386133,27.2621692 12.5239467,27.1348038 12.60928,26.9996115 C13.6411022,25.4847462 14.9474133,24.6180923 16.18688,24.6180923 C16.7365689,24.6180923 17.2855467,24.7824577 17.8288356,25.1062077 C18.0243911,25.2221885 18.2014578,25.3566692 18.3664356,25.4975538 C18.4275911,25.5523423 18.4823467,25.6135346 18.5435022,25.6683231 C18.6409244,25.7601115 18.7326578,25.8511885 18.8179911,25.9550731 C18.8976356,26.0525538 18.97728,26.15715 19.0505244,26.2603231 C19.09888,26.3279192 19.1479467,26.3955154 19.1906133,26.4616885 C19.2880356,26.6146692 19.3861689,26.7804577 19.4715022,26.9512269 C19.4835911,26.9690154 19.4899911,26.9882269 19.50208,27.0060154 C19.2759467,27.6350154 18.9218133,28.3067077 18.6046578,28.9058231 L18.6046578,28.9058231 Z M4.44714667,11.6061885 L27.0355911,11.6061885 L27.0355911,10.9956885 L4.44714667,10.9956885 L4.44714667,11.6061885 Z M4.44714667,9.77326538 L27.0355911,9.77326538 L27.0355911,9.16276538 L4.44714667,9.16276538 L4.44714667,9.77326538 Z M1.46759111,7.94105385 C1.88928,4.89282308 3.48288,2.91403462 6.34012444,1.90009231 C7.10243556,1.63113077 8.01834667,1.49095769 9.06865778,1.49095769 C10.9915022,1.49095769 12.9150578,1.93638077 14.1907911,2.31491923 C14.8137244,2.49849615 15.1429689,2.58388077 15.4729244,2.58388077 C15.8263467,2.58388077 16.0951467,2.47999615 16.4677689,2.33341923 C16.6327467,2.26653462 16.8403911,2.18684231 17.1091911,2.09505385 C17.1945244,2.06445769 17.2798578,2.02816923 17.3651911,1.99116923 L17.4626133,1.94847692 C18.6167467,1.47815 19.9109689,1.22199615 21.2051911,1.22199615 C22.9936356,1.22199615 24.7401244,1.71011154 26.11968,2.59597692 C28.0183467,3.81768846 29.29408,5.36955385 29.7157689,6.9634 C29.7947022,7.26295769 29.8622578,7.47072692 29.9227022,7.6479 C29.95968,7.75178462 29.9902578,7.84286154 30.0144356,7.94105385 L28.2565689,7.94105385 L3.22616889,7.94105385 L1.46759111,7.94105385 Z M31.15648,11.6061885 L28.2565689,11.6061885 L28.2565689,10.9956885 L29.4775467,10.9956885 L29.4775467,9.77326538 L28.2565689,9.77326538 L28.2565689,9.16276538 L31.41248,9.16276538 L31.3456356,8.49107308 C31.28448,7.86776538 31.1927467,7.58670769 31.0825244,7.25655385 C31.0277689,7.09859231 30.9666133,6.91501538 30.8997689,6.64605385 C30.3991467,4.75834231 28.9399467,2.95032308 26.78528,1.56353462 C25.1859911,0.5439 23.2567467,0.000284615385 21.2051911,0.000284615385 C19.7523911,0.000284615385 18.2931911,0.287034615 16.98688,0.83065 L16.8709689,0.879746154 C16.8162133,0.903938462 16.7550578,0.928842308 16.6995911,0.953034615 C16.4187022,1.05122692 16.1989689,1.13661154 16.0219022,1.20278462 C15.7047467,1.32516923 15.5888356,1.36857308 15.4729244,1.36857308 C15.3136356,1.36857308 15.0391467,1.29457308 14.5328356,1.14799615 C13.1831467,0.751669231 11.1379911,0.274938462 9.06865778,0.274938462 C7.87825778,0.274938462 6.82794667,0.433611538 5.93692444,0.751669231 C2.42048,1.99116923 0.484835556,4.59966923 0.179768889,8.50316923 L0.125013333,9.16276538 L3.22616889,9.16276538 L3.22616889,9.77326538 L2.00519111,9.77326538 L2.00519111,10.9956885 L3.22616889,10.9956885 L3.22616889,11.6061885 L0.0887466667,11.6061885 L0.0453688889,12.1683038 C-0.0335644444,13.1459577 -0.00938666667,13.3288231 0.118613333,14.1542077 L0.155591111,14.4039577 C0.271502222,15.1617462 0.381724444,15.9188231 0.491235556,16.6823038 C1.29052444,22.1924577 2.12110222,27.8854769 4.24590222,33.0291885 L4.31914667,33.2063615 C4.84394667,34.4949577 5.72928,36.6516308 7.26741333,36.6516308 L7.38972444,36.6516308 L7.50563556,36.6025346 C8.91576889,36.0041308 9.44696889,34.6479385 9.83168,33.6581885 C10.09408,32.9921885 10.3266133,32.3084 10.5463467,31.6480923 C10.8393244,30.7814385 11.1259022,29.9439577 11.4736356,29.1377846 C12.2430578,30.6960538 13.8366578,33.2917462 15.9365689,33.2917462 C16.18688,33.2917462 16.4371911,33.2547462 16.6818133,33.1821692 C18.0549689,32.7730346 18.7447467,31.3549385 19.2517689,30.3168038 L19.2944356,30.2314192 C19.3982578,30.0115538 19.5326578,29.7610923 19.6791467,29.4857269 C19.8256356,29.2110731 19.9842133,28.9122269 20.1363911,28.5941692 C20.28928,29.0894 20.42368,29.5903231 20.55168,30.0969385 C20.6981689,30.65265 20.8510578,31.2325538 21.0224356,31.7704769 C21.7911467,34.1406115 22.7923911,36.5598423 24.39168,36.5598423 C25.1426133,36.5598423 25.8082133,36.0347269 26.4311467,34.9467846 C27.6279467,32.8520154 28.1399467,30.5188808 28.63488,28.2583231 L28.8119467,27.4642462 C29.0622578,26.3585154 29.3495467,25.2342846 29.6240356,24.1470538 C30.6003911,20.3175538 31.6144356,16.35215 31.2048356,12.1683038 L31.15648,11.6061885 Z" id="Fill-1" fill="#13C180" mask="url(#mask-2)"></path>
            </g>
        </g>
    </g>
</svg>