<?xml version="1.0" encoding="UTF-8"?>
<svg width="60px" height="65px" viewBox="0 0 60 65" version="1.1" xmlns="http://www.w3.org/2000/svg" xmlns:xlink="http://www.w3.org/1999/xlink">
    <!-- Generator: Sketch 42 (36781) - http://www.bohemiancoding.com/sketch -->
    <title>people-white-icon</title>
    <desc>Created with Sketch.</desc>
    <defs>
        <polygon id="path-1" points="1.18869492e-15 38.4625907 1.18869492e-15 0.753679414 17.7099656 0.753679414 17.7099656 38.4625907 0 38.4625907"></polygon>
        <polygon id="path-3" points="22.1404898 38.462963 0.560815333 38.462963 0.560815333 0.761938889 22.1404898 0.761938889 22.1404898 38.462963"></polygon>
        <polygon id="path-5" points="0.336122449 0.0447037037 13.3904082 0.0447037037 13.3904082 13.2729852 0.336122449 13.2729852 0.336122449 0.0447037037"></polygon>
        <polygon id="path-7" points="13.600898 0.0447037037 0.546612245 0.0447037037 0.546612245 13.2731093 13.600898 13.2731093 13.600898 0.0447037037"></polygon>
        <polygon id="path-9" points="18.7812245 38.4620944 18.7812245 0.7621193 0.553203248 0.7621193 0.553203248 38.4620944 18.7812245 38.4620944"></polygon>
    </defs>
    <g id="Welcome" stroke="none" stroke-width="1" fill="none" fill-rule="evenodd">
        <g id="home" transform="translate(-176.000000, -628.000000)">
            <g id="people-white-icon" transform="translate(176.000000, 628.000000)">
                <path d="M11.0504082,22.7825185 C9.24795918,22.7825185 7.78714286,21.3023148 7.78714286,19.4747037 C7.78714286,17.6483333 9.24795918,16.1681296 11.0504082,16.1681296 C12.8540816,16.1681296 14.314898,17.6483333 14.314898,19.4747037 C14.314898,21.3023148 12.8540816,22.7825185 11.0504082,22.7825185 M11.0504082,12.8603148 C7.4455102,12.8603148 4.52265306,15.821963 4.52265306,19.4747037 C4.52265306,23.1274444 7.4455102,26.0890926 11.0504082,26.0890926 C14.6553061,26.0890926 17.5781633,23.1274444 17.5781633,19.4747037 C17.5781633,15.821963 14.6553061,12.8603148 11.0504082,12.8603148" id="Fill-1" fill="#F2F2F2"></path>
                <g id="Group-5" transform="translate(0.000000, 26.492830)">
                    <mask id="mask-2" fill="white">
                        <use xlink:href="#path-1"></use>
                    </mask>
                    <g id="Clip-4"></g>
                    <path d="M15.5835918,35.4674426 L17.6762449,20.1219611 C17.8550204,19.2249056 17.3052245,18.3464611 16.4468571,18.16035 C15.5884898,17.9717574 14.7460408,18.5462204 14.5672653,19.4432759 C14.5525714,19.5139981 14.5427755,19.5834796 14.5378776,19.6554426 L12.439102,35.0220167 L12.439102,35.1944796 C12.439102,35.1944796 12.8321633,35.2614796 12.7942041,35.1560167 L9.31420408,35.1560167 C9.2762449,35.2614796 9.17583673,35.1944796 9.17583673,35.1944796 L9.17583673,35.1473315 L7.08930612,19.8812574 C7.00726531,19.2794981 6.60685714,18.7720352 6.04359184,18.5598685 C5.29665306,18.2869056 4.76644898,17.6057389 4.60481633,16.8067019 L4.60481633,16.7669981 L3.40726531,7.4800537 C3.24440816,5.94773889 4.33910204,4.57299815 5.85257143,4.40797963 C5.94440816,4.3980537 6.0362449,4.39185 6.12808163,4.06801667 L7.06236735,4.06801667 L9.31420408,7.24307222 C9.72195918,7.76294259 10.9978776,8.03838704 10.9978776,8.03838704 L11.0382857,8.03838704 C11.7252245,8.04086852 12.3742041,7.72323889 12.801551,7.1785537 L15.6093061,3.6275537 C16.2350204,2.91909074 16.1762449,1.82847963 15.4758367,1.19322037 C14.7766531,0.557961111 13.701551,0.618757407 13.0746122,1.32722037 C13.0329796,1.37436852 12.9950204,1.42399815 12.9570612,1.47486852 L11.0113469,3.96627593 L9.06440816,1.50216481 C8.70073469,1.03316481 8.14359184,0.758961111 7.55338776,0.761442593 L5.84889796,0.761442593 C2.61012245,0.770127778 -0.00783673469,3.51588704 -0.000489795918,6.89566481 C-0.000489795918,7.11651667 0.0129795918,7.33860926 0.036244898,7.55946111 L0.036244898,7.59916481 L1.28032653,16.959313 C1.47257143,18.6194241 2.3884898,20.0934241 3.76236735,20.9544981 L5.73991837,35.4674426 C5.93093878,37.1734611 7.31461224,38.46135 8.96155102,38.4625907 L12.3619592,38.4625907 C14.008898,38.46135 15.3937959,37.1734611 15.5835918,35.4674426" id="Fill-3" fill="#F2F2F2" mask="url(#mask-2)"></path>
                </g>
                <path d="M29.6282449,16.1547296 C31.4306939,16.1547296 32.8915102,17.6349333 32.8915102,19.4613037 C32.8915102,21.2889148 31.4306939,22.7691185 29.6282449,22.7691185 C27.8257959,22.7691185 26.3649796,21.2889148 26.3649796,19.4613037 C26.3649796,17.6349333 27.8257959,16.1547296 29.6282449,16.1547296 M29.6282449,26.0756926 C33.2331429,26.0756926 36.156,23.1140444 36.156,19.4613037 C36.156,15.8098037 33.2331429,12.8481556 29.6282449,12.8481556 C26.0233469,12.8481556 23.1004898,15.8098037 23.1004898,19.4613037 C23.1004898,23.1140444 26.0233469,26.0756926 29.6282449,26.0756926" id="Fill-6" fill="#F2F2F2"></path>
                <g id="Group-10" transform="translate(18.367347, 26.492830)">
                    <mask id="mask-4" fill="white">
                        <use xlink:href="#path-3"></use>
                    </mask>
                    <g id="Clip-9"></g>
                    <path d="M18.9115102,7.48055 L17.5706939,16.7736981 L17.5706939,16.8134019 C17.551102,17.6136796 17.0221224,18.2936056 16.2739592,18.5665685 C15.7119184,18.7774944 15.3102857,19.2874389 15.2294694,19.8891981 L13.0021224,35.1478278 L13.0021224,35.089513 C12.9947755,35.1279759 12.9592653,35.156513 12.9164082,35.156513 L9.16946939,35.156513 C9.12783673,35.156513 9.09110204,35.1279759 9.08497959,35.089513 L9.08497959,35.1478278 L7.29844898,19.8817537 C7.21763265,19.2799944 6.816,18.7725315 6.25395918,18.5603648 C5.50702041,18.2874019 4.97681633,17.6062352 5.16783673,16.8071981 L5.16783673,16.7662537 L3.61028571,7.48055 C3.45232653,5.94823519 4.54946939,4.57473519 6.06293878,4.41343889 C6.15722449,4.4047537 6.2515102,4.39855 6.34457143,4.06851296 L7.27885714,4.06851296 L9.53069388,7.24853148 C9.93844898,7.76840185 11.2155918,8.03764259 11.2155918,8.03764259 L11.2927347,8.03764259 C11.2927347,8.03764259 12.5698776,7.76840185 12.9776327,7.24853148 L15.2355918,4.06851296 L16.1698776,4.06851296 C17.6906939,4.39110556 18.9262041,5.63929074 18.9274286,7.18029074 C18.9274286,7.28079074 18.9225306,7.38129074 18.9115102,7.48055 M20.8780408,17.3357537 L22.1404898,8.14062407 L22.1404898,7.86517963 C22.1404898,7.86517963 20.1396735,1.51630926 16.8470204,1.13788333 C16.6229388,1.11058704 16.3964082,1.09693889 16.1698776,0.761938889 L14.5633469,0.761938889 C14.0049796,1.09445741 13.476,1.35005 13.1270204,1.79299444 L11.260898,4.17397593 L9.39967347,1.81905 C9.05191837,1.36990185 7.95844898,1.4232537 7.95844898,1.4232537 L6.74620408,1.4232537 C4.45763265,1.4232537 2.26212245,2.62305 1.21763265,4.68640185 C0.671510204,5.76336481 0.468244898,6.95571667 0.599265306,8.11456852 L0.599265306,8.15303148 L1.8604898,17.3357537 C2.05395918,18.9673278 2.98334694,20.416513 4.37681633,21.2602167 L6.37640816,35.52005 C6.56987755,37.1987722 7.97681633,38.4643278 9.64946939,38.463087 L13.0964082,38.463087 C14.7592653,38.463087 16.1613061,37.2086981 16.3633469,35.5386611 L18.3629388,21.3123278 C19.7686531,20.4574574 20.7004898,18.9859389 20.8780408,17.3357537" id="Fill-8" fill="#F2F2F2" mask="url(#mask-4)"></path>
                </g>
                <path d="M48.2059592,16.1547296 C50.0084082,16.1547296 51.4692245,17.6349333 51.4692245,19.4613037 C51.4692245,21.2889148 50.0084082,22.7691185 48.2059592,22.7691185 C46.4022857,22.7691185 44.9414694,21.2889148 44.9414694,19.4613037 C44.9414694,17.6349333 46.4022857,16.1547296 48.2059592,16.1547296 M48.2059592,26.0756926 C51.8108571,26.0756926 54.7337143,23.1140444 54.7337143,19.4613037 C54.7337143,15.8098037 51.8108571,12.8481556 48.2059592,12.8481556 C44.6010612,12.8481556 41.6782041,15.8098037 41.6782041,19.4613037 C41.6782041,23.1140444 44.6010612,26.0756926 48.2059592,26.0756926" id="Fill-11" fill="#F2F2F2"></path>
                <g id="Group-15" transform="translate(13.469388, 0.196533)">
                    <mask id="mask-6" fill="white">
                        <use xlink:href="#path-5"></use>
                    </mask>
                    <g id="Clip-14"></g>
                    <path d="M3.59938776,6.6585963 C3.59938776,4.83098519 5.06020408,3.35078148 6.86387755,3.35078148 C8.66632653,3.35078148 10.1271429,4.83098519 10.1271429,6.6585963 C10.1271429,8.48496667 8.66632653,9.96517037 6.86387755,9.96517037 C5.06020408,9.96517037 3.59938776,8.48496667 3.59938776,6.6585963 M13.3904082,6.6585963 C13.3904082,3.00585556 10.467551,0.0442074074 6.86387755,0.0442074074 C3.25897959,0.0442074074 0.336122449,3.00585556 0.336122449,6.6585963 C0.336122449,10.311337 3.25897959,13.2729852 6.86387755,13.2729852 C10.467551,13.2729852 13.3904082,10.311337 13.3904082,6.6585963" id="Fill-13" fill="#F2F2F2" mask="url(#mask-6)"></path>
                </g>
                <g id="Group-18" transform="translate(31.836735, 0.196533)">
                    <mask id="mask-8" fill="white">
                        <use xlink:href="#path-7"></use>
                    </mask>
                    <g id="Clip-17"></g>
                    <path d="M7.07314286,9.86107222 C4.8237551,9.86107222 3.10579592,7.55453519 4.09640816,5.14749815 C4.39885714,4.41422037 4.99273469,3.82362778 5.71885714,3.52460926 C8.61477551,2.32853519 11.3490612,5.20457222 9.96906122,8.14388704 C9.4682449,9.21340556 8.36742857,9.86107222 7.2004898,9.86107222 L7.07314286,9.86107222 Z M13.600898,6.65872037 C13.600898,3.00597963 10.6780408,0.0443314815 7.07314286,0.0443314815 C3.46946939,0.0443314815 0.546612245,3.00597963 0.546612245,6.65872037 C0.546612245,10.3114611 3.46946939,13.2731093 7.07314286,13.2731093 C10.6780408,13.2731093 13.600898,10.3114611 13.600898,6.65872037 L13.600898,6.65872037 Z" id="Fill-16" fill="#F2F2F2" mask="url(#mask-8)"></path>
                </g>
                <g id="Group-21" transform="translate(40.408163, 26.492830)">
                    <mask id="mask-10" fill="white">
                        <use xlink:href="#path-9"></use>
                    </mask>
                    <g id="Clip-20"></g>
                    <path d="M18.742898,7.57013148 C19.1200408,4.21392778 16.7396327,1.18403889 13.4286122,0.80065 C13.2069796,0.774594444 12.982898,0.762187037 12.7588163,0.762187037 L11.2784082,0.762187037 C10.6967755,0.757224074 10.1445306,1.02522407 9.78208163,1.48553889 L7.83514286,3.96826111 L5.88820408,1.50539074 C5.34330612,0.734890741 4.28412245,0.557464815 3.52371429,1.10959444 C2.76208163,1.66048333 2.58697959,2.73372407 3.13187755,3.50546481 C3.16738776,3.55633519 3.20657143,3.60472407 3.24820408,3.65187222 L6.03759184,7.18302037 C6.46371429,7.72398333 7.1102449,8.04037222 7.79473469,8.03789074 L7.83759184,8.03789074 C7.83759184,8.03789074 9.1135102,7.77609444 9.52126531,7.25622407 L11.7792245,4.06876111 L12.7196327,4.06876111 C14.240449,4.40748333 15.4661633,5.66559444 15.4563673,7.20783519 C15.4551429,7.29840926 15.4514694,7.38898333 15.4416735,7.48079815 L14.4608571,16.7739463 L14.4608571,16.81365 C14.0873878,17.6139278 13.5584082,18.2938537 12.8102449,18.5655759 C12.2482041,18.7777426 11.8465714,19.2864463 11.7669796,19.8894463 L9.89106122,35.1480759 L9.89106122,35.0897611 C9.88493878,35.1282241 9.84820408,35.1555204 9.80657143,35.1555204 L6.05963265,35.1555204 C6.01677551,35.1555204 5.98126531,35.1282241 5.97391837,35.0897611 L5.97391837,35.0227611 L3.81881633,19.6623907 C3.75146939,18.7504463 2.96412245,18.0667981 2.06412245,18.1375204 C1.16412245,18.2057611 0.489428571,19.0035574 0.558,19.9155019 C0.564122449,19.9874648 0.573918367,20.0569463 0.588612245,20.1276685 L2.73636735,35.468187 C2.9335102,37.1729648 4.35759184,38.4608537 6.0535102,38.4620944 L9.55310204,38.4620944 C11.2416735,38.4620944 12.6645306,37.1853722 12.8702449,35.4880389 L14.8992245,21.0135574 C16.3147347,20.1537241 17.2575918,18.6797241 17.4547347,17.019613 L18.735551,7.66318704 L18.742898,7.57013148 Z" id="Fill-19" fill="#F2F2F2" mask="url(#mask-10)"></path>
                </g>
            </g>
        </g>
    </g>
</svg>