<?xml version="1.0" encoding="UTF-8"?>
<svg width="15px" height="15px" viewBox="0 0 15 15" version="1.1" xmlns="http://www.w3.org/2000/svg" xmlns:xlink="http://www.w3.org/1999/xlink">
    <!-- Generator: Sketch 42 (36781) - http://www.bohemiancoding.com/sketch -->
    <title>phone-small-white-icon</title>
    <desc>Created with Sketch.</desc>
    <defs></defs>
    <g id="Welcome" stroke="none" stroke-width="1" fill="none" fill-rule="evenodd">
        <g id="home" transform="translate(-1055.000000, -24.000000)" fill="#FFFFFF">
            <g id="phone-small-white-icon" transform="translate(1055.000000, 24.000000)">
                <path d="M7.5,-4.28571428e-05 L7.5,-4.28571428e-05 L7.5,1.86831429 C10.6013571,1.86831429 13.1046429,4.3716 13.1046429,7.47295714 L14.973,7.47295714 C14.973,3.3441 11.6288571,-4.28571428e-05 7.5,-4.28571428e-05" id="Fill-1"></path>
                <path d="M7.5,5.60475 C8.5275,5.60475 9.36835714,6.44539286 9.36835714,7.47289286 L11.2365,7.47289286 C11.2365,5.41789286 9.555,3.73639286 7.5,3.73639286 L7.5,5.60475 Z" id="Fill-3"></path>
                <path d="M6.37060714,13.8706714 C7.08053571,14.5806 8.03346429,14.9729571 9.02367857,14.9729571 L9.34103571,14.9729571 C11.39625,14.9729571 13.07775,13.2914571 13.07775,11.2364571 L9.34103571,9.36831429 L7.47310714,11.2364571 L3.73639286,7.49995714 L5.60475,5.63181429 L3.73639286,1.89531429 C1.68139286,1.89531429 0.000107142856,3.5766 0.000107142856,5.63181429 L0.000107142856,5.94938571 C0.000107142856,6.9396 0.392464286,7.89231429 1.10217857,8.5836 L6.37060714,13.8706714 Z" id="Fill-5"></path>
            </g>
        </g>
    </g>
</svg>