<?xml version="1.0" encoding="UTF-8"?>
<svg width="52px" height="52px" viewBox="0 0 52 52" version="1.1" xmlns="http://www.w3.org/2000/svg" xmlns:xlink="http://www.w3.org/1999/xlink">
    <!-- Generator: Sketch 42 (36781) - http://www.bohemiancoding.com/sketch -->
    <title>protez-small-icon</title>
    <desc>Created with Sketch.</desc>
    <defs>
        <polygon id="path-1" points="7.36843981e-05 0.000110638298 51.74 0.000110638298 51.74 51.6974043 7.36843981e-05 51.6974043"></polygon>
    </defs>
    <g id="Welcome" stroke="none" stroke-width="1" fill="none" fill-rule="evenodd">
        <g id="home" transform="translate(-461.000000, -1220.000000)">
            <g id="protez-small-icon" transform="translate(461.000000, 1220.000000)">
                <mask id="mask-2" fill="white">
                    <use xlink:href="#path-1"></use>
                </mask>
                <g id="Clip-2"></g>
                <path d="M49.7223447,37.893617 C49.4457489,38.5574468 49.113834,38.6680851 48.8372383,38.7234043 L48.6712809,38.7234043 C48.6159617,38.7234043 48.5053234,38.7234043 48.3946851,38.6680851 C48.5606426,37.2297872 48.2287277,35.5702128 47.7308553,34.5191489 C47.7861745,34.2978723 47.8414936,34.1319149 47.8968128,33.9659574 C48.3946851,33.6340426 49.113834,33.3021277 49.5563872,33.2468085 C49.8883021,33.8553191 50.3308553,36.4 49.7223447,37.893617 M44.9095787,48.3068936 C40.9282596,49.5615319 36.8374085,50.1064255 32.8566426,50.1064255 C17.6394511,50.1064255 3.89540851,42.689234 2.96825957,41.4345957 C2.53179149,40.7259574 2.25906809,37.9445106 2.20485532,35.4357872 C2.91404681,36.6356596 4.27766383,37.3985106 6.07719574,37.6170213 L6.29681277,37.6170213 C6.29681277,37.6170213 8.34362128,37.0638298 9.17340851,36.4 C9.67128085,38.0595745 13.2117064,39.2765957 13.2117064,39.2765957 L13.3964723,39.2765957 C14.4132383,39.2765957 15.3697064,38.9181277 16.2072383,38.3201277 C16.6260043,40.1141277 18.0615362,41.2498298 20.2743021,41.4893617 L20.4756638,41.4893617 C21.4570255,41.4893617 22.3847277,41.1076596 23.1481319,40.3984681 C23.2571106,40.7259574 23.4208553,41.1076596 23.639366,41.4345957 C24.2390255,42.4165106 25.1656213,43.0709362 26.2023021,43.2894468 C26.3660468,43.3442128 26.5840043,43.3442128 26.7477489,43.3442128 C27.4021745,43.3442128 28.6568128,43.0709362 29.4744298,41.0528936 C29.5291957,40.9981277 29.5291957,40.8891489 29.5291957,40.8349362 C29.5291957,40.8891489 29.5839617,40.9439149 29.5839617,40.9981277 C30.4015787,42.4707234 31.656217,43.2894468 33.1288128,43.2894468 C33.2925574,43.2894468 33.4563021,43.2894468 33.6742596,43.2346809 C34.9288979,43.0709362 35.9102596,42.4165106 36.4562596,41.380383 C37.1648979,42.5802553 38.2010255,43.2346809 39.4008979,43.2346809 C39.5646426,43.2346809 39.7283872,43.2346809 39.8915787,43.1804681 C40.9282596,43.0167234 41.7464298,42.4707234 42.2371106,41.5983404 C42.9463021,42.3617447 43.7097064,42.5802553 44.2551532,42.5802553 C44.5273234,42.5802553 44.8548128,42.5254894 45.1275362,42.4165106 C46.2731957,42.0895745 47.0908128,41.325617 47.5272809,40.2347234 C47.7457915,40.2894894 47.9637489,40.3442553 48.1822596,40.3442553 C48.3460043,40.3442553 48.5091957,40.3442553 48.6729404,40.2894894 C48.8908979,45.9619149 48.2912383,47.2165532 44.9095787,48.3068936 M4.08404681,29.0978723 C4.7478766,29.0425532 5.07979149,29.3191489 5.57766383,29.8170213 C5.90957872,30.093617 6.24149362,30.4808511 6.73936596,30.6468085 C7.18191915,30.812766 7.73511064,30.7021277 8.12234468,30.5914894 C8.28830213,30.5361702 8.45425957,30.4808511 8.62021702,30.4808511 C8.73085532,30.4808511 9.00745106,30.4808511 9.45000426,31.3659574 C9.8372383,32.1404255 9.67128085,33.3021277 9.06277021,34.2425532 C8.39894043,35.293617 7.3478766,35.9574468 6.29681277,35.9574468 L6.02021702,35.9574468 C4.3053234,35.7914894 3.30957872,35.0170213 2.97766383,33.7446809 C2.53511064,31.9191489 3.58617447,29.5404255 4.08404681,29.0978723 M11.2755362,32.2510638 C11.4414936,31.9191489 11.6074511,31.6978723 11.7180894,31.587234 C12.2712809,31.5319149 12.5478766,31.8085106 13.0457489,32.2510638 C13.3223447,32.5276596 13.6542596,32.8595745 14.0968128,33.0255319 C14.4840468,33.1914894 15.0372383,33.0808511 15.3691532,33.0255319 C15.5351106,32.9702128 15.7010681,32.9702128 15.8117064,32.9702128 C16.032983,32.9702128 16.2542596,33.2468085 16.4755362,33.7446809 C16.8074511,34.4085106 16.6414936,35.4595745 16.1436213,36.3446809 C15.4797915,37.3957447 14.4840468,37.9489362 13.432983,37.8382979 C11.939366,37.6723404 11.0542596,37.0085106 10.7223447,35.9021277 C10.6117064,35.5702128 10.6117064,35.1829787 10.6117064,34.7957447 C11.0542596,33.9659574 11.2755362,33.0808511 11.2755362,32.2510638 M18.7436213,34.8510638 C19.1861745,34.8510638 19.4627702,35.0170213 19.8500043,35.3489362 C20.1266,35.5702128 20.4031957,35.8468085 20.8457489,36.012766 C21.232983,36.1234043 21.6755362,36.0680851 22.0074511,36.012766 C22.1734085,35.9574468 22.2840468,35.9574468 22.3946851,35.9574468 C22.5606426,35.9574468 22.7266,36.1787234 22.9478766,36.5659574 C23.2244723,37.0638298 23.113834,37.8382979 22.6712809,38.5021277 C22.2840468,39.1659574 21.5095787,39.8297872 20.513834,39.8297872 L20.2925574,39.8297872 C18.9648979,39.6638298 18.1904298,39.1659574 17.9691532,38.2808511 C17.5819191,36.8978723 18.3563872,35.2382979 18.7436213,34.8510638 M24.6627702,36.5106383 C24.8840468,35.9021277 25.2712809,35.4042553 26.2670255,35.2382979 C26.8755362,35.6808511 28.0372383,36.5106383 28.4797915,36.8978723 C28.6457489,37.4510638 28.5351106,39.6085106 27.7053234,40.8808511 C27.3180894,41.4893617 26.9861745,41.4893617 26.8755362,41.4893617 L26.6542596,41.4893617 C25.9904298,41.3787234 25.4925574,40.9914894 25.1053234,40.3276596 C24.7180894,39.7191489 24.5521319,38.9446809 24.4414936,38.3361702 C24.6627702,37.7276596 24.7180894,37.1191489 24.6627702,36.5106383 M30.6925574,36.1234043 C31.3010681,36.012766 32.5734085,35.8468085 33.6244723,35.8468085 C34.6755362,35.8468085 34.9521319,36.012766 34.9521319,36.012766 C35.2840468,36.2893617 35.9478766,38.3914894 35.4500043,39.9957447 C35.1734085,40.8808511 34.5648979,41.3787234 33.6797915,41.4893617 L33.3478766,41.4893617 C32.4627702,41.4893617 31.7436213,40.9914894 31.2457489,40.0510638 C30.4712809,38.7234043 30.4159617,36.9531915 30.6925574,36.1234043 M37.4414936,35.8468085 C37.9946851,35.7361702 39.0457489,35.5702128 39.8755362,35.5702128 C40.7053234,35.5702128 40.9266,35.7361702 40.9266,35.7361702 C41.2585149,36.1234043 41.9223447,38.5574468 41.313834,40.2170213 C40.9819191,41.212766 40.3180894,41.4340426 39.8755362,41.4893617 L39.5989404,41.4893617 C39.3776638,41.4893617 38.6585149,41.4893617 38.0500043,40.3829787 C37.2755362,38.9446809 37.220217,36.787234 37.4414936,35.8468085 M37.0542596,31.9191489 C35.5606426,31.9191489 34.3436213,31.587234 33.9563872,31.2553191 C33.7904298,31.0893617 33.6244723,30.6468085 33.5691532,30.0382979 C33.6244723,29.2638298 33.6244723,28.3234043 33.513834,27.3829787 C33.5691532,26.4425532 33.7904298,25.3914894 34.1223447,24.4510638 C34.7308553,22.9021277 35.5606426,22.1276596 36.6117064,22.1276596 L36.7223447,22.1276596 C39.8755362,22.3489362 40.0414936,23.6212766 40.3734085,28.4340426 C40.4287277,29.1531915 40.4840468,29.8723404 40.539366,30.7021277 C40.539366,30.8680851 40.4840468,30.9787234 40.3734085,31.0893617 C39.9308553,31.587234 38.6031957,31.9191489 37.0542596,31.9191489 M41.8117064,27.9361702 C41.7010681,26.4978723 41.6457489,25.2255319 41.4244723,24.1191489 C41.5904298,23.1234043 41.8670255,22.2382979 42.3648979,21.6297872 C42.6968128,21.2425532 43.0287277,21.0212766 43.4159617,21.0212766 L43.6372383,21.0212766 C44.3563872,21.0212766 44.9648979,21.2425532 45.4074511,21.7404255 C46.9563872,23.4 46.6797915,27.3276596 46.5691532,28.7659574 C46.5691532,28.9319149 46.5691532,29.0978723 46.513834,29.2638298 C46.1266,29.706383 44.2457489,30.6468085 42.8074511,30.6468085 C42.420217,30.6468085 42.1989404,30.5914894 41.9776638,30.4808511 L41.9776638,30.1489362 C41.9223447,29.3744681 41.8670255,28.6 41.8117064,27.9361702 M46.6797915,32.7489362 L46.513834,32.8595745 L46.4585149,33.0255319 C46.4031957,33.0808511 46.4031957,33.1914894 46.3478766,33.2468085 C46.2372383,33.2468085 46.0712809,33.1914894 45.9606426,33.1914894 C44.5776638,33.1914894 42.5308553,34.1319149 41.9776638,34.4085106 C41.0925574,33.8553191 40.1521319,33.4680851 39.2670255,33.1361702 C40.0968128,32.9702128 40.8712809,32.6382979 41.4244723,32.1404255 C41.8670255,32.3617021 42.3648979,32.4723404 42.9734085,32.4723404 C43.9691532,32.4723404 45.1861745,32.1404255 46.3478766,31.587234 C46.6244723,31.4765957 46.8457489,31.3106383 47.0670255,31.2 C47.3436213,31.4765957 47.5648979,31.7531915 47.7861745,32.0851064 C47.232983,32.3617021 46.8457489,32.6382979 46.6797915,32.7489362 M42.8445149,35.9618723 C42.8716213,35.8965957 42.8871106,35.8589787 42.9136638,35.7931489 C43.7987702,35.4059149 45.239834,34.8510638 45.9606426,34.8510638 L46.1266,34.8510638 C46.4585149,35.293617 47.0670255,37.3957447 46.6244723,39.1106383 C46.3478766,40.0510638 45.8500043,40.6595745 45.020217,40.8808511 C44.8542596,40.9361702 44.7436213,40.9361702 44.632983,40.9361702 C44.2457489,40.9361702 43.8585149,40.6595745 43.5266,40.106383 C43.4159617,39.8851064 43.3053234,39.7191489 43.2500043,39.4425532 C43.3628553,38.2598298 43.1880468,36.9050638 42.8445149,35.9618723 M32.5180894,23.5659574 C32.4627702,23.6765957 32.4627702,23.787234 32.4074511,23.8978723 C32.0755362,23.1787234 31.3010681,22.5148936 30.1946851,22.2382979 C29.9734085,22.1829787 29.7521319,22.1276596 29.5308553,22.1276596 C28.5351106,22.1276596 27.6500043,22.6808511 26.9861745,23.6765957 C26.4883021,22.3489362 25.5478766,21.2425532 23.7776638,21.0212766 L23.5010681,21.0212766 C22.8925574,21.0212766 22.0074511,21.2978723 21.0670255,22.5148936 C20.9563872,22.6808511 20.7904298,22.9021277 20.6797915,23.0680851 C20.0159617,21.5744681 18.5776638,20.6340426 16.5308553,20.412766 C15.4244723,20.3021277 14.3734085,20.5787234 13.432983,21.2425532 C13.1010681,18.8638298 11.3308553,17.3148936 8.39894043,17.0382979 C8.23298298,17.0382979 8.06702553,16.9829787 7.84574894,16.9829787 C6.13085532,16.9829787 4.4159617,17.9234043 3.36489787,19.4723404 C3.03298298,19.2510638 2.81170638,19.0851064 2.70106809,18.9191489 C2.0372383,17.8680851 1.76064255,12.1702128 2.0372383,9.51489362 C3.03298298,10.4553191 4.6372383,11.5617021 6.62872766,12.5574468 C9.11808936,13.8297872 13.2670255,15.6 18.8542596,16.6510638 C24.3861745,17.7021277 30.5266,18.3106383 35.6159617,18.3106383 C39.0457489,18.3106383 43.6925574,18.0340426 46.3478766,16.706383 C47.232983,16.2638298 48.0074511,15.7659574 48.6159617,15.212766 L48.6159617,15.2680851 L48.6159617,15.3787234 C48.7819191,15.212766 48.8925574,15.1021277 49.0031957,14.9361702 C49.0585149,16.2085106 49.0585149,17.3702128 49.0585149,18.3106383 C48.2840468,18.2 47.620217,18.4765957 47.1223447,19.1404255 C46.9010681,19.4723404 46.7351106,19.9148936 46.5691532,20.3574468 C45.739366,19.6382979 44.7436213,19.306383 43.4712809,19.3617021 C42.5861745,19.4170213 41.8117064,19.8595745 41.2031957,20.5787234 C40.9819191,20.8553191 40.7606426,21.2425532 40.5946851,21.6297872 C39.8755362,20.6893617 38.713834,20.1361702 36.832983,20.0255319 C34.8968128,19.9148936 33.4031957,21.187234 32.5180894,23.5659574 M31.6883021,30.9787234 L31.3010681,30.9787234 C30.2500043,30.9787234 27.9819191,30.9787234 27.2627702,30.3148936 C27.1521319,30.2042553 27.0968128,29.8723404 27.0968128,29.4297872 C27.1521319,28.8765957 27.2074511,28.212766 27.2627702,27.4382979 C27.4281745,26.4453191 27.8408553,25.3284255 28.3166,24.6435745 C28.5511532,24.3055745 28.9477915,24.1191489 29.359366,24.1191489 C29.4733234,24.1191489 29.5291957,24.1185957 29.6414936,24.1744681 C30.5266,24.3957447 31.1351106,25.0595745 31.5776638,26.2212766 C32.2414936,28.1021277 31.9648979,30.3148936 31.6883021,30.9787234 M25.5478766,27.0510638 C25.4372383,27.7148936 25.3819191,28.3787234 25.3819191,29.0425532 C25.2712809,30.3148936 24.1095787,31.0340426 23.5563872,31.3106383 C22.9478766,31.0340426 21.4542596,30.2042553 21.0117064,28.8212766 C20.6244723,27.5489362 21.232983,24.9489362 22.2840468,23.5106383 C22.6712809,23.012766 23.0585149,22.6808511 23.3351106,22.6808511 L23.3904298,22.6808511 C25.2159617,22.9021277 25.6031957,24.7276596 25.5478766,27.0510638 M18.1351106,29.3191489 L18.0244723,29.3191489 C17.4159617,29.3191489 17.0840468,29.0425532 16.6414936,28.6 C16.3095787,28.3234043 15.9776638,27.9361702 15.4797915,27.7702128 C15.313834,27.7148936 15.0925574,27.6595745 14.9266,27.6595745 C14.6500043,27.6595745 14.3734085,27.7148936 14.0968128,27.7702128 C13.9308553,27.8255319 13.7648979,27.8808511 13.5989404,27.8808511 C13.4883021,27.8808511 13.2117064,27.8808511 12.7691532,26.9957447 C12.6031957,26.6638298 12.5478766,26.3319149 12.5478766,25.9446809 C12.8244723,25.3914894 13.0457489,24.7276596 13.1563872,24.0638298 C13.8755362,22.9021277 15.0372383,22.293617 16.1989404,22.4042553 C17.913834,22.5702128 18.9095787,23.3446809 19.2414936,24.6170213 C19.6840468,26.4978723 18.632983,28.8765957 18.1351106,29.3191489 M10.3351106,26 L10.113834,26 C9.33936596,26 8.95213191,25.6680851 8.45425957,25.2255319 C8.06702553,24.893617 7.73511064,24.5617021 7.18191915,24.3957447 C7.0159617,24.3404255 6.79468511,24.2851064 6.57340851,24.2851064 C6.24149362,24.2851064 5.96489787,24.3404255 5.68830213,24.3957447 C5.46702553,24.4510638 5.24574894,24.506383 5.07979149,24.506383 C4.91383404,24.506383 4.58191915,24.506383 4.08404681,23.5106383 C3.69681277,22.7361702 3.80745106,21.5744681 4.4159617,20.5787234 C5.02447234,19.5276596 6.35213191,18.4212766 8.01170638,18.587234 C10.0031957,18.8085106 11.220217,19.6382979 11.4968128,21.1319149 C12.0500043,23.1787234 10.832983,25.612766 10.3351106,26 M47.0117064,7.96595745 C47.9521319,9.01702128 49.0585149,10.6212766 48.7819191,12.1148936 C48.5606426,13.3319149 47.4542596,14.4382979 45.5180894,15.3787234 C43.6372383,16.3191489 40.1521319,16.8170213 35.5053234,16.8170213 C30.5266,16.8170213 24.4968128,16.2085106 19.0755362,15.212766 C10.2797915,13.6085106 4.5266,10.012766 2.92234468,8.29787234 C5.24574894,7.63404255 33.0712809,1.88085106 34.1223447,1.65957447 L34.1776638,1.65957447 C35.6159617,1.93617021 43.8585149,4.42553191 47.0117064,7.96595745 M49.8883021,21.8510638 C50.3308553,23.8425532 49.5010681,26.4978723 49.0585149,26.8297872 L49.0031957,26.8851064 C48.9478766,26.7191489 48.8925574,26.6085106 48.8925574,26.4425532 C48.7819191,26.1106383 48.6712809,25.6680851 48.5053234,25.1702128 C48.4500043,25.0595745 48.4500043,25.0042553 48.3946851,24.893617 C48.339366,24.4510638 48.2840468,24.0085106 48.1180894,23.6212766 C48.0074511,22.4042553 48.1180894,21.187234 48.5053234,20.6340426 C48.6159617,20.4680851 48.6712809,20.4680851 48.7266,20.4680851 L48.8372383,20.4680851 C49.3351106,20.5787234 49.7223447,21.0212766 49.8883021,21.8510638 M50.8143447,32.1382128 C50.5919617,31.9158298 50.2600468,31.6386809 49.6504298,31.6386809 C49.2626426,31.0849362 48.8748553,30.5306383 48.3205574,30.0322128 C48.3758766,29.9215745 48.3758766,29.7550638 48.3758766,29.6444255 C48.3758766,29.5337872 48.3758766,29.3672766 48.4311957,29.146 C48.4311957,28.9794894 48.4870681,28.7576596 48.4870681,28.4805106 C48.5977064,28.4805106 48.6524723,28.536383 48.7636638,28.536383 C49.1514511,28.536383 49.5392383,28.3698723 49.9828979,28.0374043 C51.3127702,27.1506383 51.9771532,23.6605532 51.589366,21.4439149 C51.4234085,20.6677872 51.1462596,20.0028511 50.7584723,19.5044255 C50.8143447,17.7862128 50.7026,15.7360851 50.647834,13.3540426 L50.5371957,11.4698723 C50.5371957,10.3612766 49.8163872,8.42234043 48.3205574,6.81531915 C44.4415787,2.54855319 35.1883447,0.110638298 34.3015787,0 L34.2689404,0 C32.254217,0.223489362 2.19379149,6.38161702 1.18642979,7.2213617 C1.13055745,7.2213617 1.07468511,7.27668085 0.962387234,7.33310638 C0.683025532,7.5012766 -0.100846809,8.00523404 0.0108978723,13.5465532 C0.0667702128,15.1701702 0.234940426,19.032 1.07468511,20.3198298 C1.24230213,20.5997447 1.69038723,20.9360851 2.3619617,21.4394894 C1.97030213,22.6150213 2.02562128,23.7905532 2.52957872,24.7979149 C3.20115319,26.0851915 3.98502553,26.7014468 5.04881277,26.7014468 C5.38515319,26.7014468 5.72038723,26.6455745 6.00030213,26.5332766 C6.22434468,26.4774043 6.50425957,26.4215319 6.56068511,26.4774043 C6.72774894,26.5332766 6.95234468,26.7573191 7.23170638,26.9808085 C7.79153617,27.4853191 8.63183404,28.212766 10.0308553,28.212766 L10.700217,28.212766 C10.9126426,28.212766 11.1787277,28.1065532 11.3917064,27.8935745 C11.976983,29.0635745 12.6684723,29.6488511 13.6254936,29.6488511 C13.9446851,29.6488511 14.2638766,29.5957447 14.4763021,29.4895319 C14.6361745,29.4364255 14.7954936,29.382766 14.9022596,29.382766 C15.0615787,29.382766 15.2214511,29.6488511 15.4344298,29.8087234 C15.9660468,30.287234 16.6575362,30.9787234 17.8806426,30.9787234 L18.6739191,30.9787234 C19.048983,30.9250638 19.4771532,30.6036596 19.7980043,30.1760426 C20.7616638,32.3711064 23.2775787,33.2805532 23.3854511,33.2805532 L23.6526426,33.3873191 L23.9203872,33.2805532 C23.9740468,33.2268936 25.312217,32.7450638 26.2227702,31.6209787 C27.2931957,32.5315319 29.2199617,32.6382979 31.0941745,32.6382979 L32.0379191,32.6382979 C32.2890681,32.6382979 32.540217,32.537617 32.7421319,32.3362553 C32.7924723,32.3871489 32.8422596,32.4374894 32.8926,32.4878298 C32.9429404,32.537617 32.9932809,32.537617 33.0436213,32.5879574 C33.244983,32.9403404 33.4457915,33.1914894 33.747834,33.2921702 C34.0493234,33.3922979 34.4520468,33.4935319 35.0052383,33.644 C35.5584298,33.7950213 36.3124298,33.9958298 37.1173234,34.2475319 C36.6648128,34.2978723 36.3627702,34.3985532 36.3124298,34.3985532 L35.9606,34.4483404 L35.8095787,34.750383 C35.8095787,34.8007234 35.7592383,34.8510638 35.7592383,34.8510638 L35.6585574,34.750383 C35.2563872,34.4483404 34.5521745,34.2978723 33.5464723,34.2978723 C32.0882596,34.2978723 30.3274511,34.5999149 30.2776638,34.6502553 L29.9761745,34.7005957 L29.7742596,34.9517447 C29.6741319,35.1022128 29.6237915,35.2537872 29.5231106,35.4042553 C28.7691106,34.8007234 27.6627277,34.0467234 27.5117064,33.8951489 L27.3103447,33.7446809 L26.5447277,33.7446809 C25.2701745,33.8005532 24.4387277,34.2989787 23.9403021,34.9085957 C23.5519617,34.4649362 23.0535362,34.2431064 22.4992383,34.2431064 C22.2220894,34.2431064 21.9454936,34.2989787 21.7236638,34.3542979 C21.6130255,34.3542979 21.501834,34.409617 21.4465149,34.409617 C21.3358766,34.3542979 21.1699191,34.2431064 21.0587277,34.0771489 C20.6156213,33.6340426 19.8948128,33.0244255 18.5096213,33.1350638 C18.398983,33.1350638 18.2883447,33.190383 18.2324723,33.2462553 C18.1777064,33.1350638 18.1777064,33.0244255 18.121834,32.913234 C17.5680894,31.7504255 16.8472809,31.1961277 15.9610681,31.1961277 C15.6286,31.1961277 15.3514511,31.2508936 15.1301745,31.306766 C15.018983,31.3620851 14.8530255,31.3620851 14.7971532,31.3620851 C14.6865149,31.306766 14.5200043,31.1402553 14.2987277,30.9742979 C13.7997489,30.4753191 13.0241745,29.6997447 11.5283447,29.8657021 C11.3065149,29.8657021 11.1405574,29.9763404 10.9181745,30.1428511 C10.364983,29.146 9.64417447,28.6470213 8.75740851,28.6470213 C8.42549362,28.6470213 8.09247234,28.8129787 7.87119574,28.8688511 C7.7052383,28.9241702 7.53872766,29.0901277 7.42808936,29.0901277 C7.26157872,28.536383 7.09506809,28.7023404 6.87379149,28.536383 C6.26417447,27.9820851 5.4886,27.04 3.88157872,27.2618298 C3.21664255,27.3171489 2.55170638,28.1485957 2.05328085,29.200766 C1.77613191,29.0901277 1.44366383,29.146 1.22183404,29.3119574 C0.944685106,29.4779149 0.169110638,29.9763404 0.279748936,35.4623404 C0.335621277,37.0693617 0.501578723,40.8924681 1.33247234,42.1670213 C2.55170638,43.9953191 17.2350681,51.6974043 33.138217,51.6974043 C37.3491106,51.6974043 41.6711957,51.1431064 45.8267702,49.8137872 C50.5919617,48.2620851 51.0909404,45.8241702 50.924983,39.286 C51.1462596,39.0088511 51.3680894,38.676383 51.4787277,38.1774043 C52.0883447,36.2384681 51.5340468,32.913234 50.8143447,32.1382128" id="Fill-1" fill="#13C180" mask="url(#mask-2)"></path>
            </g>
        </g>
    </g>
</svg>