<?xml version="1.0" encoding="UTF-8"?>
<svg width="35px" height="35px" viewBox="0 0 35 35" version="1.1" xmlns="http://www.w3.org/2000/svg" xmlns:xlink="http://www.w3.org/1999/xlink">
    <!-- Generator: Sketch 42 (36781) - http://www.bohemiancoding.com/sketch -->
    <title>protez-side-menu-icon</title>
    <desc>Created with Sketch.</desc>
    <defs>
        <polygon id="path-1" points="4.95952681e-05 7.44680851e-05 34.825 7.44680851e-05 34.825 34.7963298 4.95952681e-05 34.7963298"></polygon>
    </defs>
    <g id="Welcome" stroke="none" stroke-width="1" fill="none" fill-rule="evenodd">
        <g id="services/implantation" transform="translate(-168.000000, -618.000000)">
            <g id="protez-side-menu-icon" transform="translate(168.000000, 618.000000)">
                <mask id="mask-2" fill="white">
                    <use xlink:href="#path-1"></use>
                </mask>
                <g id="Clip-2"></g>
                <path d="M33.4669628,25.5053191 C33.2807926,25.9521277 33.0573883,26.0265957 32.8712181,26.0638298 L32.759516,26.0638298 C32.7222819,26.0638298 32.6478138,26.0638298 32.5733457,26.0265957 C32.6850479,25.0585106 32.4616436,23.9414894 32.1265372,23.2340426 C32.1637713,23.0851064 32.2010053,22.9734043 32.2382394,22.8617021 C32.5733457,22.6382979 33.0573883,22.4148936 33.3552606,22.3776596 C33.5786649,22.787234 33.8765372,24.5 33.4669628,25.5053191 M30.2276011,32.5142553 C27.547867,33.3587234 24.7944096,33.7254787 22.1150479,33.7254787 C11.8727074,33.7254787 2.62190957,28.7331383 1.99786702,27.8886702 C1.70409043,27.4117021 1.5205266,25.5395745 1.48403723,23.8510106 C1.96137766,24.658617 2.87919681,25.1720745 4.09042021,25.3191489 L4.23823936,25.3191489 C4.23823936,25.3191489 5.61589894,24.9468085 6.17440957,24.5 C6.50951596,25.6170213 8.89249468,26.4361702 8.89249468,26.4361702 L9.01685638,26.4361702 C9.70121809,26.4361702 10.3449947,26.1948936 10.9087181,25.7923936 C11.1905798,26.9998936 12.1568032,27.7643085 13.6461649,27.9255319 L13.7816968,27.9255319 C14.4422287,27.9255319 15.0666436,27.668617 15.5804734,27.1912766 C15.6538245,27.4117021 15.7640372,27.668617 15.9111117,27.8886702 C16.3147287,28.5495745 16.9383989,28.9900532 17.6361649,29.1371277 C17.7463777,29.1739894 17.8930798,29.1739894 18.0032926,29.1739894 C18.4437713,29.1739894 19.2882394,28.9900532 19.8385585,27.6317553 C19.8754202,27.5948936 19.8754202,27.5215426 19.8754202,27.4850532 C19.8754202,27.5215426 19.9122819,27.5584043 19.9122819,27.5948936 C20.4626011,28.5860638 21.3070691,29.1371277 22.2982394,29.1371277 C22.4084521,29.1371277 22.5186649,29.1371277 22.665367,29.100266 C23.5098351,28.9900532 24.170367,28.5495745 24.537867,27.8521809 C25.0148351,28.6597872 25.7122287,29.100266 26.5198351,29.100266 C26.6300479,29.100266 26.7402606,29.100266 26.8501011,29.0637766 C27.547867,28.9535638 28.0985585,28.5860638 28.4288245,27.998883 C28.9061649,28.5127128 29.4199947,28.6597872 29.7871223,28.6597872 C29.9703138,28.6597872 30.1907394,28.6229255 30.3743032,28.5495745 C31.1454202,28.3295213 31.6957394,27.8153191 31.989516,27.0810638 C32.1365904,27.1179255 32.2832926,27.1547872 32.430367,27.1547872 C32.5405798,27.1547872 32.6504202,27.1547872 32.760633,27.1179255 C32.9073351,30.9359043 32.5037181,31.7803723 30.2276011,32.5142553 M2.74887766,19.5851064 C3.19568617,19.5478723 3.41909043,19.7340426 3.75419681,20.0691489 C3.97760106,20.2553191 4.20100532,20.5159574 4.5361117,20.6276596 C4.83398404,20.7393617 5.20632447,20.6648936 5.46696277,20.5904255 C5.57866489,20.5531915 5.69036702,20.5159574 5.80206915,20.5159574 C5.87653723,20.5159574 6.06270745,20.5159574 6.36057979,21.1117021 C6.62121809,21.6329787 6.50951596,22.4148936 6.09994149,23.0478723 C5.65313298,23.7553191 4.94568617,24.2021277 4.23823936,24.2021277 L4.05206915,24.2021277 C2.89781383,24.0904255 2.22760106,23.5691489 2.00419681,22.712766 C1.70632447,21.4840426 2.41377128,19.8829787 2.74887766,19.5851064 M7.58930319,21.7074468 C7.70100532,21.4840426 7.81270745,21.3351064 7.88717553,21.2606383 C8.25951596,21.2234043 8.44568617,21.4095745 8.78079255,21.7074468 C8.96696277,21.893617 9.19036702,22.1170213 9.48823936,22.2287234 C9.74887766,22.3404255 10.1212181,22.2659574 10.3446223,22.2287234 C10.4563245,22.1914894 10.5680266,22.1914894 10.6424947,22.1914894 C10.7914309,22.1914894 10.940367,22.3776596 11.0893032,22.712766 C11.3127074,23.1595745 11.2010053,23.8670213 10.8658989,24.462766 C10.4190904,25.1702128 9.74887766,25.5425532 9.04143085,25.4680851 C8.0361117,25.356383 7.44036702,24.9095745 7.21696277,24.1648936 C7.14249468,23.9414894 7.14249468,23.6808511 7.14249468,23.4202128 C7.44036702,22.8617021 7.58930319,22.2659574 7.58930319,21.7074468 M12.6158989,23.4574468 C12.9137713,23.4574468 13.0999415,23.5691489 13.3605798,23.7925532 C13.54675,23.9414894 13.7329202,24.1276596 14.0307926,24.2393617 C14.2914309,24.3138298 14.5893032,24.2765957 14.8127074,24.2393617 C14.9244096,24.2021277 14.9988777,24.2021277 15.0733457,24.2021277 C15.1850479,24.2021277 15.29675,24.3510638 15.4456862,24.6117021 C15.6318564,24.9468085 15.5573883,25.4680851 15.259516,25.9148936 C14.9988777,26.3617021 14.4776011,26.8085106 13.8073883,26.8085106 L13.6584521,26.8085106 C12.7648351,26.6968085 12.2435585,26.3617021 12.0946223,25.7659574 C11.833984,24.8351064 12.3552606,23.7180851 12.6158989,23.4574468 M16.5999415,24.5744681 C16.7488777,24.1648936 17.009516,23.8297872 17.6797287,23.7180851 C18.0893032,24.0159574 18.8712181,24.5744681 19.1690904,24.8351064 C19.2807926,25.2074468 19.2063245,26.6595745 18.6478138,27.5159574 C18.3871755,27.9255319 18.1637713,27.9255319 18.0893032,27.9255319 L17.940367,27.9255319 C17.4935585,27.8510638 17.1584521,27.5904255 16.8978138,27.143617 C16.6371755,26.7340426 16.5254734,26.212766 16.4510053,25.8031915 C16.5999415,25.393617 16.6371755,24.9840426 16.5999415,24.5744681 M20.6584521,24.3138298 C21.0680266,24.2393617 21.9244096,24.1276596 22.6318564,24.1276596 C23.3393032,24.1276596 23.5254734,24.2393617 23.5254734,24.2393617 C23.7488777,24.4255319 24.1956862,25.8404255 23.8605798,26.9202128 C23.6744096,27.5159574 23.2648351,27.8510638 22.6690904,27.9255319 L22.4456862,27.9255319 C21.8499415,27.9255319 21.3658989,27.5904255 21.0307926,26.9574468 C20.509516,26.0638298 20.4722819,24.8723404 20.6584521,24.3138298 M25.2010053,24.1276596 C25.5733457,24.0531915 26.2807926,23.9414894 26.8393032,23.9414894 C27.3978138,23.9414894 27.54675,24.0531915 27.54675,24.0531915 C27.7701543,24.3138298 28.2169628,25.9521277 27.8073883,27.0691489 C27.583984,27.7393617 27.1371755,27.8882979 26.8393032,27.9255319 L26.653133,27.9255319 C26.5041968,27.9255319 26.0201543,27.9255319 25.6105798,27.1808511 C25.0893032,26.212766 25.0520691,24.7606383 25.2010053,24.1276596 M24.940367,21.4840426 C23.9350479,21.4840426 23.1158989,21.2606383 22.8552606,21.037234 C22.7435585,20.9255319 22.6318564,20.6276596 22.5946223,20.2180851 C22.6318564,19.6968085 22.6318564,19.0638298 22.5573883,18.4308511 C22.5946223,17.7978723 22.7435585,17.0904255 22.9669628,16.4574468 C23.3765372,15.4148936 23.9350479,14.893617 24.6424947,14.893617 L24.7169628,14.893617 C26.8393032,15.0425532 26.9510053,15.8989362 27.1744096,19.1382979 C27.2116436,19.6223404 27.2488777,20.106383 27.2861117,20.6648936 C27.2861117,20.7765957 27.2488777,20.8510638 27.1744096,20.9255319 C26.8765372,21.2606383 25.9829202,21.4840426 24.940367,21.4840426 M28.1424947,18.8031915 C28.0680266,17.8351064 28.0307926,16.9787234 27.8818564,16.2340426 C27.9935585,15.5638298 28.1797287,14.9680851 28.5148351,14.5585106 C28.7382394,14.2978723 28.9616436,14.1489362 29.2222819,14.1489362 L29.3712181,14.1489362 C29.8552606,14.1489362 30.2648351,14.2978723 30.5627074,14.6329787 C31.6052606,15.75 31.4190904,18.393617 31.3446223,19.3617021 C31.3446223,19.4734043 31.3446223,19.5851064 31.3073883,19.6968085 C31.04675,19.9946809 29.7807926,20.6276596 28.8127074,20.6276596 C28.5520691,20.6276596 28.403133,20.5904255 28.2541968,20.5159574 L28.2541968,20.2925532 C28.2169628,19.7712766 28.1797287,19.25 28.1424947,18.8031915 M31.4190904,22.0425532 L31.3073883,22.1170213 L31.2701543,22.2287234 C31.2329202,22.2659574 31.2329202,22.3404255 31.1956862,22.3776596 C31.1212181,22.3776596 31.009516,22.3404255 30.9350479,22.3404255 C30.0041968,22.3404255 28.6265372,22.9734043 28.2541968,23.1595745 C27.6584521,22.787234 27.0254734,22.5265957 26.4297287,22.3031915 C26.9882394,22.1914894 27.509516,21.9680851 27.8818564,21.6329787 C28.1797287,21.7819149 28.5148351,21.856383 28.9244096,21.856383 C29.5946223,21.856383 30.4137713,21.6329787 31.1956862,21.2606383 C31.3818564,21.1861702 31.5307926,21.0744681 31.6797287,21 C31.8658989,21.1861702 32.0148351,21.3723404 32.1637713,21.5957447 C31.7914309,21.7819149 31.5307926,21.9680851 31.4190904,22.0425532 M28.8376543,24.2051064 C28.8558989,24.1611702 28.8663245,24.1358511 28.8841968,24.0915426 C29.4799415,23.8309043 30.4498883,23.4574468 30.9350479,23.4574468 L31.04675,23.4574468 C31.2701543,23.7553191 31.6797287,25.1702128 31.3818564,26.3244681 C31.1956862,26.9574468 30.8605798,27.3670213 30.3020691,27.5159574 C30.190367,27.5531915 30.1158989,27.5531915 30.0414309,27.5531915 C29.7807926,27.5531915 29.5201543,27.3670213 29.29675,26.9946809 C29.2222819,26.8457447 29.1478138,26.7340426 29.1105798,26.5478723 C29.1865372,25.7518085 29.0688777,24.8399468 28.8376543,24.2051064 M21.8871755,15.8617021 C21.8499415,15.9361702 21.8499415,16.0106383 21.8127074,16.0851064 C21.5893032,15.6010638 21.0680266,15.1542553 20.3233457,14.9680851 C20.1744096,14.9308511 20.0254734,14.893617 19.8765372,14.893617 C19.2063245,14.893617 18.6105798,15.2659574 18.1637713,15.9361702 C17.8286649,15.0425532 17.1956862,14.2978723 16.0041968,14.1489362 L15.8180266,14.1489362 C15.4084521,14.1489362 14.8127074,14.3351064 14.1797287,15.1542553 C14.1052606,15.2659574 13.9935585,15.4148936 13.9190904,15.5265957 C13.4722819,14.5212766 12.5041968,13.8882979 11.1265372,13.7393617 C10.3818564,13.6648936 9.67440957,13.8510638 9.04143085,14.2978723 C8.8180266,12.6968085 7.62653723,11.6542553 5.65313298,11.4680851 C5.54143085,11.4680851 5.42972872,11.4308511 5.28079255,11.4308511 C4.12653723,11.4308511 2.97228191,12.0638298 2.26483511,13.106383 C2.04143085,12.9574468 1.89249468,12.8457447 1.8180266,12.7340426 C1.37121809,12.0265957 1.18504787,8.19148936 1.37121809,6.40425532 C2.04143085,7.03723404 3.12121809,7.78191489 4.46164362,8.45212766 C6.13717553,9.30851064 8.92972872,10.5 12.690367,11.2074468 C16.4137713,11.9148936 20.54675,12.3244681 23.9722819,12.3244681 C26.2807926,12.3244681 29.4084521,12.1382979 31.1956862,11.2446809 C31.7914309,10.9468085 32.3127074,10.6117021 32.7222819,10.2393617 L32.7222819,10.2765957 L32.7222819,10.3510638 C32.833984,10.2393617 32.9084521,10.1648936 32.9829202,10.0531915 C33.0201543,10.9095745 33.0201543,11.6914894 33.0201543,12.3244681 C32.4988777,12.25 32.0520691,12.4361702 31.7169628,12.8829787 C31.5680266,13.106383 31.4563245,13.4042553 31.3446223,13.7021277 C30.7861117,13.2180851 30.1158989,12.9946809 29.259516,13.0319149 C28.6637713,13.0691489 28.1424947,13.3670213 27.7329202,13.8510638 C27.583984,14.037234 27.4350479,14.2978723 27.3233457,14.5585106 C26.8393032,13.9255319 26.0573883,13.5531915 24.7914309,13.4787234 C23.4882394,13.4042553 22.4829202,14.2606383 21.8871755,15.8617021 M21.3286649,20.8510638 L21.0680266,20.8510638 C20.3605798,20.8510638 18.833984,20.8510638 18.3499415,20.4042553 C18.2754734,20.3297872 18.2382394,20.106383 18.2382394,19.8085106 C18.2754734,19.4361702 18.3127074,18.9893617 18.3499415,18.4680851 C18.4612713,17.799734 18.7390372,17.0479787 19.05925,16.5870213 C19.2171223,16.3595213 19.4840904,16.2340426 19.7611117,16.2340426 C19.8378138,16.2340426 19.8754202,16.2336702 19.9510053,16.2712766 C20.54675,16.4202128 20.9563245,16.8670213 21.2541968,17.6489362 C21.7010053,18.9148936 21.5148351,20.4042553 21.3286649,20.8510638 M17.1956862,18.2074468 C17.1212181,18.6542553 17.083984,19.1010638 17.083984,19.5478723 C17.009516,20.4042553 16.2276011,20.8882979 15.8552606,21.0744681 C15.4456862,20.8882979 14.440367,20.3297872 14.1424947,19.3989362 C13.8818564,18.5425532 14.2914309,16.7925532 14.9988777,15.8244681 C15.259516,15.4893617 15.5201543,15.2659574 15.7063245,15.2659574 L15.7435585,15.2659574 C16.9722819,15.4148936 17.2329202,16.643617 17.1956862,18.2074468 M12.2063245,19.7340426 L12.1318564,19.7340426 C11.7222819,19.7340426 11.4988777,19.5478723 11.2010053,19.25 C10.9776011,19.0638298 10.7541968,18.8031915 10.4190904,18.6914894 C10.3073883,18.6542553 10.1584521,18.6170213 10.04675,18.6170213 C9.86057979,18.6170213 9.67440957,18.6542553 9.48823936,18.6914894 C9.37653723,18.7287234 9.26483511,18.7659574 9.15313298,18.7659574 C9.07866489,18.7659574 8.89249468,18.7659574 8.59462234,18.1702128 C8.48292021,17.9468085 8.44568617,17.7234043 8.44568617,17.462766 C8.63185638,17.0904255 8.78079255,16.643617 8.85526064,16.1968085 C9.33930319,15.4148936 10.1212181,15.0053191 10.903133,15.0797872 C12.0573883,15.1914894 12.7276011,15.712766 12.9510053,16.5691489 C13.2488777,17.8351064 12.5414309,19.4361702 12.2063245,19.7340426 M6.95632447,17.5 L6.8073883,17.5 C6.2861117,17.5 6.0254734,17.2765957 5.69036702,16.9787234 C5.42972872,16.7553191 5.20632447,16.5319149 4.83398404,16.4202128 C4.72228191,16.3829787 4.57334574,16.3457447 4.42440957,16.3457447 C4.20100532,16.3457447 4.01483511,16.3829787 3.82866489,16.4202128 C3.67972872,16.4574468 3.53079255,16.4946809 3.41909043,16.4946809 C3.3073883,16.4946809 3.08398404,16.4946809 2.74887766,15.8244681 C2.48823936,15.3031915 2.56270745,14.5212766 2.97228191,13.8510638 C3.38185638,13.143617 4.2754734,12.3989362 5.39249468,12.5106383 C6.73292021,12.6595745 7.55206915,13.2180851 7.73823936,14.2234043 C8.11057979,15.6010638 7.29143085,17.2393617 6.95632447,17.5 M31.6424947,5.36170213 C32.2754734,6.06914894 33.0201543,7.14893617 32.833984,8.15425532 C32.6850479,8.97340426 31.940367,9.71808511 30.6371755,10.3510638 C29.3712181,10.9840426 27.0254734,11.3191489 23.8978138,11.3191489 C20.54675,11.3191489 16.4882394,10.9095745 12.8393032,10.2393617 C6.91909043,9.15957447 3.04675,6.7393617 1.96696277,5.58510638 C3.53079255,5.13829787 22.259516,1.26595745 22.9669628,1.11702128 L23.0041968,1.11702128 C23.9722819,1.30319149 29.5201543,2.9787234 31.6424947,5.36170213 M33.5786649,14.7074468 C33.8765372,16.0478723 33.3180266,17.8351064 33.0201543,18.0585106 L32.9829202,18.0957447 C32.9456862,17.9840426 32.9084521,17.9095745 32.9084521,17.7978723 C32.833984,17.5744681 32.759516,17.2765957 32.6478138,16.9414894 C32.6105798,16.8670213 32.6105798,16.8297872 32.5733457,16.7553191 C32.5361117,16.4574468 32.4988777,16.1595745 32.3871755,15.8989362 C32.3127074,15.0797872 32.3871755,14.2606383 32.6478138,13.8882979 C32.7222819,13.7765957 32.759516,13.7765957 32.79675,13.7765957 L32.8712181,13.7765957 C33.2063245,13.8510638 33.4669628,14.1489362 33.5786649,14.7074468 M34.2019628,21.6314894 C34.0522819,21.4818085 33.8288777,21.295266 33.4185585,21.295266 C33.1575479,20.9225532 32.8965372,20.5494681 32.5234521,20.2139894 C32.5606862,20.1395213 32.5606862,20.0274468 32.5606862,19.9529787 C32.5606862,19.8785106 32.5606862,19.7664362 32.5979202,19.6175 C32.5979202,19.5054255 32.6355266,19.356117 32.6355266,19.1695745 C32.7099947,19.1695745 32.7468564,19.2071809 32.8216968,19.2071809 C33.0827074,19.2071809 33.3437181,19.0951064 33.6423351,18.8713298 C34.5374415,18.2744681 34.9846223,15.9253723 34.7236117,14.4334043 C34.6119096,13.9110106 34.425367,13.4634574 34.1643564,13.1279787 C34.2019628,11.9714894 34.12675,10.5915957 34.0898883,8.98829787 L34.0154202,7.72010638 C34.0154202,6.97393617 33.5302606,5.66888298 32.5234521,4.58723404 C29.9126011,1.71537234 23.6844628,0.0744680851 23.0876011,0 L23.065633,0 C21.7095691,0.150425532 1.47659043,4.29531915 0.798558511,4.86053191 C0.760952128,4.86053191 0.723345745,4.89776596 0.647760638,4.93574468 C0.459728723,5.04893617 -0.0678776596,5.3881383 0.00733510638,9.11787234 C0.0449414894,10.2106915 0.158132979,12.81 0.723345745,13.6768085 C0.836164894,13.8652128 1.13776064,14.0915957 1.58978191,14.4304255 C1.32616489,15.2216489 1.36339894,16.0128723 1.70260106,16.6909043 C2.15462234,17.5573404 2.68222872,17.9721277 3.39823936,17.9721277 C3.62462234,17.9721277 3.85026064,17.9345213 4.03866489,17.8589362 C4.18946277,17.8213298 4.37786702,17.7837234 4.41584574,17.8213298 C4.52829255,17.8589362 4.67946277,18.009734 4.86749468,18.1601596 C5.24430319,18.499734 5.8098883,18.9893617 6.75153723,18.9893617 L7.20206915,18.9893617 C7.34504787,18.9893617 7.52414362,18.9178723 7.66749468,18.7745213 C8.06143085,19.5620213 8.52685638,19.9559574 9.17100532,19.9559574 C9.38584574,19.9559574 9.60068617,19.9202128 9.74366489,19.8487234 C9.85127128,19.8129787 9.95850532,19.7768617 10.030367,19.7768617 C10.1376011,19.7768617 10.2452074,19.9559574 10.3885585,20.0635638 C10.7463777,20.3856383 11.2118032,20.8510638 12.0350479,20.8510638 L12.568984,20.8510638 C12.8214309,20.8149468 13.1096223,20.598617 13.3255798,20.3107979 C13.9741968,21.7882447 15.6676011,22.4003723 15.7402074,22.4003723 L15.9200479,22.472234 L16.1002606,22.4003723 C16.1363777,22.3642553 17.0370691,22.0399468 17.6499415,21.2833511 C18.3704202,21.8962234 19.6672819,21.9680851 20.9287713,21.9680851 L21.563984,21.9680851 C21.7330266,21.9680851 21.9020691,21.9003191 22.0379734,21.7647872 C22.0718564,21.7990426 22.105367,21.8329255 22.13925,21.8668085 C22.173133,21.9003191 22.207016,21.9003191 22.2408989,21.9342021 C22.3764309,22.171383 22.5115904,22.3404255 22.7148883,22.4081915 C22.9178138,22.4755851 23.1888777,22.5437234 23.5612181,22.645 C23.9335585,22.7466489 24.4410585,22.8818085 24.9828138,23.0512234 C24.6782394,23.0851064 24.4749415,23.1528723 24.4410585,23.1528723 L24.20425,23.186383 L24.1026011,23.3896809 C24.1026011,23.4235638 24.0687181,23.4574468 24.0687181,23.4574468 L24.0009521,23.3896809 C23.7302606,23.186383 23.2562713,23.0851064 22.5793564,23.0851064 C21.597867,23.0851064 20.4127074,23.2884043 20.3791968,23.3222872 L20.1762713,23.3561702 L20.040367,23.5252128 C19.9729734,23.6264894 19.9390904,23.7285106 19.8713245,23.8297872 C19.3638245,23.4235638 18.6191436,22.9160638 18.5174947,22.8140426 L18.3819628,22.712766 L17.8666436,22.712766 C17.0087713,22.7503723 16.4491436,23.0858511 16.1136649,23.4961702 C15.8522819,23.1975532 15.5168032,23.0482447 15.1437181,23.0482447 C14.9571755,23.0482447 14.7710053,23.0858511 14.6216968,23.1230851 C14.5472287,23.1230851 14.4723883,23.1603191 14.4351543,23.1603191 C14.3606862,23.1230851 14.248984,23.0482447 14.1741436,22.9365426 C13.8758989,22.6382979 13.3907394,22.2279787 12.4583989,22.3024468 C12.3839309,22.3024468 12.3094628,22.3396809 12.2718564,22.3772872 C12.2349947,22.3024468 12.2349947,22.2279787 12.1973883,22.1531383 C11.8246755,21.3704787 11.339516,20.9973936 10.7430266,20.9973936 C10.51925,20.9973936 10.3327074,21.0342553 10.1837713,21.0718617 C10.1089309,21.1090957 9.99722872,21.1090957 9.95962234,21.1090957 C9.88515426,21.0718617 9.77307979,20.9597872 9.62414362,20.8480851 C9.28829255,20.512234 8.76627128,19.9902128 7.75946277,20.1019149 C7.61015426,20.1019149 7.49845213,20.176383 7.34877128,20.2884574 C6.97643085,19.6175 6.49127128,19.2816489 5.89440957,19.2816489 C5.67100532,19.2816489 5.44685638,19.3933511 5.29792021,19.4309574 C5.18621809,19.4681915 5.07414362,19.5798936 4.99967553,19.5798936 C4.88760106,19.2071809 4.7755266,19.318883 4.62659043,19.2071809 C4.21627128,18.8340957 3.69425,18.2 2.61260106,18.3493085 C2.16504787,18.3865426 1.71749468,18.9461702 1.38201596,19.6543617 C1.1954734,19.5798936 0.971696809,19.6175 0.822388298,19.7292021 C0.635845745,19.8409043 0.113824468,20.176383 0.188292553,23.868883 C0.225898936,24.9505319 0.337601064,27.5237766 0.896856383,28.3816489 C1.71749468,29.612234 11.6005266,34.7963298 22.3045691,34.7963298 C25.1388245,34.7963298 28.0479202,34.4232447 30.8449415,33.5285106 C34.0522819,32.4840957 34.388133,30.8431915 34.2764309,26.4425 C34.425367,26.2559574 34.5746755,26.0321809 34.6491436,25.6963298 C35.0594628,24.3912766 34.6863777,22.1531383 34.2019628,21.6314894" id="Fill-1" fill="#13C180" mask="url(#mask-2)"></path>
            </g>
        </g>
    </g>
</svg>