<?xml version="1.0" encoding="UTF-8"?>
<svg width="28px" height="61px" viewBox="0 0 28 61" version="1.1" xmlns="http://www.w3.org/2000/svg" xmlns:xlink="http://www.w3.org/1999/xlink">
    <!-- Generator: Sketch 42 (36781) - http://www.bohemiancoding.com/sketch -->
    <title>refractor-small-icon</title>
    <desc>Created with Sketch.</desc>
    <defs></defs>
    <g id="Welcome" stroke="none" stroke-width="1" fill="none" fill-rule="evenodd">
        <g id="home" transform="translate(-1049.000000, -1019.000000)" fill="#13C180">
            <path d="M1072.09401,1075.7969 L1073.93731,1075.7969 L1074.13559,1077.89478 L1072.09401,1077.89478 L1072.09401,1075.7969 Z M1067.88602,1077.89478 L1069.98879,1077.89478 L1069.98879,1075.7969 L1067.88602,1075.7969 L1067.88602,1077.89478 Z M1063.68047,1077.89478 L1065.78325,1077.89478 L1065.78325,1075.7969 L1063.68047,1075.7969 L1063.68047,1077.89478 Z M1059.47248,1077.89478 L1061.57525,1077.89478 L1061.57525,1075.7969 L1059.47248,1075.7969 L1059.47248,1077.89478 Z M1055.26693,1077.89478 L1057.36971,1077.89478 L1057.36971,1075.7969 L1055.26693,1075.7969 L1055.26693,1077.89478 Z M1051.40899,1075.7969 L1053.16416,1075.7969 L1053.16416,1077.89478 L1051.21071,1077.89478 L1051.40899,1075.7969 Z M1052.62806,1062.97464 C1052.79697,1063.08969 1052.99036,1063.16802 1053.20822,1063.16802 L1072.14052,1063.16802 C1072.35839,1063.16802 1072.55178,1063.08969 1072.71824,1062.97464 L1073.73658,1073.69413 L1051.60973,1073.69413 L1052.62806,1062.97464 Z M1062.31698,1048.77908 L1064.54704,1051.0116 C1065.77835,1052.24046 1065.77835,1054.24531 1064.54704,1055.47662 C1063.31818,1056.70793 1061.31577,1056.70793 1060.08446,1055.47662 C1058.8556,1054.24531 1058.8556,1052.24046 1060.08446,1051.0116 L1062.31698,1048.77908 Z M1062.31698,1046.24058 C1062.0477,1046.24058 1061.77843,1046.34339 1061.57281,1046.54902 L1058.59857,1049.5257 C1056.5472,1051.57462 1056.5472,1054.9087 1058.59857,1056.96007 C1059.6218,1057.9882 1060.97061,1058.49737 1062.31698,1058.49737 C1063.66334,1058.49737 1065.00725,1057.98575 1066.03294,1056.96007 C1068.0843,1054.9087 1068.0843,1051.57462 1066.03294,1049.5257 L1063.06115,1046.54902 C1062.85552,1046.34339 1062.58625,1046.24058 1062.31698,1046.24058 L1062.31698,1046.24058 Z M1054.41505,1044.24062 L1070.93614,1044.24062 L1072.54688,1061.15093 C1072.41959,1061.09952 1072.28251,1061.0677 1072.14052,1061.0677 L1053.20822,1061.0677 C1053.06624,1061.0677 1052.92916,1061.09952 1052.80676,1061.15093 L1054.41505,1044.24062 Z M1055.21308,1035.83932 C1057.47986,1037.18813 1060.02327,1037.92985 1062.67437,1037.92985 C1065.32304,1037.92985 1067.86644,1037.18813 1070.13567,1035.83932 L1070.73052,1042.13785 L1054.61823,1042.13785 L1055.21308,1035.83932 Z M1057.94008,1031.62153 L1060.47858,1031.62153 L1064.93871,1031.62153 L1067.40133,1031.62153 L1069.18832,1034.00337 C1065.24715,1036.39745 1060.0967,1036.39745 1056.15309,1034.00337 L1057.94008,1031.62153 Z M1061.53119,1029.51631 L1063.8861,1029.51631 L1063.8861,1027.3964 L1061.53119,1027.3964 L1061.53119,1029.51631 Z M1061.31088,1021.10277 L1064.05011,1021.10277 C1064.56418,1021.10277 1065.00481,1021.46996 1065.09048,1021.97913 L1065.65351,1025.29363 L1064.93871,1025.29363 L1060.48348,1025.29363 L1059.73686,1025.29363 L1060.27051,1021.98648 C1060.35374,1021.47241 1060.78947,1021.10277 1061.31088,1021.10277 L1061.31088,1021.10277 Z M1061.31088,1019 C1059.75154,1019 1058.4419,1020.11381 1058.19221,1021.64866 L1057.46028,1026.17489 C1057.41132,1026.48088 1057.49945,1026.79177 1057.69773,1027.02677 C1057.89846,1027.25932 1058.18976,1027.3964 1058.50065,1027.3964 L1059.43331,1027.3964 L1059.43331,1029.51631 L1057.41377,1029.51631 C1057.08575,1029.51631 1056.76996,1029.67053 1056.57413,1029.93491 L1053.41875,1034.1429 C1053.30125,1034.29467 1053.23026,1034.48072 1053.21312,1034.67166 L1049.00513,1078.84458 C1048.97575,1079.14078 1049.07367,1079.43453 1049.27195,1079.65484 C1049.47513,1079.87516 1049.75664,1080 1050.05284,1080 L1075.29591,1080 C1075.59211,1080 1075.87117,1079.87516 1076.0719,1079.65484 C1076.27019,1079.43453 1076.3681,1079.14078 1076.33873,1078.84458 L1072.13563,1034.67655 C1072.11605,1034.48317 1072.04506,1034.29467 1071.93,1034.1429 L1068.77462,1029.93491 C1068.57634,1029.67053 1068.263,1029.51631 1067.93253,1029.51631 L1065.98887,1029.51631 L1065.98887,1027.3964 L1066.89706,1027.3964 C1067.2055,1027.3964 1067.50414,1027.25687 1067.70243,1027.02187 C1067.90316,1026.78687 1067.98883,1026.47353 1067.93743,1026.16754 L1067.16388,1021.62418 C1066.9044,1020.10157 1065.59476,1019 1064.05011,1019 L1061.31088,1019 Z" id="refractor-small-icon"></path>
        </g>
    </g>
</svg>