<?xml version="1.0" encoding="UTF-8"?>
<svg width="56px" height="124px" viewBox="0 0 56 124" version="1.1" xmlns="http://www.w3.org/2000/svg" xmlns:xlink="http://www.w3.org/1999/xlink">
    <!-- Generator: Sketch 42 (36781) - http://www.bohemiancoding.com/sketch -->
    <title>refractor-icon</title>
    <desc>Created with Sketch.</desc>
    <defs></defs>
    <g id="Welcome" stroke="none" stroke-width="1" fill="none" fill-rule="evenodd">
        <g id="services" transform="translate(-778.000000, -613.000000)" fill="#13C180">
            <path d="M824.945209,728.455997 L828.69223,728.455997 L829.095296,732.720535 L824.945209,732.720535 L824.945209,728.455997 Z M816.391255,732.720535 L820.665744,732.720535 L820.665744,728.455997 L816.391255,728.455997 L816.391255,732.720535 Z M807.842276,732.720535 L812.116765,732.720535 L812.116765,728.455997 L807.842276,728.455997 L807.842276,732.720535 Z M799.288321,732.720535 L803.56281,732.720535 L803.56281,728.455997 L799.288321,728.455997 L799.288321,732.720535 Z M790.739342,732.720535 L795.013832,732.720535 L795.013832,728.455997 L790.739342,728.455997 L790.739342,732.720535 Z M782.896973,728.455997 L786.464853,728.455997 L786.464853,732.720535 L782.493907,732.720535 L782.896973,728.455997 Z M785.375082,702.391067 C785.718435,702.624945 786.111548,702.784181 786.554423,702.784181 L825.039756,702.784181 C825.482631,702.784181 825.875744,702.624945 826.214121,702.391067 L828.284188,724.181508 L783.305015,724.181508 L785.375082,702.391067 Z M805.070576,673.534532 L809.603823,678.072756 C812.106813,680.570769 812.106813,684.646214 809.603823,687.149203 C807.10581,689.652193 803.035341,689.652193 800.532352,687.149203 C798.034338,684.646214 798.034338,680.570769 800.532352,678.072756 L805.070576,673.534532 Z M805.070576,668.374293 C804.523202,668.374293 803.975829,668.58329 803.557834,669.001284 L797.511845,675.052249 C793.341855,679.217264 793.341855,685.994743 797.511845,690.164734 C799.591865,692.254705 802.333708,693.289739 805.070576,693.289739 C807.807443,693.289739 810.539334,692.249729 812.62433,690.164734 C816.794321,685.994743 816.794321,679.217264 812.62433,675.052249 L806.583317,669.001284 C806.165323,668.58329 805.617949,668.374293 805.070576,668.374293 L805.070576,668.374293 Z M789.007652,664.308801 L822.591503,664.308801 L825.865792,698.683856 C825.607034,698.579357 825.328371,698.514668 825.039756,698.514668 L786.554423,698.514668 C786.265808,698.514668 785.987145,698.579357 785.738339,698.683856 L789.007652,664.308801 Z M790.629868,647.230748 C795.237757,649.972591 800.407949,651.480356 805.797089,651.480356 C811.181254,651.480356 816.351446,649.972591 820.964311,647.230748 L822.173509,660.034311 L789.42067,660.034311 L790.629868,647.230748 Z M796.173268,638.656888 L801.333507,638.656888 L810.400003,638.656888 L815.405982,638.656888 L819.038552,643.498656 C811.026994,648.365304 800.557232,648.365304 792.540699,643.498656 L796.173268,638.656888 Z M803.47324,634.377423 L808.26027,634.377423 L808.26027,630.068101 L803.47324,630.068101 L803.47324,634.377423 Z M803.025389,617.274489 L808.59367,617.274489 C809.638656,617.274489 810.534358,618.020908 810.708523,619.055941 L811.853031,625.793611 L810.400003,625.793611 L801.34346,625.793611 L799.825742,625.793611 L800.910537,619.07087 C801.079725,618.025884 801.965475,617.274489 803.025389,617.274489 L803.025389,617.274489 Z M803.025389,613 C799.855599,613 797.193373,615.264136 796.685809,618.384165 L795.197948,627.585015 C795.098426,628.207031 795.277566,628.838998 795.680632,629.316706 C796.088674,629.789438 796.680833,630.068101 797.3128,630.068101 L799.208703,630.068101 L799.208703,634.377423 L795.103402,634.377423 C794.436602,634.377423 793.794682,634.690919 793.396592,635.22834 L786.98237,643.782295 C786.743516,644.090814 786.599208,644.469 786.564376,644.857137 L778.010421,734.65127 C777.950707,735.253381 778.149752,735.850516 778.552818,736.298367 C778.965836,736.746218 779.53809,737 780.140201,737 L831.453978,737 C832.056089,737 832.623367,736.746218 833.031409,736.298367 C833.434475,735.850516 833.63352,735.253381 833.573806,734.65127 L825.029803,644.867089 C824.989995,644.473976 824.845687,644.090814 824.611809,643.782295 L818.197587,635.22834 C817.794521,634.690919 817.157577,634.377423 816.485801,634.377423 L812.53476,634.377423 L812.53476,630.068101 L814.380901,630.068101 C815.007892,630.068101 815.614979,629.784462 816.018045,629.306754 C816.426087,628.829046 816.600252,628.192102 816.495753,627.570087 L814.923298,618.334403 C814.395829,615.239255 811.733604,613 808.59367,613 L803.025389,613 Z" id="refractor-icon"></path>
        </g>
    </g>
</svg>