<?xml version="1.0" encoding="UTF-8"?>
<svg width="20px" height="43px" viewBox="0 0 20 43" version="1.1" xmlns="http://www.w3.org/2000/svg" xmlns:xlink="http://www.w3.org/1999/xlink">
    <!-- Generator: Sketch 42 (36781) - http://www.bohemiancoding.com/sketch -->
    <title>refractor-side-menu-icon</title>
    <desc>Created with Sketch.</desc>
    <defs></defs>
    <g id="Welcome" stroke="none" stroke-width="1" fill="none" fill-rule="evenodd">
        <g id="services/implantation" transform="translate(-176.000000, -481.000000)" fill="#13C180">
            <path d="M192.969873,521.03716 L194.269243,521.03716 L194.409016,522.515992 L192.969873,522.515992 L192.969873,521.03716 Z M190.003582,522.515992 L191.485865,522.515992 L191.485865,521.03716 L190.003582,521.03716 L190.003582,522.515992 Z M187.039017,522.515992 L188.521299,522.515992 L188.521299,521.03716 L187.039017,521.03716 L187.039017,522.515992 Z M184.072726,522.515992 L185.555009,522.515992 L185.555009,521.03716 L184.072726,521.03716 L184.072726,522.515992 Z M181.108161,522.515992 L182.590443,522.515992 L182.590443,521.03716 L181.108161,521.03716 L181.108161,522.515992 Z M178.388629,521.03716 L179.625878,521.03716 L179.625878,522.515992 L178.248857,522.515992 L178.388629,521.03716 Z M179.247974,511.998515 C179.36704,512.079618 179.503361,512.134837 179.656939,512.134837 L193.002659,512.134837 C193.156237,512.134837 193.292558,512.079618 193.409898,511.998515 L194.127744,519.554878 L178.530128,519.554878 L179.247974,511.998515 Z M186.077863,501.991813 L187.649876,503.565552 C188.517848,504.431799 188.517848,505.845058 187.649876,506.71303 C186.783629,507.581002 185.372096,507.581002 184.504124,506.71303 C183.637877,505.845058 183.637877,504.431799 184.504124,503.565552 L186.077863,501.991813 Z M186.077863,500.202376 C185.888048,500.202376 185.698233,500.274851 185.553283,500.4198 L183.45669,502.518119 C182.010645,503.962438 182.010645,506.312693 183.45669,507.758738 C184.177987,508.483486 185.128788,508.842409 186.077863,508.842409 C187.026938,508.842409 187.974287,508.481761 188.69731,507.758738 C190.143355,506.312693 190.143355,503.962438 188.69731,502.518119 L186.602442,500.4198 C186.457493,500.274851 186.267678,500.202376 186.077863,500.202376 L186.077863,500.202376 Z M180.507655,498.792568 L192.153668,498.792568 L193.289107,510.71295 C193.199376,510.676713 193.102743,510.65428 193.002659,510.65428 L179.656939,510.65428 C179.556855,510.65428 179.460221,510.676713 179.373942,510.71295 L180.507655,498.792568 Z M181.070198,492.87034 C182.668095,493.82114 184.460984,494.343995 186.329799,494.343995 C188.196888,494.343995 189.989777,493.82114 191.5894,492.87034 L192.008719,497.310285 L180.650879,497.310285 L181.070198,492.87034 Z M182.992506,489.897147 L184.781944,489.897147 L187.92597,489.897147 L189.661915,489.897147 L190.921596,491.576147 C188.143395,493.263775 184.512752,493.263775 181.732825,491.576147 L182.992506,489.897147 Z M185.523948,488.413139 L187.183966,488.413139 L187.183966,486.918777 L185.523948,486.918777 L185.523948,488.413139 Z M185.368645,482.482283 L187.299581,482.482283 C187.661955,482.482283 187.972561,482.741121 188.032957,483.100044 L188.429843,485.436494 L187.92597,485.436494 L184.785395,485.436494 L184.25909,485.436494 L184.635269,483.105221 C184.693939,482.742847 185.001094,482.482283 185.368645,482.482283 L185.368645,482.482283 Z M185.368645,481 C184.269443,481 183.346252,481.785144 183.170242,482.867089 L182.65429,486.057707 C182.619778,486.273406 182.6819,486.492556 182.821673,486.658213 C182.963171,486.822144 183.168516,486.918777 183.387666,486.918777 L184.045116,486.918777 L184.045116,488.413139 L182.621504,488.413139 C182.390275,488.413139 182.167674,488.521851 182.029626,488.708215 L179.80534,491.674505 C179.722511,491.781492 179.672469,491.912637 179.66039,492.047233 L176.694099,523.185521 C176.673392,523.394318 176.742416,523.601388 176.882189,523.756692 C177.025413,523.911995 177.223856,524 177.432652,524 L195.226946,524 C195.435742,524 195.632459,523.911995 195.773958,523.756692 C195.913731,523.601388 195.982754,523.394318 195.962047,523.185521 L192.999208,492.050684 C192.985403,491.914363 192.935361,491.781492 192.854258,491.674505 L190.629971,488.708215 C190.490199,488.521851 190.269323,488.413139 190.036368,488.413139 L188.666249,488.413139 L188.666249,486.918777 L189.306443,486.918777 C189.523868,486.918777 189.73439,486.820418 189.874163,486.654761 C190.015661,486.489105 190.076057,486.268229 190.039819,486.05253 L189.494533,482.849833 C189.31162,481.776516 188.388429,481 187.299581,481 L185.368645,481 Z" id="refractor-side-menu-icon"></path>
        </g>
    </g>
</svg>