<?xml version="1.0" encoding="UTF-8"?>
<svg width="48px" height="49px" viewBox="0 0 48 49" version="1.1" xmlns="http://www.w3.org/2000/svg" xmlns:xlink="http://www.w3.org/1999/xlink">
    <!-- Generator: Sketch 42 (36781) - http://www.bohemiancoding.com/sketch -->
    <title>techology-green-icon</title>
    <desc>Created with Sketch.</desc>
    <defs>
        <polygon id="path-1" points="0 47.788388 0 0.0864930328 47.913124 0.0864930328 47.913124 47.788388"></polygon>
    </defs>
    <g id="Welcome" stroke="none" stroke-width="1" fill="none" fill-rule="evenodd">
        <g id="home" transform="translate(-156.000000, -1753.000000)">
            <g id="techology-green-icon" transform="translate(156.000000, 1753.000000)">
                <g id="Group-3" transform="translate(0.000000, 0.308452)">
                    <mask id="mask-2" fill="white">
                        <use xlink:href="#path-1"></use>
                    </mask>
                    <g id="Clip-2"></g>
                    <path d="M0,23.9374405 C0,10.7648281 10.7258182,0.0862955601 23.9567603,0.0862955601 C37.1873058,0.0862955601 47.913124,10.7648281 47.913124,23.9374405 C47.913124,37.1100529 37.1873058,47.7885855 23.9567603,47.7885855 C10.7258182,47.7885855 0,37.1100529 0,23.9374405" id="Fill-1" fill="#13C180" mask="url(#mask-2)"></path>
                </g>
                <path d="M32.2110545,28.1257175 C32.2935669,27.3599185 32.4062281,26.5356675 32.5740298,25.6347972 L26.1801124,25.6347972 C25.9829554,26.5637086 25.2462942,27.2971222 24.3132694,27.4930151 L24.3132694,27.955891 C26.0519802,28.4033641 27.8553521,32.581491 26.6676496,40.7963544 C32.7438149,36.16641 31.5989554,33.8208295 32.2110545,28.1257175" id="Fill-4" fill="#FFFFFF"></path>
                <path d="M31.689243,19.268199 C31.689243,18.4893668 31.0529455,17.8558745 30.2702678,17.8558745 C29.4883835,17.8558745 28.8512926,18.4893668 28.8512926,19.268199 C28.8512926,20.0474262 29.4883835,20.6809186 30.2702678,20.6809186 C31.0529455,20.6813135 31.689243,20.0474262 31.689243,19.268199" id="Fill-6" fill="#FFFFFF"></path>
                <path d="M25.4444033,13.7709546 C24.6621223,13.7709546 24.0254281,14.4048419 24.0254281,15.1836742 C24.0254281,15.9625064 24.6621223,16.5959988 25.4444033,16.5959988 C26.227081,16.5959988 26.8633785,15.9625064 26.8633785,15.1836742 C26.8629818,14.4048419 26.2266843,13.7709546 25.4444033,13.7709546" id="Fill-8" fill="#FFFFFF"></path>
                <path d="M25.2313388,25.1362576 C25.2313388,24.3574254 24.5950413,23.7235381 23.8123636,23.7235381 C23.0300826,23.7235381 22.3933884,24.3574254 22.3933884,25.1362576 C22.3933884,25.9146949 23.0300826,26.5485822 23.8123636,26.5485822 C24.5950413,26.5485822 25.2313388,25.9146949 25.2313388,25.1362576" id="Fill-10" fill="#FFFFFF"></path>
                <path d="M21.3922512,25.1362576 C21.3922512,23.8068716 22.4780033,22.7263011 23.8128793,22.7263011 C24.9755901,22.7263011 25.9490777,23.5473925 26.1803504,24.6378366 L32.7757884,24.6378366 C32.8543339,24.2796212 32.9380364,23.9142967 33.0348298,23.5327795 C34.1249455,19.2369589 35.5161521,14.5296052 32.1537719,11.3230438 L30.1595901,11.3230438 L27.5199868,13.9506153 C27.7377719,14.3119903 27.864714,14.733002 27.864714,15.1836347 C27.864714,16.5122309 26.7793587,17.5935912 25.4444826,17.5935912 C24.1100033,17.5935912 23.0242512,16.5122309 23.0242512,15.1836347 C23.0242512,13.8550385 24.1100033,12.7740731 25.4444826,12.7740731 C25.9641521,12.7740731 26.4449455,12.9395552 26.8396562,13.2183866 L29.7446479,10.3262018 L30.7284496,10.3262018 C29.5879537,9.83528469 28.4065983,9.96008742 27.734995,10.2803881 C25.5995901,11.2989522 24.6907636,11.6532182 23.5482843,11.4363932 L23.5482843,12.189159 L18.888714,16.8273973 C19.089838,17.1788986 19.2060694,17.5837176 19.2060694,18.0157878 C19.2060694,19.344384 18.1199207,20.4249545 16.7854413,20.4249545 C15.4505653,20.4249545 14.3652099,19.3439891 14.3652099,18.0157878 C14.3652099,16.6871917 15.4505653,15.6058313 16.7854413,15.6058313 C17.3237554,15.6058313 17.8204165,15.7839516 18.2226645,16.0809505 L22.5466314,11.7764411 L22.5466314,11.1397892 C22.1340694,10.9841807 21.6663669,10.779599 21.1014744,10.526834 C20.3382347,10.1859962 18.5420033,9.46403605 16.708086,10.7353652 C11.9168132,14.0560657 13.9117884,18.7973847 14.9638215,24.374408 C15.0233256,24.6907593 15.077276,24.9976318 15.1272595,25.2989751 L21.6854083,18.7701335 L27.9027967,18.7701335 C28.1344661,17.6796893 29.107557,16.8585979 30.2702678,16.8585979 C31.6051438,16.8585979 32.6904992,17.9399583 32.6904992,19.2681595 C32.6904992,20.5971507 31.6047471,21.6781161 30.2702678,21.6781161 C29.107557,21.6781161 28.1344661,20.8570247 27.9027967,19.7665806 L22.1003504,19.7665806 L16.4637223,25.379149 L15.3117223,26.5260703 C16.3407471,34.0691317 14.6901025,36.7136858 21.2772099,40.7551616 C20.160119,32.8104408 21.5632264,28.8949526 23.3118545,28.0786005 L23.3118545,27.4928966 C22.2169785,27.2630384 21.3922512,26.2934475 21.3922512,25.1362576" id="Fill-12" fill="#FFFFFF"></path>
                <path d="M15.3668628,18.0156693 C15.3668628,18.7945016 16.0031603,19.4283889 16.785838,19.4283889 C17.568119,19.4283889 18.2048132,18.7945016 18.2048132,18.0156693 C18.2048132,17.2368371 17.568119,16.6029498 16.785838,16.6029498 C16.0031603,16.6029498 15.3668628,17.2368371 15.3668628,18.0156693" id="Fill-14" fill="#FFFFFF"></path>
            </g>
        </g>
    </g>
</svg>