<?xml version="1.0" encoding="UTF-8"?>
<svg width="103px" height="103px" viewBox="0 0 103 103" version="1.1" xmlns="http://www.w3.org/2000/svg" xmlns:xlink="http://www.w3.org/1999/xlink">
    <!-- Generator: Sketch 42 (36781) - http://www.bohemiancoding.com/sketch -->
    <title>cad-icon</title>
    <desc>Created with Sketch.</desc>
    <defs>
        <polygon id="path-1" points="0 103 103 103 103 0 0 0"></polygon>
    </defs>
    <g id="Welcome" stroke="none" stroke-width="1" fill="none" fill-rule="evenodd">
        <g id="services" transform="translate(-179.000000, -1683.000000)">
            <g id="cad-icon" transform="translate(179.000000, 1683.000000)">
                <path d="M58.3666667,46.35 C58.3666667,47.2993167 57.5993167,48.0666667 56.65,48.0666667 L15.45,48.0666667 C14.5006833,48.0666667 13.7333333,47.2993167 13.7333333,46.35 L13.7333333,12.0166667 C13.7333333,9.17215 16.0388167,6.86666667 18.8833333,6.86666667 L53.2166667,6.86666667 C56.0611833,6.86666667 58.3666667,9.17215 58.3666667,12.0166667 L58.3666667,46.35 Z M17.1666667,44.6333333 L54.9333333,44.6333333 L54.9333333,12.0166667 C54.9333333,11.06735 54.1659833,10.3 53.2166667,10.3 L18.8833333,10.3 C17.9340167,10.3 17.1666667,11.06735 17.1666667,12.0166667 L17.1666667,44.6333333 Z" id="Fill-1" fill="#13C180"></path>
                <mask id="mask-2" fill="white">
                    <use xlink:href="#path-1"></use>
                </mask>
                <g id="Clip-4"></g>
                <path d="M30.9,17.1666667 L41.2,17.1666667 L41.2,10.3 L30.9,10.3 L30.9,17.1666667 Z M29.1833333,20.6 L42.9166667,20.6 C43.8659833,20.6 44.6333333,19.83265 44.6333333,18.8833333 L44.6333333,8.58333333 C44.6333333,7.63401667 43.8659833,6.86666667 42.9166667,6.86666667 L29.1833333,6.86666667 C28.2340167,6.86666667 27.4666667,7.63401667 27.4666667,8.58333333 L27.4666667,18.8833333 C27.4666667,19.83265 28.2340167,20.6 29.1833333,20.6 L29.1833333,20.6 Z" id="Fill-3" fill="#13C180" mask="url(#mask-2)"></path>
                <path d="M8.58333333,99.5666667 L15.45,99.5666667 L15.45,78.9666667 L8.58333333,78.9666667 L8.58333333,99.5666667 Z M6.86666667,103 L17.1666667,103 C18.1159833,103 18.8833333,102.23265 18.8833333,101.283333 L18.8833333,77.25 C18.8833333,76.3006833 18.1159833,75.5333333 17.1666667,75.5333333 L6.86666667,75.5333333 C5.91735,75.5333333 5.15,76.3006833 5.15,77.25 L5.15,101.283333 C5.15,102.23265 5.91735,103 6.86666667,103 L6.86666667,103 Z" id="Fill-5" fill="#13C180" mask="url(#mask-2)"></path>
                <path d="M87.55,99.5666667 L94.4166667,99.5666667 L94.4166667,78.9666667 L87.55,78.9666667 L87.55,99.5666667 Z M85.8333333,103 L96.1333333,103 C97.08265,103 97.85,102.23265 97.85,101.283333 L97.85,77.25 C97.85,76.3006833 97.08265,75.5333333 96.1333333,75.5333333 L85.8333333,75.5333333 C84.8840167,75.5333333 84.1166667,76.3006833 84.1166667,77.25 L84.1166667,101.283333 C84.1166667,102.23265 84.8840167,103 85.8333333,103 L85.8333333,103 Z" id="Fill-6" fill="#13C180" mask="url(#mask-2)"></path>
                <path d="M3.43333333,75.5333333 L99.5666667,75.5333333 L99.5666667,58.3666667 L3.43333333,58.3666667 L3.43333333,75.5333333 Z M1.71666667,78.9666667 L101.283333,78.9666667 C102.23265,78.9666667 103,78.1993167 103,77.25 L103,56.65 C103,55.7006833 102.23265,54.9333333 101.283333,54.9333333 L1.71666667,54.9333333 C0.76735,54.9333333 0,55.7006833 0,56.65 L0,77.25 C0,78.1993167 0.76735,78.9666667 1.71666667,78.9666667 L1.71666667,78.9666667 Z" id="Fill-7" fill="#13C180" mask="url(#mask-2)"></path>
                <path d="M68.6666667,56.65 L68.6666667,46.35 C68.6666667,45.4006833 67.8993167,44.6333333 66.95,44.6333333 L10.5575,44.6333333 C7.25806667,44.6333333 4.223,46.8444 3.57581667,50.0803167 C2.69173333,54.4938667 6.04438333,58.3666667 10.3,58.3666667 L66.95,58.3666667 C67.8993167,58.3666667 68.6666667,57.5993167 68.6666667,56.65 L68.6666667,56.65 Z M10.3,54.9333333 C8.04258333,54.9333333 6.29158333,52.75145 7.04348333,50.38245 C7.49668333,48.9524667 8.94383333,48.0666667 10.4442,48.0666667 L65.2333333,48.0666667 L65.2333333,54.9333333 L10.3,54.9333333 Z" id="Fill-8" fill="#13C180" mask="url(#mask-2)"></path>
                <path d="M1.71666667,103 L101.283333,103 C102.23265,103 103,102.23265 103,101.283333 C103,100.334017 102.23265,99.5666667 101.283333,99.5666667 L1.71666667,99.5666667 C0.76735,99.5666667 0,100.334017 0,101.283333 C0,102.23265 0.76735,103 1.71666667,103" id="Fill-9" fill="#13C180" mask="url(#mask-2)"></path>
                <path d="M68.6666667,54.9333333 L99.5666667,54.9333333 L99.5666667,3.43333333 L68.6666667,3.43333333 L68.6666667,54.9333333 Z M66.95,58.3666667 L101.283333,58.3666667 C102.23265,58.3666667 103,57.5993167 103,56.65 L103,1.71666667 C103,0.76735 102.23265,0 101.283333,0 L66.95,0 C66.0006833,0 65.2333333,0.76735 65.2333333,1.71666667 L65.2333333,56.65 C65.2333333,57.5993167 66.0006833,58.3666667 66.95,58.3666667 L66.95,58.3666667 Z" id="Fill-10" fill="#13C180" mask="url(#mask-2)"></path>
                <path d="M75.5333333,20.6 L92.7,20.6 L92.7,10.3 L75.5333333,10.3 L75.5333333,20.6 Z M73.8166667,24.0333333 L94.4166667,24.0333333 C95.3659833,24.0333333 96.1333333,23.2659833 96.1333333,22.3166667 L96.1333333,8.58333333 C96.1333333,7.63401667 95.3659833,6.86666667 94.4166667,6.86666667 L73.8166667,6.86666667 C72.86735,6.86666667 72.1,7.63401667 72.1,8.58333333 L72.1,22.3166667 C72.1,23.2659833 72.86735,24.0333333 73.8166667,24.0333333 L73.8166667,24.0333333 Z" id="Fill-11" fill="#13C180" mask="url(#mask-2)"></path>
                <path d="M72.1,28.6116833 L72.1,33.7616833 C72.1,34.7092833 72.86735,35.47835 73.8166667,35.47835 C74.7659833,35.47835 75.5333333,34.7092833 75.5333333,33.7616833 L75.5333333,28.6116833 C75.5333333,27.6623667 74.7659833,26.8950167 73.8166667,26.8950167 C72.86735,26.8950167 72.1,27.6623667 72.1,28.6116833" id="Fill-12" fill="#13C180" mask="url(#mask-2)"></path>
                <path d="M92.7,28.6116833 L92.7,33.7616833 C92.7,34.7092833 93.46735,35.47835 94.4166667,35.47835 C95.3659833,35.47835 96.1333333,34.7092833 96.1333333,33.7616833 L96.1333333,28.6116833 C96.1333333,27.6623667 95.3659833,26.8950167 94.4166667,26.8950167 C93.46735,26.8950167 92.7,27.6623667 92.7,28.6116833" id="Fill-13" fill="#13C180" mask="url(#mask-2)"></path>
                <path d="M85.8333333,28.6116833 L85.8333333,33.7616833 C85.8333333,34.7092833 86.6006833,35.47835 87.55,35.47835 C88.4993167,35.47835 89.2666667,34.7092833 89.2666667,33.7616833 L89.2666667,28.6116833 C89.2666667,27.6623667 88.4993167,26.8950167 87.55,26.8950167 C86.6006833,26.8950167 85.8333333,27.6623667 85.8333333,28.6116833" id="Fill-14" fill="#13C180" mask="url(#mask-2)"></path>
                <path d="M78.9666667,28.6116833 L78.9666667,33.7616833 C78.9666667,34.7092833 79.7340167,35.47835 80.6833333,35.47835 C81.63265,35.47835 82.4,34.7092833 82.4,33.7616833 L82.4,28.6116833 C82.4,27.6623667 81.63265,26.8950167 80.6833333,26.8950167 C79.7340167,26.8950167 78.9666667,27.6623667 78.9666667,28.6116833" id="Fill-15" fill="#13C180" mask="url(#mask-2)"></path>
                <path d="M75.5333333,46.35 L78.9666667,46.35 L78.9666667,42.9166667 L75.5333333,42.9166667 L75.5333333,46.35 Z M73.8166667,49.7833333 L80.6833333,49.7833333 C81.63265,49.7833333 82.4,49.0159833 82.4,48.0666667 L82.4,41.2 C82.4,40.2506833 81.63265,39.4833333 80.6833333,39.4833333 L73.8166667,39.4833333 C72.86735,39.4833333 72.1,40.2506833 72.1,41.2 L72.1,48.0666667 C72.1,49.0159833 72.86735,49.7833333 73.8166667,49.7833333 L73.8166667,49.7833333 Z" id="Fill-16" fill="#13C180" mask="url(#mask-2)"></path>
                <path d="M89.2666667,46.35 L92.7,46.35 L92.7,42.9166667 L89.2666667,42.9166667 L89.2666667,46.35 Z M87.55,49.7833333 L94.4166667,49.7833333 C95.3659833,49.7833333 96.1333333,49.0159833 96.1333333,48.0666667 L96.1333333,41.2 C96.1333333,40.2506833 95.3659833,39.4833333 94.4166667,39.4833333 L87.55,39.4833333 C86.6006833,39.4833333 85.8333333,40.2506833 85.8333333,41.2 L85.8333333,48.0666667 C85.8333333,49.0159833 86.6006833,49.7833333 87.55,49.7833333 L87.55,49.7833333 Z" id="Fill-17" fill="#13C180" mask="url(#mask-2)"></path>
                <path d="M30.9,30.9 L41.2,30.9 C42.1493167,30.9 42.9166667,30.13265 42.9166667,29.1833333 C42.9166667,28.2340167 42.1493167,27.4666667 41.2,27.4666667 L30.9,27.4666667 C29.9506833,27.4666667 29.1833333,28.2340167 29.1833333,29.1833333 C29.1833333,30.13265 29.9506833,30.9 30.9,30.9" id="Fill-18" fill="#13C180" mask="url(#mask-2)"></path>
                <path d="M27.4666667,37.7666667 L44.6333333,37.7666667 C45.58265,37.7666667 46.35,36.9993167 46.35,36.05 C46.35,35.1006833 45.58265,34.3333333 44.6333333,34.3333333 L27.4666667,34.3333333 C26.51735,34.3333333 25.75,35.1006833 25.75,36.05 C25.75,36.9993167 26.51735,37.7666667 27.4666667,37.7666667" id="Fill-19" fill="#13C180" mask="url(#mask-2)"></path>
                <path d="M22.3166667,66.37835 C22.3166667,63.5338333 20.0111833,61.22835 17.1666667,61.22835 C14.32215,61.22835 12.0166667,63.5338333 12.0166667,66.37835 C12.0166667,69.2228667 14.32215,71.52835 17.1666667,71.52835 C20.0111833,71.52835 22.3166667,69.2228667 22.3166667,66.37835 M18.8833333,66.37835 C18.8833333,67.3276667 18.1159833,68.0950167 17.1666667,68.0950167 C16.21735,68.0950167 15.45,67.3276667 15.45,66.37835 C15.45,65.4290333 16.21735,64.6616833 17.1666667,64.6616833 C18.1159833,64.6616833 18.8833333,65.4290333 18.8833333,66.37835" id="Fill-20" fill="#13C180" mask="url(#mask-2)"></path>
                <path d="M36.05,66.37835 C36.05,63.5338333 33.7445167,61.22835 30.9,61.22835 C28.0554833,61.22835 25.75,63.5338333 25.75,66.37835 C25.75,69.2228667 28.0554833,71.52835 30.9,71.52835 C33.7445167,71.52835 36.05,69.2228667 36.05,66.37835 M32.6166667,66.37835 C32.6166667,67.3276667 31.8493167,68.0950167 30.9,68.0950167 C29.9506833,68.0950167 29.1833333,67.3276667 29.1833333,66.37835 C29.1833333,65.4290333 29.9506833,64.6616833 30.9,64.6616833 C31.8493167,64.6616833 32.6166667,65.4290333 32.6166667,66.37835" id="Fill-21" fill="#13C180" mask="url(#mask-2)"></path>
                <path d="M49.7833333,66.37835 C49.7833333,63.5338333 47.47785,61.22835 44.6333333,61.22835 C41.7888167,61.22835 39.4833333,63.5338333 39.4833333,66.37835 C39.4833333,69.2228667 41.7888167,71.52835 44.6333333,71.52835 C47.47785,71.52835 49.7833333,69.2228667 49.7833333,66.37835 M46.35,66.37835 C46.35,67.3276667 45.58265,68.0950167 44.6333333,68.0950167 C43.6840167,68.0950167 42.9166667,67.3276667 42.9166667,66.37835 C42.9166667,65.4290333 43.6840167,64.6616833 44.6333333,64.6616833 C45.58265,64.6616833 46.35,65.4290333 46.35,66.37835" id="Fill-22" fill="#13C180" mask="url(#mask-2)"></path>
                <path d="M63.5166667,66.37835 C63.5166667,63.5338333 61.2111833,61.22835 58.3666667,61.22835 C55.52215,61.22835 53.2166667,63.5338333 53.2166667,66.37835 C53.2166667,69.2228667 55.52215,71.52835 58.3666667,71.52835 C61.2111833,71.52835 63.5166667,69.2228667 63.5166667,66.37835 M60.0833333,66.37835 C60.0833333,67.3276667 59.3159833,68.0950167 58.3666667,68.0950167 C57.41735,68.0950167 56.65,67.3276667 56.65,66.37835 C56.65,65.4290333 57.41735,64.6616833 58.3666667,64.6616833 C59.3159833,64.6616833 60.0833333,65.4290333 60.0833333,66.37835" id="Fill-23" fill="#13C180" mask="url(#mask-2)"></path>
                <path d="M77.25,66.37835 C77.25,63.5338333 74.9445167,61.22835 72.1,61.22835 C69.2554833,61.22835 66.95,63.5338333 66.95,66.37835 C66.95,69.2228667 69.2554833,71.52835 72.1,71.52835 C74.9445167,71.52835 77.25,69.2228667 77.25,66.37835 M73.8166667,66.37835 C73.8166667,67.3276667 73.0493167,68.0950167 72.1,68.0950167 C71.1506833,68.0950167 70.3833333,67.3276667 70.3833333,66.37835 C70.3833333,65.4290333 71.1506833,64.6616833 72.1,64.6616833 C73.0493167,64.6616833 73.8166667,65.4290333 73.8166667,66.37835" id="Fill-24" fill="#13C180" mask="url(#mask-2)"></path>
                <path d="M90.9833333,66.37835 C90.9833333,63.5338333 88.67785,61.22835 85.8333333,61.22835 C82.9888167,61.22835 80.6833333,63.5338333 80.6833333,66.37835 C80.6833333,69.2228667 82.9888167,71.52835 85.8333333,71.52835 C88.67785,71.52835 90.9833333,69.2228667 90.9833333,66.37835 M87.55,66.37835 C87.55,67.3276667 86.78265,68.0950167 85.8333333,68.0950167 C84.8840167,68.0950167 84.1166667,67.3276667 84.1166667,66.37835 C84.1166667,65.4290333 84.8840167,64.6616833 85.8333333,64.6616833 C86.78265,64.6616833 87.55,65.4290333 87.55,66.37835" id="Fill-25" fill="#13C180" mask="url(#mask-2)"></path>
            </g>
        </g>
    </g>
</svg>