<?xml version="1.0" encoding="UTF-8"?>
<svg width="93px" height="119px" viewBox="0 0 93 119" version="1.1" xmlns="http://www.w3.org/2000/svg" xmlns:xlink="http://www.w3.org/1999/xlink">
    <!-- Generator: Sketch 42 (36781) - http://www.bohemiancoding.com/sketch -->
    <title>implantation-icon</title>
    <desc>Created with Sketch.</desc>
    <defs></defs>
    <g id="Welcome" stroke="none" stroke-width="1" fill="none" fill-rule="evenodd">
        <g id="services" transform="translate(-757.000000, -1323.000000)" fill="#13C180">
            <g id="implantation-icon" transform="translate(757.000000, 1322.000000)">
                <path d="M31.6135786,11.0960814 C19.5213643,11.0960814 9.72536429,21.0067176 9.72536429,33.2304326 C9.72536429,34.5873791 10.8147929,35.6890585 12.1544357,35.6890585 C13.5007214,35.6890585 14.5923643,34.5873791 14.5923643,33.2304326 C14.5923643,28.631145 16.35715,24.3072774 19.5722929,21.0559796 C22.7940786,17.8046819 27.06765,16.0133333 31.6135786,16.0133333 C32.9510071,16.0133333 34.04265,14.9138931 34.04265,13.5569466 C34.04265,12.1977608 32.9510071,11.0960814 31.6135786,11.0960814" id="Fill-1"></path>
                <g id="Group-5" transform="translate(0.000000, 0.693944)">
                    <path d="M85.0287929,43.9352875 L78.03165,59.1348804 C76.7207929,57.8451094 74.93165,57.0501985 72.9587214,57.0501985 L19.4505071,57.0501985 C17.4775786,57.0501985 15.69065,57.8495878 14.3709357,59.1371196 L7.38265,43.9352875 C5.70643571,40.3324377 4.85836429,36.4698422 4.85836429,32.4594606 C4.85836429,25.2336081 7.64615,18.4399186 12.6969357,13.3300967 C17.7477214,8.22251399 24.4658643,5.40785751 31.6135786,5.40785751 C35.9668643,5.40785751 40.1208643,6.43340458 43.9537929,8.45315013 L46.2057214,9.63991858 L48.4554357,8.45315013 C52.2905786,6.43340458 56.4445786,5.40785751 60.7978643,5.40785751 C67.9433643,5.40785751 74.6615071,8.22251399 79.7145071,13.3300967 C84.7652929,18.4399186 87.5508643,25.2336081 87.5508643,32.4594606 C87.5508643,36.4698422 86.7027929,40.3324377 85.0287929,43.9352875 M72.9587214,66.965313 L19.50365,66.965313 C18.2503643,66.965313 17.14765,66.0293333 17.0325071,64.7686718 C16.89965,63.3333537 18.0355786,62.1241934 19.4505071,62.1241934 L72.9100071,62.1241934 C74.1610786,62.1241934 75.2637929,63.0579338 75.3789357,64.3185954 C75.5095786,65.7516743 74.37365,66.965313 72.9587214,66.965313 M68.0939357,76.6497913 L24.3175071,76.6497913 C22.9778643,76.6497913 21.8862214,75.5660254 21.8862214,74.2292316 C21.8862214,72.8924377 22.9778643,71.8064326 24.3175071,71.8064326 L68.0939357,71.8064326 C69.4313643,71.8064326 70.5207929,72.8924377 70.5207929,74.2292316 C70.5207929,75.5660254 69.4313643,76.6497913 68.0939357,76.6497913 M62.9634357,86.5626667 L29.4435786,86.5626667 C28.1194357,86.5626667 27.0455071,85.4789008 27.0455071,84.1443461 C27.0455071,82.8097913 28.1194357,81.7215471 29.4435786,81.7215471 L62.9634357,81.7215471 C64.2920071,81.7215471 65.3637214,82.8097913 65.3637214,84.1443461 C65.3637214,85.4789008 64.2920071,86.5626667 62.9634357,86.5626667 M58.1805786,96.4777812 L34.3150071,96.4777812 C33.0617214,96.4777812 31.9612214,95.5418015 31.8460786,94.2789008 C31.7198643,92.8458219 32.8380786,91.6366616 34.2308643,91.6366616 L58.09865,91.6366616 C59.3475071,91.6366616 60.4480071,92.570402 60.5609357,93.8288244 C60.6915786,95.2641425 59.5733643,96.4777812 58.1805786,96.4777812 M53.3844357,106.16226 L39.0270071,106.16226 C37.7095071,106.16226 36.6377929,105.078494 36.6377929,103.7417 C36.6377929,102.402667 37.7095071,101.32114 39.0270071,101.32114 L53.3844357,101.32114 C54.7019357,101.32114 55.77365,102.402667 55.77365,103.7417 C55.77365,105.078494 54.7019357,106.16226 53.3844357,106.16226 M46.2057214,113.69488 C44.8638643,113.69488 43.7744357,112.590962 43.7744357,111.234015 L48.6325786,111.234015 C48.6325786,112.590962 47.54315,113.69488 46.2057214,113.69488 M60.7978643,0.629435115 C55.5322929,0.629435115 50.5722929,1.93040204 46.2057214,4.23452417 C41.8369357,1.93040204 36.87915,0.629435115 31.6135786,0.629435115 C14.1495071,0.629435115 0.000221428571,14.9445496 0.000221428571,32.6005293 C0.000221428571,37.4506056 1.06972143,42.0476539 2.97622143,46.1655165 L12.1965071,66.0450076 L12.3050071,66.0450076 C12.8519357,68.7790534 14.8979357,70.9644987 17.53515,71.6899949 C17.2074357,72.5319288 17.0214357,73.4477557 17.0214357,74.4083664 C17.0214357,77.8141679 19.2999357,80.6736081 22.40215,81.5267379 C22.0655786,82.3664326 21.8862214,83.2844987 21.8862214,84.2473486 C21.8862214,87.6464326 24.16915,90.5125903 27.2602929,91.3679593 C26.9325786,92.2098931 26.7487929,93.1257201 26.7487929,94.0840916 C26.7487929,97.4876539 29.0272929,100.349333 32.1250786,101.200224 C31.7995786,102.044397 31.6135786,102.957985 31.6135786,103.920835 C31.6135786,107.993913 34.8774357,111.298952 38.90965,111.298952 C38.90965,115.372031 42.1735071,118.677069 46.2057214,118.677069 C50.2379357,118.677069 53.5017929,115.372031 53.5017929,111.298952 C57.5340071,111.298952 60.7978643,107.993913 60.7978643,103.920835 C60.7978643,102.957985 60.6118643,102.044397 60.28415,101.200224 C63.38415,100.349333 65.6648643,97.4876539 65.6648643,94.0840916 C65.6648643,93.1257201 65.4788643,92.2098931 65.1489357,91.3679593 C68.2422929,90.5125903 70.5230071,87.6464326 70.5230071,84.2473486 C70.5230071,83.2844987 70.34365,82.3664326 70.0092929,81.5267379 C73.1092929,80.6736081 75.3877929,77.8141679 75.3877929,74.4083664 C75.3877929,73.4477557 75.2040071,72.5319288 74.8762929,71.6899949 C77.5112929,70.9644987 79.5550786,68.7790534 80.1042214,66.0450076 L80.2038643,66.0450076 L89.4307929,46.1655165 C91.3417214,42.0476539 92.4112214,37.4506056 92.4112214,32.6005293 C92.4112214,14.9445496 78.2597214,0.629435115 60.7978643,0.629435115" id="Fill-3"></path>
                </g>
            </g>
        </g>
    </g>
</svg>