<?xml version="1.0" encoding="UTF-8"?>
<svg width="106px" height="91px" viewBox="0 0 106 91" version="1.1" xmlns="http://www.w3.org/2000/svg" xmlns:xlink="http://www.w3.org/1999/xlink">
    <!-- Generator: Sketch 42 (36781) - http://www.bohemiancoding.com/sketch -->
    <title>metal-ceramic-restavration-icon</title>
    <desc>Created with Sketch.</desc>
    <defs></defs>
    <g id="Welcome" stroke="none" stroke-width="1" fill="none" fill-rule="evenodd">
        <g id="services" transform="translate(-182.000000, -254.000000)">
            <g id="metal-ceramic-restavration-icon" transform="translate(183.000000, 255.000000)">
                <path d="M91.6620882,35.5584091 L95.5326765,35.5584091 C96.4838529,35.5584091 97.3650294,36.0043182 97.9167941,36.7611364 C98.4870882,37.5322727 98.6435588,38.4956818 98.3326765,39.3875 L88.5697353,69.5497727 C85.5103235,78.9915909 76.7150294,85.3427273 66.7276765,85.3427273 L37.0085588,85.3427273 C27.0026765,85.3427273 18.2259118,78.9915909 15.1665,69.5313636 L5.36855882,39.4038636 C5.07414706,38.4956818 5.23061765,37.5322727 5.80091176,36.7611364 C6.35267647,36.0043182 7.18238235,35.5747727 8.18502941,35.5747727 C16.0991471,35.5747727 23.3565,39.8334091 27.2270882,46.7 C27.6079706,48.1604545 28.0403235,49.6025 28.4891471,51.0425 C28.5241471,51.1631818 28.5735588,51.3002273 28.6106176,51.4209091 C29.0594412,52.7770455 29.5432647,54.1331818 30.0620882,55.4565909 C32.0838529,64.8452273 40.5147353,71.6443182 50.1912059,71.6443182 L53.5429706,71.6443182 C63.4109118,71.6443182 71.9303235,64.6570455 73.7606176,55.0086364 L74.1929706,52.7095455 C74.2094412,52.6747727 74.2094412,52.64 74.2279706,52.6052273 C74.4523824,51.7809091 74.6582647,50.9565909 74.8476765,50.1322727 C74.8662059,50.0463636 74.8847353,49.9788636 74.9012059,49.8929545 C75.0741471,49.1197727 75.2635588,48.3486364 75.4200294,47.5754545 L75.4365,47.4895455 L75.4365,47.4547727 L75.6444412,46.4934091 C78.2015,39.9356818 84.6126765,35.5584091 91.6620882,35.5584091 M66.1223824,62.6831818 C62.9620882,66.0827273 58.4676765,68.1772727 53.5429706,68.1772727 L50.1912059,68.1772727 C45.2665,68.1772727 40.7391471,66.0479545 37.5767941,62.6136364 C39.9629706,61.3434091 40.9470882,58.9236364 41.5853235,57.275 C42.0526765,56.0743182 42.4665,54.8715909 42.8823824,53.6525 C43.8850294,50.7172727 44.8341471,47.9538636 46.5285588,45.5156818 C48.2723824,42.9915909 50.4341471,41.5331818 52.4559118,41.5331818 C53.3185588,41.5331818 54.2182647,41.7909091 55.0994412,42.3227273 C57.8973824,43.9877273 58.7785588,47.3177273 59.7112059,50.8379545 C59.9891471,51.8852273 60.2485588,52.8977273 60.5759118,53.8590909 C61.8194412,57.8068182 63.4788529,61.8077273 66.1223824,62.6831818 M34.6573824,4.36522727 C35.7465,3.98886364 37.0415,3.79863636 38.5444412,3.79863636 C41.9497353,3.79863636 45.8017941,4.81318182 48.3938529,5.56795455 C50.6400294,6.22045455 51.5397353,6.11613636 52.9047353,5.58431818 C53.1970882,5.48204545 53.5429706,5.345 54.0103235,5.17318182 C54.1832647,5.12204545 54.3562059,5.03613636 54.5291471,4.96659091 L54.7020882,4.89909091 C56.9997353,3.95409091 59.5053235,3.45704545 61.9409118,3.45704545 C64.8788529,3.45704545 67.5738529,4.17704545 69.7170882,5.55159091 C73.0009118,7.64613636 75.1935588,10.2888636 75.9203235,12.9827273 C78.1665,21.4120455 75.7123824,31.5575 73.5526765,40.4859091 C73.3467941,41.3265909 73.1738529,42.1345455 72.9659118,42.9588636 L72.7415,43.4722727 C72.6200294,43.7463636 72.6035588,44.0388636 72.6365,44.3129545 C72.5500294,44.6565909 72.4635588,45.0186364 72.3956176,45.3602273 L72.1012059,46.6652273 L72.1012059,46.6815909 C71.7388529,48.2790909 71.3765,49.9440909 70.9091471,51.6622727 C70.3038529,53.8754545 69.5441471,55.9884091 68.4200294,57.9622727 C67.6788529,59.2509091 67.2115,59.4206818 67.2279706,59.4390909 C67.0900294,59.4043182 65.8300294,58.94 63.8412059,52.8281818 C63.5488529,51.92 63.2894412,50.975 63.0485588,49.9972727 C62.0273824,46.1334091 60.8867941,41.7745455 56.8617941,39.3875 C52.3859118,36.7427273 47.2532647,38.4261364 43.6935588,43.5929545 C41.7417941,46.4259091 40.6691471,49.5493182 39.6335588,52.5704545 C39.2362059,53.7384091 38.8388529,54.89 38.3900294,56.0395455 C37.7682647,57.635 37.2144412,58.8704545 36.1603235,59.5065909 C35.7629706,59.2509091 35.0032647,58.3222727 33.7082647,55.1804545 L33.5682647,54.8552273 C33.5003235,54.6834091 33.4303235,54.4931818 33.3623824,54.3213636 L33.3438529,54.2702273 C33.1029706,53.6872727 32.8765,53.0859091 32.6520882,52.4845455 C32.6191471,52.3986364 32.6006176,52.3311364 32.5656176,52.2636364 C32.3247353,51.6111364 32.1003235,50.9565909 31.8923824,50.2713636 C31.8573824,50.1690909 31.8244412,50.0463636 31.7894412,49.9440909 C31.3570882,48.5715909 30.9412059,47.1479545 30.5438529,45.6179545 L30.5273824,45.5668182 C28.9029706,39.2831818 27.9353235,32.7254545 26.9841471,26.2884091 C26.7782647,24.9322727 26.5888529,23.5597727 26.3809118,22.22 C25.2917941,15.1815909 27.4515,6.90772727 34.6573824,4.36522727 M101.976794,9.80818182 L87.0132647,9.80818182 L79.8609118,26.6995455 C80.4826765,21.7209091 80.4991471,16.7606818 79.2720882,12.1093182 C78.3394412,8.58909091 75.6094412,5.22431818 71.6009118,2.66545455 C68.8709118,0.932954545 65.5356176,0.0227272727 61.9409118,0.0227272727 C59.0565,0.0227272727 56.1020882,0.605681818 53.3885588,1.7225 L53.1641471,1.82477273 C53.0776765,1.85954545 52.9912059,1.89431818 52.9047353,1.92909091 C52.3859118,2.10090909 51.9885588,2.25431818 51.6591471,2.39136364 C51.2803235,2.54681818 51.0023824,2.64909091 50.8994412,2.64909091 C50.6565,2.64909091 49.8967941,2.42613636 49.3800294,2.28909091 C46.3370882,1.37886364 42.3635588,0.366363636 38.5444412,0.366363636 C36.6626765,0.366363636 34.9682647,0.624090909 33.5003235,1.1375 C24.4270882,4.33045455 21.6620882,14.3061364 22.9426765,22.7702273 C23.1485588,24.1079545 23.3379706,25.4640909 23.5479706,26.8202273 C23.7888529,28.4504545 24.0297353,30.0827273 24.2726765,31.7293182 L14.9935588,9.80818182 L1.75738235,9.80818182 C0.806205882,9.80818182 0.0300294118,10.5813636 0.0300294118,11.5243182 C0.0300294118,12.4693182 0.806205882,13.2404545 1.75738235,13.2404545 L12.7123824,13.2404545 L22.6317941,36.6404545 C18.4482647,33.7563636 13.4206176,32.1261364 8.11502941,32.1261364 C6.07679412,32.1261364 4.22797059,33.0875 3.01944118,34.7340909 C1.80885294,36.3827273 1.46297059,38.5284091 2.10326471,40.4511364 L11.8826765,70.5970455 C15.4073824,81.4625 25.4997353,88.7770455 37.0085588,88.7770455 L66.7276765,88.7770455 C78.2365,88.7770455 88.3267941,81.4645455 91.8700294,70.5970455 L101.649441,40.4511364 C102.289735,38.4956818 101.960324,36.4175 100.733265,34.7504545 C99.5082647,33.0875 97.6244412,32.1261364 95.5491471,32.1261364 L91.6785588,32.1261364 C87.2891471,32.1261364 83.1097353,33.5497727 79.6694412,36.0043182 L89.2944412,13.2404545 L101.976794,13.2404545 C102.927971,13.2404545 103.706206,12.4693182 103.706206,11.5243182 C103.706206,10.5813636 102.927971,9.80818182 101.976794,9.80818182" id="Fill-1" fill="#13C180"></path>
                <path d="M91.6620882,35.5584091 L95.5326765,35.5584091 C96.4838529,35.5584091 97.3650294,36.0043182 97.9167941,36.7611364 C98.4870882,37.5322727 98.6435588,38.4956818 98.3326765,39.3875 L88.5697353,69.5497727 C85.5103235,78.9915909 76.7150294,85.3427273 66.7276765,85.3427273 L37.0085588,85.3427273 C27.0026765,85.3427273 18.2259118,78.9915909 15.1665,69.5313636 L5.36855882,39.4038636 C5.07414706,38.4956818 5.23061765,37.5322727 5.80091176,36.7611364 C6.35267647,36.0043182 7.18238235,35.5747727 8.18502941,35.5747727 C16.0991471,35.5747727 23.3565,39.8334091 27.2270882,46.7 C27.6079706,48.1604545 28.0403235,49.6025 28.4891471,51.0425 C28.5241471,51.1631818 28.5735588,51.3002273 28.6106176,51.4209091 C29.0594412,52.7770455 29.5432647,54.1331818 30.0620882,55.4565909 C32.0838529,64.8452273 40.5147353,71.6443182 50.1912059,71.6443182 L53.5429706,71.6443182 C63.4109118,71.6443182 71.9303235,64.6570455 73.7606176,55.0086364 L74.1929706,52.7095455 C74.2094412,52.6747727 74.2094412,52.64 74.2279706,52.6052273 C74.4523824,51.7809091 74.6582647,50.9565909 74.8476765,50.1322727 C74.8662059,50.0463636 74.8847353,49.9788636 74.9012059,49.8929545 C75.0741471,49.1197727 75.2635588,48.3486364 75.4200294,47.5754545 L75.4365,47.4895455 L75.4365,47.4547727 L75.6444412,46.4934091 C78.2015,39.9356818 84.6126765,35.5584091 91.6620882,35.5584091 Z M66.1223824,62.6831818 C62.9620882,66.0827273 58.4676765,68.1772727 53.5429706,68.1772727 L50.1912059,68.1772727 C45.2665,68.1772727 40.7391471,66.0479545 37.5767941,62.6136364 C39.9629706,61.3434091 40.9470882,58.9236364 41.5853235,57.275 C42.0526765,56.0743182 42.4665,54.8715909 42.8823824,53.6525 C43.8850294,50.7172727 44.8341471,47.9538636 46.5285588,45.5156818 C48.2723824,42.9915909 50.4341471,41.5331818 52.4559118,41.5331818 C53.3185588,41.5331818 54.2182647,41.7909091 55.0994412,42.3227273 C57.8973824,43.9877273 58.7785588,47.3177273 59.7112059,50.8379545 C59.9891471,51.8852273 60.2485588,52.8977273 60.5759118,53.8590909 C61.8194412,57.8068182 63.4788529,61.8077273 66.1223824,62.6831818 Z M34.6573824,4.36522727 C35.7465,3.98886364 37.0415,3.79863636 38.5444412,3.79863636 C41.9497353,3.79863636 45.8017941,4.81318182 48.3938529,5.56795455 C50.6400294,6.22045455 51.5397353,6.11613636 52.9047353,5.58431818 C53.1970882,5.48204545 53.5429706,5.345 54.0103235,5.17318182 C54.1832647,5.12204545 54.3562059,5.03613636 54.5291471,4.96659091 L54.7020882,4.89909091 C56.9997353,3.95409091 59.5053235,3.45704545 61.9409118,3.45704545 C64.8788529,3.45704545 67.5738529,4.17704545 69.7170882,5.55159091 C73.0009118,7.64613636 75.1935588,10.2888636 75.9203235,12.9827273 C78.1665,21.4120455 75.7123824,31.5575 73.5526765,40.4859091 C73.3467941,41.3265909 73.1738529,42.1345455 72.9659118,42.9588636 L72.7415,43.4722727 C72.6200294,43.7463636 72.6035588,44.0388636 72.6365,44.3129545 C72.5500294,44.6565909 72.4635588,45.0186364 72.3956176,45.3602273 L72.1012059,46.6652273 L72.1012059,46.6815909 C71.7388529,48.2790909 71.3765,49.9440909 70.9091471,51.6622727 C70.3038529,53.8754545 69.5441471,55.9884091 68.4200294,57.9622727 C67.6788529,59.2509091 67.2115,59.4206818 67.2279706,59.4390909 C67.0900294,59.4043182 65.8300294,58.94 63.8412059,52.8281818 C63.5488529,51.92 63.2894412,50.975 63.0485588,49.9972727 C62.0273824,46.1334091 60.8867941,41.7745455 56.8617941,39.3875 C52.3859118,36.7427273 47.2532647,38.4261364 43.6935588,43.5929545 C41.7417941,46.4259091 40.6691471,49.5493182 39.6335588,52.5704545 C39.2362059,53.7384091 38.8388529,54.89 38.3900294,56.0395455 C37.7682647,57.635 37.2144412,58.8704545 36.1603235,59.5065909 C35.7629706,59.2509091 35.0032647,58.3222727 33.7082647,55.1804545 L33.5682647,54.8552273 C33.5003235,54.6834091 33.4303235,54.4931818 33.3623824,54.3213636 L33.3438529,54.2702273 C33.1029706,53.6872727 32.8765,53.0859091 32.6520882,52.4845455 C32.6191471,52.3986364 32.6006176,52.3311364 32.5656176,52.2636364 C32.3247353,51.6111364 32.1003235,50.9565909 31.8923824,50.2713636 C31.8573824,50.1690909 31.8244412,50.0463636 31.7894412,49.9440909 C31.3570882,48.5715909 30.9412059,47.1479545 30.5438529,45.6179545 L30.5273824,45.5668182 C28.9029706,39.2831818 27.9353235,32.7254545 26.9841471,26.2884091 C26.7782647,24.9322727 26.5888529,23.5597727 26.3809118,22.22 C25.2917941,15.1815909 27.4515,6.90772727 34.6573824,4.36522727 Z M101.976794,9.80818182 L87.0132647,9.80818182 L79.8609118,26.6995455 C80.4826765,21.7209091 80.4991471,16.7606818 79.2720882,12.1093182 C78.3394412,8.58909091 75.6094412,5.22431818 71.6009118,2.66545455 C68.8709118,0.932954545 65.5356176,0.0227272727 61.9409118,0.0227272727 C59.0565,0.0227272727 56.1020882,0.605681818 53.3885588,1.7225 L53.1641471,1.82477273 C53.0776765,1.85954545 52.9912059,1.89431818 52.9047353,1.92909091 C52.3859118,2.10090909 51.9885588,2.25431818 51.6591471,2.39136364 C51.2803235,2.54681818 51.0023824,2.64909091 50.8994412,2.64909091 C50.6565,2.64909091 49.8967941,2.42613636 49.3800294,2.28909091 C46.3370882,1.37886364 42.3635588,0.366363636 38.5444412,0.366363636 C36.6626765,0.366363636 34.9682647,0.624090909 33.5003235,1.1375 C24.4270882,4.33045455 21.6620882,14.3061364 22.9426765,22.7702273 C23.1485588,24.1079545 23.3379706,25.4640909 23.5479706,26.8202273 C23.7888529,28.4504545 24.0297353,30.0827273 24.2726765,31.7293182 L14.9935588,9.80818182 L1.75738235,9.80818182 C0.806205882,9.80818182 0.0300294118,10.5813636 0.0300294118,11.5243182 C0.0300294118,12.4693182 0.806205882,13.2404545 1.75738235,13.2404545 L12.7123824,13.2404545 L22.6317941,36.6404545 C18.4482647,33.7563636 13.4206176,32.1261364 8.11502941,32.1261364 C6.07679412,32.1261364 4.22797059,33.0875 3.01944118,34.7340909 C1.80885294,36.3827273 1.46297059,38.5284091 2.10326471,40.4511364 L11.8826765,70.5970455 C15.4073824,81.4625 25.4997353,88.7770455 37.0085588,88.7770455 L66.7276765,88.7770455 C78.2365,88.7770455 88.3267941,81.4645455 91.8700294,70.5970455 L101.649441,40.4511364 C102.289735,38.4956818 101.960324,36.4175 100.733265,34.7504545 C99.5082647,33.0875 97.6244412,32.1261364 95.5491471,32.1261364 L91.6785588,32.1261364 C87.2891471,32.1261364 83.1097353,33.5497727 79.6694412,36.0043182 L89.2944412,13.2404545 L101.976794,13.2404545 C102.927971,13.2404545 103.706206,12.4693182 103.706206,11.5243182 C103.706206,10.5813636 102.927971,9.80818182 101.976794,9.80818182 Z" id="Stroke-3" stroke="#13C180"></path>
            </g>
        </g>
    </g>
</svg>