<?xml version="1.0" encoding="UTF-8"?>
<svg width="95px" height="110px" viewBox="0 0 95 110" version="1.1" xmlns="http://www.w3.org/2000/svg" xmlns:xlink="http://www.w3.org/1999/xlink">
    <!-- Generator: Sketch 42 (36781) - http://www.bohemiancoding.com/sketch -->
    <title>none-metall-crowns-icon</title>
    <desc>Created with Sketch.</desc>
    <defs>
        <polygon id="path-1" points="0.000270196608 109.954252 94.23744 109.954252 94.23744 0.000853846154 0.000270196608 0.000853846154"></polygon>
    </defs>
    <g id="Welcome" stroke="none" stroke-width="1" fill="none" fill-rule="evenodd">
        <g id="services" transform="translate(-185.000000, -613.000000)">
            <g id="none-metall-crowns-icon" transform="translate(185.000000, 613.000000)">
                <mask id="mask-2" fill="white">
                    <use xlink:href="#path-1"></use>
                </mask>
                <g id="Clip-2"></g>
                <path d="M85.3371733,71.5062 C84.4945067,74.7871038 83.63264,78.1960846 82.88384,81.5687769 L82.35264,83.9680846 C80.9233067,90.4743923 79.4385067,97.1984308 76.1425067,103.008854 C74.5489067,105.792392 73.5057067,105.995181 73.2113067,105.995181 C72.5521067,105.995181 70.15424,105.134931 66.5809067,94.1566038 C66.0881067,92.6346231 65.6657067,91.0422 65.22624,89.3387769 C63.77984,83.8037192 62.1691733,77.6090654 57.44384,73.6322769 C57.42464,73.6130654 57.42464,73.6130654 57.4075733,73.5959885 C56.78464,73.0815462 56.12544,72.58845 55.3915733,72.1487192 C48.3963733,67.9883538 40.4475733,70.6822385 34.8241067,78.9111808 C31.6561067,83.5475654 29.89824,88.7325462 28.1937067,93.7360846 C27.5345067,95.6785846 26.85824,97.6765846 26.1073067,99.6190846 C24.9361067,102.624623 23.8353067,105.043142 21.5099733,106.234258 C19.44064,105.719815 17.2241067,100.314969 16.36224,98.2081038 L16.10624,97.6957962 C9.89824,82.6851808 7.44490667,65.8452 5.08117333,49.5346038 C4.75264,47.2441615 4.42197333,44.9537192 4.07424,42.6803538 L3.96330667,41.9118923 C3.70730667,40.2789115 3.61557333,39.6940269 3.67104,38.4837 L9.69557333,38.4837 L84.7867733,38.4837 L90.13504,38.4837 C90.8667733,49.8291808 88.0657067,60.8416615 85.3371733,71.5062 L85.3371733,71.5062 Z M55.8139733,86.7174692 C55.3553067,87.5777192 54.93504,88.3846038 54.5851733,89.0634115 L54.4571733,89.3195654 C53.17504,91.95795 51.5835733,95.2388538 49.0001067,96.00945 C48.5969067,96.1375269 48.2129067,96.1908923 47.8097067,96.1908923 C43.52384,96.1908923 39.14624,89.3750654 36.6737067,83.5475654 L36.50944,83.1612 C36.7121067,82.8132577 36.89344,82.5016038 37.0769067,82.1920846 C37.31584,81.7865077 37.57184,81.4044115 37.82784,80.9988346 C40.9233067,76.4542385 44.84224,73.8542769 48.56064,73.8542769 C50.2097067,73.8542769 51.85664,74.3473731 53.4865067,75.3186231 C54.0731733,75.6665654 54.6043733,76.0700077 55.0993067,76.4926615 C55.2827733,76.6570269 55.44704,76.8406038 55.6305067,77.0049692 C55.9227733,77.2803346 56.1979733,77.5535654 56.4539733,77.8652192 C56.6929067,78.1576615 56.93184,78.47145 57.1515733,78.7809692 C57.29664,78.9837577 57.44384,79.1865462 57.57184,79.3850654 C57.8641067,79.8440077 58.1585067,80.3413731 58.4145067,80.8536808 C58.4507733,80.9070462 58.4699733,80.9646808 58.50624,81.0180462 C57.82784,82.9050462 56.76544,84.9201231 55.8139733,86.7174692 L55.8139733,86.7174692 Z M13.34144,34.8185654 L81.1067733,34.8185654 L81.1067733,32.9870654 L13.34144,32.9870654 L13.34144,34.8185654 Z M13.34144,29.3197962 L81.1067733,29.3197962 L81.1067733,27.4882962 L13.34144,27.4882962 L13.34144,29.3197962 Z M4.40277333,23.8231615 C5.66784,14.6784692 10.44864,8.74210385 19.0203733,5.70027692 C21.3073067,4.89339231 24.05504,4.47287308 27.2059733,4.47287308 C32.9745067,4.47287308 38.7451733,5.80914231 42.5723733,6.94475769 C44.4411733,7.49548846 45.4289067,7.75164231 46.4187733,7.75164231 C47.47904,7.75164231 48.28544,7.43998846 49.4033067,7.00025769 C49.89824,6.79960385 50.5211733,6.56052692 51.3275733,6.28516154 C51.5835733,6.19337308 51.8395733,6.08450769 52.0955733,5.97350769 L52.38784,5.84543077 C55.85024,4.43445 59.7329067,3.66598846 63.6155733,3.66598846 C68.9809067,3.66598846 74.2203733,5.13033462 78.35904,7.78793077 C84.05504,11.4530654 87.88224,16.1086615 89.1473067,20.8902 C89.3841067,21.7888731 89.5867733,22.4121808 89.7681067,22.9437 C89.87904,23.2553538 89.9707733,23.5285846 90.0433067,23.8231615 L84.7697067,23.8231615 L9.67850667,23.8231615 L4.40277333,23.8231615 Z M93.46944,34.8185654 L84.7697067,34.8185654 L84.7697067,32.9870654 L88.43264,32.9870654 L88.43264,29.3197962 L84.7697067,29.3197962 L84.7697067,27.4882962 L94.23744,27.4882962 L94.0369067,25.4732192 C93.85344,23.6032962 93.57824,22.7601231 93.2475733,21.7696615 C93.0833067,21.2957769 92.89984,20.7450462 92.6993067,19.9381615 C91.19744,14.2750269 86.81984,8.85096923 80.35584,4.69060385 C75.5579733,1.6317 69.77024,0.000853846154 63.6155733,0.000853846154 C59.2571733,0.000853846154 54.8795733,0.861103846 50.96064,2.49195 L50.6129067,2.63923846 C50.44864,2.71181538 50.2651733,2.78652692 50.0987733,2.85910385 C49.2561067,3.15368077 48.5969067,3.40983462 48.0657067,3.60835385 C47.11424,3.97550769 46.7665067,4.10571923 46.4187733,4.10571923 C45.9409067,4.10571923 45.11744,3.88371923 43.5985067,3.44398846 C39.54944,2.25500769 33.4139733,0.824815385 27.2059733,0.824815385 C23.6347733,0.824815385 20.48384,1.30083462 17.8107733,2.25500769 C7.26144,5.97350769 1.45450667,13.7990077 0.539306667,25.5095077 L0.37504,27.4882962 L9.67850667,27.4882962 L9.67850667,29.3197962 L6.01557333,29.3197962 L6.01557333,32.9870654 L9.67850667,32.9870654 L9.67850667,34.8185654 L0.26624,34.8185654 L0.136106667,36.5049115 C-0.100693333,39.4378731 -0.02816,39.9864692 0.35584,42.4626231 L0.466773333,43.2118731 C0.814506667,45.4852385 1.14517333,47.7564692 1.47370667,50.0469115 C3.87157333,66.5773731 6.36330667,83.6564308 12.7377067,99.0875654 L12.95744,99.6190846 C14.53184,103.484873 17.18784,109.954892 21.80224,109.954892 L22.1691733,109.954892 L22.5169067,109.807604 C26.7473067,108.012392 28.3409067,103.943815 29.49504,100.974565 C30.28224,98.9765654 30.97984,96.9252 31.63904,94.9442769 C32.5179733,92.3443154 33.3777067,89.8318731 34.4209067,87.4133538 C36.7291733,92.0881615 41.5099733,99.8752385 47.8097067,99.8752385 C48.56064,99.8752385 49.3115733,99.7642385 50.04544,99.5465077 C54.1649067,98.3191038 56.23424,94.0648154 57.7553067,90.9504115 L57.8833067,90.6942577 C58.1947733,90.0346615 58.5979733,89.2832769 59.03744,88.4571808 C59.4769067,87.6332192 59.95264,86.7366808 60.4091733,85.7825077 C60.86784,87.2682 61.27104,88.7709692 61.65504,90.2908154 C62.0945067,91.95795 62.5531733,93.6976615 63.0673067,95.3114308 C65.37344,102.421835 68.3771733,109.679527 73.17504,109.679527 C75.42784,109.679527 77.42464,108.104181 79.29344,104.840354 C82.88384,98.5560462 84.41984,91.5566423 85.90464,84.7749692 L86.43584,82.3927385 C87.1867733,79.0755462 88.04864,75.7028538 88.8721067,72.4411615 C91.8011733,60.9526615 94.8433067,49.05645 93.6145067,36.5049115 L93.46944,34.8185654 Z" id="Fill-1" fill="#13C180" mask="url(#mask-2)"></path>
            </g>
        </g>
    </g>
</svg>