<?xml version="1.0" encoding="UTF-8"?>
<svg width="108px" height="108px" viewBox="0 0 108 108" version="1.1" xmlns="http://www.w3.org/2000/svg" xmlns:xlink="http://www.w3.org/1999/xlink">
    <!-- Generator: Sketch 42 (36781) - http://www.bohemiancoding.com/sketch -->
    <title>protez-icon</title>
    <desc>Created with Sketch.</desc>
    <defs>
        <polygon id="path-1" points="0.000153036828 0.000229787234 107.46 0.000229787234 107.46 107.371532 0.000153036828 107.371532"></polygon>
    </defs>
    <g id="Welcome" stroke="none" stroke-width="1" fill="none" fill-rule="evenodd">
        <g id="services" transform="translate(-755.000000, -964.000000)">
            <g id="protez-icon" transform="translate(755.000000, 964.000000)">
                <mask id="mask-2" fill="white">
                    <use xlink:href="#path-1"></use>
                </mask>
                <g id="Clip-2"></g>
                <path d="M103.269485,78.7021277 C102.695017,80.0808511 102.005655,80.3106383 101.431187,80.4255319 L101.086506,80.4255319 C100.971613,80.4255319 100.741826,80.4255319 100.512038,80.3106383 C100.856719,77.3234043 100.167357,73.8765957 99.1333149,71.693617 C99.2482085,71.2340426 99.3631021,70.8893617 99.4779957,70.5446809 C100.512038,69.8553191 102.005655,69.1659574 102.924804,69.0510638 C103.614166,70.3148936 104.533315,75.6 103.269485,78.7021277 M93.2737404,100.329702 C85.0048468,102.935489 76.5084638,104.067191 68.2407191,104.067191 C36.635783,104.067191 8.09046383,88.6622553 6.16484681,86.0564681 C5.25833617,84.5846809 4.69191064,78.8078298 4.57931489,73.5974043 C6.05225106,76.0894468 8.88437872,77.6738298 12.6218681,78.1276596 L13.0779957,78.1276596 C13.0779957,78.1276596 17.3290596,76.9787234 19.0524638,75.6 C20.0865064,79.0468085 27.4396979,81.5744681 27.4396979,81.5744681 L27.8234426,81.5744681 C29.9351872,81.5744681 31.9216979,80.8299574 33.6611872,79.5879574 C34.5309319,83.3139574 37.5124213,85.6727234 42.108166,86.1702128 L42.5263787,86.1702128 C44.5645915,86.1702128 46.4913574,85.3774468 48.0768894,83.9045106 C48.3032298,84.5846809 48.6433149,85.3774468 49.0971447,86.0564681 C50.3425915,88.0958298 52.2670596,89.4550213 54.420166,89.9088511 C54.7602511,90.0225957 55.2129319,90.0225957 55.553017,90.0225957 C56.9122085,90.0225957 59.5179957,89.4550213 61.2161234,85.2637021 C61.3298681,85.1499574 61.3298681,84.923617 61.3298681,84.8110213 C61.3298681,84.923617 61.4436128,85.0373617 61.4436128,85.1499574 C63.1417404,88.2084255 65.7475277,89.9088511 68.8059957,89.9088511 C69.1460809,89.9088511 69.486166,89.9088511 69.9388468,89.7951064 C72.544634,89.4550213 74.5828468,88.0958298 75.7168468,85.9438723 C77.188634,88.4359149 79.3405915,89.7951064 81.832634,89.7951064 C82.1727191,89.7951064 82.5128043,89.7951064 82.8517404,89.6825106 C85.0048468,89.3424255 86.7041234,88.2084255 87.7232298,86.3965532 C89.196166,87.9820851 90.7816979,88.4359149 91.9145489,88.4359149 C92.4798255,88.4359149 93.1599957,88.3221702 93.7264213,88.0958298 C96.1058681,87.4168085 97.8039957,85.8301277 98.7105064,83.5644255 C99.1643362,83.6781702 99.617017,83.7919149 100.070847,83.7919149 C100.410932,83.7919149 100.749868,83.7919149 101.089953,83.6781702 C101.542634,95.4593617 100.297187,98.0651489 93.2737404,100.329702 M8.48225106,60.4340426 C9.86097447,60.3191489 10.5503362,60.893617 11.5843787,61.9276596 C12.2737404,62.5021277 12.9631021,63.306383 13.9971447,63.6510638 C14.9162936,63.9957447 16.0652298,63.7659574 16.8694851,63.5361702 C17.214166,63.4212766 17.5588468,63.306383 17.9035277,63.306383 C18.1333149,63.306383 18.707783,63.306383 19.6269319,65.1446809 C20.4311872,66.7531915 20.0865064,69.1659574 18.8226766,71.1191489 C17.4439532,73.3021277 15.2609745,74.6808511 13.0779957,74.6808511 L12.5035277,74.6808511 C8.94182553,74.3361702 6.87374043,72.7276596 6.18437872,70.0851064 C5.26522979,66.293617 7.44820851,61.3531915 8.48225106,60.4340426 M23.4184213,66.9829787 C23.7631021,66.293617 24.107783,65.8340426 24.3375702,65.6042553 C25.4865064,65.4893617 26.0609745,66.0638298 27.095017,66.9829787 C27.6694851,67.5574468 28.3588468,68.2468085 29.2779957,68.5914894 C30.0822511,68.9361702 31.2311872,68.706383 31.9205489,68.5914894 C32.2652298,68.4765957 32.6099106,68.4765957 32.8396979,68.4765957 C33.2992723,68.4765957 33.7588468,69.0510638 34.2184213,70.0851064 C34.907783,71.4638298 34.5631021,73.6468085 33.5290596,75.4851064 C32.1503362,77.6680851 30.0822511,78.8170213 27.8992723,78.587234 C24.7971447,78.2425532 22.9588468,76.8638298 22.2694851,74.5659574 C22.0396979,73.8765957 22.0396979,73.0723404 22.0396979,72.2680851 C22.9588468,70.5446809 23.4184213,68.706383 23.4184213,66.9829787 M38.9290596,72.3829787 C39.8482085,72.3829787 40.4226766,72.7276596 41.2269319,73.4170213 C41.8014,73.8765957 42.3758681,74.4510638 43.295017,74.7957447 C44.0992723,75.0255319 45.0184213,74.9106383 45.707783,74.7957447 C46.0524638,74.6808511 46.2822511,74.6808511 46.5120383,74.6808511 C46.8567191,74.6808511 47.2014,75.1404255 47.6609745,75.9446809 C48.2354426,76.9787234 48.0056553,78.587234 47.0865064,79.9659574 C46.2822511,81.3446809 44.6737404,82.7234043 42.6056553,82.7234043 L42.1460809,82.7234043 C39.388634,82.3787234 37.7801234,81.3446809 37.3205489,79.506383 C36.5162936,76.6340426 38.1248043,73.187234 38.9290596,72.3829787 M51.2226766,75.8297872 C51.6822511,74.5659574 52.4865064,73.5319149 54.5545915,73.187234 C55.8184213,74.106383 58.2311872,75.8297872 59.1503362,76.6340426 C59.495017,77.7829787 59.2652298,82.2638298 57.5418255,84.906383 C56.7375702,86.1702128 56.0482085,86.1702128 55.8184213,86.1702128 L55.3588468,86.1702128 C53.9801234,85.9404255 52.9460809,85.1361702 52.1418255,83.7574468 C51.3375702,82.493617 50.9928894,80.8851064 50.7631021,79.6212766 C51.2226766,78.3574468 51.3375702,77.093617 51.2226766,75.8297872 M63.7460809,75.0255319 C65.0099106,74.7957447 67.6524638,74.4510638 69.8354426,74.4510638 C72.0184213,74.4510638 72.5928894,74.7957447 72.5928894,74.7957447 C73.2822511,75.3702128 74.6609745,79.7361702 73.6269319,83.0680851 C73.0524638,84.906383 71.788634,85.9404255 69.9503362,86.1702128 L69.2609745,86.1702128 C67.4226766,86.1702128 65.9290596,85.1361702 64.895017,83.1829787 C63.2865064,80.4255319 63.1716128,76.7489362 63.7460809,75.0255319 M77.7631021,74.4510638 C78.9120383,74.2212766 81.095017,73.8765957 82.8184213,73.8765957 C84.5418255,73.8765957 85.0014,74.2212766 85.0014,74.2212766 C85.6907617,75.0255319 87.0694851,80.0808511 85.8056553,83.5276596 C85.1162936,85.5957447 83.7375702,86.0553191 82.8184213,86.1702128 L82.2439532,86.1702128 C81.7843787,86.1702128 80.2907617,86.1702128 79.0269319,83.8723404 C77.4184213,80.8851064 77.3035277,76.4042553 77.7631021,74.4510638 M76.9588468,66.293617 C73.8567191,66.293617 71.3290596,65.6042553 70.5248043,64.9148936 C70.1801234,64.5702128 69.8354426,63.6510638 69.7205489,62.387234 C69.8354426,60.7787234 69.8354426,58.8255319 69.6056553,56.8723404 C69.7205489,54.9191489 70.1801234,52.7361702 70.8694851,50.7829787 C72.1333149,47.5659574 73.8567191,45.9574468 76.0396979,45.9574468 L76.2694851,45.9574468 C82.8184213,46.4170213 83.1631021,49.0595745 83.8524638,59.0553191 C83.9673574,60.5489362 84.0822511,62.0425532 84.1971447,63.7659574 C84.1971447,64.1106383 84.0822511,64.3404255 83.8524638,64.5702128 C82.9333149,65.6042553 80.1758681,66.293617 76.9588468,66.293617 M86.8396979,58.0212766 C86.6099106,55.0340426 86.495017,52.3914894 86.0354426,50.093617 C86.3801234,48.0255319 86.9545915,46.187234 87.988634,44.9234043 C88.6779957,44.1191489 89.3673574,43.6595745 90.1716128,43.6595745 L90.6311872,43.6595745 C92.1248043,43.6595745 93.388634,44.1191489 94.307783,45.1531915 C97.5248043,48.6 96.9503362,56.7574468 96.7205489,59.7446809 C96.7205489,60.0893617 96.7205489,60.4340426 96.6056553,60.7787234 C95.8014,61.6978723 91.895017,63.6510638 88.907783,63.6510638 C88.1035277,63.6510638 87.6439532,63.5361702 87.1843787,63.306383 L87.1843787,62.6170213 C87.0694851,61.0085106 86.9545915,59.4 86.8396979,58.0212766 M96.9503362,68.0170213 L96.6056553,68.2468085 L96.4907617,68.5914894 C96.3758681,68.706383 96.3758681,68.9361702 96.2609745,69.0510638 C96.0311872,69.0510638 95.6865064,68.9361702 95.4567191,68.9361702 C92.5843787,68.9361702 88.3333149,70.8893617 87.1843787,71.4638298 C85.3460809,70.3148936 83.3928894,69.5106383 81.5545915,68.8212766 C83.2779957,68.4765957 84.8865064,67.787234 86.0354426,66.7531915 C86.9545915,67.212766 87.988634,67.4425532 89.2524638,67.4425532 C91.3205489,67.4425532 93.8482085,66.7531915 96.2609745,65.6042553 C96.8354426,65.3744681 97.295017,65.0297872 97.7545915,64.8 C98.3290596,65.3744681 98.788634,65.9489362 99.2482085,66.6382979 C98.0992723,67.212766 97.295017,67.787234 96.9503362,68.0170213 M88.9847617,74.6900426 C89.0410596,74.5544681 89.0732298,74.4763404 89.1283787,74.339617 C90.9666766,73.5353617 93.9596553,72.3829787 95.4567191,72.3829787 L95.8014,72.3829787 C96.4907617,73.3021277 97.7545915,77.6680851 96.8354426,81.2297872 C96.2609745,83.1829787 95.2269319,84.4468085 93.5035277,84.906383 C93.1588468,85.0212766 92.9290596,85.0212766 92.6992723,85.0212766 C91.895017,85.0212766 91.0907617,84.4468085 90.4014,83.2978723 C90.1716128,82.8382979 89.9418255,82.493617 89.8269319,81.9191489 C90.0613149,79.4627234 89.6982511,76.6489787 88.9847617,74.6900426 M67.5375702,48.9446809 C67.4226766,49.1744681 67.4226766,49.4042553 67.307783,49.6340426 C66.6184213,48.1404255 65.0099106,46.7617021 62.7120383,46.187234 C62.2524638,46.0723404 61.7928894,45.9574468 61.3333149,45.9574468 C59.2652298,45.9574468 57.4269319,47.106383 56.0482085,49.1744681 C55.014166,46.4170213 53.0609745,44.1191489 49.3843787,43.6595745 L48.8099106,43.6595745 C47.5460809,43.6595745 45.707783,44.2340426 43.7545915,46.7617021 C43.5248043,47.106383 43.1801234,47.5659574 42.9503362,47.9106383 C41.5716128,44.8085106 38.5843787,42.8553191 34.3333149,42.3957447 C32.0354426,42.1659574 29.8524638,42.7404255 27.8992723,44.1191489 C27.2099106,39.1787234 23.5333149,35.9617021 17.4439532,35.387234 C17.0992723,35.387234 16.7545915,35.2723404 16.295017,35.2723404 C12.7333149,35.2723404 9.17161277,37.2255319 6.98863404,40.4425532 C6.29927234,39.9829787 5.83969787,39.6382979 5.60991064,39.293617 C4.23118723,37.1106383 3.65671915,25.2765957 4.23118723,19.7617021 C6.29927234,21.7148936 9.63118723,24.012766 13.7673574,26.0808511 C18.9375702,28.7234043 27.5545915,32.4 39.1588468,34.5829787 C50.6482085,36.7659574 63.4014,38.0297872 73.9716128,38.0297872 C81.095017,38.0297872 90.7460809,37.4553191 96.2609745,34.6978723 C98.0992723,33.7787234 99.707783,32.7446809 100.971613,31.5957447 L100.971613,31.7106383 L100.971613,31.9404255 C101.316294,31.5957447 101.546081,31.3659574 101.775868,31.0212766 C101.890762,33.6638298 101.890762,36.0765957 101.890762,38.0297872 C100.282251,37.8 98.9035277,38.3744681 97.8694851,39.7531915 C97.4099106,40.4425532 97.0652298,41.3617021 96.7205489,42.2808511 C94.9971447,40.787234 92.9290596,40.0978723 90.2865064,40.212766 C88.4482085,40.3276596 86.8396979,41.2468085 85.5758681,42.7404255 C85.1162936,43.3148936 84.6567191,44.1191489 84.3120383,44.9234043 C82.8184213,42.9702128 80.4056553,41.8212766 76.4992723,41.5914894 C72.4779957,41.3617021 69.3758681,44.0042553 67.5375702,48.9446809 M65.814166,64.3404255 L65.0099106,64.3404255 C62.8269319,64.3404255 58.1162936,64.3404255 56.6226766,62.9617021 C56.3928894,62.7319149 56.2779957,62.0425532 56.2779957,61.1234043 C56.3928894,59.9744681 56.507783,58.5957447 56.6226766,56.987234 C56.9662085,54.9248936 57.8233149,52.6051915 58.8114,51.1828085 C59.2985489,50.4808085 60.1223362,50.093617 60.9771447,50.093617 C61.2138255,50.093617 61.3298681,50.0924681 61.5631021,50.2085106 C63.4014,50.6680851 64.6652298,52.0468085 65.5843787,54.4595745 C66.9631021,58.3659574 66.388634,62.9617021 65.814166,64.3404255 M53.0609745,56.1829787 C52.8311872,57.5617021 52.7162936,58.9404255 52.7162936,60.3191489 C52.4865064,62.9617021 50.0737404,64.4553191 48.9248043,65.0297872 C47.6609745,64.4553191 44.5588468,62.7319149 43.6396979,59.8595745 C42.8354426,57.2170213 44.0992723,51.8170213 46.2822511,48.8297872 C47.0865064,47.7957447 47.8907617,47.106383 48.4652298,47.106383 L48.5801234,47.106383 C52.3716128,47.5659574 53.1758681,51.3574468 53.0609745,56.1829787 M37.6652298,60.893617 L37.4354426,60.893617 C36.1716128,60.893617 35.4822511,60.3191489 34.5631021,59.4 C33.8737404,58.8255319 33.1843787,58.0212766 32.1503362,57.6765957 C31.8056553,57.5617021 31.3460809,57.4468085 31.0014,57.4468085 C30.4269319,57.4468085 29.8524638,57.5617021 29.2779957,57.6765957 C28.9333149,57.7914894 28.588634,57.906383 28.2439532,57.906383 C28.014166,57.906383 27.4396979,57.906383 26.5205489,56.0680851 C26.1758681,55.3787234 26.0609745,54.6893617 26.0609745,53.8851064 C26.6354426,52.7361702 27.095017,51.3574468 27.3248043,49.9787234 C28.8184213,47.5659574 31.2311872,46.3021277 33.6439532,46.5319149 C37.2056553,46.8765957 39.2737404,48.4851064 39.9631021,51.1276596 C40.8822511,55.0340426 38.6992723,59.9744681 37.6652298,60.893617 M21.4652298,54 L21.0056553,54 C19.3971447,54 18.5928894,53.3106383 17.5588468,52.3914894 C16.7545915,51.7021277 16.0652298,51.012766 14.9162936,50.6680851 C14.5716128,50.5531915 14.1120383,50.4382979 13.6524638,50.4382979 C12.9631021,50.4382979 12.388634,50.5531915 11.814166,50.6680851 C11.3545915,50.7829787 10.895017,50.8978723 10.5503362,50.8978723 C10.2056553,50.8978723 9.51629362,50.8978723 8.48225106,48.8297872 C7.67799574,47.2212766 7.90778298,44.8085106 9.17161277,42.7404255 C10.4354426,40.5574468 13.1928894,38.2595745 16.6396979,38.6042553 C20.7758681,39.0638298 23.3035277,40.787234 23.8779957,43.8893617 C25.0269319,48.1404255 22.4992723,53.1957447 21.4652298,54 M97.6396979,16.5446809 C99.5928894,18.7276596 101.890762,22.0595745 101.316294,25.1617021 C100.856719,27.6893617 98.5588468,29.987234 94.5375702,31.9404255 C90.6311872,33.893617 83.3928894,34.9276596 73.7418255,34.9276596 C63.4014,34.9276596 50.8779957,33.6638298 39.6184213,31.5957447 C21.3503362,28.2638298 9.4014,20.7957447 6.06948511,17.2340426 C10.895017,15.8553191 68.6865064,3.90638298 70.8694851,3.44680851 L70.9843787,3.44680851 C73.9716128,4.0212766 91.0907617,9.19148936 97.6396979,16.5446809 M103.614166,45.3829787 C104.533315,49.5191489 102.809911,55.0340426 101.890762,55.7234043 L101.775868,55.8382979 C101.660974,55.493617 101.546081,55.2638298 101.546081,54.9191489 C101.316294,54.2297872 101.086506,53.3106383 100.741826,52.2765957 C100.626932,52.0468085 100.626932,51.9319149 100.512038,51.7021277 C100.397145,50.7829787 100.282251,49.8638298 99.9375702,49.0595745 C99.707783,46.5319149 99.9375702,44.0042553 100.741826,42.8553191 C100.971613,42.5106383 101.086506,42.5106383 101.2014,42.5106383 L101.431187,42.5106383 C102.46523,42.7404255 103.269485,43.6595745 103.614166,45.3829787 M105.537485,66.7485957 C105.075613,66.2867234 104.386251,65.7111064 103.120123,65.7111064 C102.314719,64.5610213 101.509315,63.4097872 100.358081,62.3745957 C100.472974,62.1448085 100.472974,61.7989787 100.472974,61.5691915 C100.472974,61.3394043 100.472974,60.9935745 100.587868,60.534 C100.587868,60.1881702 100.703911,59.7274468 100.703911,59.1518298 C100.933698,59.1518298 101.047443,59.2678723 101.278379,59.2678723 C102.083783,59.2678723 102.889187,58.9220426 103.810634,58.2315319 C106.572677,56.3897872 107.952549,49.1411489 107.147145,44.5373617 C106.802464,42.9254043 106.226847,41.544383 105.421443,40.5091915 C105.537485,36.9405957 105.3054,32.6826383 105.191655,27.7353191 L104.961868,23.8220426 C104.961868,21.5195745 103.464804,17.4925532 100.358081,14.1548936 C92.3017404,5.29314894 73.0834851,0.229787234 71.2417404,0 L71.1739532,0 C66.9895277,0.464170213 4.55633617,13.2541277 2.4641234,14.9982128 C2.34808085,14.9982128 2.2320383,15.1131064 1.99880426,15.2302979 C1.41859149,15.5795745 -0.209451064,16.6262553 0.0226340426,28.1351489 C0.138676596,31.5072766 0.487953191,39.528 2.2320383,42.2027234 C2.58016596,42.7840851 3.51080426,43.4826383 4.90561277,44.5281702 C4.09216596,46.9696596 4.20705957,49.4111489 5.25374043,51.5033617 C6.64854894,54.1769362 8.27659149,55.4568511 10.4859957,55.4568511 C11.1845489,55.4568511 11.8808043,55.3408085 12.462166,55.1075745 C12.9274851,54.9915319 13.5088468,54.8754894 13.6260383,54.9915319 C13.973017,55.1075745 14.4394851,55.5728936 15.0196979,56.0370638 C16.1824213,57.0848936 17.9276553,58.5957447 20.8333149,58.5957447 L22.2235277,58.5957447 C22.6647191,58.5957447 23.2173574,58.3751489 23.6596979,57.9328085 C24.8752723,60.3628085 26.3114426,61.578383 28.2991021,61.578383 C28.9620383,61.578383 29.6249745,61.4680851 30.066166,61.2474894 C30.3982085,61.1371915 30.7291021,61.0257447 30.9508468,61.0257447 C31.2817404,61.0257447 31.613783,61.578383 32.0561234,61.9104255 C33.1602511,62.9042553 34.5964213,64.3404255 37.1367191,64.3404255 L38.7842936,64.3404255 C39.5632723,64.2289787 40.4525489,63.5614468 41.1189319,62.6733191 C43.1203787,67.2322979 48.3457404,69.1211489 48.569783,69.1211489 L49.1247191,69.3428936 L49.6808043,69.1211489 C49.7922511,69.0097021 52.5715277,68.0089787 54.4626766,65.6743404 C56.6858681,67.5654894 60.6876128,67.787234 64.5802085,67.787234 L66.5402936,67.787234 C67.0619106,67.787234 67.5835277,67.5781277 68.0028894,67.1599149 C68.1074426,67.265617 68.2108468,67.3701702 68.3154,67.4747234 C68.4199532,67.5781277 68.5245064,67.5781277 68.6290596,67.6826809 C69.0472723,68.4145532 69.4643362,68.9361702 70.0916553,69.1452766 C70.7178255,69.353234 71.5542511,69.5634894 72.7031872,69.876 C73.8521234,70.1896596 75.4181234,70.6067234 77.0898255,71.1294894 C76.1499957,71.2340426 75.5226766,71.4431489 75.4181234,71.4431489 L74.6874,71.5465532 L74.3737404,72.1738723 C74.3737404,72.2784255 74.2691872,72.3829787 74.2691872,72.3829787 L74.0600809,72.1738723 C73.2248043,71.5465532 71.7622085,71.2340426 69.6734426,71.2340426 C66.6448468,71.2340426 62.987783,71.8613617 62.8843787,71.9659149 L62.2582085,72.0704681 L61.8388468,72.5920851 C61.6308894,72.9045957 61.5263362,73.2194043 61.3172298,73.5319149 C59.7512298,72.2784255 57.4533574,70.7124255 57.1396979,70.397617 L56.7214851,70.0851064 L55.1313574,70.0851064 C52.4842085,70.2011489 50.7573574,71.2363404 49.722166,72.5024681 C48.9156128,71.5810213 47.8804213,71.1202979 46.7291872,71.1202979 C46.1535702,71.1202979 45.5791021,71.2363404 45.1183787,71.351234 C44.8885915,71.351234 44.6576553,71.4661277 44.5427617,71.4661277 C44.3129745,71.351234 43.9682936,71.1202979 43.7373574,70.775617 C42.8170596,69.8553191 41.3199957,68.5891915 38.4430596,68.8189787 C38.2132723,68.8189787 37.9834851,68.9338723 37.8674426,69.0499149 C37.7536979,68.8189787 37.7536979,68.5891915 37.6376553,68.3582553 C36.4875702,65.9431915 34.9905064,64.7919574 33.1499106,64.7919574 C32.4594,64.7919574 31.883783,64.9057021 31.4242085,65.0217447 C31.1932723,65.1366383 30.8485915,65.1366383 30.7325489,65.1366383 C30.5027617,65.0217447 30.1569319,64.6759149 29.6973574,64.331234 C28.661017,63.2948936 27.0502085,61.6840851 23.9434851,62.028766 C23.4827617,62.028766 23.1380809,62.2585532 22.6762085,62.604383 C21.5272723,60.534 20.0302085,59.4976596 18.1884638,59.4976596 C17.4991021,59.4976596 16.8074426,59.8423404 16.3478681,59.958383 C16.0031872,60.0732766 15.6573574,60.4179574 15.4275702,60.4179574 C15.0817404,59.2678723 14.7359106,59.6125532 14.2763362,59.2678723 C13.0102085,58.1166383 11.3994,56.16 8.06174043,56.6207234 C6.68071915,56.735617 5.29969787,58.4624681 4.26450638,60.6477447 C3.68888936,60.4179574 2.99837872,60.534 2.53765532,60.8786809 C1.9620383,61.2233617 0.351229787,62.2585532 0.581017021,73.6525532 C0.697059574,76.9902128 1.04174043,84.9305106 2.76744255,87.5776596 C5.29969787,91.3748936 35.7959106,107.371532 68.8255277,107.371532 C77.5712298,107.371532 86.5478681,106.220298 95.1786766,103.459404 C105.075613,100.236638 106.111953,95.1732766 105.767272,81.594 C106.226847,81.018383 106.68757,80.3278723 106.917357,79.2915319 C108.183485,75.2645106 107.032251,68.3582553 105.537485,66.7485957" id="Fill-1" fill="#13C180" mask="url(#mask-2)"></path>
            </g>
        </g>
    </g>
</svg>