<?xml version="1.0" encoding="UTF-8"?>
<svg width="42px" height="43px" viewBox="0 0 42 43" version="1.1" xmlns="http://www.w3.org/2000/svg" xmlns:xlink="http://www.w3.org/1999/xlink">
    <!-- Generator: Sketch 42 (36781) - http://www.bohemiancoding.com/sketch -->
    <title>technology-gray-icon</title>
    <desc>Created with Sketch.</desc>
    <defs>
        <polygon id="path-1" points="0 41.9367486 0 0.0759020492 41.9239835 0.0759020492 41.9239835 41.9367486"></polygon>
    </defs>
    <g id="Welcome" stroke="none" stroke-width="1" fill="none" fill-rule="evenodd">
        <g id="services/implantation" transform="translate(-161.000000, -1002.000000)">
            <g id="technology-gray-icon" transform="translate(161.000000, 1002.000000)">
                <g id="Group-3" transform="translate(0.000000, 0.270683)">
                    <mask id="mask-2" fill="white">
                        <use xlink:href="#path-1"></use>
                    </mask>
                    <g id="Clip-2"></g>
                    <path d="M20.9621653,0.0757287568 C32.5388926,0.0757287568 41.9239835,9.44668586 41.9239835,21.0063253 C41.9239835,32.5659648 32.5388926,41.9369219 20.9621653,41.9369219 C9.38509091,41.9369219 0,32.5659648 0,21.0063253 C0,9.44668586 9.38509091,0.0757287568 20.9621653,0.0757287568 Z" id="Fill-1" fill="#9B9B9B" mask="url(#mask-2)"></path>
                </g>
                <path d="M28.1846727,24.6817521 C28.2568711,24.0097244 28.3554496,23.2864021 28.502276,22.4958424 L22.9075983,22.4958424 C22.735086,23.3110096 22.0905074,23.9546174 21.2741107,24.1265234 L21.2741107,24.5327207 C22.7954826,24.9254011 24.3734331,28.5919207 23.3341934,35.8008824 C28.650838,31.73787 27.649086,29.6795035 28.1846727,24.6817521" id="Fill-4" fill="#FFFFFF"></path>
                <path d="M27.7280876,16.9088277 C27.7280876,16.2253627 27.1713273,15.6694408 26.4864843,15.6694408 C25.8023355,15.6694408 25.244881,16.2253627 25.244881,16.9088277 C25.244881,17.5926393 25.8023355,18.1485612 26.4864843,18.1485612 C27.1713273,18.1489078 27.7280876,17.5926393 27.7280876,16.9088277" id="Fill-6" fill="#FFFFFF"></path>
                <path d="M22.2638529,12.0847153 C21.579357,12.0847153 21.0222496,12.6409837 21.0222496,13.3244488 C21.0222496,14.0079138 21.579357,14.5638357 22.2638529,14.5638357 C22.9486959,14.5638357 23.5054562,14.0079138 23.5054562,13.3244488 C23.5051091,12.6409837 22.9483488,12.0847153 22.2638529,12.0847153" id="Fill-8" fill="#FFFFFF"></path>
                <path d="M22.0774215,22.0583485 C22.0774215,21.3748835 21.5206612,20.8186151 20.8358182,20.8186151 C20.1513223,20.8186151 19.5942149,21.3748835 19.5942149,22.0583485 C19.5942149,22.741467 20.1513223,23.2977354 20.8358182,23.2977354 C21.5206612,23.2977354 22.0774215,22.741467 22.0774215,22.0583485" id="Fill-10" fill="#FFFFFF"></path>
                <path d="M18.7182198,22.0583485 C18.7182198,20.8917444 19.6682529,19.9434887 20.8362694,19.9434887 C21.8536413,19.9434887 22.705443,20.6640383 22.9078066,21.6209586 L28.6788149,21.6209586 C28.7475421,21.3066063 28.8207818,20.9860155 28.905476,20.6512147 C29.8593273,16.8814129 31.0766331,12.7504698 28.1345504,9.93654867 L26.3896413,9.93654867 L24.0799884,12.2423767 C24.2705504,12.5595017 24.3816248,12.928961 24.3816248,13.3244141 C24.3816248,14.490325 23.4319388,15.4392739 22.2639223,15.4392739 C21.0962529,15.4392739 20.1462198,14.490325 20.1462198,13.3244141 C20.1462198,12.1585032 21.0962529,11.2099009 22.2639223,11.2099009 C22.7186331,11.2099009 23.1393273,11.3551198 23.4846992,11.5998086 L26.0265669,9.06176889 L26.8873934,9.06176889 C25.8894595,8.63096411 24.8557736,8.74048488 24.2681207,9.02156507 C22.3996413,9.91540701 21.6044182,10.2262935 20.6047488,10.0360185 L20.6047488,10.6966089 L16.5276248,14.7668996 C16.7036083,15.07536 16.8053107,15.4306093 16.8053107,15.809773 C16.8053107,16.9756839 15.8549306,17.9239397 14.6872612,17.9239397 C13.5192446,17.9239397 12.5695587,16.9753373 12.5695587,15.809773 C12.5695587,14.6438621 13.5192446,13.6949132 14.6872612,13.6949132 C15.158286,13.6949132 15.5928645,13.8512229 15.9448314,14.1118545 L19.7283025,10.3344279 L19.7283025,9.77573337 C19.3673107,9.639179 18.9580711,9.45964813 18.4637901,9.23783392 C17.7959554,8.93873133 16.2242529,8.30517449 14.6195752,9.42083064 C10.4272116,12.3349148 12.1728149,16.4956641 13.0933438,21.3897867 C13.1454099,21.667401 13.1926165,21.9366973 13.2363521,22.2011414 L18.9747322,16.4717498 L24.4149471,16.4717498 C24.6176579,15.5148294 25.4691124,14.7942798 26.4864843,14.7942798 C27.6545008,14.7942798 28.6041868,15.7432287 28.6041868,16.9087931 C28.6041868,18.0750506 27.6541537,19.0236529 26.4864843,19.0236529 C25.4691124,19.0236529 24.6176579,18.3031033 24.4149471,17.346183 L19.3378066,17.346183 L14.405757,22.2714981 L13.397757,23.2779801 C14.2981537,29.8974013 12.8538397,32.2181324 18.6175587,35.7647336 C17.6401041,28.7928358 18.8678231,25.3567951 20.3978727,24.6404045 L20.3978727,24.1264194 C19.4398562,23.9247071 18.7182198,23.0738417 18.7182198,22.0583485" id="Fill-12" fill="#FFFFFF"></path>
                <path d="M13.446005,15.809669 C13.446005,16.493134 14.0027653,17.0494025 14.6876083,17.0494025 C15.3721041,17.0494025 15.9292116,16.493134 15.9292116,15.809669 C15.9292116,15.126204 15.3721041,14.5699355 14.6876083,14.5699355 C14.0027653,14.5699355 13.446005,15.126204 13.446005,15.809669" id="Fill-14" fill="#FFFFFF"></path>
            </g>
        </g>
    </g>
</svg>