<?xml version="1.0" encoding="UTF-8"?>
<svg width="53px" height="54px" viewBox="0 0 53 54" version="1.1" xmlns="http://www.w3.org/2000/svg" xmlns:xlink="http://www.w3.org/1999/xlink">
    <!-- Generator: Sketch 42 (36781) - http://www.bohemiancoding.com/sketch -->
    <title>flexible-protez-small-icon</title>
    <desc>Created with Sketch.</desc>
    <defs></defs>
    <g id="Welcome" stroke="none" stroke-width="1" fill="none" fill-rule="evenodd">
        <g id="home" transform="translate(-749.000000, -1218.000000)" fill="#13C180">
            <path d="M795.249738,1267.65088 C791.098015,1268.95828 786.832196,1269.52741 782.680472,1269.52741 C766.812513,1269.52741 752.480811,1261.79243 751.513686,1260.48436 C751.058648,1259.74543 750.774081,1256.84405 750.717705,1254.22859 C751.45731,1255.47961 752.878802,1256.27626 754.756004,1256.50378 L755.267419,1256.50378 C756.347968,1256.50378 757.371469,1256.10512 758.224499,1255.42256 C758.736585,1257.12862 760.215125,1258.20984 762.376893,1258.43669 L762.831932,1258.43669 C763.798385,1258.43669 764.708463,1258.09641 765.504444,1257.52728 C765.902435,1259.23334 767.268222,1260.31389 769.372272,1260.54141 L769.770263,1260.54141 C770.794436,1260.54141 771.760889,1260.14275 772.556871,1259.40381 C772.670966,1259.74543 772.841438,1260.14275 773.068957,1260.48436 C773.694467,1261.50853 774.661592,1262.19042 775.742141,1262.41794 C775.912613,1262.47499 776.140132,1262.47499 776.310604,1262.47499 C776.993161,1262.47499 778.30123,1262.19042 779.154259,1260.08637 C779.211307,1260.02999 779.211307,1259.9159 779.211307,1259.85952 C779.211307,1259.9159 779.268354,1259.97295 779.268354,1260.02999 C780.121384,1261.56558 781.429452,1262.41794 782.965039,1262.41794 C783.135511,1262.41794 783.305983,1262.41794 783.533502,1262.36156 C784.84157,1262.19042 785.865742,1261.50853 786.434205,1260.42731 C787.17381,1261.679 788.254359,1262.36156 789.50538,1262.36156 C789.675851,1262.36156 789.846323,1262.36156 790.017466,1262.30451 C791.098015,1262.13404 791.951044,1261.56558 792.46313,1260.65483 C793.202065,1261.45148 793.998718,1261.679 794.56718,1261.679 C794.851747,1261.679 795.192691,1261.62263 795.477257,1261.50853 C796.67123,1261.16692 797.524931,1260.37094 797.979298,1259.23334 C798.206818,1259.29039 798.434337,1259.34743 798.661856,1259.34743 C798.832328,1259.34743 799.003471,1259.34743 799.173942,1259.29039 C799.401462,1265.20455 798.775952,1266.51329 795.249738,1267.65088 M752.992897,1247.74529 C753.674784,1247.68825 754.016399,1247.97281 754.528485,1248.48423 C754.869428,1248.76879 755.210371,1249.16679 755.722458,1249.33726 C756.177496,1249.5084 756.745959,1249.39431 757.144621,1249.28021 C757.315093,1249.22383 757.485564,1249.16679 757.656036,1249.16679 C757.770131,1249.16679 758.054698,1249.16679 758.509065,1250.07619 C758.907728,1250.87284 758.736585,1252.06682 758.111075,1253.03461 C757.428517,1254.11449 756.347968,1254.79772 755.267419,1254.79772 L754.982852,1254.79772 C753.219746,1254.62658 752.196244,1253.82992 751.855301,1252.52253 C751.400262,1250.64533 752.480811,1248.20033 752.992897,1247.74529 M760.840635,1250.47485 C761.409769,1250.41781 761.694335,1250.70237 762.206422,1251.15741 C762.490317,1251.44198 762.831932,1251.78292 763.286299,1251.95339 C763.684961,1252.12387 764.253424,1252.01044 764.595038,1251.95339 C764.76551,1251.89635 764.935982,1251.89635 765.049406,1251.89635 C765.276925,1251.89635 765.504444,1252.18091 765.732635,1252.693 C766.073578,1253.37489 765.902435,1254.45611 765.39102,1255.36551 C764.708463,1256.44673 763.684961,1257.01519 762.603741,1256.9011 C761.068825,1256.73063 760.158748,1256.04874 759.817805,1254.91114 C759.703709,1254.5702 759.703709,1254.17154 759.703709,1253.77355 C760.158748,1252.92052 760.386267,1252.01044 760.386267,1251.15741 C760.556739,1250.8158 760.727211,1250.58828 760.840635,1250.47485 M768.064204,1253.82992 C768.519243,1253.82992 768.803138,1254.00107 769.201129,1254.34201 C769.485696,1254.5702 769.770263,1254.8541 770.225302,1255.02524 C770.623293,1255.13799 771.078331,1255.08094 771.419946,1255.02524 C771.590417,1254.96819 771.703842,1254.96819 771.817266,1254.96819 C771.988408,1254.96819 772.15888,1255.19504 772.386399,1255.59303 C772.670966,1256.10512 772.556871,1256.9011 772.101832,1257.58433 C771.703842,1258.26689 770.90786,1258.94877 769.884358,1258.94877 L769.656839,1258.94877 C768.291723,1258.7783 767.49507,1258.26689 767.268222,1257.35614 C766.86956,1255.93465 767.665542,1254.22859 768.064204,1253.82992 M775.799189,1254.45611 C776.424699,1254.91114 777.618672,1255.76417 778.07371,1256.16216 C778.244182,1256.73063 778.130758,1258.94877 777.277728,1260.25684 C776.879066,1260.88235 776.538123,1260.88235 776.424699,1260.88235 L776.19718,1260.88235 C775.514622,1260.76893 775.002536,1260.37094 774.604545,1259.68838 C774.206554,1259.06287 774.036082,1258.26689 773.921987,1257.6407 C774.149506,1257.01519 774.206554,1256.38968 774.149506,1255.76417 C774.377025,1255.13799 774.775016,1254.62658 775.799189,1254.45611 M780.348903,1255.30914 C780.974413,1255.19504 782.282481,1255.02524 783.36303,1255.02524 C784.443579,1255.02524 784.728146,1255.19504 784.728146,1255.19504 C785.069089,1255.47961 785.751647,1257.6407 785.239561,1259.29039 C784.955665,1260.19979 784.329484,1260.71188 783.420078,1260.82597 L783.078463,1260.82597 C782.168386,1260.82597 781.429452,1260.31389 780.917366,1259.34743 C780.121384,1257.98232 780.064336,1256.16216 780.348903,1255.30914 M787.287234,1255.02524 C787.855697,1254.91114 788.936917,1254.74067 789.789947,1254.74067 C790.642976,1254.74067 790.870495,1254.91114 790.870495,1254.91114 C791.211439,1255.30914 791.893997,1257.81185 791.268486,1259.51791 C790.927543,1260.54141 790.244314,1260.76893 789.789947,1260.82597 L789.50538,1260.82597 C789.27786,1260.82597 788.538255,1260.82597 787.912745,1259.68838 C787.116763,1258.20984 787.059715,1255.99169 787.287234,1255.02524 M779.666345,1241.03381 C779.438826,1240.97676 779.211307,1240.92039 778.983787,1240.92039 C777.960286,1240.92039 777.050209,1241.48885 776.367651,1242.51235 C775.855565,1241.14791 774.889111,1240.00964 773.068957,1239.78279 L772.78439,1239.78279 C772.15888,1239.78279 771.248803,1240.06669 770.282349,1241.31838 C770.168254,1241.48885 769.997782,1241.7157 769.884358,1241.88684 C769.201129,1240.35125 767.72259,1239.3848 765.61854,1239.15728 C764.480943,1239.04318 763.400394,1239.32775 762.43327,1240.00964 C762.092326,1237.56464 760.272172,1235.97201 757.258045,1235.68744 C757.087573,1235.68744 756.917102,1235.63107 756.688911,1235.63107 C754.925805,1235.63107 753.163369,1236.59752 752.08282,1238.19016 C751.741206,1237.96264 751.513686,1237.79216 751.400262,1237.62169 C750.717705,1236.54047 750.433138,1230.68269 750.717705,1227.95313 C751.741206,1228.91958 753.390888,1230.05718 755.437891,1231.08135 C757.99765,1232.38875 762.262798,1234.2089 768.007157,1235.28945 C773.694467,1236.37067 780.00796,1236.99551 785.239561,1236.99551 C788.765774,1236.99551 793.543679,1236.71094 796.273239,1235.3465 C797.183317,1234.89146 797.979298,1234.38005 798.60548,1233.81091 L798.60548,1233.86796 L798.60548,1233.98138 C798.775952,1233.81091 798.889376,1233.69682 799.003471,1233.52635 C799.059847,1234.83441 799.059847,1236.02906 799.059847,1236.99551 C798.263865,1236.88209 797.581307,1237.16598 797.069221,1237.84921 C796.842373,1238.19016 796.67123,1238.64519 796.500759,1239.10023 C795.647729,1238.36063 794.624228,1238.01968 793.31616,1238.07673 C792.406083,1238.13378 791.610101,1238.58815 790.983919,1239.32775 C790.7564,1239.61232 790.528881,1240.00964 790.358409,1240.4083 C789.618804,1239.44118 788.424831,1238.87271 786.491253,1238.75862 C784.500627,1238.64519 782.965039,1239.95259 782.054962,1242.39893 C781.997915,1242.51235 781.997915,1242.62645 781.940867,1242.73987 C781.599924,1242.00026 780.803942,1241.31838 779.666345,1241.03381 M781.372404,1249.67887 L780.974413,1249.67887 C779.893865,1249.67887 777.562295,1249.67887 776.82269,1248.99631 C776.709266,1248.88222 776.652218,1248.5406 776.652218,1248.08624 C776.709266,1247.5171 776.765642,1246.83455 776.82269,1246.03856 C776.936114,1245.35601 777.163633,1244.61707 777.4482,1243.99089 C777.732767,1243.36538 778.30123,1242.62645 778.983787,1242.62645 C779.097883,1242.62645 779.154259,1242.62645 779.268354,1242.68349 C780.17776,1242.91101 780.803942,1243.5929 781.25898,1244.78754 C781.940867,1246.72112 781.656971,1248.99631 781.372404,1249.67887 M773.01191,1250.36076 C772.386399,1250.07619 770.850812,1249.22383 770.395773,1247.80167 C769.997782,1246.49427 770.623293,1243.82042 771.703842,1242.34188 C772.101832,1241.82979 772.500495,1241.48885 772.78439,1241.48885 L772.841438,1241.48885 C774.717969,1241.7157 775.11596,1243.5929 775.059583,1245.98219 C774.946159,1246.66407 774.889111,1247.34663 774.889111,1248.02919 C774.775016,1249.33726 773.580372,1250.07619 773.01191,1250.36076 M767.438694,1247.97281 L767.324599,1247.97281 C766.699088,1247.97281 766.358145,1247.68825 765.902435,1247.23321 C765.561492,1246.94864 765.220549,1246.55065 764.708463,1246.38018 C764.537991,1246.32313 764.310472,1246.26608 764.139329,1246.26608 C763.855433,1246.26608 763.570866,1246.32313 763.286299,1246.38018 C763.115828,1246.43723 762.945356,1246.49427 762.774884,1246.49427 C762.660789,1246.49427 762.376893,1246.49427 761.921855,1245.58352 C761.750712,1245.24191 761.694335,1244.90164 761.694335,1244.50298 C761.978231,1243.93451 762.206422,1243.25196 762.319846,1242.5694 C763.059451,1241.37543 764.253424,1240.74924 765.448068,1240.86334 C767.211175,1241.03381 768.234676,1241.82979 768.575619,1243.13853 C769.031329,1245.07144 767.950109,1247.5171 767.438694,1247.97281 M759.419143,1244.95801 L759.191623,1244.95801 C758.395641,1244.95801 757.99765,1244.61707 757.485564,1244.16203 C757.087573,1243.82042 756.745959,1243.4788 756.177496,1243.30833 C756.007025,1243.25196 755.779505,1243.19558 755.551986,1243.19558 C755.210371,1243.19558 754.925805,1243.25196 754.641909,1243.30833 C754.41439,1243.36538 754.18687,1243.42243 754.016399,1243.42243 C753.845927,1243.42243 753.504312,1243.42243 752.992897,1242.39893 C752.594235,1241.60227 752.70833,1240.4083 753.333841,1239.3848 C753.959351,1238.30358 755.324467,1237.16598 757.030526,1237.33713 C759.077528,1237.56464 760.32922,1238.41767 760.613787,1239.95259 C761.182249,1242.05731 759.931229,1244.56002 759.419143,1244.95801 M754.300294,1225.84841 L754.471437,1225.84841 C754.756004,1225.90546 755.551986,1226.41687 756.291591,1226.87191 C758.623161,1228.35045 762.43327,1230.85383 768.064204,1231.76324 C772.898486,1232.55989 779.040835,1233.4693 784.045588,1233.4693 C787.059715,1233.4693 789.334908,1233.18473 791.098015,1232.50284 C793.429584,1231.64914 794.7947,1230.22765 794.737652,1228.63502 C794.737652,1227.21352 793.543679,1225.05243 788.083216,1223.17522 C785.808695,1222.37924 784.102636,1221.81011 782.793896,1221.41212 C781.656971,1221.07117 780.746894,1220.73023 780.234808,1220.55909 C780.917366,1220.27452 782.396577,1219.93358 783.875116,1219.76244 C785.410704,1220.047 793.884623,1222.60676 797.126269,1226.24707 C798.093394,1227.32695 799.23099,1228.97663 798.946423,1230.51222 C798.718904,1231.76324 797.581307,1232.90084 795.590682,1233.86796 C793.657103,1234.83441 790.074513,1235.3465 785.296609,1235.3465 C780.17776,1235.3465 773.979034,1234.72099 768.405148,1233.69682 C759.191623,1231.99076 753.219746,1228.17998 751.684158,1226.47392 C752.31034,1226.19002 753.504312,1225.84841 754.300294,1225.84841 M781.997915,1228.29407 C781.144885,1228.12293 780.291855,1227.95313 780.00796,1227.89608 C779.836817,1227.66856 779.438826,1226.70144 779.381778,1224.82424 C779.324731,1223.63026 779.495874,1222.72086 779.609298,1222.15172 C780.234808,1222.43629 781.087837,1222.72086 782.282481,1223.06113 C783.533502,1223.45979 785.296609,1224.02893 787.571801,1224.82424 C792.633602,1226.58734 793.031593,1228.23703 793.031593,1228.69206 C793.031593,1229.37462 792.235611,1230.1706 790.983919,1230.73974 C788.083216,1229.43167 784.443579,1228.74911 781.997915,1228.29407 M799.23099,1245.29896 L799.173942,1245.35601 C799.116895,1245.18553 799.059847,1245.07144 799.059847,1244.90164 C798.946423,1244.56002 798.832328,1244.10499 798.661856,1243.5929 C798.60548,1243.4788 798.60548,1243.42243 798.548432,1243.30833 C798.491385,1242.85396 798.434337,1242.39893 798.263865,1242.00026 C798.150441,1240.74924 798.263865,1239.49822 798.661856,1238.92976 C798.775952,1238.75862 798.832328,1238.75862 798.889376,1238.75862 L799.003471,1238.75862 C799.514886,1238.87271 799.913548,1239.32775 800.08402,1240.18078 C800.539058,1242.22778 799.685357,1244.95801 799.23099,1245.29896 M797.865874,1253.43193 C797.922251,1253.20509 797.979298,1253.03461 798.036346,1252.86347 C798.548432,1252.52253 799.288038,1252.18091 799.742405,1252.12387 C800.08402,1252.75005 800.539058,1255.36551 799.913548,1256.9011 C799.628981,1257.58433 799.288038,1257.69775 799.003471,1257.7548 L798.832328,1257.7548 C798.775952,1257.7548 798.661856,1257.7548 798.548432,1257.69775 C798.718904,1256.21921 798.377961,1254.51315 797.865874,1253.43193 M792.861121,1255.08094 C792.861121,1255.02524 792.917498,1254.91114 792.917498,1254.8541 C793.827575,1254.45611 795.306115,1253.88697 796.04572,1253.88697 L796.216192,1253.88697 C796.557806,1254.34201 797.183317,1256.50378 796.728278,1258.26689 C796.443711,1259.23334 795.932296,1259.85952 795.079267,1260.08637 C794.908124,1260.14275 794.7947,1260.14275 794.680604,1260.14275 C794.282613,1260.14275 793.884623,1259.85952 793.543679,1259.29039 C793.429584,1259.06287 793.31616,1258.89173 793.259112,1258.60716 C793.373207,1257.41319 793.202065,1256.04874 792.861121,1255.08094 M791.38191,1251.04332 C791.83762,1251.27151 792.349035,1251.38493 792.974545,1251.38493 C793.998718,1251.38493 795.249738,1251.04332 796.443711,1250.47485 C796.728278,1250.36076 796.955797,1250.19029 797.183317,1250.07619 C797.467883,1250.36076 797.695403,1250.64533 797.922251,1250.98694 C797.353788,1251.27151 796.955797,1251.5554 796.785326,1251.6695 L796.614854,1251.78292 L796.557806,1251.95339 C796.500759,1252.01044 796.500759,1252.12387 796.443711,1252.18091 C796.330287,1252.18091 796.159144,1252.12387 796.04572,1252.12387 C794.624228,1252.12387 792.519507,1253.09099 791.951044,1253.37489 C791.040967,1252.80642 790.074513,1252.40843 789.164436,1252.06682 C790.017466,1251.89635 790.813448,1251.5554 791.38191,1251.04332 M790.301362,1247.00502 C790.358409,1247.74529 790.415457,1248.48423 790.472504,1249.33726 C790.472504,1249.5084 790.415457,1249.62182 790.301362,1249.73592 C789.846323,1250.24733 788.481879,1250.58828 786.889244,1250.58828 C785.353656,1250.58828 784.102636,1250.24733 783.703974,1249.90639 C783.533502,1249.73592 783.36303,1249.28021 783.305983,1248.6547 C783.36303,1247.85872 783.36303,1246.89159 783.249606,1245.92514 C783.305983,1244.95801 783.533502,1243.87747 783.875116,1242.91101 C784.500627,1241.31838 785.353656,1240.52172 786.434205,1240.52172 L786.5483,1240.52172 C789.789947,1240.74924 789.960418,1242.05731 790.301362,1247.00502 M796.842373,1247.74529 C796.842373,1247.91577 796.842373,1248.08624 796.785326,1248.25738 C796.387335,1248.71175 794.453085,1249.67887 792.974545,1249.67887 C792.576554,1249.67887 792.349035,1249.62182 792.121516,1249.5084 L792.121516,1249.16679 C792.064468,1248.37013 792.007421,1247.57415 791.951044,1246.89159 C791.83762,1245.41305 791.780573,1244.10499 791.553053,1242.96806 C791.723525,1241.94389 792.007421,1241.03381 792.519507,1240.4083 C792.861121,1240.00964 793.202065,1239.78279 793.600056,1239.78279 L793.827575,1239.78279 C794.56718,1239.78279 795.192691,1240.00964 795.647729,1240.52172 C797.240364,1242.22778 796.955797,1246.26608 796.842373,1247.74529 M800.994097,1250.98694 C800.766577,1250.75942 800.424963,1250.47485 799.799453,1250.47485 C799.401462,1249.90639 799.003471,1249.33726 798.434337,1248.82517 C798.491385,1248.71175 798.491385,1248.5406 798.491385,1248.42718 C798.491385,1248.31376 798.491385,1248.14328 798.548432,1247.91577 C798.548432,1247.74529 798.60548,1247.5171 798.60548,1247.23321 C798.718904,1247.23321 798.775952,1247.28958 798.889376,1247.28958 C799.288038,1247.28958 799.685357,1247.11911 800.141067,1246.7775 C801.505512,1245.86809 802.18807,1242.28483 801.790079,1240.00964 C801.619607,1239.21366 801.33504,1238.5311 800.937049,1238.01968 C800.994097,1236.25658 800.880002,1234.15186 800.822954,1231.70619 L800.70953,1229.77261 C800.70953,1228.63502 799.969924,1226.64439 798.434337,1224.99538 C794.453085,1220.61614 784.955665,1218.11342 784.045588,1218 L783.931493,1218 L783.818069,1218 C778.642173,1218.56846 778.415325,1219.76244 778.30123,1220.1611 C778.244182,1220.50271 778.016663,1221.35574 777.960286,1221.52554 C777.4482,1223.51684 777.391152,1228.63502 779.268354,1229.37462 C779.666345,1229.54576 780.348903,1229.65919 781.599924,1229.88604 C783.249606,1230.1706 785.751647,1230.68269 788.083216,1231.36525 C786.889244,1231.53572 785.581175,1231.64914 783.98854,1231.64914 C779.097883,1231.64914 773.01191,1230.73974 768.291723,1230.00013 C763.115828,1229.20415 759.419143,1226.87191 757.258045,1225.45042 C756.177496,1224.76786 755.437891,1224.31282 754.869428,1224.1994 C754.698956,1224.14235 754.528485,1224.14235 754.357342,1224.14235 C753.618408,1224.14235 751.229791,1224.48396 750.205618,1225.33632 C750.148571,1225.33632 750.092194,1225.39337 749.978099,1225.45042 C749.694203,1225.62089 748.89755,1226.13298 749.010974,1231.76324 C749.068022,1233.41225 749.238494,1237.33713 750.092194,1238.64519 C750.262666,1238.92976 750.717705,1239.2707 751.400262,1239.78279 C751.0016,1240.97676 751.058648,1242.17141 751.570734,1243.19558 C752.253292,1244.50298 753.049274,1245.12849 754.129823,1245.12849 C754.471437,1245.12849 754.81238,1245.07144 755.096947,1244.95801 C755.324467,1244.90164 755.609034,1244.84459 755.666081,1244.90164 C755.835882,1244.95801 756.063401,1245.18553 756.347968,1245.41305 C756.917102,1245.92514 757.770131,1246.66407 759.191623,1246.66407 L759.646662,1246.66407 C759.874181,1246.66407 760.158748,1246.55065 760.386267,1246.32313 C761.011778,1247.57415 761.750712,1248.20033 762.774884,1248.20033 C763.115828,1248.20033 763.457442,1248.14328 763.684961,1248.02919 C763.855433,1247.97281 764.025905,1247.91577 764.139329,1247.91577 C764.310472,1247.91577 764.480943,1248.20033 764.708463,1248.37013 C765.276925,1248.88222 766.016531,1249.62182 767.324599,1249.62182 L767.779637,1249.62182 C768.177628,1249.56478 768.632667,1249.22383 768.974281,1248.76879 C769.997782,1251.10036 772.670966,1252.06682 772.78439,1252.06682 L773.068957,1252.18091 L773.353524,1252.06682 C773.409901,1252.01044 774.832064,1251.49903 775.799189,1250.30371 C776.936114,1251.27151 778.983787,1251.38493 780.974413,1251.38493 L781.656971,1251.38493 L781.714019,1251.38493 C781.997915,1251.38493 782.282481,1251.27151 782.510001,1251.04332 C782.567048,1251.10036 782.624096,1251.15741 782.680472,1251.21446 C782.73752,1251.27151 782.793896,1251.27151 782.850944,1251.32788 C783.078463,1251.72587 783.305983,1252.01044 783.647597,1252.12387 C783.98854,1252.23796 784.443579,1252.35138 785.069089,1252.52253 C785.6946,1252.693 786.5483,1252.92052 787.457706,1253.20509 C786.94562,1253.26213 786.604677,1253.37489 786.5483,1253.37489 L786.149638,1253.43193 L785.979166,1253.77355 C785.979166,1253.82992 785.92279,1253.88697 785.92279,1253.88697 C785.865742,1253.82992 785.808695,1253.77355 785.808695,1253.77355 C785.353656,1253.43193 784.557003,1253.26213 783.420078,1253.26213 C781.771066,1253.26213 779.779769,1253.60241 779.723393,1253.65945 L779.381778,1253.7165 L779.154259,1254.00107 C779.040835,1254.17154 778.983787,1254.34201 778.870363,1254.51315 C778.016663,1253.82992 776.765642,1252.97757 776.595171,1252.80709 L776.367651,1252.63595 L776.083084,1252.63595 C774.775016,1252.693 773.921987,1253.20509 773.409901,1253.82992 C773.01191,1253.37489 772.500495,1253.14804 771.931361,1253.14804 C771.647465,1253.14804 771.362898,1253.20509 771.135379,1253.26213 C771.021284,1253.26213 770.90786,1253.31851 770.850812,1253.31851 C770.737388,1253.26213 770.566245,1253.14804 770.452821,1252.97757 C769.997782,1252.52253 769.258177,1251.89635 767.836685,1252.01044 C767.72259,1252.01044 767.609166,1252.06682 767.552118,1252.12387 C767.49507,1252.01044 767.49507,1251.89635 767.438694,1251.78292 C766.86956,1250.58828 766.130626,1250.01982 765.220549,1250.01982 C764.878934,1250.01982 764.595038,1250.07619 764.367519,1250.13324 C764.253424,1250.19029 764.082952,1250.19029 764.025905,1250.19029 C763.912481,1250.13324 763.741338,1249.96344 763.513819,1249.7923 C763.002404,1249.28021 762.206422,1248.48423 760.670834,1248.6547 C760.443315,1248.6547 760.272172,1248.76879 760.044653,1248.93927 C759.47619,1247.91577 758.736585,1247.40368 757.826508,1247.40368 C757.485564,1247.40368 757.144621,1247.57415 756.917102,1247.6312 C756.745959,1247.68825 756.575487,1247.85872 756.462063,1247.85872 C756.291591,1247.28958 756.120449,1247.46073 755.892929,1247.28958 C755.267419,1246.72112 754.471437,1245.754 752.821755,1245.98219 C752.139197,1246.03856 751.45731,1246.89159 750.945224,1247.97281 C750.660657,1247.85872 750.319714,1247.91577 750.092194,1248.08624 C749.807627,1248.25738 749.010974,1248.76879 749.12507,1254.39906 C749.182117,1256.04874 749.352589,1259.97295 750.205618,1261.28101 C751.45731,1263.15754 766.528617,1271.063 782.850944,1271.063 C787.17381,1271.063 791.610101,1270.49387 795.875248,1269.12942 C800.766577,1267.53679 801.277992,1265.03475 801.107521,1258.32393 C801.33504,1258.03937 801.562559,1257.69775 801.676655,1257.18567 C802.302165,1255.19504 801.733031,1251.78292 800.994097,1250.98694" id="flexible-protez-small-icon"></path>
        </g>
    </g>
</svg>