<svg width="106" height="106" viewBox="0 0 106 106" xmlns="http://www.w3.org/2000/svg"><title>3d-icon</title><g fill="#14C180" fill-rule="evenodd"><path d="M97.452 90.613H8.548a5.129 5.129 0 0 1-5.129-5.13v-3.418h99.162v3.419a5.129 5.129 0 0 1-5.13 5.129zM32.484 102.58h41.032v-8.549H32.484v8.549zM8.548 29.065h11.968v20.758c-3.443.895-5.856 4.379-4.93 8.265.564 2.371 2.455 4.315 4.814 4.93 3.154.826 6.07-.567 7.582-2.94l28.477 7.91c-.007.136-.04.262-.04.4a6.85 6.85 0 0 0 8.149 6.716c2.33-.434 4.29-2.162 5.105-4.39.732-1.999.451-3.845-.335-5.394l9.48-5.926c1.62 1.715 4.096 2.61 6.755 1.92 2.381-.615 4.293-2.576 4.85-4.973.901-3.871-1.506-7.335-4.94-8.227v-19.05h11.969a5.129 5.129 0 0 1 5.129 5.13v44.451H3.419V34.194a5.129 5.129 0 0 1 5.13-5.13zm13.859-11.968a3.423 3.423 0 0 1 3.42 3.42 3.423 3.423 0 0 1-3.42 3.418 3.423 3.423 0 0 1-3.42-3.419 3.423 3.423 0 0 1 3.42-3.42zm18.625-3.662V24.25l-12.009-3.336c.009-.135.042-.261.042-.398 0-1.108-.29-2.14-.76-3.067l9.48-5.926a6.812 6.812 0 0 0 3.247 1.912zm1.891-10.016a3.423 3.423 0 0 1 3.42 3.42 3.423 3.423 0 0 1-3.42 3.42 3.423 3.423 0 0 1-3.42-3.42 3.423 3.423 0 0 1 3.42-3.42zm34.054 14.99c-.009.134-.042.26-.042.397 0 .585.096 1.143.235 1.684l-10.106 6.316a6.796 6.796 0 0 0-3.806-1.16c-2.423 0-4.543 1.273-5.756 3.18L44.452 25.2V13.435a6.824 6.824 0 0 0 4.046-2.938l28.479 7.911zm6.978-3.022a3.423 3.423 0 0 1 3.42 3.42 3.423 3.423 0 0 1-3.42 3.419 3.423 3.423 0 0 1-3.419-3.42 3.423 3.423 0 0 1 3.42-3.419zM80.536 54.71a3.423 3.423 0 0 1 3.42-3.42 3.423 3.423 0 0 1 3.419 3.42 3.423 3.423 0 0 1-3.42 3.419 3.423 3.423 0 0 1-3.419-3.42zm-13.47 8.001a6.773 6.773 0 0 0-2.098-.918V50.977l12.009 3.336c-.009.133-.042.26-.042.397 0 .584.096 1.142.235 1.684L67.066 62.71zm-3.627 2.257a3.423 3.423 0 0 1 3.42 3.42 3.423 3.423 0 0 1-3.42 3.418 3.423 3.423 0 0 1-3.42-3.419 3.423 3.423 0 0 1 3.42-3.42zM22.407 53a3.423 3.423 0 0 1 3.42 3.42 3.423 3.423 0 0 1-3.42 3.419 3.423 3.423 0 0 1-3.42-3.42A3.423 3.423 0 0 1 22.408 53zm17.097-10.258a3.423 3.423 0 0 1 3.42-3.42 3.423 3.423 0 0 1 3.419 3.42 3.423 3.423 0 0 1-3.42 3.42 3.423 3.423 0 0 1-3.42-3.42zm27.355-10.258a3.423 3.423 0 0 1-3.42 3.42 3.423 3.423 0 0 1-3.42-3.42 3.423 3.423 0 0 1 3.42-3.42 3.423 3.423 0 0 1 3.42 3.42zm15.206-7.082v22.712a6.824 6.824 0 0 0-4.047 2.937l-13.05-3.625V39.08c2.94-.764 5.129-3.418 5.129-6.596 0-1.108-.29-2.14-.76-3.067l9.48-5.926a6.812 6.812 0 0 0 3.248 1.911zM61.548 39.08v7.396L49.54 43.14c.008-.135.04-.261.04-.398 0-3.178-2.188-5.832-5.128-6.596V28.75l12.008 3.336c-.008.135-.04.261-.04.398 0 3.178 2.188 5.832 5.128 6.596zM27.984 24.177L41.032 27.8v8.345c-2.94.764-5.129 3.418-5.129 6.596 0 .585.098 1.142.236 1.682l-10.106 6.318a6.733 6.733 0 0 0-2.098-.919v-22.71a6.82 6.82 0 0 0 4.049-2.936zm29.518 40.551l-28.477-7.91c.007-.135.04-.262.04-.399 0-1.108-.29-2.14-.76-3.067l9.48-5.926c1.249 1.32 3.003 2.155 4.957 2.155 2.423 0 4.543-1.274 5.756-3.18l13.05 3.624v11.766a6.824 6.824 0 0 0-4.046 2.937zm39.95-39.083H85.484v-.243c3.443-.894 5.856-4.378 4.93-8.264-.564-2.373-2.455-4.315-4.814-4.93-3.154-.827-6.07.567-7.582 2.94L49.54 7.238c.008-.136.04-.263.04-.4 0-3.99-3.432-7.192-7.501-6.806-1.334.125-2.585.773-3.543 1.712-2.845 2.792-2.882 4.88-2.399 6.779L26.033 14.84c-1.552-1.045-3.55-1.472-5.643-.922-2.338.614-4.206 2.533-4.79 4.878-.678 2.743.322 5.252 2.15 6.85H8.548A8.547 8.547 0 0 0 0 34.193v51.29a8.547 8.547 0 0 0 8.548 8.548h20.517v8.549h-6.84V106h61.55v-3.42h-6.84v-8.548h20.517A8.547 8.547 0 0 0 106 85.484v-51.29a8.547 8.547 0 0 0-8.548-8.549z"/><path d="M10.258 35.903h5.13v-3.42h-8.55v8.55h3.42zm88.903 30.774h-3.42v5.13h-5.128v3.419h8.548zm-83.774 5.129h-5.129v-5.129h-3.42v8.549h8.55zm80.355-30.774h3.42v-8.548h-8.55v3.42h5.13z"/></g></svg>