<svg width="52" height="58" viewBox="0 0 52 58" xmlns="http://www.w3.org/2000/svg" xmlns:xlink="http://www.w3.org/1999/xlink"><title>bugel-protez-small-icon</title><defs><path id="a" d="M.335 44h18.002V0H.335v44z"/></defs><g fill="none" fill-rule="evenodd"><g transform="translate(16 13.667)"><mask id="b" fill="#fff"><use xlink:href="#a"/></mask><path d="M14.333 15.95l-2.32.77a.996.996 0 1 0 .32 1.94c.1 0 .21-.02.32-.05l1.68-.56v3.89l-2.32.77a.996.996 0 1 0 .32 1.94c.1 0 .21-.02.32-.05l1.68-.56v3.89l-2.32.77a.995.995 0 1 0 .32 1.939c.1 0 .21-.019.32-.049l1.68-.56V34h-2v4.67L9.833 42h-1l-2.5-3.33V34h-2v-.9l4.3-1.37a1 1 0 0 0 .65-1.26.999.999 0 0 0-1.26-.65L4.333 31v-3.9l4.3-1.37a1 1 0 0 0 .65-1.26.999.999 0 0 0-1.26-.65L4.333 25v-3.9l4.3-1.37a1 1 0 0 0 .65-1.26.999.999 0 0 0-1.26-.65L4.333 19v-3.9l4.3-1.37a1 1 0 0 0 .65-1.26.999.999 0 0 0-1.26-.65L4.333 13v-3h9.84l-2.16.72a.996.996 0 1 0 .32 1.94c.1 0 .21-.02.32-.05l1.68-.56v3.9zm-10-11.53L6.753 2h5.17l2.41 2.41V8h-10V4.42zm13.32 6.53c.52-.17.81-.74.63-1.26a1 1 0 0 0-1.27-.63l-.68.23v-5.7L12.753 0h-6.83l-3.59 3.59v10.04l-1.3.41a.998.998 0 0 0-.65 1.26c.14.43.53.7.95.7.1 0 .2-.01.3-.05l.7-.22v3.9l-1.3.41a.998.998 0 0 0-.65 1.26c.14.43.53.7.95.7.1 0 .2-.01.3-.05l.7-.22v3.9l-1.3.41a.998.998 0 0 0-.65 1.26c.14.43.53.7.95.7.1 0 .2-.01.3-.05l.7-.22v3.9l-1.3.41a.998.998 0 0 0-.65 1.26c.14.43.53.7.95.7.1 0 .2-.01.3-.05l.7-.22V36h2v3.33l3.5 4.67h3l3.5-4.67V36h2v-6.61l1.32-.44c.52-.17.81-.74.63-1.26a1 1 0 0 0-1.27-.63l-.68.23V23.4l1.32-.44c.52-.17.81-.74.63-1.26a.997.997 0 0 0-1.27-.63l-.68.23v-3.89l1.32-.44c.52-.17.81-.74.63-1.26a.999.999 0 0 0-1.27-.63l-.68.23v-3.89l1.32-.47z" fill="#13C180" mask="url(#b)"/></g><path d="M51.122 10.906c-.83-3.17-3.25-6.19-6.83-8.51-4.41-2.87-10.64-3.18-16.27-.83l-.2.09c-.09.04-.19.08-.28.12-.47.17-.83.31-1.13.42-.94.37-.94.37-2.48-.09-4.4-1.31-9.99-2.62-14.28-1.08-5.8 2.069-10.95 8.95-9.36 19.63.19 1.26.37 2.53.55 3.8.44 3.03.89 6.16 1.41 9.25a5.206 5.206 0 0 0 2.33 3.5c.83.52 1.77.79 2.72.79.44 0 .88-.06 1.32-.18 1.65-.46 3.47-.82 5.56-1.11.55-.08.93-.58.85-1.13a.995.995 0 0 0-1.13-.85c-2.18.3-4.08.68-5.82 1.159-.82.231-1.68.101-2.42-.369a3.166 3.166 0 0 1-1.43-2.15c-.52-3.07-.97-6.18-1.41-9.2-.18-1.281-.37-2.55-.55-3.81-1.42-9.56 3.02-15.66 8.05-17.46 3.79-1.36 9.25-.011 13.04 1.11 2.02.6 2.33.61 3.78.04.28-.11.62-.241 1.06-.4.14-.051.28-.11.43-.17l.17-.07c5.02-2.101 10.54-1.851 14.41.67 3.16 2.05 5.28 4.66 5.98 7.34 1.77 6.75.48 14.48-1.18 21.82-.19.83-.68 1.52-1.4 1.96-.73.45-1.59.58-2.43.37-2.36-.59-5-1-8.07-1.25a1 1 0 0 0-1.08.92c-.04.55.37 1.03.92 1.08 2.95.239 5.49.63 7.74 1.19 1.37.339 2.78.129 3.96-.6 1.18-.72 1.99-1.87 2.3-3.23 1.72-7.6 3.05-15.6 1.17-22.77" fill="#13C180"/></g></svg>