<svg width="103" height="103" viewBox="0 0 103 103" xmlns="http://www.w3.org/2000/svg" xmlns:xlink="http://www.w3.org/1999/xlink"><title>cad-icon</title><defs><path id="a" d="M0 103h103V0H0z"/></defs><g fill="none" fill-rule="evenodd"><path d="M58.367 46.35c0 .95-.768 1.717-1.717 1.717h-41.2c-.95 0-1.717-.768-1.717-1.717V12.017a5.15 5.15 0 0 1 5.15-5.15h34.334a5.15 5.15 0 0 1 5.15 5.15V46.35zm-41.2-1.717h37.766V12.017c0-.95-.767-1.717-1.716-1.717H18.883c-.949 0-1.716.767-1.716 1.717v32.616z" fill="#13C180"/><mask id="b" fill="#fff"><use xlink:href="#a"/></mask><path d="M30.9 17.167h10.3V10.3H30.9v6.867zM29.183 20.6h13.734c.949 0 1.716-.767 1.716-1.717v-10.3c0-.949-.767-1.716-1.716-1.716H29.183c-.949 0-1.716.767-1.716 1.716v10.3c0 .95.767 1.717 1.716 1.717zm-20.6 78.967h6.867v-20.6H8.583v20.6zM6.867 103h10.3c.949 0 1.716-.767 1.716-1.717V77.25c0-.95-.767-1.717-1.716-1.717h-10.3c-.95 0-1.717.768-1.717 1.717v24.033c0 .95.767 1.717 1.717 1.717zm80.683-3.433h6.867v-20.6H87.55v20.6zM85.833 103h10.3c.95 0 1.717-.767 1.717-1.717V77.25c0-.95-.767-1.717-1.717-1.717h-10.3c-.949 0-1.716.768-1.716 1.717v24.033c0 .95.767 1.717 1.716 1.717z" fill="#13C180" mask="url(#b)"/><path d="M3.433 75.533h96.134V58.367H3.433v17.166zm-1.716 3.434h99.566c.95 0 1.717-.768 1.717-1.717v-20.6c0-.95-.767-1.717-1.717-1.717H1.717c-.95 0-1.717.768-1.717 1.717v20.6c0 .95.767 1.717 1.717 1.717z" fill="#13C180" mask="url(#b)"/><path d="M68.667 56.65v-10.3c0-.95-.768-1.717-1.717-1.717H10.557c-3.299 0-6.334 2.211-6.981 5.447a6.874 6.874 0 0 0 6.724 8.287h56.65c.95 0 1.717-.768 1.717-1.717zM10.3 54.933c-2.257 0-4.008-2.182-3.257-4.55.454-1.43 1.9-2.316 3.401-2.316h54.79v6.866H10.3zM1.717 103h99.566c.95 0 1.717-.767 1.717-1.717 0-.949-.767-1.716-1.717-1.716H1.717c-.95 0-1.717.767-1.717 1.716 0 .95.767 1.717 1.717 1.717" fill="#13C180" mask="url(#b)"/><path d="M68.667 54.933h30.9v-51.5h-30.9v51.5zm-1.717 3.434h34.333c.95 0 1.717-.768 1.717-1.717V1.717c0-.95-.767-1.717-1.717-1.717H66.95c-.95 0-1.717.767-1.717 1.717V56.65c0 .95.768 1.717 1.717 1.717z" fill="#13C180" mask="url(#b)"/><path d="M75.533 20.6H92.7V10.3H75.533v10.3zm-1.716 3.433h20.6c.949 0 1.716-.767 1.716-1.716V8.583c0-.949-.767-1.716-1.716-1.716h-20.6c-.95 0-1.717.767-1.717 1.716v13.734c0 .949.767 1.716 1.717 1.716zM72.1 28.612v5.15a1.716 1.716 0 1 0 3.433 0v-5.15c0-.95-.767-1.717-1.716-1.717-.95 0-1.717.767-1.717 1.717m20.6 0v5.15a1.716 1.716 0 1 0 3.433 0v-5.15c0-.95-.767-1.717-1.716-1.717-.95 0-1.717.767-1.717 1.717m-6.867 0v5.15a1.716 1.716 0 1 0 3.434 0v-5.15c0-.95-.768-1.717-1.717-1.717-.95 0-1.717.767-1.717 1.717m-6.866 0v5.15a1.716 1.716 0 1 0 3.433 0v-5.15c0-.95-.767-1.717-1.717-1.717-.949 0-1.716.767-1.716 1.717M75.533 46.35h3.434v-3.433h-3.434v3.433zm-1.716 3.433h6.866c.95 0 1.717-.767 1.717-1.716V41.2c0-.95-.767-1.717-1.717-1.717h-6.866c-.95 0-1.717.768-1.717 1.717v6.867c0 .949.767 1.716 1.717 1.716zm15.45-3.433H92.7v-3.433h-3.433v3.433zm-1.717 3.433h6.867c.949 0 1.716-.767 1.716-1.716V41.2c0-.95-.767-1.717-1.716-1.717H87.55c-.95 0-1.717.768-1.717 1.717v6.867c0 .949.768 1.716 1.717 1.716zM30.9 30.9h10.3c.95 0 1.717-.767 1.717-1.717 0-.949-.768-1.716-1.717-1.716H30.9a1.715 1.715 0 1 0 0 3.433m-3.433 6.867h17.166c.95 0 1.717-.768 1.717-1.717 0-.95-.767-1.717-1.717-1.717H27.467c-.95 0-1.717.768-1.717 1.717 0 .95.767 1.717 1.717 1.717m-5.15 28.611a5.15 5.15 0 1 0-10.3 0 5.15 5.15 0 0 0 10.3 0m-3.434 0c0 .95-.767 1.717-1.716 1.717-.95 0-1.717-.767-1.717-1.717 0-.949.767-1.716 1.717-1.716.949 0 1.716.767 1.716 1.716m17.167 0a5.15 5.15 0 1 0-10.3 0 5.15 5.15 0 0 0 10.3 0m-3.433 0c0 .95-.768 1.717-1.717 1.717-.95 0-1.717-.767-1.717-1.717 0-.949.768-1.716 1.717-1.716.95 0 1.717.767 1.717 1.716m17.166 0a5.15 5.15 0 1 0-10.299 0 5.15 5.15 0 0 0 10.3 0m-3.434 0c0 .95-.767 1.717-1.717 1.717a1.715 1.715 0 0 1-1.716-1.717c0-.949.767-1.716 1.716-1.716.95 0 1.717.767 1.717 1.716m17.167 0a5.15 5.15 0 1 0-10.3 0 5.15 5.15 0 0 0 10.3 0m-3.434 0c0 .95-.767 1.717-1.716 1.717-.95 0-1.717-.767-1.717-1.717 0-.949.767-1.716 1.717-1.716.949 0 1.716.767 1.716 1.716m17.167 0a5.15 5.15 0 1 0-10.3 0 5.15 5.15 0 0 0 10.3 0m-3.433 0c0 .95-.768 1.717-1.717 1.717-.95 0-1.717-.767-1.717-1.717 0-.949.768-1.716 1.717-1.716.95 0 1.717.767 1.717 1.716m17.166 0a5.15 5.15 0 1 0-10.299 0 5.15 5.15 0 0 0 10.3 0m-3.434 0c0 .95-.767 1.717-1.717 1.717a1.715 1.715 0 0 1-1.716-1.717c0-.949.767-1.716 1.716-1.716.95 0 1.717.767 1.717 1.716" fill="#13C180" mask="url(#b)"/></g></svg>