<svg width="26" height="26" viewBox="0 0 26 26" xmlns="http://www.w3.org/2000/svg"><title>facebook-icon</title><path d="M21.125 0c1.343 0 2.491.477 3.445 1.43.953.954 1.43 2.102 1.43 3.445v16.25c0 1.343-.477 2.491-1.43 3.445-.954.953-2.102 1.43-3.445 1.43h-3.182V15.928h3.368l.508-3.927h-3.876V9.496c0-.632.132-1.106.397-1.422.266-.316.782-.474 1.55-.474l2.064-.017V4.08c-.71-.101-1.715-.152-3.013-.152-1.534 0-2.762.451-3.681 1.354-.92.903-1.38 2.178-1.38 3.826V12h-3.385v3.927h3.385V26H4.875c-1.343 0-2.491-.477-3.445-1.43C.477 23.616 0 22.468 0 21.125V4.875C0 3.532.477 2.384 1.43 1.43 2.384.477 3.532 0 4.875 0h16.25z" fill="#14C180" fill-rule="evenodd"/></svg>