<svg width="99" height="100" viewBox="0 0 99 100" xmlns="http://www.w3.org/2000/svg"><title>flexible-protez-icon</title><path d="M86.481 92.84c-7.763 2.446-15.74 3.51-23.503 3.51-29.67 0-56.47-14.464-58.278-16.91-.85-1.381-1.383-6.807-1.488-11.697 1.383 2.34 4.04 3.829 7.551 4.254h.956c2.02 0 3.935-.745 5.53-2.022.957 3.19 3.722 5.212 7.764 5.637h.851c1.807 0 3.509-.637 4.997-1.701.744 3.19 3.298 5.21 7.233 5.636h.744c1.915 0 3.722-.745 5.21-2.127.214.639.532 1.382.958 2.02 1.17 1.915 2.978 3.19 4.998 3.616.32.107.745.107 1.063.107 1.277 0 3.723-.532 5.318-4.467.106-.105.106-.319.106-.424 0 .105.107.212.107.319 1.595 2.871 4.041 4.465 6.912 4.465.32 0 .638 0 1.063-.105 2.446-.32 4.361-1.596 5.424-3.617 1.383 2.34 3.404 3.617 5.743 3.617.319 0 .637 0 .958-.107 2.02-.319 3.615-1.382 4.573-3.085 1.381 1.49 2.871 1.915 3.934 1.915a4.79 4.79 0 0 0 1.702-.319c2.232-.638 3.829-2.127 4.678-4.254.426.107.851.214 1.276.214.32 0 .64 0 .958-.107.425 11.059-.744 13.506-7.338 15.633M7.466 55.62c1.275-.107 1.914.425 2.872 1.382.637.532 1.275 1.276 2.232 1.595.851.32 1.914.106 2.66-.107.318-.105.637-.212.956-.212.213 0 .745 0 1.595 1.7.745 1.49.425 3.723-.744 5.532-1.277 2.02-3.297 3.297-5.318 3.297h-.532c-3.297-.32-5.21-1.81-5.848-4.254-.85-3.51 1.17-8.082 2.127-8.933m14.675 5.104c1.064-.107 1.596.425 2.553 1.276.531.532 1.17 1.17 2.02 1.489.745.318 1.808.106 2.447 0 .319-.107.637-.107.85-.107.425 0 .85.532 1.277 1.49.637 1.275.317 3.296-.639 4.997-1.276 2.022-3.19 3.085-5.212 2.871-2.87-.319-4.572-1.594-5.21-3.72-.212-.638-.212-1.384-.212-2.128.85-1.595 1.276-3.297 1.276-4.892.319-.639.637-1.064.85-1.276m13.507 6.273c.85 0 1.381.32 2.126.958.532.427 1.064.958 1.915 1.278.744.21 1.595.104 2.233 0 .32-.107.531-.107.743-.107.32 0 .64.424 1.065 1.168.532.958.318 2.446-.532 3.724-.745 1.276-2.233 2.551-4.147 2.551h-.425c-2.553-.319-4.043-1.275-4.467-2.978-.745-2.658.743-5.848 1.489-6.594m14.463 1.171c1.17.851 3.402 2.446 4.253 3.19.319 1.063.107 5.211-1.488 7.657-.746 1.17-1.383 1.17-1.595 1.17h-.426c-1.276-.212-2.234-.957-2.978-2.233-.744-1.17-1.063-2.658-1.276-3.829.425-1.17.532-2.34.425-3.509.426-1.17 1.17-2.127 3.085-2.446m8.508 1.595c1.17-.213 3.615-.53 5.636-.53 2.02 0 2.552.317 2.552.317.638.532 1.914 4.573.956 7.658-.53 1.7-1.701 2.658-3.402 2.871h-.639c-1.701 0-3.083-.957-4.04-2.764-1.489-2.553-1.596-5.957-1.063-7.552m12.973-.53c1.063-.214 3.085-.533 4.68-.533 1.595 0 2.02.32 2.02.32.638.743 1.914 5.423.745 8.613-.638 1.914-1.915 2.34-2.765 2.446h-.532c-.425 0-1.808 0-2.978-2.127-1.488-2.765-1.595-6.912-1.17-8.72M57.342 43.07c-.425-.106-.85-.212-1.276-.212-1.914 0-3.616 1.063-4.892 2.977-.957-2.551-2.765-4.68-6.168-5.104h-.532c-1.17 0-2.872.53-4.679 2.871-.213.32-.532.743-.744 1.063-1.277-2.871-4.042-4.678-7.976-5.104-2.128-.213-4.148.32-5.956 1.594-.638-4.572-4.041-7.55-9.677-8.082-.32 0-.638-.105-1.065-.105-3.296 0-6.592 1.807-8.613 4.785-.638-.425-1.064-.744-1.276-1.063-1.276-2.022-1.808-12.975-1.276-18.079 1.914 1.807 4.998 3.934 8.826 5.85 4.786 2.444 12.762 5.848 23.503 7.868 10.635 2.022 22.44 3.19 32.222 3.19 6.594 0 15.528-.532 20.632-3.083 1.702-.851 3.19-1.807 4.361-2.872v.319c.319-.319.53-.532.744-.85.106 2.445.106 4.68.106 6.486-1.489-.212-2.765.319-3.723 1.597-.424.637-.744 1.488-1.063 2.339-1.595-1.383-3.508-2.02-5.954-1.914-1.702.107-3.19.956-4.361 2.34-.426.531-.851 1.274-1.17 2.02-1.383-1.809-3.616-2.872-7.231-3.085-3.722-.212-6.594 2.233-8.295 6.807-.107.212-.107.425-.214.637-.637-1.383-2.126-2.658-4.253-3.19m3.19 16.166h-.744c-2.02 0-6.38 0-7.763-1.277-.212-.213-.319-.852-.319-1.702.107-1.064.212-2.34.319-3.828a15.924 15.924 0 0 1 1.17-3.83c.532-1.169 1.595-2.55 2.87-2.55.214 0 .32 0 .533.106 1.7.425 2.871 1.7 3.722 3.934 1.275 3.616.744 7.87.212 9.147M44.9 60.51c-1.17-.533-4.04-2.126-4.892-4.786-.744-2.444.426-7.444 2.446-10.209.745-.957 1.49-1.595 2.02-1.595h.107c3.51.424 4.254 3.935 4.148 8.402a23.294 23.294 0 0 0-.319 3.828c-.213 2.446-2.447 3.827-3.51 4.36m-10.421-4.466h-.213c-1.17 0-1.807-.532-2.66-1.383-.637-.532-1.275-1.276-2.232-1.595-.319-.106-.744-.213-1.064-.213-.531 0-1.063.107-1.595.213-.32.107-.638.214-.957.214-.213 0-.744 0-1.595-1.703-.32-.64-.425-1.275-.425-2.02a13.11 13.11 0 0 0 1.17-3.616c1.382-2.233 3.615-3.404 5.849-3.19 3.297.318 5.21 1.807 5.848 4.254.852 3.614-1.17 8.187-2.126 9.04m-14.996-5.638h-.425c-1.488 0-2.233-.637-3.19-1.488-.744-.64-1.383-1.278-2.446-1.597a3.85 3.85 0 0 0-1.17-.21c-.638 0-1.17.105-1.701.21-.426.107-.851.214-1.17.214-.319 0-.958 0-1.914-1.914-.745-1.49-.532-3.722.638-5.636 1.17-2.022 3.722-4.149 6.912-3.829 3.828.425 6.168 2.02 6.7 4.89 1.063 3.936-1.276 8.616-2.234 9.36M9.911 14.676h.32c.532.106 2.02 1.062 3.403 1.913 4.36 2.765 11.485 7.446 22.014 9.147 9.04 1.49 20.525 3.19 29.883 3.19 5.636 0 9.89-.532 13.187-1.807 4.36-1.597 6.912-4.255 6.806-7.233 0-2.658-2.233-6.699-12.443-10.209-4.253-1.488-7.443-2.553-9.89-3.297-2.127-.637-3.828-1.275-4.786-1.595 1.276-.532 4.042-1.17 6.807-1.49 2.871.533 18.717 5.32 24.778 12.126 1.808 2.02 3.936 5.104 3.404 7.975-.426 2.34-2.553 4.467-6.275 6.275-3.616 1.807-10.315 2.765-19.249 2.765-9.572 0-21.162-1.17-31.585-3.085C19.057 26.161 7.89 19.035 5.02 15.845c1.17-.53 3.403-1.17 4.892-1.17m51.791 4.574l-3.721-.745c-.32-.425-1.064-2.233-1.17-5.744-.108-2.232.212-3.933.425-4.997 1.17.532 2.764 1.064 4.998 1.7 2.34.746 5.636 1.81 9.89 3.297 9.465 3.297 10.21 6.382 10.21 7.233 0 1.276-1.489 2.764-3.83 3.829-5.423-2.446-12.229-3.723-16.802-4.573m32.224 31.797l-.107.106c-.107-.318-.213-.532-.213-.85-.212-.638-.426-1.489-.745-2.446-.105-.214-.105-.32-.212-.533-.106-.85-.213-1.7-.532-2.446-.212-2.339 0-4.678.744-5.741.214-.32.32-.32.426-.32h.213c.956.213 1.702 1.064 2.02 2.66.852 3.827-.745 8.932-1.594 9.57m-2.553 15.207c.105-.424.212-.743.319-1.063.957-.637 2.34-1.276 3.19-1.383.639 1.171 1.49 6.062.32 8.933-.532 1.278-1.17 1.49-1.702 1.596h-.32c-.105 0-.319 0-.53-.106.318-2.765-.32-5.955-1.277-7.977m-9.358 3.084c0-.104.105-.318.105-.424 1.702-.745 4.467-1.809 5.85-1.809h.318c.64.851 1.809 4.893.958 8.19-.532 1.807-1.488 2.978-3.084 3.402-.32.106-.532.106-.745.106-.744 0-1.488-.53-2.126-1.594-.213-.426-.425-.746-.532-1.278.213-2.232-.107-4.784-.744-6.593m-2.766-7.55c.852.427 1.808.639 2.978.639 1.915 0 4.254-.64 6.487-1.702.532-.213.957-.532 1.383-.746a10.71 10.71 0 0 1 1.381 1.703c-1.062.533-1.807 1.063-2.125 1.277l-.32.212-.106.319c-.107.106-.107.318-.213.425-.212 0-.532-.107-.744-.107-2.658 0-6.594 1.809-7.657 2.34-1.702-1.063-3.509-1.808-5.21-2.446 1.595-.32 3.083-.957 4.146-1.914m-2.02-7.551c.106 1.384.213 2.766.32 4.36 0 .32-.107.533-.32.746-.852.956-3.403 1.594-6.38 1.594-2.872 0-5.211-.638-5.957-1.275-.319-.319-.637-1.17-.744-2.34a27.829 27.829 0 0 0-.106-5.105c.106-1.808.531-3.828 1.17-5.636 1.17-2.978 2.765-4.467 4.785-4.467h.214c6.061.425 6.38 2.871 7.017 12.123M89.46 55.62c0 .319 0 .637-.106.958-.745.85-4.361 2.658-7.126 2.658-.744 0-1.17-.107-1.595-.32v-.638c-.107-1.49-.214-2.978-.319-4.254-.212-2.765-.319-5.211-.744-7.337.319-1.915.85-3.617 1.807-4.786.639-.746 1.276-1.17 2.02-1.17h.426c1.383 0 2.553.424 3.403 1.382 2.978 3.19 2.446 10.741 2.234 13.507m7.763 6.061c-.425-.425-1.064-.957-2.233-.957-.745-1.063-1.489-2.127-2.553-3.085.107-.212.107-.532.107-.744 0-.212 0-.53.106-.956 0-.319.107-.746.107-1.277.212 0 .319.106.53.106.746 0 1.49-.319 2.341-.958 2.552-1.7 3.828-8.4 3.084-12.655-.319-1.488-.851-2.764-1.595-3.72.106-3.297-.107-7.233-.214-11.806l-.212-3.616c0-2.127-1.383-5.85-4.254-8.933C84.992 4.892 67.233.212 65.531 0h-.426C55.427 1.063 55.003 3.296 54.79 4.041c-.107.639-.532 2.234-.638 2.551-.957 3.724-1.064 13.294 2.446 14.677.744.32 2.02.532 4.36.956 3.084.532 7.763 1.49 12.123 2.766a52.77 52.77 0 0 1-7.657.531c-9.145 0-20.525-1.7-29.35-3.083-9.68-1.489-16.592-5.85-20.632-8.508-2.021-1.276-3.404-2.127-4.467-2.339-.319-.107-.637-.107-.957-.107-1.382 0-5.849.64-7.764 2.233-.106 0-.212.107-.425.213-.53.32-2.02 1.277-1.808 11.805.106 3.083.425 10.422 2.021 12.868.319.532 1.17 1.17 2.446 2.127-.745 2.233-.639 4.466.319 6.382 1.276 2.444 2.765 3.614 4.785 3.614.639 0 1.276-.107 1.809-.319.425-.105.957-.212 1.064-.105.317.105.743.53 1.275.956 1.064.957 2.659 2.34 5.317 2.34h.85c.426 0 .958-.213 1.384-.638 1.17 2.339 2.551 3.51 4.466 3.51.638 0 1.277-.107 1.702-.32.319-.106.638-.212.85-.212.32 0 .638.532 1.064.85 1.063.957 2.446 2.34 4.892 2.34h.85c.745-.107 1.596-.744 2.234-1.595 1.914 4.36 6.913 6.167 7.125 6.167l.532.213.532-.213c.105-.106 2.765-1.062 4.573-3.297 2.126 1.81 5.955 2.022 9.677 2.022h1.383a2.09 2.09 0 0 0 1.488-.64l.32.32c.106.108.211.108.318.213.425.744.85 1.276 1.49 1.488.637.214 1.488.426 2.658.746 1.17.319 2.766.744 4.466 1.276-.957.107-1.595.318-1.7.318l-.746.106-.319.639c0 .105-.105.212-.105.212l-.213-.212c-.851-.639-2.34-.956-4.467-.956-3.083 0-6.807.636-6.912.743l-.639.106-.425.532c-.212.32-.32.638-.531.958-1.596-1.278-3.936-2.871-4.254-3.19l-.426-.32h-.532c-2.446.107-4.041 1.064-4.999 2.232-.744-.85-1.7-1.275-2.764-1.275-.531 0-1.063.107-1.489.214-.213 0-.425.105-.532.105a1.984 1.984 0 0 1-.744-.637c-.85-.851-2.234-2.022-4.892-1.809a.81.81 0 0 0-.532.212c-.107-.212-.107-.425-.212-.637-1.064-2.234-2.446-3.297-4.148-3.297-.638 0-1.17.105-1.595.212-.213.107-.532.107-.638.107-.213-.107-.533-.424-.958-.744-.956-.958-2.445-2.446-5.316-2.128-.425 0-.745.214-1.17.533-1.064-1.914-2.447-2.872-4.149-2.872-.637 0-1.275.319-1.7.426-.32.106-.639.425-.85.425-.32-1.064-.64-.744-1.065-1.064-1.17-1.063-2.658-2.872-5.743-2.445-1.276.106-2.551 1.7-3.509 3.722a1.695 1.695 0 0 0-1.595.212c-.532.32-2.021 1.277-1.808 11.805.107 3.084.425 10.422 2.02 12.868 2.34 3.509 30.522 18.291 61.043 18.291 8.083 0 16.379-1.064 24.354-3.615 9.146-2.978 10.102-7.657 9.784-20.205.425-.532.85-1.171 1.064-2.129 1.17-3.722.105-10.102-1.277-11.59" fill="#13C180" fill-rule="evenodd"/></svg>