<svg width="85" height="85" viewBox="0 0 85 85" xmlns="http://www.w3.org/2000/svg" xmlns:xlink="http://www.w3.org/1999/xlink"><title>hamburger-icon</title><defs><circle id="b" cx="38.5" cy="38.5" r="38.5"/><filter x="-50%" y="-50%" width="200%" height="200%" filterUnits="objectBoundingBox" id="a"><feOffset dy="2" in="SourceAlpha" result="shadowOffsetOuter1"/><feGaussianBlur stdDeviation="2" in="shadowOffsetOuter1" result="shadowBlurOuter1"/><feColorMatrix values="0 0 0 0 0 0 0 0 0 0 0 0 0 0 0 0 0 0 0.5 0" in="shadowBlurOuter1"/></filter></defs><g fill="none" fill-rule="evenodd"><g opacity=".3" fill="#000" transform="translate(4 2)"><use filter="url(#a)" xlink:href="#b"/><use xlink:href="#b"/></g><path d="M55.981 47.705c0 1.058-1.083 1.918-2.415 1.918-1.331 0-2.415-.86-2.415-1.918v-2.878h4.83v2.878zm0 7.674H29.415v-4.356a5.776 5.776 0 0 0 2.415.519c1.443 0 2.737-.508 3.623-1.307.886.8 2.18 1.307 3.622 1.307 1.444 0 2.737-.508 3.623-1.307.887.8 2.18 1.307 3.623 1.307s2.737-.508 3.623-1.307c.885.8 2.18 1.307 3.622 1.307.88 0 1.704-.19 2.415-.52v4.357zM29.415 44.827h4.83v2.878c0 1.058-1.083 1.918-2.415 1.918-1.331 0-2.415-.86-2.415-1.918v-2.878zm7.246 0h4.83v2.878c0 1.058-1.083 1.918-2.416 1.918-1.332 0-2.414-.86-2.414-1.918v-2.878zm7.245 0h4.83v2.878c0 1.058-1.083 1.918-2.415 1.918s-2.415-.86-2.415-1.918v-2.878zm13.283-1.919H28.207c-.666 0-1.207.43-1.207.959v12.472c0 .53.54.96 1.207.96H57.19c.667 0 1.207-.43 1.207-.96V43.867c0-.53-.54-.959-1.207-.959zm-1.208-11.842a5.776 5.776 0 0 0-2.415-.519c-1.443 0-2.737.508-3.622 1.307-.886-.8-2.18-1.307-3.623-1.307s-2.736.508-3.623 1.307c-.886-.8-2.18-1.307-3.623-1.307-1.442 0-2.736.508-3.622 1.307-.886-.8-2.18-1.307-3.623-1.307a5.76 5.76 0 0 0-2.415.52v-4.358h26.566v4.357zm0 6.196h-4.83v-2.878c0-1.058 1.084-1.918 2.415-1.918 1.332 0 2.415.86 2.415 1.918v2.878zm-7.245 0h-4.83v-2.878c0-1.058 1.083-1.918 2.415-1.918s2.415.86 2.415 1.918v2.878zm-7.245 0h-4.83v-2.878c0-1.058 1.082-1.918 2.414-1.918 1.333 0 2.416.86 2.416 1.918v2.878zm-7.246 0h-4.83v-2.878c0-1.058 1.084-1.918 2.415-1.918 1.332 0 2.415.86 2.415 1.918v2.878zM58.396 25.75c0-.53-.54-.96-1.207-.96H28.207c-.666 0-1.207.43-1.207.96v8.315c0 .036.009.07.014.107-.005.07-.014.14-.014.212v3.838c0 .53.54.959 1.207.959H57.19c.667 0 1.207-.43 1.207-.959v-3.838c0-.072-.008-.142-.013-.212.005-.036.013-.071.013-.107V25.75z" fill="#FFF" opacity=".7"/></g></svg>