<svg width="93" height="119" viewBox="0 0 93 119" xmlns="http://www.w3.org/2000/svg"><title>implantation-icon</title><g fill="#13C180" fill-rule="evenodd"><path d="M31.614 10.096c-12.093 0-21.889 9.91-21.889 22.134 0 1.357 1.09 2.46 2.43 2.46a2.449 2.449 0 0 0 2.437-2.46c0-4.599 1.765-8.923 4.98-12.174 3.222-3.251 7.496-5.043 12.042-5.043 1.337 0 2.429-1.1 2.429-2.456 0-1.36-1.092-2.46-2.43-2.46"/><path d="M85.029 43.63l-6.997 15.199a7.21 7.21 0 0 0-5.073-2.085H19.45c-1.973 0-3.76.8-5.08 2.087L7.383 43.63a27.009 27.009 0 0 1-2.525-11.476c0-7.225 2.788-14.02 7.839-19.129 5.05-5.108 11.769-7.922 18.917-7.922 4.353 0 8.507 1.025 12.34 3.045l2.252 1.187 2.25-1.187a26.227 26.227 0 0 1 12.342-3.045c7.145 0 13.864 2.814 18.917 7.922 5.05 5.11 7.836 11.904 7.836 19.13 0 4.01-.848 7.872-2.522 11.475m-12.07 23.03H19.504c-1.254 0-2.356-.936-2.471-2.196a2.423 2.423 0 0 1 2.418-2.645H72.91c1.251 0 2.354.934 2.469 2.195a2.43 2.43 0 0 1-2.42 2.646m-4.865 9.685H24.318a2.428 2.428 0 0 1-2.432-2.42 2.43 2.43 0 0 1 2.432-2.424h43.776a2.428 2.428 0 0 1 2.427 2.423c0 1.337-1.09 2.42-2.427 2.42m-5.13 9.914h-33.52a2.41 2.41 0 0 1-2.398-2.419c0-1.334 1.073-2.423 2.398-2.423h33.52c1.328 0 2.4 1.089 2.4 2.423a2.408 2.408 0 0 1-2.4 2.419m-4.783 9.915H34.315c-1.253 0-2.354-.936-2.469-2.2-.126-1.432.992-2.641 2.385-2.641h23.868c1.249 0 2.349.933 2.462 2.192.13 1.435-.988 2.649-2.38 2.649m-4.797 9.684H39.027c-1.317 0-2.39-1.084-2.39-2.42 0-1.34 1.073-2.42 2.39-2.42h14.357c1.318 0 2.39 1.08 2.39 2.42 0 1.336-1.072 2.42-2.39 2.42m-7.178 7.533c-1.342 0-2.432-1.104-2.432-2.461h4.859c0 1.357-1.09 2.46-2.427 2.46M60.798.324a31.16 31.16 0 0 0-14.592 3.605A31.166 31.166 0 0 0 31.614.323C14.15.323 0 14.638 0 32.294c0 4.85 1.07 9.448 2.976 13.565l9.22 19.88h.109c.547 2.734 2.593 4.92 5.23 5.645a7.478 7.478 0 0 0-.514 2.718c0 3.406 2.279 6.266 5.381 7.119a7.292 7.292 0 0 0-.516 2.72c0 3.4 2.283 6.266 5.374 7.12a7.474 7.474 0 0 0-.511 2.717c0 3.404 2.278 6.265 5.376 7.116a7.535 7.535 0 0 0-.511 2.72c0 4.074 3.263 7.379 7.296 7.379 0 4.073 3.264 7.378 7.296 7.378s7.296-3.305 7.296-7.378c4.032 0 7.296-3.305 7.296-7.378a7.49 7.49 0 0 0-.514-2.72c3.1-.852 5.38-3.713 5.38-7.117a7.43 7.43 0 0 0-.515-2.716c3.093-.855 5.374-3.722 5.374-7.12 0-.964-.18-1.882-.514-2.721 3.1-.853 5.379-3.713 5.379-7.119 0-.96-.184-1.876-.512-2.718 2.635-.726 4.68-2.911 5.228-5.645h.1l9.227-19.88a32.146 32.146 0 0 0 2.98-13.565c0-17.656-14.151-31.97-31.613-31.97"/></g></svg>