<svg width="106" height="91" viewBox="0 0 106 91" xmlns="http://www.w3.org/2000/svg"><title>metal-ceramic-restavration-icon</title><g fill="none" fill-rule="evenodd"><path d="M92.662 36.558h3.87c.952 0 1.833.446 2.385 1.203.57.771.727 1.735.416 2.627L89.57 70.55c-3.06 9.442-11.855 15.793-21.842 15.793h-29.72c-10.005 0-18.782-6.351-21.842-15.812L6.37 40.404a2.894 2.894 0 0 1 .43-2.644c.552-.757 1.381-1.186 2.384-1.186A21.84 21.84 0 0 1 28.227 47.7a96.09 96.09 0 0 0 1.262 4.342c.035.121.085.258.122.379a79.696 79.696 0 0 0 1.451 4.036c2.022 9.388 10.453 16.187 20.13 16.187h3.351c9.868 0 18.387-6.987 20.218-16.635l.432-2.3c.016-.034.016-.069.035-.104.224-.824.43-1.648.62-2.473.018-.086.037-.153.053-.239.173-.773.363-1.544.519-2.318l.016-.085v-.035l.208-.962c2.557-6.557 8.969-10.935 16.018-10.935m-25.54 27.125a17.149 17.149 0 0 1-12.579 5.494h-3.352c-4.925 0-9.452-2.129-12.614-5.563 2.386-1.27 3.37-3.69 4.008-5.339.468-1.2.882-2.403 1.297-3.622 1.003-2.936 1.952-5.7 3.647-8.137 1.743-2.524 3.905-3.983 5.927-3.983.863 0 1.762.258 2.643.79 2.798 1.665 3.68 4.995 4.612 8.515.278 1.047.538 2.06.865 3.021 1.243 3.948 2.903 7.949 5.546 8.824M35.657 5.365c1.09-.376 2.385-.566 3.887-.566 3.406 0 7.258 1.014 9.85 1.769 2.246.652 3.146.548 4.51.016.293-.102.639-.239 1.106-.41.173-.052.346-.138.52-.207l.172-.068a19.22 19.22 0 0 1 7.239-1.442c2.938 0 5.633.72 7.776 2.095 3.284 2.094 5.477 4.737 6.203 7.43 2.246 8.43-.208 18.576-2.367 27.504-.206.84-.38 1.649-.587 2.473l-.224.513a1.59 1.59 0 0 0-.106.841c-.086.344-.172.706-.24 1.047l-.295 1.305v.017c-.362 1.597-.725 3.262-1.192 4.98-.605 2.213-1.365 4.326-2.489 6.3-.741 1.289-1.209 1.459-1.192 1.477-.138-.035-1.398-.499-3.387-6.61a42.174 42.174 0 0 1-.792-2.832c-1.022-3.864-2.162-8.222-6.187-10.61-4.476-2.644-9.609-.96-13.168 4.206-1.952 2.833-3.025 5.956-4.06 8.977a82.826 82.826 0 0 1-1.244 3.47c-.622 1.595-1.176 2.83-2.23 3.467-.397-.256-1.157-1.185-2.452-4.327l-.14-.325c-.068-.172-.138-.362-.206-.534l-.018-.05a55.546 55.546 0 0 1-.692-1.786c-.033-.086-.051-.154-.086-.221a35.37 35.37 0 0 1-.674-1.993c-.035-.102-.068-.225-.103-.327a87.462 87.462 0 0 1-1.245-4.326l-.017-.051c-1.624-6.284-2.592-12.842-3.543-19.279-.206-1.356-.395-2.728-.603-4.068-1.09-7.038 1.07-15.312 8.276-17.855m67.32 5.443H88.013L80.861 27.7c.622-4.98.638-9.94-.589-14.59-.933-3.52-3.663-6.886-7.671-9.445-2.73-1.732-6.065-2.642-9.66-2.642-2.885 0-5.839.583-8.552 1.7l-.225.102-.26.104c-.518.172-.915.325-1.245.462-.379.156-.657.258-.76.258-.242 0-1.002-.223-1.519-.36-3.043-.91-7.016-1.923-10.836-1.923-1.881 0-3.576.258-5.044.771-9.073 3.193-11.838 13.17-10.557 21.633.206 1.338.395 2.694.605 4.05l.725 4.91-9.28-21.922H2.758c-.95 0-1.727.773-1.727 1.716 0 .945.776 1.716 1.727 1.716h10.955l9.92 23.4a25.53 25.53 0 0 0-14.517-4.514c-2.038 0-3.887.962-5.096 2.608a6.324 6.324 0 0 0-.916 5.717l9.78 30.146c3.524 10.866 13.617 18.18 25.126 18.18h29.719c11.509 0 21.599-7.312 25.142-18.18l9.78-30.146a6.236 6.236 0 0 0-.917-5.7 6.376 6.376 0 0 0-5.184-2.625h-3.87c-4.39 0-8.57 1.424-12.01 3.878l9.625-22.764h12.683c.951 0 1.73-.77 1.73-1.716 0-.943-.779-1.716-1.73-1.716" fill="#13C180"/><path d="M92.662 36.558h3.87c.952 0 1.833.446 2.385 1.203.57.771.727 1.735.416 2.627L89.57 70.55c-3.06 9.442-11.855 15.793-21.842 15.793h-29.72c-10.005 0-18.782-6.351-21.842-15.812L6.37 40.404a2.894 2.894 0 0 1 .43-2.644c.552-.757 1.381-1.186 2.384-1.186A21.84 21.84 0 0 1 28.227 47.7a96.09 96.09 0 0 0 1.262 4.342c.035.121.085.258.122.379a79.696 79.696 0 0 0 1.451 4.036c2.022 9.388 10.453 16.187 20.13 16.187h3.351c9.868 0 18.387-6.987 20.218-16.635l.432-2.3c.016-.034.016-.069.035-.104.224-.824.43-1.648.62-2.473.018-.086.037-.153.053-.239.173-.773.363-1.544.519-2.318l.016-.085v-.035l.208-.962c2.557-6.557 8.969-10.935 16.018-10.935zm-25.54 27.125a17.149 17.149 0 0 1-12.579 5.494h-3.352c-4.925 0-9.452-2.129-12.614-5.563 2.386-1.27 3.37-3.69 4.008-5.339.468-1.2.882-2.403 1.297-3.622 1.003-2.936 1.952-5.7 3.647-8.137 1.743-2.524 3.905-3.983 5.927-3.983.863 0 1.762.258 2.643.79 2.798 1.665 3.68 4.995 4.612 8.515.278 1.047.538 2.06.865 3.021 1.243 3.948 2.903 7.949 5.546 8.824zM35.657 5.365c1.09-.376 2.385-.566 3.887-.566 3.406 0 7.258 1.014 9.85 1.769 2.246.652 3.146.548 4.51.016.293-.102.639-.239 1.106-.41.173-.052.346-.138.52-.207l.172-.068a19.22 19.22 0 0 1 7.239-1.442c2.938 0 5.633.72 7.776 2.095 3.284 2.094 5.477 4.737 6.203 7.43 2.246 8.43-.208 18.576-2.367 27.504-.206.84-.38 1.649-.587 2.473l-.224.513a1.59 1.59 0 0 0-.106.841c-.086.344-.172.706-.24 1.047l-.295 1.305v.017c-.362 1.597-.725 3.262-1.192 4.98-.605 2.213-1.365 4.326-2.489 6.3-.741 1.289-1.209 1.459-1.192 1.477-.138-.035-1.398-.499-3.387-6.61a42.174 42.174 0 0 1-.792-2.832c-1.022-3.864-2.162-8.222-6.187-10.61-4.476-2.644-9.609-.96-13.168 4.206-1.952 2.833-3.025 5.956-4.06 8.977a82.826 82.826 0 0 1-1.244 3.47c-.622 1.595-1.176 2.83-2.23 3.467-.397-.256-1.157-1.185-2.452-4.327l-.14-.325c-.068-.172-.138-.362-.206-.534l-.018-.05a55.546 55.546 0 0 1-.692-1.786c-.033-.086-.051-.154-.086-.221a35.37 35.37 0 0 1-.674-1.993c-.035-.102-.068-.225-.103-.327a87.462 87.462 0 0 1-1.245-4.326l-.017-.051c-1.624-6.284-2.592-12.842-3.543-19.279-.206-1.356-.395-2.728-.603-4.068-1.09-7.038 1.07-15.312 8.276-17.855zm67.32 5.443H88.013L80.861 27.7c.622-4.98.638-9.94-.589-14.59-.933-3.52-3.663-6.886-7.671-9.445-2.73-1.732-6.065-2.642-9.66-2.642-2.885 0-5.839.583-8.552 1.7l-.225.102-.26.104c-.518.172-.915.325-1.245.462-.379.156-.657.258-.76.258-.242 0-1.002-.223-1.519-.36-3.043-.91-7.016-1.923-10.836-1.923-1.881 0-3.576.258-5.044.771-9.073 3.193-11.838 13.17-10.557 21.633.206 1.338.395 2.694.605 4.05l.725 4.91-9.28-21.922H2.758c-.95 0-1.727.773-1.727 1.716 0 .945.776 1.716 1.727 1.716h10.955l9.92 23.4a25.53 25.53 0 0 0-14.517-4.514c-2.038 0-3.887.962-5.096 2.608a6.324 6.324 0 0 0-.916 5.717l9.78 30.146c3.524 10.866 13.617 18.18 25.126 18.18h29.719c11.509 0 21.599-7.312 25.142-18.18l9.78-30.146a6.236 6.236 0 0 0-.917-5.7 6.376 6.376 0 0 0-5.184-2.625h-3.87c-4.39 0-8.57 1.424-12.01 3.878l9.625-22.764h12.683c.951 0 1.73-.77 1.73-1.716 0-.943-.779-1.716-1.73-1.716z" stroke="#13C180"/></g></svg>