<svg width="44" height="44" viewBox="0 0 44 44" xmlns="http://www.w3.org/2000/svg" xmlns:xlink="http://www.w3.org/1999/xlink"><title>money-icon</title><defs><path id="a" d="M43.015 0v43.015H0V0h43.015z"/></defs><g fill="none" fill-rule="evenodd"><mask id="b" fill="#fff"><use xlink:href="#a"/></mask><path d="M20.71 14.338h4.78c1.614 0 3.187 1.45 3.187 3.187 0 1.736-1.573 3.186-3.187 3.186h-4.78v-6.373zM14.888 9.56c-1.252.065-2.142 1.136-2.142 2.39 0 1.593 1.139 2.454 2.39 2.39h.797v6.372h-.797c-1.262-.018-2.39 1.127-2.39 2.39 0 1.592 1.128 2.407 2.39 2.39h.797v1.592h-.797a2.39 2.39 0 1 0 0 4.78h.797v.796c-.018 1.263 1.127 2.39 2.389 2.39 1.263 0 2.409-1.127 2.39-2.39v-.796h5.576a2.39 2.39 0 1 0 0-4.78H20.71V25.49h4.779c4.296 0 7.966-3.524 7.966-7.965 0-4.442-3.67-7.966-7.966-7.966H14.887zm6.62-4.78a16.692 16.692 0 0 1 16.729 16.728 16.692 16.692 0 0 1-16.728 16.728 16.693 16.693 0 0 1-16.73-16.728A16.693 16.693 0 0 1 21.509 4.78zm0-4.779C9.658 0 0 9.657 0 21.507s9.658 21.508 21.508 21.508c11.849 0 21.508-9.658 21.508-21.508S33.356 0 21.508 0z" fill="#13C180" mask="url(#b)"/></g></svg>