<svg width="95" height="110" viewBox="0 0 95 110" xmlns="http://www.w3.org/2000/svg" xmlns:xlink="http://www.w3.org/1999/xlink"><title>none-metall-crowns-icon</title><defs><path id="a" d="M0 109.954h94.237V.001H0z"/></defs><g fill="none" fill-rule="evenodd"><mask id="b" fill="#fff"><use xlink:href="#a"/></mask><path d="M85.337 71.506c-.842 3.281-1.704 6.69-2.453 10.063l-.531 2.4c-1.43 6.505-2.914 13.23-6.21 19.04-1.594 2.783-2.637 2.986-2.932 2.986-.659 0-3.057-.86-6.63-11.838-.493-1.522-.915-3.115-1.355-4.818-1.446-5.535-3.057-11.73-7.782-15.707l-.036-.036a16.393 16.393 0 0 0-2.016-1.447c-6.996-4.16-14.944-1.467-20.568 6.762-3.168 4.637-4.926 9.822-6.63 14.825-.66 1.943-1.336 3.94-2.087 5.883-1.17 3.006-2.272 5.424-4.597 6.615-2.07-.514-4.286-5.919-5.148-8.026l-.256-.512c-6.208-15.01-8.661-31.85-11.025-48.161-.328-2.29-.659-4.581-1.007-6.855l-.11-.768c-.257-1.633-.348-2.218-.293-3.428h86.464c.732 11.345-2.07 22.358-4.798 33.022zM55.814 86.717a191.1 191.1 0 0 0-1.229 2.346l-.128.257c-1.282 2.638-2.873 5.919-5.457 6.69a3.84 3.84 0 0 1-1.19.18c-4.286 0-8.664-6.815-11.136-12.642l-.165-.387c.203-.348.384-.66.568-.969.239-.405.495-.788.75-1.193 3.096-4.545 7.015-7.145 10.734-7.145 1.649 0 3.296.493 4.926 1.465.586.348 1.117.751 1.612 1.174.184.164.348.348.532.512.292.275.567.549.823.86.239.293.478.606.698.916.145.203.292.406.42.604.292.459.587.956.843 1.469.036.053.055.11.091.164-.678 1.887-1.74 3.902-2.692 5.7zM13.341 34.82h67.766v-1.832H13.34v1.832zm0-5.5h67.766v-1.83H13.34v1.83zm-8.938-5.496C5.668 14.678 10.449 8.743 19.02 5.7c2.287-.807 5.035-1.227 8.186-1.227 5.769 0 11.54 1.336 15.366 2.472 1.87.55 2.857.807 3.847.807 1.06 0 1.866-.312 2.984-.752.495-.2 1.118-.44 1.925-.715.256-.092.512-.2.768-.311l.292-.129c3.462-1.41 7.345-2.179 11.228-2.179 5.365 0 10.604 1.464 14.743 4.122 5.696 3.665 9.523 8.32 10.788 13.102.237.899.44 1.522.621 2.054.111.311.203.585.275.88H4.403zM93.469 34.82h-8.7v-1.832h3.664V29.32H84.77v-1.832h9.467l-.2-2.015c-.184-1.87-.459-2.713-.79-3.703a19.73 19.73 0 0 1-.548-1.832c-1.502-5.663-5.88-11.087-12.343-15.247C75.558 1.63 69.77 0 63.616 0 59.257 0 54.88.86 50.96 2.492l-.348.147c-.164.073-.348.148-.514.22-.843.295-1.502.55-2.033.75-.952.367-1.3.497-1.647.497-.478 0-1.302-.222-2.82-.662-4.05-1.189-10.185-2.62-16.393-2.62-3.571 0-6.722.477-9.395 1.431C7.26 5.974 1.455 13.799.539 25.51l-.164 1.978h9.304v1.832H6.016v3.667h3.663v1.832H.266l-.13 1.686c-.237 2.933-.164 3.481.22 5.958l.11.749c.349 2.273.68 4.544 1.008 6.835 2.398 16.53 4.89 33.61 11.264 49.04l.22.532c1.574 3.866 4.23 10.336 8.844 10.336h.367l.348-.147c4.23-1.796 5.824-5.864 6.978-8.833.787-1.998 1.485-4.05 2.144-6.03.879-2.6 1.739-5.113 2.782-7.532 2.308 4.675 7.089 12.462 13.389 12.462.75 0 1.502-.11 2.235-.328 4.12-1.228 6.19-5.482 7.71-8.597l.128-.256c.312-.66.715-1.41 1.154-2.237.44-.824.916-1.72 1.372-2.674a89.97 89.97 0 0 1 1.246 4.508c.44 1.667.898 3.407 1.412 5.02 2.306 7.11 5.31 14.369 10.108 14.369 2.253 0 4.25-1.576 6.118-4.84 3.59-6.284 5.127-13.283 6.612-20.065l.53-2.382c.752-3.317 1.614-6.69 2.437-9.952 2.93-11.488 5.971-23.385 4.743-35.936l-.146-1.686z" fill="#13C180" mask="url(#b)"/></g></svg>