<svg width="15" height="15" viewBox="0 0 15 15" xmlns="http://www.w3.org/2000/svg"><title>phone-small-icon</title><g fill-rule="evenodd"><path d="M7.5 0v1.868a5.597 5.597 0 0 1 5.605 5.605h1.868A7.47 7.47 0 0 0 7.5 0"/><path d="M7.5 5.605c1.027 0 1.868.84 1.868 1.868h1.868A3.748 3.748 0 0 0 7.5 3.736v1.869zM6.37 13.87a3.748 3.748 0 0 0 2.654 1.103h.317a3.748 3.748 0 0 0 3.737-3.737L9.34 9.368l-1.868 1.868L3.736 7.5l1.869-1.868-1.869-3.737A3.747 3.747 0 0 0 0 5.632v.317c0 .99.392 1.943 1.102 2.635l5.269 5.287z"/></g></svg>