<svg width="108" height="108" viewBox="0 0 108 108" xmlns="http://www.w3.org/2000/svg" xmlns:xlink="http://www.w3.org/1999/xlink"><title>protez-icon</title><defs><path id="a" d="M0 0h107.46v107.372H0z"/></defs><g fill="none" fill-rule="evenodd"><mask id="b" fill="#fff"><use xlink:href="#a"/></mask><path d="M103.27 78.702c-.575 1.379-1.264 1.609-1.839 1.724h-.344c-.115 0-.345 0-.575-.115.345-2.988-.345-6.434-1.379-8.617.115-.46.23-.805.345-1.15 1.034-.689 2.528-1.378 3.447-1.493.69 1.264 1.608 6.549.344 9.651m-9.995 21.628c-8.27 2.605-16.766 3.737-25.033 3.737-31.605 0-60.15-15.405-62.076-18.01-.907-1.472-1.473-7.25-1.586-12.46 1.473 2.492 4.305 4.077 8.043 4.53h.456s4.251-1.148 5.974-2.527c1.035 3.447 8.388 5.974 8.388 5.974h.383c2.112 0 4.099-.744 5.838-1.986.87 3.726 3.851 6.085 8.447 6.582h.418c2.039 0 3.965-.793 5.55-2.265.227.68.567 1.472 1.021 2.151 1.246 2.04 3.17 3.399 5.323 3.853.34.114.793.114 1.133.114 1.36 0 3.965-.568 5.663-4.76.114-.113.114-.34.114-.452 0 .113.114.226.114.339 1.698 3.058 4.304 4.759 7.362 4.759.34 0 .68 0 1.133-.114 2.606-.34 4.644-1.7 5.778-3.851 1.472 2.492 3.624 3.851 6.116 3.851.34 0 .68 0 1.019-.112 2.153-.34 3.852-1.475 4.871-3.286 1.473 1.585 3.059 2.039 4.192 2.039a5.14 5.14 0 0 0 1.811-.34c2.38-.68 4.078-2.266 4.985-4.532.453.114.906.228 1.36.228.34 0 .679 0 1.019-.114.453 11.781-.793 14.387-7.816 16.652M8.482 60.434c1.379-.115 2.068.46 3.102 1.494.69.574 1.38 1.378 2.413 1.723.92.345 2.068.115 2.872-.115.345-.115.69-.23 1.035-.23.23 0 .804 0 1.723 1.839.804 1.608.46 4.021-.804 5.974-1.379 2.183-3.562 3.562-5.745 3.562h-.574c-3.562-.345-5.63-1.953-6.32-4.596-.919-3.791 1.264-8.732 2.298-9.651m14.936 6.549c.345-.69.69-1.149.92-1.379 1.149-.115 1.723.46 2.757 1.379.574.574 1.264 1.264 2.183 1.608.804.345 1.953.115 2.643 0 .344-.114.689-.114.919-.114.46 0 .919.574 1.378 1.608.69 1.379.345 3.562-.689 5.4-1.379 2.183-3.447 3.332-5.63 3.102-3.102-.344-4.94-1.723-5.63-4.021-.23-.69-.23-1.494-.23-2.298.92-1.723 1.38-3.562 1.38-5.285m15.51 5.4c.92 0 1.494.345 2.298 1.034.574.46 1.149 1.034 2.068 1.379.804.23 1.723.115 2.413 0 .344-.115.574-.115.804-.115.345 0 .69.46 1.149 1.264.574 1.034.345 2.642-.574 4.021-.805 1.379-2.413 2.757-4.481 2.757h-.46c-2.757-.344-4.366-1.378-4.825-3.217-.805-2.872.804-6.319 1.608-7.123m12.294 3.447c.46-1.264 1.264-2.298 3.332-2.643 1.263.92 3.676 2.643 4.595 3.447.345 1.149.115 5.63-1.608 8.272-.804 1.264-1.494 1.264-1.724 1.264h-.46c-1.378-.23-2.412-1.034-3.216-2.413-.804-1.263-1.15-2.872-1.379-4.136.46-1.264.575-2.527.46-3.791m12.523-.804c1.264-.23 3.906-.575 6.09-.575 2.182 0 2.757.345 2.757.345.69.574 2.068 4.94 1.034 8.272-.575 1.838-1.838 2.872-3.677 3.102h-.689c-1.838 0-3.332-1.034-4.366-2.987-1.608-2.757-1.723-6.434-1.149-8.157m14.017-.575c1.149-.23 3.332-.574 5.055-.574 1.724 0 2.183.344 2.183.344.69.805 2.068 5.86.805 9.307-.69 2.068-2.068 2.527-2.988 2.642h-.574c-.46 0-1.953 0-3.217-2.298-1.609-2.987-1.723-7.468-1.264-9.42m-.804-8.158c-3.102 0-5.63-.69-6.434-1.38-.345-.344-.69-1.263-.804-2.527a30.053 30.053 0 0 0-.115-5.515c.115-1.953.574-4.136 1.263-6.089 1.264-3.217 2.988-4.826 5.17-4.826h.23c6.55.46 6.894 3.103 7.583 13.098.115 1.494.23 2.988.345 4.711 0 .345-.115.574-.345.804-.919 1.034-3.676 1.724-6.893 1.724m9.88-8.273c-.23-2.987-.344-5.63-.804-7.927.345-2.068.92-3.907 1.954-5.17.689-.805 1.378-1.264 2.183-1.264h.46c1.493 0 2.757.46 3.676 1.493 3.217 3.447 2.642 11.604 2.413 14.592 0 .344 0 .689-.115 1.034-.805.919-4.711 2.872-7.698 2.872-.804 0-1.264-.115-1.724-.345v-.689c-.115-1.608-.23-3.217-.344-4.596m10.11 9.996l-.344.23-.115.344c-.115.115-.115.345-.23.46-.23 0-.574-.115-.804-.115-2.873 0-7.124 1.953-8.273 2.528-1.838-1.15-3.791-1.953-5.63-2.643 1.724-.344 3.333-1.034 4.481-2.068.92.46 1.954.69 3.217.69 2.069 0 4.596-.69 7.009-1.839.574-.23 1.034-.574 1.494-.804a11.6 11.6 0 0 1 1.493 1.838c-1.149.575-1.953 1.15-2.298 1.379m-7.965 6.673l.143-.35c1.839-.805 4.832-1.957 6.329-1.957h.344c.69.92 1.954 5.285 1.034 8.847-.574 1.953-1.608 3.217-3.331 3.676-.345.115-.575.115-.805.115-.804 0-1.608-.574-2.298-1.723-.23-.46-.46-.804-.574-1.379.234-2.456-.129-5.27-.842-7.229M67.538 48.945c-.115.23-.115.46-.23.689-.69-1.494-2.298-2.872-4.596-3.447-.46-.115-.92-.23-1.379-.23-2.068 0-3.906 1.15-5.285 3.217-1.034-2.757-2.987-5.055-6.664-5.514h-.574c-1.264 0-3.102.574-5.055 3.102-.23.344-.575.804-.805 1.149-1.378-3.102-4.366-5.056-8.617-5.515-2.298-.23-4.48.344-6.434 1.723-.69-4.94-4.366-8.157-10.455-8.732-.345 0-.69-.115-1.149-.115-3.562 0-7.123 1.954-9.306 5.17-.69-.459-1.15-.804-1.38-1.148-1.378-2.183-1.952-14.017-1.378-19.532 2.068 1.953 5.4 4.25 9.536 6.319 5.17 2.642 13.788 6.319 25.392 8.502 11.49 2.183 24.242 3.447 34.813 3.447 7.123 0 16.774-.575 22.289-3.332 1.838-.92 3.447-1.953 4.71-3.102v.344c.345-.345.575-.575.805-.92.115 2.643.115 5.056.115 7.009-1.609-.23-2.987.344-4.022 1.723-.46.69-.804 1.609-1.148 2.528-1.724-1.494-3.792-2.183-6.434-2.068-1.839.115-3.447 1.034-4.711 2.527-.46.575-.92 1.38-1.264 2.183-1.494-1.953-3.906-3.102-7.813-3.332-4.021-.23-7.123 2.413-8.961 7.354M65.814 64.34h-.804c-2.183 0-6.894 0-8.387-1.378-.23-.23-.345-.92-.345-1.839.115-1.149.23-2.527.345-4.136.343-2.062 1.2-4.382 2.188-5.804.488-.702 1.311-1.09 2.166-1.09.237 0 .353 0 .586.116 1.838.46 3.102 1.838 4.021 4.25 1.38 3.907.805 8.503.23 9.881m-12.753-8.157a25.119 25.119 0 0 0-.345 4.136c-.23 2.643-2.642 4.136-3.791 4.71-1.264-.574-4.366-2.297-5.285-5.17-.805-2.642.46-8.042 2.642-11.03.805-1.033 1.609-1.723 2.183-1.723h.115c3.792.46 4.596 4.251 4.481 9.077m-15.396 4.71h-.23c-1.263 0-1.953-.574-2.872-1.493-.69-.574-1.379-1.379-2.413-1.723-.344-.115-.804-.23-1.149-.23-.574 0-1.149.115-1.723.23-.345.114-.69.23-1.034.23-.23 0-.804 0-1.723-1.839-.345-.69-.46-1.379-.46-2.183a14.163 14.163 0 0 0 1.264-3.906c1.493-2.413 3.906-3.677 6.319-3.447 3.562.345 5.63 1.953 6.32 4.596.918 3.906-1.265 8.846-2.299 9.766M21.465 54h-.46c-1.608 0-2.412-.69-3.446-1.609-.804-.689-1.494-1.378-2.643-1.723-.344-.115-.804-.23-1.264-.23-.689 0-1.263.115-1.838.23-.46.115-.919.23-1.264.23-.344 0-1.034 0-2.068-2.068-.804-1.609-.574-4.021.69-6.09 1.263-2.183 4.02-4.48 7.468-4.136 4.136.46 6.664 2.183 7.238 5.285 1.149 4.251-1.379 9.307-2.413 10.111M97.64 16.545c1.953 2.183 4.25 5.515 3.676 8.617-.46 2.527-2.757 4.825-6.778 6.778-3.907 1.954-11.145 2.988-20.796 2.988-10.34 0-22.864-1.264-34.124-3.332C21.35 28.264 9.401 20.796 6.07 17.234c4.826-1.379 62.618-13.328 64.8-13.787h.115c2.988.574 20.107 5.744 26.656 13.098m5.974 28.838c.92 4.136-.804 9.651-1.723 10.34l-.115.115c-.115-.344-.23-.574-.23-.919-.23-.69-.46-1.608-.804-2.642-.115-.23-.115-.345-.23-.575-.115-.919-.23-1.838-.574-2.642-.23-2.528 0-5.056.804-6.205.23-.344.345-.344.46-.344h.23c1.033.23 1.837 1.149 2.182 2.872m1.923 21.366c-.461-.462-1.15-1.038-2.417-1.038-.805-1.15-1.61-2.301-2.762-3.336.115-.23.115-.576.115-.806 0-.23 0-.575.115-1.035 0-.346.116-.807.116-1.382.23 0 .343.116.574.116.806 0 1.611-.346 2.533-1.036 2.762-1.842 4.142-9.09 3.336-13.695-.345-1.612-.92-2.993-1.726-4.028.116-3.568-.116-7.826-.23-12.774l-.23-3.913c0-2.302-1.496-6.33-4.603-9.667C92.302 5.293 73.083.23 71.242 0h-.068C66.99.464 4.556 13.254 2.464 14.998c-.116 0-.232.115-.465.232-.58.35-2.208 1.396-1.976 12.905.116 3.372.465 11.393 2.209 14.068.348.581 1.279 1.28 2.674 2.325-.814 2.442-.699 4.883.348 6.975 1.395 2.674 3.023 3.954 5.232 3.954.699 0 1.395-.116 1.976-.35.465-.115 1.047-.232 1.164-.115.347.116.813.58 1.394 1.045 1.162 1.048 2.908 2.559 5.813 2.559h1.39c.442 0 .994-.22 1.437-.663 1.215 2.43 2.651 3.645 4.64 3.645.662 0 1.325-.11 1.766-.33.332-.11.663-.222.885-.222.33 0 .663.552 1.105.884 1.104.994 2.54 2.43 5.08 2.43h1.648c.78-.111 1.669-.779 2.335-1.667 2.001 4.56 7.227 6.448 7.45 6.448l.556.222.556-.222c.111-.111 2.89-1.112 4.782-3.447 2.223 1.891 6.225 2.113 10.117 2.113h1.96c.522 0 1.044-.209 1.463-.627l.312.315c.105.103.21.103.314.208.418.732.835 1.253 1.463 1.462.626.208 1.462.418 2.611.731 1.15.314 2.715.73 4.387 1.253-.94.105-1.567.314-1.672.314l-.73.104-.314.627c0 .104-.105.209-.105.209l-.209-.21c-.835-.626-2.298-.939-4.387-.939-3.028 0-6.685.627-6.789.732l-.626.104-.42.522c-.207.313-.312.627-.52.94-1.567-1.254-3.865-2.82-4.178-3.134l-.419-.313h-1.59c-2.647.116-4.374 1.151-5.409 2.417-.806-.921-1.842-1.382-2.993-1.382-.575 0-1.15.116-1.61.231-.23 0-.461.115-.576.115a2.169 2.169 0 0 1-.806-.69c-.92-.92-2.417-2.187-5.294-1.957-.23 0-.46.115-.576.23-.113-.23-.113-.46-.23-.69-1.15-2.416-2.646-3.567-4.487-3.567-.69 0-1.266.114-1.726.23-.23.115-.575.115-.691.115-.23-.115-.576-.461-1.036-.806-1.036-1.036-2.647-2.647-5.754-2.302-.46 0-.805.23-1.267.575-1.149-2.07-2.646-3.106-4.488-3.106-.689 0-1.38.344-1.84.46-.345.115-.69.46-.92.46-.346-1.15-.692-.805-1.152-1.15-1.266-1.151-2.877-3.108-6.214-2.647-1.381.115-2.762 1.841-3.797 4.027a1.84 1.84 0 0 0-1.727.23C1.962 61.224.35 62.259.58 73.654c.116 3.337.46 11.278 2.186 13.925 2.533 3.797 33.029 19.794 66.059 19.794 8.745 0 17.722-1.152 26.353-3.913 9.897-3.222 10.933-8.286 10.588-21.865.46-.576.92-1.266 1.15-2.302 1.266-4.027.115-10.934-1.38-12.543" fill="#13C180" mask="url(#b)"/></g></svg>