<svg width="28" height="61" viewBox="0 0 28 61" xmlns="http://www.w3.org/2000/svg"><title>refractor-small-icon</title><path d="M23.094 56.797h1.843l.199 2.098h-2.042v-2.098zm-4.208 2.098h2.103v-2.098h-2.103v2.098zm-4.206 0h2.103v-2.098H14.68v2.098zm-4.208 0h2.103v-2.098h-2.103v2.098zm-4.205 0H8.37v-2.098H6.267v2.098zm-3.858-2.098h1.755v2.098H2.211l.198-2.098zm1.22-12.822c.168.115.361.193.58.193H23.14c.217 0 .41-.078.577-.193l1.019 10.72H2.61l1.018-10.72zm9.688-14.196l2.23 2.233a3.16 3.16 0 0 1 0 4.465 3.157 3.157 0 0 1-4.463 0 3.165 3.165 0 0 1 0-4.465l2.233-2.233zm0-2.538c-.27 0-.539.102-.744.308l-2.974 2.977a5.26 5.26 0 0 0 0 7.434 5.227 5.227 0 0 0 3.718 1.537c1.346 0 2.69-.511 3.716-1.537a5.26 5.26 0 0 0 0-7.434l-2.972-2.977a1.05 1.05 0 0 0-.744-.308zm-7.902-2h16.521l1.61 16.91a1.086 1.086 0 0 0-.405-.083H4.208c-.142 0-.279.032-.401.083l1.608-16.91zm.798-8.402c2.267 1.35 4.81 2.09 7.461 2.09 2.649 0 5.192-.74 7.462-2.09l.595 6.299H5.618l.595-6.299zm2.727-4.217h9.461l1.787 2.381c-3.94 2.394-9.091 2.394-13.035 0l1.787-2.381zm3.591-2.106h2.355v-2.12h-2.355v2.12zm-.22-8.413h2.74c.513 0 .954.367 1.04.876l.563 3.315h-5.917l.534-3.308a1.046 1.046 0 0 1 1.04-.883zm0-2.103a3.144 3.144 0 0 0-3.119 2.649L8.46 7.175c-.049.306.04.617.238.852.2.232.492.37.803.37h.932v2.12h-2.02c-.327 0-.643.154-.839.418L4.42 15.143a1.016 1.016 0 0 0-.206.529L.005 59.845A1.054 1.054 0 0 0 1.052 61h25.244a1.048 1.048 0 0 0 1.043-1.155l-4.203-44.168a1.067 1.067 0 0 0-.206-.534l-3.155-4.208a1.053 1.053 0 0 0-.842-.419h-1.944v-2.12h.908c.309 0 .607-.14.805-.374.201-.235.287-.548.235-.854l-.773-4.544A3.148 3.148 0 0 0 15.05 0h-2.74z" fill="#13C180" fill-rule="evenodd"/></svg>