<svg width="42" height="43" viewBox="0 0 42 43" xmlns="http://www.w3.org/2000/svg" xmlns:xlink="http://www.w3.org/1999/xlink"><title>technology-gray-icon</title><defs><path id="a" d="M0 41.937V.076h41.924v41.86z"/></defs><g fill="none" fill-rule="evenodd"><g transform="translate(0 .27)"><mask id="b" fill="#fff"><use xlink:href="#a"/></mask><path d="M20.962.076c11.577 0 20.962 9.37 20.962 20.93s-9.385 20.93-20.962 20.93S0 32.567 0 21.007 9.385.076 20.962.076z" fill="#9B9B9B" mask="url(#b)"/></g><path d="M28.185 24.682c.072-.672.17-1.396.317-2.186h-5.594a2.122 2.122 0 0 1-1.634 1.63v.407c1.521.392 3.1 4.059 2.06 11.268 5.317-4.063 4.315-6.121 4.85-11.12m-.456-7.772a1.242 1.242 0 0 0-2.483 0 1.242 1.242 0 0 0 2.483 0m-5.464-4.824c-.685 0-1.242.556-1.242 1.24a1.242 1.242 0 0 0 2.483 0c0-.684-.557-1.24-1.241-1.24m-.187 9.973a1.242 1.242 0 0 0-2.483 0 1.242 1.242 0 0 0 2.483 0" fill="#FFF"/><path d="M18.718 22.058a2.118 2.118 0 0 1 4.19-.437h5.77c.07-.314.143-.635.227-.97.954-3.77 2.172-7.9-.77-10.714H26.39l-2.31 2.305c.19.318.302.687.302 1.082a2.119 2.119 0 0 1-4.236 0c0-1.165.95-2.114 2.118-2.114.455 0 .875.145 1.22.39l2.543-2.538h.86c-.998-.431-2.031-.322-2.619-.04-1.868.893-2.664 1.204-3.663 1.014v.66l-4.077 4.07c.176.31.277.665.277 1.044a2.119 2.119 0 0 1-4.235 0c0-1.166.95-2.115 2.117-2.115.471 0 .906.156 1.258.417l3.783-3.778v-.558a23.78 23.78 0 0 1-1.264-.538c-.668-.3-2.24-.933-3.844.183-4.193 2.914-2.447 7.075-1.527 11.969.052.277.1.547.143.811l5.739-5.73h5.44a2.119 2.119 0 0 1 4.19.437 2.119 2.119 0 0 1-4.19.438h-5.077l-4.932 4.925-1.008 1.007c.9 6.62-.544 8.94 5.22 12.487-.978-6.972.25-10.408 1.78-11.125v-.514a2.118 2.118 0 0 1-1.68-2.068" fill="#FFF"/><path d="M13.446 15.81a1.242 1.242 0 0 0 2.483 0 1.242 1.242 0 0 0-2.483 0" fill="#FFF"/></g></svg>